<svg width="460" height="160" viewBox="0 0 460 160" fill="none" xmlns="http://www.w3.org/2000/svg">
<path d="M65.7844 121.175C61.2668 117.045 59.9479 108.368 61.8301 102.082C65.0937 106.045 69.6157 107.301 74.2995 108.009C81.5304 109.103 88.6317 108.694 95.3488 105.389C96.1172 105.011 96.8274 104.507 97.667 103.998C98.2973 105.826 98.4613 107.672 98.2411 109.551C97.7058 114.127 95.4287 117.662 91.8068 120.341C90.3585 121.413 88.8259 122.371 87.3301 123.382C82.7348 126.487 81.4915 130.129 83.2183 135.427C83.2593 135.556 83.296 135.685 83.3888 136C81.0426 134.95 79.3287 133.421 78.0229 131.411C76.6436 129.289 75.9874 126.942 75.9529 124.403C75.9356 123.167 75.9356 121.92 75.7694 120.702C75.3636 117.732 73.9693 116.402 71.3424 116.325C68.6465 116.247 66.514 117.913 65.9484 120.538C65.9053 120.739 65.8427 120.938 65.7801 121.172L65.7844 121.175Z" fill="currentColor"/>
<path d="M40 101.034C40 101.034 53.3775 94.5177 66.7924 94.5177L76.9068 63.2155C77.2855 61.7017 78.3911 60.6729 79.6393 60.6729C80.8875 60.6729 81.9932 61.7017 82.3719 63.2155L92.4862 94.5177C108.374 94.5177 119.279 101.034 119.279 101.034C119.279 101.034 96.5558 39.133 96.5114 39.0088C95.8592 37.1787 94.7583 36 93.274 36H66.007C64.5227 36 63.4662 37.1787 62.7696 39.0088C62.7205 39.1307 40 101.034 40 101.034Z" fill="currentColor"/>
<path d="M181.043 81.1218C181.043 86.607 174.22 89.8829 164.773 89.8829C158.624 89.8829 156.45 88.3592 156.45 85.1595C156.45 81.8074 159.149 80.2076 165.297 80.2076C170.846 80.2076 175.569 80.2837 181.043 80.9694V81.1218ZM181.117 74.3414C177.744 73.5796 172.645 73.1225 166.572 73.1225C148.877 73.1225 140.555 77.3126 140.555 87.0641C140.555 97.1966 146.253 101.082 159.449 101.082C170.621 101.082 178.193 98.2632 180.968 91.3304H181.417C181.342 93.0065 181.267 94.6825 181.267 95.9776C181.267 99.5583 181.867 99.863 184.791 99.863H198.587C197.837 97.7299 197.387 91.7113 197.387 86.5308C197.387 80.9694 197.612 76.7793 197.612 71.1417C197.612 59.6379 190.715 52.3242 169.121 52.3242C159.824 52.3242 149.477 53.9241 141.605 56.2858C142.354 59.4093 143.404 65.7326 143.929 69.8465C150.752 66.6468 160.424 65.2755 167.922 65.2755C178.268 65.2755 181.117 67.6372 181.117 72.4368V74.3414Z" fill="currentColor"/>
<path d="M218.968 84.3234C217.094 84.5519 214.544 84.5519 211.92 84.5519C209.146 84.5519 206.597 84.4758 204.872 84.2472C204.872 84.8567 204.797 85.5423 204.797 86.1518C204.797 95.6748 211.02 101.236 232.914 101.236C253.532 101.236 260.205 95.751 260.205 86.0756C260.205 76.9335 255.782 72.4387 236.213 71.4483C220.992 70.7626 219.643 69.0866 219.643 67.182C219.643 64.9727 221.592 63.8299 231.789 63.8299C242.361 63.8299 245.21 65.2774 245.21 68.3248V69.0104C246.709 68.9342 249.409 68.8581 252.183 68.8581C254.807 68.8581 257.656 68.9342 259.306 69.0866C259.306 68.4009 259.381 67.7915 259.381 67.2582C259.381 56.0591 250.083 52.4023 232.089 52.4023C211.845 52.4023 205.022 57.3543 205.022 67.0296C205.022 75.7146 210.496 81.1237 229.915 81.9617C244.235 82.4188 245.81 84.0187 245.81 86.228C245.81 88.5897 243.485 89.6563 233.439 89.6563C221.892 89.6563 218.968 88.0564 218.968 84.7805V84.3234Z" fill="currentColor"/>
<path d="M284.955 44.1719C279.482 49.2763 269.661 54.3806 264.188 55.7519C264.263 58.5707 264.262 63.7512 264.262 66.57L269.285 66.6462C269.21 72.0553 269.135 78.6071 269.135 82.9496C269.135 93.082 274.459 100.7 291.029 100.7C298.002 100.7 302.65 99.9386 308.423 98.7197C307.823 94.9866 307.148 89.2728 306.923 84.9304C303.474 86.0731 299.126 86.6826 294.327 86.6826C287.654 86.6826 284.955 84.8542 284.955 79.5975C284.955 75.0265 284.955 70.7601 285.03 66.7986C293.577 66.8748 302.125 67.0271 307.148 67.1795C307.073 63.2179 307.223 57.5041 307.448 53.6949C300.175 53.8473 292.003 53.9235 285.255 53.9235C285.33 50.5714 285.405 47.3717 285.48 44.1719H284.955Z" fill="currentColor"/>
<path d="M329.737 64.2862C329.812 60.3246 329.887 56.9726 329.962 53.6966H314.891C315.116 60.2485 315.116 66.9527 315.116 76.7804C315.116 86.6081 315.041 93.3885 314.891 99.8641H332.136C331.836 95.2931 331.761 87.5985 331.761 81.0467C331.761 70.6857 335.96 67.7145 345.482 67.7145C349.906 67.7145 353.055 68.2478 355.829 69.2382C355.904 65.3528 356.654 57.8106 357.103 54.4585C354.254 53.6205 351.105 53.0872 347.281 53.0872C339.109 53.011 333.111 56.3631 330.337 64.3624L329.737 64.2862Z" fill="currentColor"/>
<path d="M404.811 76.4745C404.811 84.7786 398.813 88.664 389.366 88.664C379.994 88.664 373.996 85.0071 373.996 76.4745C373.996 67.9419 380.069 64.7422 389.366 64.7422C398.738 64.7422 404.811 68.1705 404.811 76.4745ZM420.481 76.0936C420.481 59.5617 407.585 52.1719 389.366 52.1719C371.072 52.1719 358.625 59.5617 358.625 76.0936C358.625 92.5494 370.247 101.387 389.291 101.387C408.485 101.387 420.481 92.5494 420.481 76.0936Z" fill="currentColor"/>
</svg>
