<svg width="1707" height="1707" viewBox="0 0 1707 1707" fill="none" xmlns="http://www.w3.org/2000/svg">
<g clip-path="url(#clip0_2_1283)">
<circle cx="852.5" cy="852.5" r="439.5" fill="#36F4A4"/>
<path d="M844.134 3.7332C838.534 6.5332 836.134 8.66653 833.734 13.1999C830.667 18.9332 830.667 19.8665 830.667 56.7999C830.667 77.5999 830.134 94.7999 829.6 95.1999C828.934 95.5999 818.934 96.5332 807.2 97.3332C661.467 107.067 530.267 153.467 412.8 237.067C305.2 313.467 215.467 422.933 161.867 543.067C124.4 627.067 103.467 711.867 96.9337 806L95.3337 830L56.6671 830.667C32.2671 831.067 16.8004 832 14.6671 832.933C9.73372 835.067 4.53372 841.2 2.00039 847.6C-0.132943 852.933 -0.132943 853.733 2.00039 858.933C4.26706 864.8 9.33372 871.067 14.0004 873.733C15.7337 874.8 29.6004 875.6 56.0004 876L95.3337 876.667L96.9337 900C104.134 1003.6 127.867 1093.87 171.867 1184.67C238.4 1321.73 345.6 1436 479.334 1512.27C574.4 1566.53 683.6 1600 791.334 1608.13C802.4 1608.93 815.6 1610 820.667 1610.4L830 1611.33L830.667 1650.67C831.334 1688.67 831.467 1690.13 834.4 1694.8C836.267 1698 840 1701.07 844.667 1703.33C851.6 1706.93 852.267 1707.07 857.6 1705.2C864.267 1703.07 870 1698.53 873.067 1692.8C875.067 1689.2 875.334 1683.47 875.734 1650.67C876 1629.73 876.534 1612.27 877.067 1611.73C877.6 1611.2 887.867 1610.13 900 1609.33C1002.13 1602.53 1093.07 1578.53 1183.73 1534.53C1321.2 1467.87 1432.53 1363.87 1510.93 1228.67C1567.07 1132 1603.47 1009.2 1608.8 899.333C1609.33 889.067 1610.27 879.6 1610.93 878.267C1612 876.133 1615.2 876 1648.4 876C1668.4 876 1686.8 875.333 1689.33 874.667C1695.33 873.067 1701.73 866.4 1704.67 859.067C1706.8 853.733 1706.8 853.067 1704.67 847.467C1702 840.533 1695.87 834.267 1689.47 832.133C1686.53 831.2 1672 830.667 1647.87 830.667H1610.67L1610.13 827.6C1609.73 826 1609.2 816.667 1608.67 806.8C1603.87 698.8 1567.73 577.067 1511.73 479.6C1403.87 291.733 1226.4 160.533 1017.73 114.133C974.134 104.4 946.4 100.667 887.734 96.5332L876.134 95.7332L875.734 56.9332C875.334 14.3999 875.067 12.9332 867.067 6.66653C863.2 3.59987 855.334 -0.000133754 852.8 -0.000133754C852 -0.000133754 848.134 1.7332 844.134 3.7332ZM830.4 283.867C830.534 346.4 830.267 378.267 829.334 379.333C828.534 380.267 822.667 381.333 815.6 381.867C614.267 397.067 442 543.067 394 739.2C387.2 767.067 381.334 804.667 381.334 820.667C381.334 824.267 380.8 828.133 380.267 829.067C379.334 830.4 359.2 830.667 283.867 830.4L188.667 830L189.067 817.333C190.134 786.4 196.4 740.267 204.534 705.333C233.734 579.867 293.2 473.067 384.534 382C477.734 289.067 594.267 226.8 724 200.933C757.2 194.267 797.2 189.467 817.334 189.867L830 190L830.4 283.867ZM933.334 193.2C1034.4 205.867 1129.87 240.4 1213.33 294.533C1339.07 376 1434.27 497.733 1482.13 638C1501.87 695.6 1515.73 766.933 1516.4 815.333L1516.67 830H1421.33H1326L1325.2 822.667C1324.67 818.667 1323.6 808.4 1322.67 800C1310.8 685.2 1253.07 574.933 1164 497.2C1085.07 428.267 990.667 389.467 881.334 381.067L876.667 380.667L876.267 284.8L876 188.933L894.267 189.733C904.4 190.267 922 191.733 933.334 193.2ZM828.534 474.133C830.4 474.933 830.667 483.733 830.667 560.8V646.667L827.734 647.867C826 648.533 819.067 650 812.267 651.2C770.667 658.667 726.134 684.267 697.867 717.067C673.067 746 657.467 778 650.267 815.2L647.334 830L560.934 830.4C485.6 830.667 474.534 830.4 473.867 828.667C472.667 825.867 475.734 800.667 479.6 780.8C490.534 723.733 514.134 671.067 550.4 622.8C564 604.667 598 569.867 616 555.733C673.2 510.533 740.534 482.933 813.334 474.8C818.8 474.133 824 473.6 824.934 473.467C825.734 473.467 827.334 473.733 828.534 474.133ZM902.667 476.133C1043.47 493.6 1165.33 593.067 1212.67 729.333C1222.53 757.733 1232 803.6 1232 822.933V830.667H1145.33H1058.67L1058 827.6C1057.73 826 1056.8 820.8 1056 816.133C1046.53 760.933 1009.73 707.333 960.667 677.333C936.934 662.8 913.467 654.4 881.067 648.8L876 647.867V561.467C876 514 876.4 474.667 876.934 474.267C877.867 473.333 881.734 473.6 902.667 476.133ZM379.734 877.6C380.667 878.533 381.334 882.267 381.334 886C381.334 889.733 382.267 899.867 383.334 908.667C394.534 999.067 427.6 1077.87 484.134 1149.33C498.134 1167.07 537.867 1207.07 555.334 1220.8C631.067 1280.93 716.267 1315.6 809.334 1324.13C819.2 1324.93 828.134 1326.27 829.067 1327.07C830.267 1328 830.667 1348.13 830.4 1422.53L830 1516.67L822 1517.07C798.134 1518.53 740 1510.27 695.067 1499.33C531.6 1459.2 390.934 1360 298.267 1219.47C233.6 1121.73 197.734 1015.6 189.334 897.333C188.534 886.933 188.267 877.867 188.8 877.2C190 875.2 377.734 875.6 379.734 877.6ZM650.267 891.467C664.667 965.333 715.6 1024.13 786 1048.4C793.334 1050.93 805.067 1054 812 1055.33C818.934 1056.53 826 1058.13 827.734 1058.8L830.667 1060V1145.2C830.667 1211.73 830.267 1230.67 829.067 1231.73C825.2 1234.8 777.6 1227.47 749.734 1219.47C725.2 1212.4 709.6 1206.27 684.667 1194.13C648.267 1176.27 617.734 1154.67 588.134 1126C532 1071.6 495.067 1003.87 480 928C475.867 906.8 472.667 881.067 473.867 878C474.534 876.267 485.6 876 560.934 876.267L647.334 876.667L650.267 891.467ZM1231.73 883.2C1232.27 891.067 1227.6 922.267 1223.2 940.933C1188.27 1088.93 1065.73 1203.6 915.867 1228.53C900.934 1231.07 878.4 1233.33 877.067 1232.4C876.4 1232.13 876 1192.93 876 1145.33V1058.8L881.067 1057.87C904.4 1053.87 922.4 1048.67 939.334 1040.8C998.667 1013.33 1043.33 956.667 1055.33 893.333C1056.53 887.067 1057.73 880.667 1058.13 878.933L1058.67 876L1145.07 876.267L1231.33 876.667L1231.73 883.2ZM1516.4 891.333C1515.73 939.2 1502.13 1010.27 1482.8 1066.67C1402.93 1301.47 1199.07 1472.8 954.667 1510.67C932.4 1514.13 899.467 1517.33 886.534 1517.33H876L876.267 1421.6L876.667 1326L894.667 1324.27C1037.87 1311.07 1163.73 1236.93 1244.4 1118.53C1291.07 1050.13 1316.4 976.8 1324.8 887.333C1325.2 882.133 1325.87 877.6 1326.27 876.933C1326.53 876.4 1369.6 876.133 1421.73 876.267L1516.67 876.667L1516.4 891.333Z" fill="white"/>
</g>
<defs>
<clipPath id="clip0_2_1283">
<rect width="1706.67" height="1706.67" fill="white"/>
</clipPath>
</defs>
</svg>
