<svg xmlns:xlink="http://www.w3.org/1999/xlink"  viewBox="0 0 24 24" style="width:40px" xmlns="http://www.w3.org/2000/svg"><path d="M21.25 0H2.75A2.752 2.752 0 000 2.75v13.5A2.752 2.752 0 002.75 19H4v4.25a.75.75 0 001.28.53L10.06 19h11.19A2.752 2.752 0 0024 16.25V2.75A2.752 2.752 0 0021.25 0zm-7.21 13.891c0 .61-.5 1.11-1.12 1.11h-1.84c-.54 0-1.12-.4-1.12-1.29v-.54h4.08zm.81-2.96c-.42.34-.69.78-.78 1.24H9.94c-.07-.45-.32-.87-.73-1.19a4.42 4.42 0 01-1.71-3.6c.05-2.38 2.04-4.35 4.43-4.38 1.21-.03 2.37.44 3.24 1.3a4.4 4.4 0 011.33 3.17c0 1.35-.599 2.61-1.65 3.46z"></path></svg>