<?xml version="1.0" encoding="UTF-8"?>
<!DOCTYPE svg PUBLIC "-//W3C//DTD SVG 1.1//EN" "http://www.w3.org/Graphics/SVG/1.1/DTD/svg11.dtd">
<svg xmlns="http://www.w3.org/2000/svg" version="1.1" width="3646px" height="559px" style="shape-rendering:geometricPrecision; text-rendering:geometricPrecision; image-rendering:optimizeQuality; fill-rule:evenodd; clip-rule:evenodd" xmlns:xlink="http://www.w3.org/1999/xlink">
<g><path style="opacity:0.923" fill="currentColor" d="M 44.5,58.5 C 59.5,58.5 74.5,58.5 89.5,58.5C 90.5509,69.84 88.5509,80.5067 83.5,90.5C 102.158,91.333 120.824,91.833 139.5,92C 140,92.5 140.5,93 141,93.5C 141.667,107.5 141.667,121.5 141,135.5C 140.5,136 140,136.5 139.5,137C 115.261,137.827 91.0942,137.661 67,136.5C 66.5008,141.155 66.3342,145.821 66.5,150.5C 85.1667,150.5 103.833,150.5 122.5,150.5C 122.667,164.171 122.5,177.837 122,191.5C 103.667,192.833 85.3333,192.833 67,191.5C 66.3333,196.833 66.3333,202.167 67,207.5C 92.1369,206.17 117.304,206.17 142.5,207.5C 143.823,222.063 143.823,236.563 142.5,251C 99.8346,251.5 57.168,251.667 14.5,251.5C 14.1667,198.163 14.5001,144.829 15.5,91.5C 34.0417,88.292 43.7084,77.292 44.5,58.5 Z"/></g>
<g><path style="opacity:0.915" fill="currentColor" d="M 2430.5,62.5 C 2447.83,62.5 2465.17,62.5 2482.5,62.5C 2482.68,75.9738 2480.02,88.6405 2474.5,100.5C 2476.25,103.191 2475.75,103.858 2473,102.5C 2472.5,103 2472,103.5 2471.5,104C 2487.83,104.333 2504.17,104.667 2520.5,105C 2521.82,119.437 2521.82,133.937 2520.5,148.5C 2496.17,149.833 2471.83,149.833 2447.5,148.5C 2447.71,152.914 2447.38,157.414 2446.5,162C 2465.18,162.167 2483.84,162.667 2502.5,163.5C 2503.48,177.16 2503.81,190.66 2503.5,204C 2484.5,204.333 2465.5,204.667 2446.5,205C 2447.83,209.667 2447.83,214.333 2446.5,219C 2472.12,218.175 2497.78,218.342 2523.5,219.5C 2523.82,234.412 2523.49,249.245 2522.5,264C 2479.17,264.5 2435.83,264.667 2392.5,264.5C 2392.5,209.167 2392.5,153.833 2392.5,98.5C 2397.57,98.6601 2402.57,98.1601 2407.5,97C 2410.95,94.5617 2414.62,92.395 2418.5,90.5C 2421,87.5 2423.5,84.5 2426,81.5C 2426.79,78.5285 2427.46,75.5285 2428,72.5C 2430.25,69.6488 2431.08,66.3155 2430.5,62.5 Z"/></g>
<g><path style="opacity:0.912" fill="currentColor" d="M 699.5,245.5 C 680.347,234.163 666.68,217.496 658.5,195.5C 652.934,173.662 655.1,152.662 665,132.5C 667.755,130.99 668.921,128.657 668.5,125.5C 669.675,125.719 670.675,125.386 671.5,124.5C 684.622,106.443 701.955,94.61 723.5,89C 754.837,82.9096 782.504,89.9096 806.5,110C 810.483,113.139 813.483,116.973 815.5,121.5C 805.317,131.849 795.317,142.349 785.5,153C 784.167,153.667 782.833,153.667 781.5,153C 764.299,135.082 745.133,131.582 724,142.5C 721.672,144.994 719.172,147.328 716.5,149.5C 715.691,151.071 715.357,152.738 715.5,154.5C 714.5,154.5 713.5,154.5 712.5,154.5C 711.55,160.37 710.55,166.204 709.5,172C 710.64,190.756 719.973,202.423 737.5,207C 746.521,208.298 755.188,207.298 763.5,204C 764.357,203.311 765.023,202.478 765.5,201.5C 764.167,198.5 764.167,195.5 765.5,192.5C 758.192,192.788 750.692,192.455 743,191.5C 742.168,181.151 742.334,170.817 743.5,160.5C 768.5,159.167 793.5,159.167 818.5,160.5C 819.666,181.159 819.833,201.825 819,222.5C 813.068,230.257 805.901,236.924 797.5,242.5C 786.349,247.929 775.015,252.429 763.5,256C 748.408,257.04 733.408,256.373 718.5,254C 712.376,250.895 706.042,248.061 699.5,245.5 Z"/></g>
<g><path style="opacity:0.925" fill="currentColor" d="M 222.5,184.5 C 221.164,182.99 219.997,181.323 219,179.5C 218.5,203.498 218.333,227.498 218.5,251.5C 200.5,251.5 182.5,251.5 164.5,251.5C 164.333,198.499 164.5,145.499 165,92.5C 179.759,91.3433 194.592,91.1767 209.5,92C 227.707,115.694 246.04,139.194 264.5,162.5C 265.333,139.507 265.833,116.507 266,93.5C 266.5,93 267,92.5 267.5,92C 285.074,91.1751 302.574,91.3418 320,92.5C 320.5,145.499 320.667,198.499 320.5,251.5C 304.819,251.833 289.152,251.499 273.5,250.5C 256.757,228.297 239.757,206.297 222.5,184.5 Z"/></g>
<g><path style="opacity:0.908" fill="currentColor" d="M 350.5,91.5 C 392.739,91.1699 434.906,91.5032 477,92.5C 477.823,107.408 477.657,122.241 476.5,137C 452.261,137.827 428.094,137.661 404,136.5C 404.624,141.134 404.458,145.801 403.5,150.5C 422.5,150.5 441.5,150.5 460.5,150.5C 460.823,164.412 460.49,178.246 459.5,192C 440.926,192.825 422.426,192.659 404,191.5C 404.751,196.151 404.584,200.818 403.5,205.5C 403.833,206.167 404.167,206.833 404.5,207.5C 429.167,206.167 453.833,206.167 478.5,207.5C 479.499,222.152 479.833,236.818 479.5,251.5C 436.167,251.5 392.833,251.5 349.5,251.5C 349.171,198.095 349.505,144.762 350.5,91.5 Z"/></g>
<g><path style="opacity:0.927" fill="currentColor" d="M 619.5,199.5 C 627.402,214.46 635.735,229.293 644.5,244C 645.656,246.633 646.656,249.3 647.5,252C 628.912,251.693 610.245,251.36 591.5,251C 583.9,236.581 576.233,222.081 568.5,207.5C 563.88,206.507 559.214,206.173 554.5,206.5C 555.451,221.464 555.785,236.464 555.5,251.5C 537.5,251.5 519.5,251.5 501.5,251.5C 501.653,198.86 501.486,146.193 501,93.5C 501.5,93 502,92.5 502.5,92C 530.5,91.3333 558.5,91.3333 586.5,92C 592.607,92.3602 598.607,93.3602 604.5,95C 606.973,97.4369 609.973,98.6036 613.5,98.5C 613.5,99.5 613.5,100.5 613.5,101.5C 616.005,101.98 618.338,102.98 620.5,104.5C 629.166,111.98 635.5,121.147 639.5,132C 645.917,158.201 639.083,179.368 619,195.5C 618.235,197.066 618.402,198.399 619.5,199.5 Z M 554.5,140.5 C 564.546,140.795 574.38,141.795 584,143.5C 584.333,143.167 584.667,142.833 585,142.5C 587.793,146.851 588.293,151.518 586.5,156.5C 576.019,158.731 565.353,159.064 554.5,157.5C 555.786,151.834 555.786,146.168 554.5,140.5 Z"/></g>
<g><path style="opacity:0.913" fill="currentColor" d="M 846.5,91.5 C 864.077,91.1746 881.577,91.5079 899,92.5C 899.5,145.499 899.667,198.499 899.5,251.5C 881.5,251.5 863.5,251.5 845.5,251.5C 845.171,198.095 845.505,144.762 846.5,91.5 Z"/></g>
<g><path style="opacity:0.903" fill="currentColor" d="M 929.5,91.5 C 971.876,91.1723 1014.21,91.5056 1056.5,92.5C 1057.83,107.167 1057.83,121.833 1056.5,136.5C 1031.97,137.83 1007.47,137.83 983,136.5C 982.501,141.155 982.334,145.821 982.5,150.5C 1001.5,150.5 1020.5,150.5 1039.5,150.5C 1039.82,164.216 1039.48,177.883 1038.5,191.5C 1019.94,192.825 1001.44,192.825 983,191.5C 982.333,196.833 982.333,202.167 983,207.5C 1007.76,206.339 1032.59,206.173 1057.5,207C 1058,207.5 1058.5,208 1059,208.5C 1059.82,222.742 1059.66,236.908 1058.5,251C 1015.17,251.5 971.835,251.667 928.5,251.5C 928.171,198.095 928.505,144.762 929.5,91.5 Z"/></g>
<g><path style="opacity:0.914" fill="currentColor" d="M 1129.5,91.5 C 1172.07,91.1699 1214.57,91.5032 1257,92.5C 1257.82,108.074 1257.66,123.574 1256.5,139C 1231.93,139.827 1207.43,139.661 1183,138.5C 1182.33,144.5 1182.33,150.5 1183,156.5C 1201.67,155.167 1220.33,155.167 1239,156.5C 1239.5,171.83 1239.67,187.163 1239.5,202.5C 1220.16,202.333 1200.83,202.5 1181.5,203C 1182.49,219.089 1182.82,235.256 1182.5,251.5C 1164.5,251.5 1146.5,251.5 1128.5,251.5C 1128.17,198.095 1128.5,144.762 1129.5,91.5 Z"/></g>
<g><path style="opacity:0.914" fill="currentColor" d="M 1278.5,91.5 C 1306.5,91.3334 1334.5,91.5 1362.5,92C 1385.48,94.3747 1402.31,105.875 1413,126.5C 1414.72,134.694 1416.55,142.194 1418.5,149C 1417.96,152.828 1417.46,156.661 1417,160.5C 1416.67,159.833 1416.33,159.167 1416,158.5C 1414.11,174.793 1406.28,187.293 1392.5,196C 1402.95,212.896 1412.61,230.23 1421.5,248C 1422.12,249.841 1422.29,251.674 1422,253.5C 1421.5,253 1421,252.5 1420.5,252C 1402.5,251.667 1384.5,251.333 1366.5,251C 1359.37,236.902 1351.7,222.402 1343.5,207.5C 1339.55,206.509 1335.55,206.176 1331.5,206.5C 1331.82,221.412 1331.49,236.245 1330.5,251C 1321.5,251.167 1312.5,251.333 1303.5,251.5C 1294.1,251.486 1284.94,250.819 1276,249.5C 1275.33,197.833 1275.33,146.167 1276,94.5C 1276.7,93.3094 1277.53,92.3094 1278.5,91.5 Z M 1359.5,142.5 C 1360.5,142.47 1361.16,142.97 1361.5,144C 1363.5,149.435 1362.5,154.101 1358.5,158C 1349.51,158.5 1340.51,158.666 1331.5,158.5C 1331.33,152.491 1331.5,146.491 1332,140.5C 1341.27,141.155 1350.43,141.821 1359.5,142.5 Z"/></g>
<g><path style="opacity:0.904" fill="currentColor" d="M 1532.5,195.5 C 1533.3,194.048 1533.8,192.382 1534,190.5C 1534.17,157.595 1534.67,124.762 1535.5,92C 1553.41,91.175 1571.24,91.3416 1589,92.5C 1589.67,125.5 1589.67,158.5 1589,191.5C 1586.23,216.921 1573.06,236.087 1549.5,249C 1549.83,249.333 1550.17,249.667 1550.5,250C 1549.33,250.353 1548.16,250.187 1547,249.5C 1536.61,255.4 1525.28,257.733 1513,256.5C 1504.42,256.358 1495.92,255.524 1487.5,254C 1479.63,250.44 1471.96,246.607 1464.5,242.5C 1464.72,241.325 1464.39,240.325 1463.5,239.5C 1460.07,237.32 1457.07,234.653 1454.5,231.5C 1443.7,218.542 1437.86,203.542 1437,186.5C 1436.33,155.5 1436.33,124.5 1437,93.5C 1437.5,93 1438,92.5 1438.5,92C 1456.18,91.167 1473.84,91.3337 1491.5,92.5C 1492.33,126.125 1492.83,159.792 1493,193.5C 1494.96,197.775 1497.62,201.441 1501,204.5C 1512.82,210.34 1523.16,208.007 1532,197.5C 1532.46,196.906 1532.63,196.239 1532.5,195.5 Z"/></g>
<g><path style="opacity:0.911" fill="currentColor" d="M 1617.5,91.5 C 1635.08,91.1746 1652.58,91.5079 1670,92.5C 1670.5,145.499 1670.67,198.499 1670.5,251.5C 1652.5,251.5 1634.5,251.5 1616.5,251.5C 1616.17,198.095 1616.5,144.762 1617.5,91.5 Z"/></g>
<g><path style="opacity:0.921" fill="currentColor" d="M 1688.5,91.5 C 1733.17,91.5 1777.83,91.5 1822.5,91.5C 1822.5,108.167 1822.5,124.833 1822.5,141.5C 1809.16,141.333 1795.83,141.5 1782.5,142C 1783.5,178.427 1783.83,214.927 1783.5,251.5C 1765.5,251.5 1747.5,251.5 1729.5,251.5C 1729.5,214.833 1729.5,178.167 1729.5,141.5C 1715.59,141.823 1701.75,141.49 1688,140.5C 1687.18,124.093 1687.35,107.759 1688.5,91.5 Z"/></g>
<g><path style="opacity:0.986" fill="currentColor" d="M 2079.5,91.5 C 2153.47,84.1857 2212.3,110.519 2256,170.5C 2262,181.82 2268,193.153 2274,204.5C 2300.46,281.352 2285.63,348.519 2229.5,406C 2169.05,458.298 2101.21,468.798 2026,437.5C 1970.35,408.655 1936.52,363.321 1924.5,301.5C 1915.88,220.969 1945.05,158.969 2012,115.5C 2032.57,103.354 2055.07,95.3543 2079.5,91.5 Z M 2054.5,150.5 C 2072.5,150.5 2090.5,150.5 2108.5,150.5C 2108.58,167.24 2104.58,182.907 2096.5,197.5C 2108.48,198.499 2120.48,198.832 2132.5,198.5C 2132.5,214.167 2132.5,229.833 2132.5,245.5C 2111.16,245.333 2089.83,245.5 2068.5,246C 2069.43,252.121 2069.77,258.121 2069.5,264C 2087.5,264.333 2105.5,264.667 2123.5,265C 2124.16,271.923 2124.49,278.923 2124.5,286C 2124.49,293.077 2124.16,300.077 2123.5,307C 2105.5,307.333 2087.5,307.667 2069.5,308C 2069.66,314.042 2069.49,320.209 2069,326.5C 2090.09,327.494 2111.26,327.827 2132.5,327.5C 2132.5,342.833 2132.5,358.167 2132.5,373.5C 2092.5,373.5 2052.5,373.5 2012.5,373.5C 2012.5,313.167 2012.5,252.833 2012.5,192.5C 2038.21,190.121 2052.21,176.121 2054.5,150.5 Z M 2178.5,315.5 C 2197.65,316.15 2208.32,325.983 2210.5,345C 2205.98,368.095 2192.31,376.762 2169.5,371C 2152.17,360.169 2148.33,345.669 2158,327.5C 2163.49,321.01 2170.33,317.01 2178.5,315.5 Z"/></g>
<g><path style="opacity:0.912" fill="currentColor" d="M 3117.5,142.5 C 3095.65,146.697 3084.65,160.03 3084.5,182.5C 3083.35,195.521 3087.69,206.188 3097.5,214.5C 3117.84,227.509 3137.34,226.176 3156,210.5C 3156.47,209.069 3157.3,207.903 3158.5,207C 3149.26,206.819 3140.09,206.319 3131,205.5C 3130.18,193.258 3130.35,181.091 3131.5,169C 3158.16,168.5 3184.83,168.333 3211.5,168.5C 3212.54,179.587 3212.04,190.921 3210,202.5C 3209.18,206.961 3207.68,211.128 3205.5,215C 3206.83,216.84 3206.67,217.34 3205,216.5C 3204.4,219.54 3203.24,222.206 3201.5,224.5C 3179.73,259.38 3148.06,274.547 3106.5,270C 3067.62,259.002 3044.12,233.835 3036,194.5C 3033.38,162.666 3043.88,136.166 3067.5,115C 3075.7,108.771 3084.37,103.437 3093.5,99C 3113.5,97 3133.5,97 3153.5,99C 3166.91,105.33 3178.57,113.497 3188.5,123.5C 3189.69,124.429 3191.02,124.762 3192.5,124.5C 3192.76,126.792 3192.42,128.959 3191.5,131C 3179.69,139.316 3168.36,148.149 3157.5,157.5C 3152.88,154.054 3148.38,150.388 3144,146.5C 3143.67,146.833 3143.33,147.167 3143,147.5C 3140.37,146.217 3137.87,144.717 3135.5,143C 3133.13,142.438 3130.8,142.604 3128.5,143.5C 3127.83,143.333 3127.17,143.167 3126.5,143C 3127.5,142.667 3128.5,142.333 3129.5,142C 3125.31,141.188 3121.31,141.355 3117.5,142.5 Z"/></g>
<g><path style="opacity:0.931" fill="currentColor" d="M 3453.5,229.5 C 3452.73,230.66 3451.73,231.66 3450.5,232.5C 3450.17,234 3449.83,235.5 3449.5,237C 3450.72,244.371 3453.89,250.871 3459,256.5C 3458.52,259.746 3457.85,263.079 3457,266.5C 3456.67,266.167 3456.33,265.833 3456,265.5C 3451.94,276.614 3448.28,287.948 3445,299.5C 3442.94,300.591 3440.77,300.758 3438.5,300C 3435.96,298.366 3433.63,296.533 3431.5,294.5C 3427.44,289.954 3423.1,285.621 3418.5,281.5C 3413.83,275.348 3410,268.681 3407,261.5C 3404.33,263.871 3401.16,265.037 3397.5,265C 3387.17,265.667 3376.83,265.667 3366.5,265C 3358.86,262.673 3351.19,260.507 3343.5,258.5C 3343.5,257.5 3343.5,256.5 3343.5,255.5C 3342.13,255.657 3340.79,255.49 3339.5,255C 3299.03,227.572 3287.2,190.072 3304,142.5C 3306.75,138.601 3309.25,134.601 3311.5,130.5C 3314.22,126.631 3317.22,122.965 3320.5,119.5C 3329.15,111.18 3338.81,104.347 3349.5,99C 3371.81,97.1778 3394.14,97.0111 3416.5,98.5C 3416.5,99.5 3416.5,100.5 3416.5,101.5C 3419.87,102.323 3423.2,103.489 3426.5,105C 3453.51,123.177 3467.84,148.01 3469.5,179.5C 3468.52,197.598 3463.19,214.265 3453.5,229.5 Z M 3388.5,142.5 C 3408.52,146.917 3419.36,159.917 3421,181.5C 3417.62,177.442 3413.78,173.776 3409.5,170.5C 3401.99,166.407 3394.32,162.907 3386.5,160C 3374.83,158 3363.17,158 3351.5,160C 3350.96,160.717 3350.29,161.217 3349.5,161.5C 3350.84,157.488 3353.17,154.155 3356.5,151.5C 3360.83,148.012 3365.5,145.179 3370.5,143C 3373.05,142.34 3375.55,142.507 3378,143.5C 3379.76,143.056 3379.6,142.556 3377.5,142C 3381.36,141.19 3385.02,141.357 3388.5,142.5 Z M 3360.5,204.5 C 3373.93,201.845 3384.93,205.679 3393.5,216C 3384.66,218.187 3375.99,217.853 3367.5,215C 3368.17,214.667 3368.83,214.333 3369.5,214C 3364.04,213.268 3359.37,210.935 3355.5,207C 3357.49,206.626 3359.16,205.793 3360.5,204.5 Z"/></g>
<g><path style="opacity:0.004" fill="currentColor" d="M 2552.5,102.5 C 2553.83,103.167 2553.83,103.167 2552.5,102.5 Z"/></g>
<g><path style="opacity:0.004" fill="currentColor" d="M 2586.5,102.5 C 2587.83,103.167 2587.83,103.167 2586.5,102.5 Z"/></g>
<g><path style="opacity:0.004" fill="currentColor" d="M 2651.5,103.5 C 2652.25,102.427 2653.25,102.26 2654.5,103C 2653.55,103.483 2652.55,103.649 2651.5,103.5 Z"/></g>
<g><path style="opacity:0.004" fill="currentColor" d="M 2700.5,103.5 C 2700.9,102.475 2701.56,102.308 2702.5,103C 2701.91,103.464 2701.24,103.631 2700.5,103.5 Z"/></g>
<g><path style="opacity:0.004" fill="currentColor" d="M 2735.5,102.5 C 2736.83,103.167 2736.83,103.167 2735.5,102.5 Z"/></g>
<g><path style="opacity:0.004" fill="currentColor" d="M 2889.5,103.5 C 2889.9,102.475 2890.56,102.308 2891.5,103C 2890.91,103.464 2890.24,103.631 2889.5,103.5 Z"/></g>
<g><path style="opacity:0.004" fill="currentColor" d="M 2963.5,102.5 C 2964.83,103.167 2964.83,103.167 2963.5,102.5 Z"/></g>
<g><path style="opacity:0.004" fill="currentColor" d="M 3532.5,102.5 C 3533.83,103.167 3533.83,103.167 3532.5,102.5 Z"/></g>
<g><path style="opacity:0.933" fill="currentColor" d="M 2546.5,104.5 C 2561.85,104.167 2577.18,104.501 2592.5,105.5C 2610.66,129.148 2628.83,152.815 2647,176.5C 2647.5,152.502 2647.67,128.502 2647.5,104.5C 2665.5,104.5 2683.5,104.5 2701.5,104.5C 2701.5,157.833 2701.5,211.167 2701.5,264.5C 2686.5,264.667 2671.5,264.5 2656.5,264C 2638.39,240.219 2619.89,216.719 2601,193.5C 2600.67,216.833 2600.33,240.167 2600,263.5C 2582.24,264.492 2564.41,264.826 2546.5,264.5C 2546.5,211.167 2546.5,157.833 2546.5,104.5 Z"/></g>
<g><path style="opacity:0.904" fill="currentColor" d="M 2731.5,104.5 C 2773.83,104.5 2816.17,104.5 2858.5,104.5C 2858.82,119.412 2858.49,134.245 2857.5,149C 2833.26,149.827 2809.09,149.661 2785,148.5C 2784.5,153.155 2784.33,157.821 2784.5,162.5C 2803.17,162.333 2821.84,162.5 2840.5,163C 2841.83,176.47 2841.83,189.97 2840.5,203.5C 2821.85,204.5 2803.18,204.833 2784.5,204.5C 2784.33,209.511 2784.5,214.511 2785,219.5C 2810.14,218.17 2835.3,218.17 2860.5,219.5C 2861.19,220.025 2861.69,220.692 2862,221.5C 2862.82,235.545 2862.65,249.545 2861.5,263.5C 2817.93,264.83 2774.43,264.83 2731,263.5C 2730.17,210.429 2730.34,157.429 2731.5,104.5 Z"/></g>
<g><path style="opacity:0.926" fill="currentColor" d="M 3015.5,130.5 C 3017.11,132.641 3018.61,134.974 3020,137.5C 3027.1,156.871 3025.77,175.538 3016,193.5C 3011.13,199.708 3005.96,204.875 3000.5,209C 3003.22,212.815 3005.39,216.981 3007,221.5C 3007.33,221.167 3007.67,220.833 3008,220.5C 3010.85,228.288 3014.68,235.455 3019.5,242C 3022,247.579 3024.66,253.079 3027.5,258.5C 3031.17,260.788 3031.34,263.122 3028,265.5C 3010.2,264.686 2992.36,264.186 2974.5,264C 2973.93,263.005 2973.27,262.172 2972.5,261.5C 2965.65,247.515 2958.48,233.515 2951,219.5C 2946.93,220.464 2942.77,220.797 2938.5,220.5C 2938.82,235.079 2938.49,249.579 2937.5,264C 2919.93,264.825 2902.43,264.658 2885,263.5C 2884.5,210.501 2884.33,157.501 2884.5,104.5C 2915.84,104.333 2947.17,104.5 2978.5,105C 2994.07,109.093 3006.4,117.593 3015.5,130.5 Z M 2938.5,152.5 C 2946,153.817 2953.5,153.817 2961,152.5C 2970.97,154.967 2973.14,160.467 2967.5,169C 2957.98,171.24 2948.31,172.073 2938.5,171.5C 2938.5,165.167 2938.5,158.833 2938.5,152.5 Z"/></g>
<g><path style="opacity:0.909" fill="currentColor" d="M 3225.5,104.5 C 3243.5,104.5 3261.5,104.5 3279.5,104.5C 3279.67,157.501 3279.5,210.501 3279,263.5C 3261.24,264.492 3243.41,264.826 3225.5,264.5C 3225.5,211.167 3225.5,157.833 3225.5,104.5 Z"/></g>
<g><path style="opacity:0.922" fill="currentColor" d="M 3645.5,256.5 C 3645.5,259.167 3645.5,261.833 3645.5,264.5C 3626.82,264.833 3608.15,264.5 3589.5,263.5C 3585.95,253.767 3582.62,243.933 3579.5,234C 3566.34,234.806 3553.17,234.639 3540,233.5C 3536.28,240.645 3533.95,248.311 3533,256.5C 3531.1,258.633 3529.93,261.133 3529.5,264C 3510.93,264.173 3492.43,264.673 3474,265.5C 3473.01,264.57 3472.51,263.404 3472.5,262C 3483.58,232.29 3494.41,202.456 3505,172.5C 3505.33,172.833 3505.67,173.167 3506,173.5C 3507.14,169.879 3507.97,166.212 3508.5,162.5C 3509.08,160.257 3510.25,158.257 3512,156.5C 3517.18,138.246 3523.35,121.08 3530.5,105C 3549.83,104.333 3569.17,104.333 3588.5,105C 3591.83,111.474 3594.33,118.307 3596,125.5C 3596.67,126.167 3597.33,126.833 3598,127.5C 3602.37,141.035 3606.87,154.535 3611.5,168C 3611.77,169.607 3612.6,170.774 3614,171.5C 3620.37,191.241 3627.03,210.907 3634,230.5C 3634.33,230.167 3634.67,229.833 3635,229.5C 3637.46,239.102 3640.96,248.102 3645.5,256.5 Z M 3558.5,162.5 C 3561.01,168.182 3562.85,174.182 3564,180.5C 3565.65,181.891 3566.15,183.391 3565.5,185C 3567.02,186.897 3567.68,189.064 3567.5,191.5C 3561.55,191.577 3555.89,191.577 3550.5,191.5C 3554.55,182.294 3557.22,172.627 3558.5,162.5 Z"/></g>
<g><path style="opacity:0.004" fill="currentColor" d="M 3015.5,129.5 C 3016.83,130.167 3016.83,130.167 3015.5,129.5 Z"/></g>
<g><path style="opacity:0.004" fill="currentColor" d="M 3311.5,130.5 C 3310.83,129.167 3310.83,129.167 3311.5,130.5 Z"/></g>
<g><path style="opacity:0.004" fill="currentColor" d="M 3117.5,142.5 C 3118.24,142.369 3118.91,142.536 3119.5,143C 3118.56,143.692 3117.9,143.525 3117.5,142.5 Z"/></g>
<g><path style="opacity:0.004" fill="currentColor" d="M 67.5,147.5 C 68.8333,148.167 68.8333,148.167 67.5,147.5 Z"/></g>
<g><path style="opacity:0.004" fill="currentColor" d="M 3511.5,149.5 C 3512.83,150.167 3512.83,150.167 3511.5,149.5 Z"/></g>
<g><path style="opacity:0.004" fill="currentColor" d="M 3508.5,162.5 C 3507.83,161.167 3507.83,161.167 3508.5,162.5 Z"/></g>
<g><path style="opacity:0.004" fill="currentColor" d="M 654.5,182.5 C 655.573,183.251 655.74,184.251 655,185.5C 654.517,184.552 654.351,183.552 654.5,182.5 Z"/></g>
<g><path style="opacity:0.004" fill="currentColor" d="M 222.5,184.5 C 221.833,185.167 221.833,185.167 222.5,184.5 Z"/></g>
<g><path style="opacity:0.008" fill="currentColor" d="M 1532.5,195.5 C 1531.83,194.167 1531.83,194.167 1532.5,195.5 Z"/></g>
<g><path style="opacity:0.004" fill="currentColor" d="M 619.5,198.5 C 620.833,199.167 620.833,199.167 619.5,198.5 Z"/></g>
<g><path style="opacity:0.004" fill="currentColor" d="M 1587.5,203.5 C 1588.53,203.897 1588.69,204.563 1588,205.5C 1587.54,204.906 1587.37,204.239 1587.5,203.5 Z"/></g>
<g><path style="opacity:0.004" fill="currentColor" d="M 556.5,208.5 C 558.966,207.366 561.633,207.199 564.5,208C 561.854,208.497 559.187,208.664 556.5,208.5 Z"/></g>
<g><path style="opacity:0.004" fill="currentColor" d="M 1332.5,208.5 C 1335.3,207.362 1338.3,207.195 1341.5,208C 1338.52,208.498 1335.52,208.665 1332.5,208.5 Z"/></g>
<g><path style="opacity:0.004" fill="currentColor" d="M 3097.5,213.5 C 3098.83,214.167 3098.83,214.167 3097.5,213.5 Z"/></g>
<g><path style="opacity:0.004" fill="currentColor" d="M 819.5,223.5 C 820.833,224.167 820.833,224.167 819.5,223.5 Z"/></g>
<g><path style="opacity:0.004" fill="currentColor" d="M 3201.5,224.5 C 3202.83,225.167 3202.83,225.167 3201.5,224.5 Z"/></g>
<g><path style="opacity:0.004" fill="currentColor" d="M 3453.5,229.5 C 3454.83,230.167 3454.83,230.167 3453.5,229.5 Z"/></g>
<g><path style="opacity:0.004" fill="currentColor" d="M 699.5,245.5 C 698.833,246.167 698.833,246.167 699.5,245.5 Z"/></g>
<g><path style="opacity:0.004" fill="currentColor" d="M 2972.5,261.5 C 2971.83,262.167 2971.83,262.167 2972.5,261.5 Z"/></g>
<g><path style="opacity:0.004" fill="currentColor" d="M 3431.5,294.5 C 3430.83,295.167 3430.83,295.167 3431.5,294.5 Z"/></g>
<g><path style="opacity:0.92" fill="currentColor" d="M -0.5,496.5 C -0.5,432.5 -0.5,368.5 -0.5,304.5C 0.477842,304.189 1.14451,303.522 1.5,302.5C 612.5,301.333 1223.5,301.167 1834.5,302C 1834.17,302.333 1833.83,302.667 1833.5,303C 1834.42,303.374 1835.25,303.874 1836,304.5C 1836.5,368.499 1836.67,432.499 1836.5,496.5C 1224.17,496.5 611.833,496.5 -0.5,496.5 Z M 336.5,364.5 C 337.829,389.337 337.829,414.337 336.5,439.5C 330.303,438.183 324.136,438.183 318,439.5C 317.824,415.124 317.324,390.791 316.5,366.5C 323.321,365.833 329.988,365.167 336.5,364.5 Z M 119.5,365.5 C 126.167,365.5 132.833,365.5 139.5,365.5C 139.666,374.173 139.5,382.84 139,391.5C 137.484,388.949 136.651,389.282 136.5,392.5C 146.806,393.567 157.14,393.733 167.5,393C 168,392.5 168.5,392 169,391.5C 169.5,382.84 169.666,374.173 169.5,365.5C 176.175,365.334 182.842,365.5 189.5,366C 188.672,390.428 188.172,414.928 188,439.5C 182,438.167 176,438.167 170,439.5C 169.667,430.167 169.333,420.833 169,411.5C 164.754,410.201 160.254,409.534 155.5,409.5C 151.167,409.667 146.833,409.833 142.5,410C 141.584,410.374 140.75,410.874 140,411.5C 139.5,420.494 139.334,429.494 139.5,438.5C 133.242,438.19 127.076,438.524 121,439.5C 120.814,414.791 120.314,390.124 119.5,365.5 Z M 241.5,365.5 C 248.841,365.334 256.174,365.5 263.5,366C 266.167,368 266.167,370 263.5,372C 264.715,374.096 265.549,373.929 266,371.5C 268.056,376.293 269.556,381.293 270.5,386.5C 271.5,386.5 272.5,386.5 273.5,386.5C 274.57,391.2 275.57,395.867 276.5,400.5C 277.5,400.5 278.5,400.5 279.5,400.5C 279.201,402.604 279.534,404.604 280.5,406.5C 282.255,407.67 283.255,409.337 283.5,411.5C 282.772,413.155 282.605,414.821 283,416.5C 283.308,415.692 283.808,415.025 284.5,414.5C 284.765,418.171 286.265,421.171 289,423.5C 289.651,425.235 289.485,426.902 288.5,428.5C 289.247,428.736 290.08,429.07 291,429.5C 291.761,432.909 293.261,435.909 295.5,438.5C 295.167,438.833 294.833,439.167 294.5,439.5C 288.303,438.183 282.136,438.183 276,439.5C 273.549,434.658 271.049,429.825 268.5,425C 257.5,424.333 246.5,424.333 235.5,425C 234.442,430.18 232.609,435.013 230,439.5C 224.197,438.184 218.364,438.184 212.5,439.5C 212.167,439.167 211.833,438.833 211.5,438.5C 213.668,435.502 214.668,432.169 214.5,428.5C 216.103,428.688 217.437,428.188 218.5,427C 217.446,425.612 217.28,424.112 218,422.5C 219.918,417.373 221.918,412.373 224,407.5C 226.089,405.543 226.923,403.376 226.5,401C 228.044,400.71 229.377,400.044 230.5,399C 229.424,397.274 229.257,395.441 230,393.5C 231.769,390.281 233.769,387.281 236,384.5C 238.275,378.289 240.108,371.955 241.5,365.5 Z M 403.5,427.5 C 401.976,424.382 399.976,421.549 397.5,419C 394.167,418.333 390.833,418.333 387.5,419C 385.208,424.649 384.874,430.482 386.5,436.5C 386.444,437.737 385.944,438.737 385,439.5C 378.667,438.167 372.333,438.167 366,439.5C 366.823,414.842 366.656,390.176 365.5,365.5C 378.837,365.333 392.171,365.5 405.5,366C 409.739,367.413 414.072,368.413 418.5,369C 423.357,372.521 427.191,376.355 430,380.5C 430.667,388.5 430.667,396.5 430,404.5C 427.527,408.814 424.027,411.814 419.5,413.5C 418.348,416.106 418.182,418.773 419,421.5C 421.946,423.83 424.113,426.83 425.5,430.5C 426.325,431.386 427.325,431.719 428.5,431.5C 429.643,434.115 430.476,436.782 431,439.5C 424.667,438.167 418.333,438.167 412,439.5C 408.911,435.646 406.078,431.646 403.5,427.5 Z M 480.5,437.5 C 476.227,436.922 472.227,435.589 468.5,433.5C 468.649,432.448 468.483,431.448 468,430.5C 467.667,430.833 467.333,431.167 467,431.5C 466.097,430.299 464.931,429.465 463.5,429C 462.773,427.601 462.273,426.101 462,424.5C 460.989,423.663 459.822,423.33 458.5,423.5C 457.2,416.338 455.866,409.172 454.5,402C 455.891,396.597 456.724,391.097 457,385.5C 460.129,379.224 464.629,374.224 470.5,370.5C 473.72,369.009 477.054,367.509 480.5,366C 489.833,365.333 499.167,365.333 508.5,366C 510.808,367.867 513.475,368.867 516.5,369C 518.269,371.057 520.269,372.89 522.5,374.5C 523.645,375.776 523.645,377.109 522.5,378.5C 518.762,381.741 515.262,385.075 512,388.5C 503.783,378.849 493.949,376.849 482.5,382.5C 482.719,383.675 482.386,384.675 481.5,385.5C 476.017,389.628 473.35,395.295 473.5,402.5C 473.226,410.474 476.393,416.474 483,420.5C 483.617,421.449 483.451,422.282 482.5,423C 486.605,422.629 490.605,423.462 494.5,425.5C 497.441,424.797 500.275,423.797 503,422.5C 503.873,422.735 504.707,423.069 505.5,423.5C 506.485,420.835 508.485,418.502 511.5,416.5C 515.657,420.156 519.657,423.99 523.5,428C 521.993,430.434 519.993,432.434 517.5,434C 514.162,436.4 510.495,438.067 506.5,439C 498.167,439.667 489.833,439.667 481.5,439C 480.944,438.617 480.611,438.117 480.5,437.5 Z M 603.5,432.5 C 602.058,430.46 601.058,428.127 600.5,425.5C 589.515,424.334 578.515,424.168 567.5,425C 565.357,429.257 563.69,433.757 562.5,438.5C 555.954,438.632 549.288,438.632 542.5,438.5C 545.69,432.125 548.19,425.459 550,418.5C 551.016,417.366 551.683,417.699 552,419.5C 552.692,418.975 553.192,418.308 553.5,417.5C 551.943,414.727 552.443,412.393 555,410.5C 556.518,406.223 557.851,401.89 559,397.5C 562.147,393.415 564.147,388.748 565,383.5C 566.91,380.691 568.577,377.691 570,374.5C 569.865,371.062 571.032,368.228 573.5,366C 580.94,365.072 588.274,365.406 595.5,367C 597.577,371.569 599.077,376.402 600,381.5C 600.71,382.973 601.876,383.64 603.5,383.5C 604.907,388.02 606.073,392.687 607,397.5C 608.016,396.366 608.683,396.699 609,398.5C 610.865,402.687 612.198,407.021 613,411.5C 614.016,410.366 614.683,410.699 615,412.5C 618.037,421.199 621.537,429.699 625.5,438C 618.174,438.5 610.841,438.666 603.5,438.5C 603.5,436.5 603.5,434.5 603.5,432.5 Z M 712.5,438.5 C 705.748,438.415 699.081,438.581 692.5,439C 687.516,432.493 683.183,425.66 679.5,418.5C 675.563,418.207 671.73,418.54 668,419.5C 667.667,426.167 667.333,432.833 667,439.5C 660.879,438.567 654.879,438.234 649,438.5C 648.824,414.457 648.324,390.457 647.5,366.5C 665.015,364.559 682.349,365.392 699.5,369C 700.833,369.667 700.833,370.333 699.5,371C 704.703,371.856 708.536,374.689 711,379.5C 712.996,388.203 712.829,396.869 710.5,405.5C 708.549,410.293 705.049,412.96 700,413.5C 699.502,416.482 699.335,419.482 699.5,422.5C 703.523,423.025 705.69,425.359 706,429.5C 709.144,431.784 711.31,434.784 712.5,438.5 Z M 739.5,365.5 C 758.5,365.5 777.5,365.5 796.5,365.5C 796.666,370.511 796.499,375.511 796,380.5C 784.333,379.167 772.667,379.167 761,380.5C 760.198,385.419 760.365,390.252 761.5,395C 771.833,395.333 782.167,395.667 792.5,396C 791.167,399.333 791.167,402.667 792.5,406C 791.874,406.75 791.374,407.584 791,408.5C 786.418,407.198 781.585,406.531 776.5,406.5C 771.833,406.667 767.167,406.833 762.5,407C 760.962,409.928 760.296,413.094 760.5,416.5C 760.574,419.287 761.24,421.787 762.5,424C 774.162,424.5 785.829,424.667 797.5,424.5C 796.755,429.572 796.421,434.572 796.5,439.5C 777.97,438.172 759.47,438.172 741,439.5C 740.5,439 740,438.5 739.5,438C 740.82,413.863 740.82,389.696 739.5,365.5 Z M 927.5,437.5 C 927.53,438.497 927.03,439.164 926,439.5C 924.389,437.79 922.889,435.957 921.5,434C 920.333,433.833 919.167,433.667 918,433.5C 913.949,436.163 909.449,437.996 904.5,439C 894.269,440.16 884.269,439.493 874.5,437C 872.37,435.168 870.203,433.334 868,431.5C 866.354,429.945 866.021,428.279 867,426.5C 866.333,425.167 865.667,425.167 865,426.5C 863.466,422.289 863.133,417.956 864,413.5C 866.761,412.501 868.094,410.501 868,407.5C 869.186,405.323 871.019,404.323 873.5,404.5C 873.5,403.5 873.5,402.5 873.5,401.5C 875.199,401.66 876.866,401.494 878.5,401C 879.097,399.938 879.43,398.772 879.5,397.5C 877.229,394.211 874.895,390.878 872.5,387.5C 873.799,384.301 873.799,381.135 872.5,378C 873.607,375.072 875.274,372.572 877.5,370.5C 880.276,368.859 883.276,367.359 886.5,366C 893.5,365.333 900.5,365.333 907.5,366C 916.592,369.344 920.092,375.844 918,385.5C 917.107,391.393 913.773,395.06 908,396.5C 906.399,399.094 906.233,401.761 907.5,404.5C 908.716,405.002 909.883,405.335 911,405.5C 912.766,410.936 916.099,412.269 921,409.5C 921.497,406.854 921.664,404.187 921.5,401.5C 926.606,403.242 931.606,404.742 936.5,406C 934.84,408.911 933.674,412.078 933,415.5C 932.333,416.833 931.667,416.833 931,415.5C 928.579,419.716 929.079,423.383 932.5,426.5C 933.965,425.391 934.965,425.891 935.5,428C 932.969,431.358 930.302,434.524 927.5,437.5 Z M 1005.5,365.5 C 1020.17,365.333 1034.84,365.5 1049.5,366C 1054.17,367.168 1058.84,368.335 1063.5,369.5C 1062.37,371.529 1062.87,371.863 1065,370.5C 1069.75,375.083 1071.91,380.749 1071.5,387.5C 1069.98,389.662 1068.98,391.995 1068.5,394.5C 1066.53,394.261 1064.7,394.594 1063,395.5C 1062.33,398.167 1062.33,400.833 1063,403.5C 1066.1,405.139 1069.26,406.473 1072.5,407.5C 1074.5,414.282 1075,421.282 1074,428.5C 1071.84,429.826 1070.01,431.493 1068.5,433.5C 1065.91,434.194 1063.58,435.36 1061.5,437C 1043.14,437.992 1024.81,438.825 1006.5,439.5C 1005.5,414.842 1005.17,390.176 1005.5,365.5 Z M 1159.5,370.5 C 1161.6,371.412 1163.6,372.579 1165.5,374C 1166.52,376.897 1168.36,379.064 1171,380.5C 1172.63,386.285 1174.63,391.952 1177,397.5C 1177.67,400.5 1177.67,403.5 1177,406.5C 1174.54,411.564 1172.71,416.73 1171.5,422C 1168.81,424.718 1166.48,427.718 1164.5,431C 1152.55,439.203 1139.21,441.87 1124.5,439C 1123.94,438.617 1123.61,438.117 1123.5,437.5C 1121.47,437.662 1119.47,437.495 1117.5,437C 1116.33,435.245 1114.66,434.245 1112.5,434C 1111.19,432.605 1111.52,431.605 1113.5,431C 1111.79,430.805 1110.13,430.805 1108.5,431C 1093.32,413.032 1092.65,394.532 1106.5,375.5C 1109.59,373.909 1112.26,371.743 1114.5,369C 1117.53,368.867 1120.19,367.867 1122.5,366C 1131.83,365.333 1141.17,365.333 1150.5,366C 1153.72,367.359 1156.72,368.859 1159.5,370.5 Z M 1202.5,365.5 C 1221,364.61 1239.33,365.776 1257.5,369C 1258.63,370.016 1258.3,370.683 1256.5,371C 1258.69,370.43 1260.69,370.764 1262.5,372C 1265.64,375.14 1268.81,378.306 1272,381.5C 1273.15,384.711 1273.82,388.044 1274,391.5C 1274.67,390.167 1275.33,390.167 1276,391.5C 1276.67,398.5 1276.67,405.5 1276,412.5C 1275.59,412.957 1275.09,413.291 1274.5,413.5C 1273.8,416.556 1272.97,419.556 1272,422.5C 1269.56,425.729 1266.89,428.729 1264,431.5C 1262.19,430.391 1261.35,431.058 1261.5,433.5C 1258.07,433.547 1255.07,434.713 1252.5,437C 1236.14,437.963 1219.81,438.796 1203.5,439.5C 1202.5,414.842 1202.17,390.176 1202.5,365.5 Z M 1289.5,366.5 C 1296.65,365.345 1303.99,365.178 1311.5,366C 1315.33,370.489 1317.83,375.656 1319,381.5C 1320,382.167 1321,382.833 1322,383.5C 1322.85,387.677 1325.18,390.677 1329,392.5C 1331.76,391.523 1333.09,389.523 1333,386.5C 1337.2,379.646 1341.36,372.813 1345.5,366C 1351.86,365.169 1358.19,365.336 1364.5,366.5C 1362.06,369.598 1359.9,372.931 1358,376.5C 1356.86,376.727 1355.7,377.06 1354.5,377.5C 1355.48,379.098 1355.65,380.765 1355,382.5C 1350.65,386.88 1347.32,392.546 1345,399.5C 1344.28,398.549 1343.45,398.383 1342.5,399C 1342.67,400.117 1343,401.284 1343.5,402.5C 1341.05,404.776 1339.22,407.442 1338,410.5C 1337.83,420.184 1337.33,429.851 1336.5,439.5C 1330.3,438.183 1324.14,438.183 1318,439.5C 1317.67,429.833 1317.33,420.167 1317,410.5C 1316.06,407.891 1314.39,405.891 1312,404.5C 1310.61,400.471 1309.28,396.471 1308,392.5C 1307.59,392.957 1307.09,393.291 1306.5,393.5C 1302.96,389.046 1300.46,384.046 1299,378.5C 1296.07,377.22 1295.23,375.22 1296.5,372.5C 1295.73,371.289 1294.89,371.289 1294,372.5C 1293.43,369.771 1291.93,367.771 1289.5,366.5 Z M 1403.5,365.5 C 1412.51,365.334 1421.51,365.5 1430.5,366C 1433.41,367.286 1436.41,368.286 1439.5,369C 1441.87,371.706 1444.54,374.039 1447.5,376C 1443.39,380.113 1439.22,384.279 1435,388.5C 1432.18,385.353 1429.02,382.52 1425.5,380C 1411.34,377.719 1402.01,383.386 1397.5,397C 1396.17,412.519 1403.17,422.019 1418.5,425.5C 1421.87,423.36 1425.37,422.694 1429,423.5C 1430.35,420.409 1432.51,418.076 1435.5,416.5C 1439.19,420.02 1443.02,423.353 1447,426.5C 1447.02,429.302 1445.52,430.636 1442.5,430.5C 1442.72,431.675 1442.39,432.675 1441.5,433.5C 1437.8,436.043 1433.8,437.877 1429.5,439C 1419,440.133 1408.67,439.466 1398.5,437C 1397.33,435.833 1396.17,434.667 1395,433.5C 1394.59,433.957 1394.09,434.291 1393.5,434.5C 1389.84,431.673 1386.67,428.34 1384,424.5C 1384.2,422.874 1384.2,421.207 1384,419.5C 1383.33,420.167 1382.67,420.833 1382,421.5C 1381.18,416.55 1379.68,411.883 1377.5,407.5C 1378.18,403.193 1378.34,398.86 1378,394.5C 1380.13,390.768 1381.47,386.768 1382,382.5C 1383.67,380.167 1385.33,377.833 1387,375.5C 1389.78,374.388 1391.95,372.555 1393.5,370C 1395.71,368.956 1398.05,368.29 1400.5,368C 1401.94,367.623 1402.94,366.79 1403.5,365.5 Z M 1496.5,365.5 C 1503.83,365.5 1511.17,365.5 1518.5,365.5C 1518.26,368.408 1519.26,370.742 1521.5,372.5C 1521.29,373.086 1520.96,373.586 1520.5,374C 1523.72,377.164 1524.72,380.831 1523.5,385C 1524.72,387.096 1525.55,386.929 1526,384.5C 1526.8,388.645 1528.64,392.312 1531.5,395.5C 1530.52,397.098 1530.35,398.765 1531,400.5C 1531.32,398.699 1531.98,398.366 1533,399.5C 1534.13,404.601 1536.13,409.268 1539,413.5C 1538.78,417.248 1540.11,420.248 1543,422.5C 1543.59,423.899 1543.43,425.232 1542.5,426.5C 1544.83,428.617 1546,431.284 1546,434.5C 1549,435.284 1549.83,436.951 1548.5,439.5C 1542.17,438.167 1535.83,438.167 1529.5,439.5C 1527.66,434.578 1525.66,429.744 1523.5,425C 1512.5,424.333 1501.5,424.333 1490.5,425C 1489.67,430.364 1487.67,435.198 1484.5,439.5C 1478.35,438.186 1472.18,438.186 1466,439.5C 1465.5,439.167 1465,438.833 1464.5,438.5C 1467.58,436.349 1469.08,433.349 1469,429.5C 1469.41,429.957 1469.91,430.291 1470.5,430.5C 1472,425.156 1473.5,419.823 1475,414.5C 1475.33,415.167 1475.67,415.833 1476,416.5C 1478.2,411.287 1479.7,405.954 1480.5,400.5C 1481.5,400.5 1482.5,400.5 1483.5,400.5C 1483.67,394.833 1485.51,389.833 1489,385.5C 1490.17,381.159 1491.34,376.826 1492.5,372.5C 1493.5,372.5 1494.5,372.5 1495.5,372.5C 1495.3,370.05 1495.63,367.717 1496.5,365.5 Z M 1571.5,365.5 C 1584.17,365.333 1596.84,365.5 1609.5,366C 1614.08,367.455 1618.75,368.622 1623.5,369.5C 1623.29,370.086 1622.96,370.586 1622.5,371C 1623.78,371.684 1624.95,371.517 1626,370.5C 1636.1,378.434 1639.43,388.768 1636,401.5C 1634.33,404.5 1632.67,407.5 1631,410.5C 1628.65,411.808 1626.15,412.808 1623.5,413.5C 1623.07,414.293 1622.74,415.127 1622.5,416C 1624.32,419.802 1625.99,423.635 1627.5,427.5C 1628.5,427.5 1629.5,427.5 1630.5,427.5C 1631.69,431.956 1633.52,435.956 1636,439.5C 1629.67,438.167 1623.33,438.167 1617,439.5C 1616,438.833 1615,438.167 1614,437.5C 1609.81,431.525 1605.97,425.359 1602.5,419C 1599.17,418.333 1595.83,418.333 1592.5,419C 1592,419.5 1591.5,420 1591,420.5C 1590.67,426.833 1590.33,433.167 1590,439.5C 1584,438.167 1578,438.167 1572,439.5C 1571.5,414.836 1571.33,390.169 1571.5,365.5 Z M 1682.5,393.5 C 1693.27,395.115 1704.27,396.115 1715.5,396.5C 1714.73,400.779 1714.23,405.113 1714,409.5C 1713.63,408.584 1713.13,407.75 1712.5,407C 1703.48,406.168 1694.48,406.335 1685.5,407.5C 1684.86,408.646 1684.02,409.646 1683,410.5C 1682.33,414.833 1682.33,419.167 1683,423.5C 1695.47,424.826 1707.97,424.826 1720.5,423.5C 1721.83,428.833 1721.83,434.167 1720.5,439.5C 1701.97,438.172 1683.47,438.172 1665,439.5C 1664.5,439 1664,438.5 1663.5,438C 1664.81,413.875 1664.81,389.709 1663.5,365.5C 1682.17,365.5 1700.83,365.5 1719.5,365.5C 1719.2,370.099 1719.53,374.599 1720.5,379C 1708.15,379.167 1695.82,379.667 1683.5,380.5C 1682.89,382.709 1682.23,384.876 1681.5,387C 1682.42,389.041 1682.76,391.208 1682.5,393.5 Z"/></g>
<g><path style="opacity:0.917" fill="currentColor" d="M 2583.5,302.5 C 2874.17,302.5 3164.83,302.5 3455.5,302.5C 3455.52,367.266 3455.52,431.933 3455.5,496.5C 3164.83,496.5 2874.17,496.5 2583.5,496.5C 2583.5,431.833 2583.5,367.167 2583.5,302.5 Z M 2686.5,368.5 C 2697.51,368.333 2708.51,368.5 2719.5,369C 2722.62,371.179 2725.79,372.346 2729,372.5C 2728.55,373.99 2727.55,375.324 2726,376.5C 2724.55,380.411 2723.38,384.411 2722.5,388.5C 2720.05,386.08 2717.05,384.914 2713.5,385C 2712.79,383.745 2711.96,382.579 2711,381.5C 2709.89,382.711 2708.72,382.711 2707.5,381.5C 2701.16,381.831 2695.16,383.331 2689.5,386C 2688.71,387.085 2688.04,388.252 2687.5,389.5C 2688.78,391.179 2689.78,393.013 2690.5,395C 2699.1,398.498 2708.1,400.831 2717.5,402C 2718.91,404.71 2720.91,405.71 2723.5,405C 2728.91,408.833 2731.91,414.166 2732.5,421C 2732.16,433.667 2725.82,441 2713.5,443C 2712.83,443.667 2712.17,444.333 2711.5,445C 2702.17,445.667 2692.83,445.667 2683.5,445C 2682.87,444.25 2682.37,443.416 2682,442.5C 2681.67,442.833 2681.33,443.167 2681,443.5C 2678.59,442.726 2676.09,442.226 2673.5,442C 2671.97,440.113 2669.97,439.113 2667.5,439C 2669.63,436.567 2670.96,433.734 2671.5,430.5C 2672.68,431.855 2673.68,431.688 2674.5,430C 2673.24,428.186 2673.24,426.353 2674.5,424.5C 2675.85,425.95 2677.52,426.617 2679.5,426.5C 2679.5,427.5 2679.5,428.5 2679.5,429.5C 2683.18,429.335 2686.85,429.501 2690.5,430C 2693.62,431.738 2696.79,432.571 2700,432.5C 2703.46,431.187 2706.96,430.02 2710.5,429C 2713.17,425.667 2713.17,422.333 2710.5,419C 2706.3,416.218 2701.63,414.884 2696.5,415C 2696.64,413.931 2696.64,412.764 2696.5,411.5C 2690.24,413.174 2684.24,412.507 2678.5,409.5C 2677.61,408.675 2677.28,407.675 2677.5,406.5C 2673.94,405.935 2671.6,403.935 2670.5,400.5C 2667.56,390.453 2669.56,381.619 2676.5,374C 2679.3,372.402 2682.3,371.235 2685.5,370.5C 2685.86,369.817 2686.2,369.15 2686.5,368.5 Z M 2815.5,422.5 C 2820.41,429.054 2825.74,436.054 2831.5,443.5C 2822.64,443.622 2813.98,443.289 2805.5,442.5C 2800.41,435.416 2795.74,428.083 2791.5,420.5C 2788.79,418.564 2785.79,418.064 2782.5,419C 2781.43,421.742 2779.93,424.242 2778,426.5C 2777.67,432.5 2777.33,438.5 2777,444.5C 2770.86,443.183 2764.7,443.183 2758.5,444.5C 2757.5,419.175 2757.17,393.842 2757.5,368.5C 2764.53,368.17 2771.53,368.503 2778.5,369.5C 2777.36,378.452 2777.19,387.452 2778,396.5C 2781.07,396.938 2784.07,396.271 2787,394.5C 2793.38,385.773 2800.21,377.273 2807.5,369C 2815.17,368.333 2822.83,368.333 2830.5,369C 2821.42,377.988 2812.92,387.488 2805,397.5C 2803.93,398.191 2802.77,398.691 2801.5,399C 2802.61,401.9 2802.78,405.067 2802,408.5C 2802.61,406.519 2803.61,406.185 2805,407.5C 2808.78,412.378 2812.28,417.378 2815.5,422.5 Z M 2854.5,368.5 C 2861.5,368.5 2868.5,368.5 2875.5,368.5C 2875.5,393.5 2875.5,418.5 2875.5,443.5C 2868.91,443.189 2862.41,443.522 2856,444.5C 2855.13,443.892 2854.63,443.059 2854.5,442C 2855.81,417.507 2855.81,393.007 2854.5,368.5 Z M 2905.5,368.5 C 2911.51,368.334 2917.51,368.501 2923.5,369C 2929.6,377.93 2936.6,386.097 2944.5,393.5C 2946.6,397.228 2948.6,400.894 2950.5,404.5C 2953.58,404.804 2956.41,405.804 2959,407.5C 2960.01,405.975 2960.51,404.308 2960.5,402.5C 2959.5,402.5 2958.5,402.5 2957.5,402.5C 2957.81,391.448 2957.48,380.448 2956.5,369.5C 2963.47,368.503 2970.47,368.17 2977.5,368.5C 2977.83,393.842 2977.5,419.175 2976.5,444.5C 2970.01,443.621 2963.68,442.955 2957.5,442.5C 2955.75,439.995 2954.25,437.329 2953,434.5C 2952.33,435.833 2951.67,435.833 2951,434.5C 2947.99,430.491 2944.99,426.491 2942,422.5C 2941.67,421.167 2941.33,419.833 2941,418.5C 2940.67,418.833 2940.33,419.167 2940,419.5C 2937.2,417.511 2935.36,414.844 2934.5,411.5C 2931.66,410.462 2928.99,409.129 2926.5,407.5C 2923.56,408.207 2923.06,409.54 2925,411.5C 2925.67,422.5 2925.67,433.5 2925,444.5C 2919,443.167 2913,443.167 2907,444.5C 2906.81,419.124 2906.31,393.791 2905.5,368.5 Z M 3071.5,437.5 C 3067.09,441.033 3062.09,443.533 3056.5,445C 3043.85,447.167 3032.02,445.334 3021,439.5C 3009.84,431.507 3004.01,420.674 3003.5,407C 3005.05,401.98 3005.88,396.814 3006,391.5C 3007.71,387.974 3009.71,384.641 3012,381.5C 3024.55,368.681 3040.39,364.514 3059.5,369C 3064.1,371.564 3068.77,374.231 3073.5,377C 3075.33,378.113 3076.16,379.613 3076,381.5C 3071.78,384.603 3067.78,387.937 3064,391.5C 3061.43,389.794 3058.93,387.961 3056.5,386C 3052.45,385.887 3048.78,384.72 3045.5,382.5C 3042.13,384.677 3038.47,386.177 3034.5,387C 3025.86,394.545 3023.02,404.045 3026,415.5C 3028.5,420.327 3032,424.161 3036.5,427C 3036.17,427.333 3035.83,427.667 3035.5,428C 3042.09,429.483 3048.59,429.983 3055,429.5C 3057.59,426.371 3060.59,423.704 3064,421.5C 3067.54,426.042 3071.71,429.875 3076.5,433C 3074.92,434.758 3073.25,436.258 3071.5,437.5 Z M 3125.5,369.5 C 3133.23,368.173 3141.07,368.173 3149,369.5C 3149.33,372.167 3149.67,374.833 3150,377.5C 3150.41,377.043 3150.91,376.709 3151.5,376.5C 3156.06,388.727 3161.23,400.727 3167,412.5C 3167.5,414.473 3167.66,416.473 3167.5,418.5C 3168.5,418.5 3169.5,418.5 3170.5,418.5C 3172.17,423.012 3173.33,427.678 3174,432.5C 3177.06,435.489 3178.89,439.156 3179.5,443.5C 3173.24,443.19 3167.08,443.524 3161,444.5C 3157.28,442.255 3155.61,438.921 3156,434.5C 3155.53,433.069 3154.7,431.903 3153.5,431C 3142.5,430.333 3131.5,430.333 3120.5,431C 3118.73,435.035 3117.4,439.202 3116.5,443.5C 3109.49,443.334 3102.49,443.5 3095.5,444C 3094.78,445.338 3094.11,445.505 3093.5,444.5C 3095.48,441.57 3097.31,438.57 3099,435.5C 3103.64,424.566 3107.97,413.566 3112,402.5C 3113.83,402.194 3114.99,400.694 3115.5,398C 3114.83,397.667 3114.17,397.333 3113.5,397C 3114.58,396.044 3115.75,395.211 3117,394.5C 3118.83,385.853 3122,377.853 3126.5,370.5C 3126.38,369.893 3126.04,369.56 3125.5,369.5 Z M 3268.5,385.5 C 3269.12,385.611 3269.62,385.944 3270,386.5C 3270.67,393.167 3270.67,399.833 3270,406.5C 3267.66,407.292 3267.16,408.625 3268.5,410.5C 3266.46,411.579 3265.12,413.246 3264.5,415.5C 3262.14,417.352 3259.48,418.519 3256.5,419C 3254.04,421.089 3254.04,423.255 3256.5,425.5C 3257.09,425.291 3257.59,424.957 3258,424.5C 3262.08,431.354 3266.08,438.021 3270,444.5C 3262.56,443.849 3255.06,443.182 3247.5,442.5C 3245.19,438.951 3243.02,435.285 3241,431.5C 3240.33,430.167 3239.67,430.167 3239,431.5C 3238.81,425.637 3235.81,422.971 3230,423.5C 3228.02,423.629 3226.35,424.296 3225,425.5C 3224.75,427.433 3224.25,429.266 3223.5,431C 3223.96,435.539 3223.96,440.039 3223.5,444.5C 3216.97,443.182 3210.47,443.182 3204,444.5C 3204.82,419.183 3204.66,393.849 3203.5,368.5C 3217.5,368.333 3231.5,368.5 3245.5,369C 3250.51,370.833 3255.51,372.667 3260.5,374.5C 3260.35,375.552 3260.52,376.552 3261,377.5C 3264.72,378.401 3267.22,381.067 3268.5,385.5 Z M 3297.5,368.5 C 3316.83,368.5 3336.17,368.5 3355.5,368.5C 3354.68,374.576 3354.34,380.243 3354.5,385.5C 3342.64,384.175 3330.8,384.175 3319,385.5C 3318.33,389.5 3318.33,393.5 3319,397.5C 3319.5,398 3320,398.5 3320.5,399C 3330.74,399.819 3340.91,399.652 3351,398.5C 3351.67,403.5 3351.67,408.5 3351,413.5C 3340.58,412.348 3330.08,412.181 3319.5,413C 3318.53,418.407 3318.19,423.907 3318.5,429.5C 3331.5,429.5 3344.5,429.5 3357.5,429.5C 3357.67,434.511 3357.5,439.511 3357,444.5C 3337.2,443.519 3317.53,443.186 3298,443.5C 3298.83,418.536 3298.67,393.536 3297.5,368.5 Z"/></g>
<g><path style="opacity:0.423" fill="currentColor" d="M 896.5,374.5 C 898.17,374.751 899.67,375.418 901,376.5C 902.147,375.542 903.147,375.875 904,377.5C 904.667,380.5 904.667,383.5 904,386.5C 901.547,387.355 899.213,389.022 897,391.5C 894.993,390.331 892.827,389.665 890.5,389.5C 889.705,385.215 889.372,380.881 889.5,376.5C 892.067,376.279 894.401,375.612 896.5,374.5 Z"/></g>
<g><path style="opacity:0.004" fill="currentColor" d="M 2802.5,376.5 C 2803.71,377.497 2803.55,378.497 2802,379.5C 2801.53,378.423 2801.7,377.423 2802.5,376.5 Z"/></g>
<g><path style="opacity:0.004" fill="currentColor" d="M 905.5,379.5 C 905.56,378.957 905.893,378.624 906.5,378.5C 907.631,380.074 907.798,381.741 907,383.5C 906.79,381.942 906.29,380.609 905.5,379.5 Z"/></g>
<g><path style="opacity:0.585" fill="currentColor" d="M 1026.5,378.5 C 1033.53,378.843 1040.53,379.343 1047.5,380C 1052.76,384.924 1052.76,389.924 1047.5,395C 1040.48,395.831 1033.48,395.664 1026.5,394.5C 1025.17,389.137 1025.17,383.803 1026.5,378.5 Z"/></g>
<g><path style="opacity:0.57" fill="currentColor" d="M 1611.5,382.5 C 1616.06,386.725 1617.56,392.058 1616,398.5C 1608.74,406.192 1600.41,407.525 1591,402.5C 1590.2,395.45 1590.37,388.45 1591.5,381.5C 1597.55,379.968 1603.72,378.968 1610,378.5C 1610.5,378.833 1611,379.167 1611.5,379.5C 1609.02,380.88 1609.02,381.88 1611.5,382.5 Z"/></g>
<g><path style="opacity:0.557" fill="currentColor" d="M 388.5,379.5 C 397.481,377.643 404.981,379.977 411,386.5C 413.654,394.394 411.487,400.561 404.5,405C 399.833,405.667 395.167,405.667 390.5,405C 388.671,404.727 387.171,403.893 386,402.5C 385.333,396.167 385.333,389.833 386,383.5C 386.662,382.016 387.496,380.683 388.5,379.5 Z"/></g>
<g><path style="opacity:0.572" fill="currentColor" d="M 671.5,379.5 C 680.996,377.51 688.163,380.51 693,388.5C 694.301,390.365 694.635,392.365 694,394.5C 688.601,405.707 680.101,408.707 668.5,403.5C 667.368,396.217 667.201,388.883 668,381.5C 669.302,380.915 670.469,380.249 671.5,379.5 Z"/></g>
<g><path style="opacity:0.756" fill="currentColor" d="M 1156.5,394.5 C 1156.59,398.861 1156.92,403.028 1157.5,407C 1155.65,409.528 1154.49,412.361 1154,415.5C 1150.62,417.218 1148.28,419.885 1147,423.5C 1146.44,422.978 1145.77,422.645 1145,422.5C 1142.26,423.303 1139.59,424.303 1137,425.5C 1133.6,424.044 1130.1,423.044 1126.5,422.5C 1123.11,418.732 1119.94,414.732 1117,410.5C 1113.8,396.757 1118.3,386.59 1130.5,380C 1134.5,379.333 1138.5,379.333 1142.5,380C 1146.6,382.27 1150.27,385.104 1153.5,388.5C 1154.14,390.78 1155.14,392.78 1156.5,394.5 Z"/></g>
<g><path style="opacity:0.709" fill="currentColor" d="M 1227.5,379.5 C 1231.49,380.65 1235.49,380.817 1239.5,380C 1254.18,384.494 1259.85,394.328 1256.5,409.5C 1256.92,410.672 1257.59,411.672 1258.5,412.5C 1257.28,413.096 1255.95,413.263 1254.5,413C 1252.67,416.167 1250.17,418.667 1247,420.5C 1246.38,421.449 1246.55,422.282 1247.5,423C 1239.57,423.257 1231.57,423.257 1223.5,423C 1222.87,422.25 1222.37,421.416 1222,420.5C 1221.33,408.167 1221.33,395.833 1222,383.5C 1223.46,381.535 1225.29,380.201 1227.5,379.5 Z"/></g>
<g><path style="opacity:0.629" fill="currentColor" d="M 3224.5,385.5 C 3231.17,385.334 3237.84,385.5 3244.5,386C 3251.2,391.811 3252.03,398.311 3247,405.5C 3243.36,406.862 3239.86,408.529 3236.5,410.5C 3234.46,409.366 3232.46,409.366 3230.5,410.5C 3228.83,409.667 3227.17,408.833 3225.5,408C 3224.52,400.587 3224.19,393.087 3224.5,385.5 Z"/></g>
<g><path style="opacity:0.464" fill="currentColor" d="M 247.5,390.5 C 249.631,387.443 252.464,386.776 256,388.5C 257.591,393.726 259.591,398.726 262,403.5C 262.497,406.146 262.664,408.813 262.5,411.5C 256.824,411.334 251.157,411.501 245.5,412C 244.531,413.758 243.364,414.258 242,413.5C 241.6,408.633 242.933,404.3 246,400.5C 246.455,397.146 246.955,393.813 247.5,390.5 Z"/></g>
<g><path style="opacity:0.458" fill="currentColor" d="M 579.5,387.5 C 582.881,387.46 586.214,387.793 589.5,388.5C 589.497,395.498 590.997,402.164 594,408.5C 595.428,413.106 594.261,414.273 590.5,412C 584.858,411.644 579.358,411.478 574,411.5C 571.791,408.796 572.124,406.463 575,404.5C 575.287,402.109 575.787,399.776 576.5,397.5C 577.325,396.614 578.325,396.281 579.5,396.5C 579.5,393.5 579.5,390.5 579.5,387.5 Z"/></g>
<g><path style="opacity:0.481" fill="currentColor" d="M 1503.5,387.5 C 1505.79,387.244 1507.96,387.577 1510,388.5C 1511.39,392.529 1512.72,396.529 1514,400.5C 1514.67,401.167 1515.33,401.833 1516,402.5C 1516.5,405.482 1516.66,408.482 1516.5,411.5C 1510.17,411.5 1503.83,411.5 1497.5,411.5C 1497.34,408.482 1497.5,405.482 1498,402.5C 1498.41,402.043 1498.91,401.709 1499.5,401.5C 1501.32,396.998 1502.65,392.331 1503.5,387.5 Z"/></g>
<g><path style="opacity:0.004" fill="currentColor" d="M 247.5,390.5 C 246.637,391.463 245.97,391.463 245.5,390.5C 246.257,389.227 246.923,389.227 247.5,390.5 Z"/></g>
<g><path style="opacity:0.454" fill="currentColor" d="M 3133.5,391.5 C 3136.45,391.223 3139.28,391.556 3142,392.5C 3142.68,398.519 3144.34,404.186 3147,409.5C 3147.76,411.769 3147.59,413.936 3146.5,416C 3139.92,416.81 3133.42,416.643 3127,415.5C 3128.88,409.029 3130.21,402.362 3131,395.5C 3131.48,393.867 3132.31,392.534 3133.5,391.5 Z"/></g>
<g><path style="opacity:0.454" fill="currentColor" d="M 886.5,406.5 C 888.527,406.338 890.527,406.505 892.5,407C 895.385,411.552 899.218,415.052 904,417.5C 907.567,424.633 905.4,427.8 897.5,427C 898.451,427.718 898.617,428.551 898,429.5C 894.358,428.707 890.858,427.54 887.5,426C 886.667,425.167 885.833,424.333 885,423.5C 883.128,421.622 881.628,419.455 880.5,417C 883.332,414.035 885.332,410.535 886.5,406.5 Z"/></g>
<g><path style="opacity:0.521" fill="currentColor" d="M 1027.5,406.5 C 1034.84,406.334 1042.17,406.5 1049.5,407C 1050.83,407.667 1050.83,408.333 1049.5,409C 1051.58,409.807 1053.41,410.974 1055,412.5C 1055.67,415.167 1055.67,417.833 1055,420.5C 1052.56,421.977 1050.39,423.81 1048.5,426C 1041.45,426.797 1034.45,426.63 1027.5,425.5C 1026.81,424.975 1026.31,424.308 1026,423.5C 1024.99,417.62 1025.49,411.954 1027.5,406.5 Z"/></g>
<g><path style="opacity:0.004" fill="currentColor" d="M 931.5,409.5 C 933.973,409.947 934.14,410.947 932,412.5C 931.517,411.552 931.351,410.552 931.5,409.5 Z"/></g>
<g><path style="opacity:0.004" fill="currentColor" d="M 1535.5,413.5 C 1536.29,413.783 1536.96,414.283 1537.5,415C 1536.18,415.528 1535.52,415.028 1535.5,413.5 Z"/></g>
<g><path style="opacity:0.004" fill="currentColor" d="M 2815.5,422.5 C 2814.92,423.773 2814.26,423.773 2813.5,422.5C 2813.97,421.537 2814.64,421.537 2815.5,422.5 Z"/></g>
<g><path style="opacity:0.004" fill="currentColor" d="M 3102.5,429.5 C 3103.77,430.077 3103.77,430.743 3102.5,431.5C 3101.54,431.03 3101.54,430.363 3102.5,429.5 Z"/></g>
<g><path style="opacity:0.004" fill="currentColor" d="M 1426.5,436.5 C 1427.39,435.224 1428.39,435.224 1429.5,436.5C 1428.58,437.562 1427.58,437.562 1426.5,436.5 Z"/></g>
<g><path style="opacity:0.004" fill="currentColor" d="M 3071.5,437.5 C 3070.24,437.539 3069.24,437.039 3068.5,436C 3070,435.415 3071,435.915 3071.5,437.5 Z"/></g>
</svg>
