<?xml version="1.0" encoding="UTF-8"?>
<svg version="1.1" xmlns="http://www.w3.org/2000/svg" width="482" height="222">
<path d="M0 0 C95.04 0 190.08 0 288 0 C288 1.32 288 2.64 288 4 C289.32 4 290.64 4 292 4 C292 56.14 292 108.28 292 162 C325 162 358 162 392 162 C392 163.32 392 164.64 392 166 C393.32 166 394.64 166 396 166 C396 177.88 396 189.76 396 202 C361.68 202 327.36 202 292 202 C292 208.6 292 215.2 292 222 C284.08 222 276.16 222 268 222 C268 215.4 268 208.8 268 202 C267.34 202 266.68 202 266 202 C266 200.68 266 199.36 266 198 C264.68 198 263.36 198 262 198 C262 192.06 262 186.12 262 180 C261.34 180 260.68 180 260 180 C260 179.34 260 178.68 260 178 C260.66 178 261.32 178 262 178 C262 177.34 262 176.68 262 176 C261.34 176 260.68 176 260 176 C260 175.34 260 174.68 260 174 C260.66 174 261.32 174 262 174 C262 173.34 262 172.68 262 172 C261.34 172 260.68 172 260 172 C260 171.34 260 170.68 260 170 C260.66 170 261.32 170 262 170 C262 169.34 262 168.68 262 168 C261.34 168 260.68 168 260 168 C260 167.34 260 166.68 260 166 C260.66 166 261.32 166 262 166 C262 164.68 262 163.36 262 162 C263.98 162 265.96 162 268 162 C268 160.68 268 159.36 268 158 C267.34 158 266.68 158 266 158 C266 157.34 266 156.68 266 156 C266.66 156 267.32 156 268 156 C268 155.34 268 154.68 268 154 C267.34 154 266.68 154 266 154 C266 153.34 266 152.68 266 152 C266.66 152 267.32 152 268 152 C268 150.02 268 148.04 268 146 C267.34 146 266.68 146 266 146 C266 145.34 266 144.68 266 144 C266.66 144 267.32 144 268 144 C268 143.34 268 142.68 268 142 C267.34 142 266.68 142 266 142 C266 141.34 266 140.68 266 140 C266.66 140 267.32 140 268 140 C268 139.34 268 138.68 268 138 C267.34 138 266.68 138 266 138 C266 137.34 266 136.68 266 136 C266.66 136 267.32 136 268 136 C268 134.02 268 132.04 268 130 C267.34 130 266.68 130 266 130 C266 129.34 266 128.68 266 128 C266.66 128 267.32 128 268 128 C268 127.34 268 126.68 268 126 C267.34 126 266.68 126 266 126 C266 125.34 266 124.68 266 124 C266.66 124 267.32 124 268 124 C268 122.02 268 120.04 268 118 C267.34 118 266.68 118 266 118 C266 117.34 266 116.68 266 116 C266.66 116 267.32 116 268 116 C268 115.34 268 114.68 268 114 C267.34 114 266.68 114 266 114 C266 113.34 266 112.68 266 112 C266.66 112 267.32 112 268 112 C268 111.34 268 110.68 268 110 C267.34 110 266.68 110 266 110 C266 109.34 266 108.68 266 108 C266.66 108 267.32 108 268 108 C268 107.34 268 106.68 268 106 C267.34 106 266.68 106 266 106 C266 105.34 266 104.68 266 104 C266.66 104 267.32 104 268 104 C268 102.02 268 100.04 268 98 C267.34 98 266.68 98 266 98 C266 97.34 266 96.68 266 96 C266.66 96 267.32 96 268 96 C268 95.34 268 94.68 268 94 C267.34 94 266.68 94 266 94 C266 93.34 266 92.68 266 92 C266.66 92 267.32 92 268 92 C268 82.1 268 72.2 268 62 C185.5 62 103 62 18 62 C18 73.88 18 85.76 18 98 C42.42 98 66.84 98 92 98 C92 98.66 92 99.32 92 100 C93.98 100 95.96 100 98 100 C98 100.66 98 101.32 98 102 C96.68 102 95.36 102 94 102 C94 102.66 94 103.32 94 104 C95.32 104 96.64 104 98 104 C98 104.66 98 105.32 98 106 C96.02 106 94.04 106 92 106 C92 106.66 92 107.32 92 108 C92.66 108 93.32 108 94 108 C94 109.32 94 110.64 94 112 C95.32 112 96.64 112 98 112 C98 112.66 98 113.32 98 114 C96.02 114 94.04 114 92 114 C92 114.66 92 115.32 92 116 C93.98 116 95.96 116 98 116 C98 116.66 98 117.32 98 118 C96.68 118 95.36 118 94 118 C94 118.66 94 119.32 94 120 C95.32 120 96.64 120 98 120 C98 120.66 98 121.32 98 122 C96.02 122 94.04 122 92 122 C92 122.66 92 123.32 92 124 C93.98 124 95.96 124 98 124 C98 124.66 98 125.32 98 126 C96.68 126 95.36 126 94 126 C94 127.32 94 128.64 94 130 C93.34 130 92.68 130 92 130 C92 130.66 92 131.32 92 132 C93.98 132 95.96 132 98 132 C98 132.66 98 133.32 98 134 C96.68 134 95.36 134 94 134 C94 134.66 94 135.32 94 136 C95.32 136 96.64 136 98 136 C98 136.66 98 137.32 98 138 C96.02 138 94.04 138 92 138 C92 138.66 92 139.32 92 140 C92.66 140 93.32 140 94 140 C94 141.32 94 142.64 94 144 C95.32 144 96.64 144 98 144 C98 144.66 98 145.32 98 146 C96.02 146 94.04 146 92 146 C92 146.66 92 147.32 92 148 C93.98 148 95.96 148 98 148 C98 148.66 98 149.32 98 150 C96.68 150 95.36 150 94 150 C94 150.66 94 151.32 94 152 C95.32 152 96.64 152 98 152 C98 152.66 98 153.32 98 154 C96.02 154 94.04 154 92 154 C92 154.66 92 155.32 92 156 C92.66 156 93.32 156 94 156 C94 157.32 94 158.64 94 160 C95.32 160 96.64 160 98 160 C98 160.66 98 161.32 98 162 C96.02 162 94.04 162 92 162 C92 162.66 92 163.32 92 164 C93.98 164 95.96 164 98 164 C98 164.66 98 165.32 98 166 C96.68 166 95.36 166 94 166 C94 167.32 94 168.64 94 170 C93.34 170 92.68 170 92 170 C92 170.66 92 171.32 92 172 C93.98 172 95.96 172 98 172 C98 172.66 98 173.32 98 174 C96.68 174 95.36 174 94 174 C94 174.66 94 175.32 94 176 C95.32 176 96.64 176 98 176 C98 176.66 98 177.32 98 178 C96.02 178 94.04 178 92 178 C92 178.66 92 179.32 92 180 C93.98 180 95.96 180 98 180 C98 180.66 98 181.32 98 182 C96.68 182 95.36 182 94 182 C94 182.66 94 183.32 94 184 C95.32 184 96.64 184 98 184 C98 184.66 98 185.32 98 186 C96.02 186 94.04 186 92 186 C92 186.66 92 187.32 92 188 C67.58 188 43.16 188 18 188 C18 199.22 18 210.44 18 222 C12.06 222 6.12 222 0 222 C0 211.44 0 200.88 0 190 C-5.94 190 -11.88 190 -18 190 C-18 189.34 -18 188.68 -18 188 C-18.66 188 -19.32 188 -20 188 C-20 187.34 -20 186.68 -20 186 C-20.66 186 -21.32 186 -22 186 C-22 185.34 -22 184.68 -22 184 C-22.66 184 -23.32 184 -24 184 C-24 174.1 -24 164.2 -24 154 C-42.48 154 -60.96 154 -80 154 C-80 153.34 -80 152.68 -80 152 C-80.66 152 -81.32 152 -82 152 C-82 151.34 -82 150.68 -82 150 C-82.66 150 -83.32 150 -84 150 C-84 149.34 -84 148.68 -84 148 C-84.66 148 -85.32 148 -86 148 C-86 144.7 -86 141.4 -86 138 C-85.34 138 -84.68 138 -84 138 C-84 137.34 -84 136.68 -84 136 C-83.34 136 -82.68 136 -82 136 C-82 135.34 -82 134.68 -82 134 C-81.34 134 -80.68 134 -80 134 C-80 133.34 -80 132.68 -80 132 C-61.52 132 -43.04 132 -24 132 C-24 122.1 -24 112.2 -24 102 C-23.34 102 -22.68 102 -22 102 C-22 101.34 -22 100.68 -22 100 C-21.34 100 -20.68 100 -20 100 C-20 99.34 -20 98.68 -20 98 C-19.34 98 -18.68 98 -18 98 C-18 97.34 -18 96.68 -18 96 C-12.06 96 -6.12 96 0 96 C0 64.32 0 32.64 0 0 Z " fill="#180C1E" transform="translate(86,0)"/>
<path d="M0 0 C93.06 0 186.12 0 282 0 C282 45.54 282 91.08 282 138 C281.34 138 280.68 138 280 138 C280 138.66 280 139.32 280 140 C275.38 140 270.76 140 266 140 C266 138.68 266 137.36 266 136 C265.34 136 264.68 136 264 136 C264 135.34 264 134.68 264 134 C264.66 134 265.32 134 266 134 C266 133.34 266 132.68 266 132 C265.34 132 264.68 132 264 132 C264 131.34 264 130.68 264 130 C264.66 130 265.32 130 266 130 C266 128.02 266 126.04 266 124 C265.34 124 264.68 124 264 124 C264 123.34 264 122.68 264 122 C264.66 122 265.32 122 266 122 C266 121.34 266 120.68 266 120 C265.34 120 264.68 120 264 120 C264 119.34 264 118.68 264 118 C264.66 118 265.32 118 266 118 C266 117.34 266 116.68 266 116 C265.34 116 264.68 116 264 116 C264 115.34 264 114.68 264 114 C264.66 114 265.32 114 266 114 C266 112.02 266 110.04 266 108 C265.34 108 264.68 108 264 108 C264 107.34 264 106.68 264 106 C264.66 106 265.32 106 266 106 C266 105.34 266 104.68 266 104 C265.34 104 264.68 104 264 104 C264 103.34 264 102.68 264 102 C264.66 102 265.32 102 266 102 C266 100.02 266 98.04 266 96 C265.34 96 264.68 96 264 96 C264 95.34 264 94.68 264 94 C264.66 94 265.32 94 266 94 C266 93.34 266 92.68 266 92 C265.34 92 264.68 92 264 92 C264 91.34 264 90.68 264 90 C264.66 90 265.32 90 266 90 C266 89.34 266 88.68 266 88 C265.34 88 264.68 88 264 88 C264 87.34 264 86.68 264 86 C264.66 86 265.32 86 266 86 C266 85.34 266 84.68 266 84 C265.34 84 264.68 84 264 84 C264 83.34 264 82.68 264 82 C264.66 82 265.32 82 266 82 C266 80.02 266 78.04 266 76 C265.34 76 264.68 76 264 76 C264 75.34 264 74.68 264 74 C264.66 74 265.32 74 266 74 C266 73.34 266 72.68 266 72 C265.34 72 264.68 72 264 72 C264 71.34 264 70.68 264 70 C264.66 70 265.32 70 266 70 C266 60.1 266 50.2 266 40 C183.5 40 101 40 16 40 C16 51.22 16 62.44 16 74 C10.72 74 5.44 74 0 74 C0 49.58 0 25.16 0 0 Z " fill="#70238B" transform="translate(88,22)"/>
<path d="M0 0 C1.32 0 2.64 0 4 0 C4 52.14 4 104.28 4 158 C37 158 70 158 104 158 C104 159.32 104 160.64 104 162 C105.32 162 106.64 162 108 162 C108 173.88 108 185.76 108 198 C73.68 198 39.36 198 4 198 C4 204.6 4 211.2 4 218 C-3.92 218 -11.84 218 -20 218 C-20 211.4 -20 204.8 -20 198 C-20.66 198 -21.32 198 -22 198 C-22 196.68 -22 195.36 -22 194 C-23.32 194 -24.64 194 -26 194 C-26 188.06 -26 182.12 -26 176 C-26.66 176 -27.32 176 -28 176 C-28 175.34 -28 174.68 -28 174 C-27.34 174 -26.68 174 -26 174 C-26 173.34 -26 172.68 -26 172 C-26.66 172 -27.32 172 -28 172 C-28 171.34 -28 170.68 -28 170 C-27.34 170 -26.68 170 -26 170 C-26 169.34 -26 168.68 -26 168 C-26.66 168 -27.32 168 -28 168 C-28 167.34 -28 166.68 -28 166 C-27.34 166 -26.68 166 -26 166 C-26 165.34 -26 164.68 -26 164 C-26.66 164 -27.32 164 -28 164 C-28 163.34 -28 162.68 -28 162 C-27.34 162 -26.68 162 -26 162 C-26 160.68 -26 159.36 -26 158 C-19.4 158 -12.8 158 -6 158 C-6 157.34 -6 156.68 -6 156 C-5.34 156 -4.68 156 -4 156 C-4 156.66 -4 157.32 -4 158 C-2.68 158 -1.36 158 0 158 C0 105.86 0 53.72 0 0 Z " fill="#E1BBF5" transform="translate(374,4)"/>
<path d="M0 0 C93.06 0 186.12 0 282 0 C282 5.94 282 11.88 282 18 C188.94 18 95.88 18 0 18 C0 12.06 0 6.12 0 0 Z " fill="#AB3AD2" transform="translate(88,2)"/>
<path d="M0 0 C11.88 0 23.76 0 36 0 C36 29.7 36 59.4 36 90 C24.12 90 12.24 90 0 90 C0 89.34 0 88.68 0 88 C-0.66 88 -1.32 88 -2 88 C-2 87.34 -2 86.68 -2 86 C-2.66 86 -3.32 86 -4 86 C-4 76.1 -4 66.2 -4 56 C-22.48 56 -40.96 56 -60 56 C-60 55.34 -60 54.68 -60 54 C-60.66 54 -61.32 54 -62 54 C-62 53.34 -62 52.68 -62 52 C-62.66 52 -63.32 52 -64 52 C-64 51.34 -64 50.68 -64 50 C-64.66 50 -65.32 50 -66 50 C-66 46.7 -66 43.4 -66 40 C-65.34 40 -64.68 40 -64 40 C-64 39.34 -64 38.68 -64 38 C-63.34 38 -62.68 38 -62 38 C-62 37.34 -62 36.68 -62 36 C-61.34 36 -60.68 36 -60 36 C-60 35.34 -60 34.68 -60 34 C-41.52 34 -23.04 34 -4 34 C-4 24.1 -4 14.2 -4 4 C-3.34 4 -2.68 4 -2 4 C-2 3.34 -2 2.68 -2 2 C-1.34 2 -0.68 2 0 2 C0 1.34 0 0.68 0 0 Z " fill="#B8BEC4" transform="translate(66,98)"/>
<path d="M0 0 C7.26 0 14.52 0 22 0 C22 1.32 22 2.64 22 4 C22.66 4 23.32 4 24 4 C24 4.66 24 5.32 24 6 C24.66 6 25.32 6 26 6 C26 6.66 26 7.32 26 8 C27.32 8 28.64 8 30 8 C30 8.66 30 9.32 30 10 C32.64 10 35.28 10 38 10 C38 10.66 38 11.32 38 12 C39.32 12 40.64 12 42 12 C42 12.66 42 13.32 42 14 C43.32 14 44.64 14 46 14 C46 14.66 46 15.32 46 16 C46.66 16 47.32 16 48 16 C48 17.32 48 18.64 48 20 C48.66 20 49.32 20 50 20 C50 22.64 50 25.28 50 28 C49.34 28 48.68 28 48 28 C48 29.32 48 30.64 48 32 C47.34 32 46.68 32 46 32 C46 32.66 46 33.32 46 34 C45.34 34 44.68 34 44 34 C44 34.66 44 35.32 44 36 C43.34 36 42.68 36 42 36 C42 39.96 42 43.92 42 48 C42.66 48 43.32 48 44 48 C44 48.66 44 49.32 44 50 C44.66 50 45.32 50 46 50 C46 50.66 46 51.32 46 52 C46.66 52 47.32 52 48 52 C48 52.66 48 53.32 48 54 C48.66 54 49.32 54 50 54 C50 54.66 50 55.32 50 56 C50.66 56 51.32 56 52 56 C52 56.66 52 57.32 52 58 C52.66 58 53.32 58 54 58 C54 59.32 54 60.64 54 62 C54.66 62 55.32 62 56 62 C56 65.3 56 68.6 56 72 C55.34 72 54.68 72 54 72 C54 72.66 54 73.32 54 74 C53.34 74 52.68 74 52 74 C52 75.32 52 76.64 52 78 C51.34 78 50.68 78 50 78 C50 80.64 50 83.28 50 86 C33.5 86 17 86 0 86 C0 57.62 0 29.24 0 0 Z " fill="#B97B00" transform="translate(104,100)"/>
<path d="M0 0 C19.14 0 38.28 0 58 0 C58 0.66 58 1.32 58 2 C56.68 2 55.36 2 54 2 C54 2.66 54 3.32 54 4 C55.32 4 56.64 4 58 4 C58 4.66 58 5.32 58 6 C56.02 6 54.04 6 52 6 C52 6.66 52 7.32 52 8 C52.66 8 53.32 8 54 8 C54 9.32 54 10.64 54 12 C55.32 12 56.64 12 58 12 C58 12.66 58 13.32 58 14 C56.02 14 54.04 14 52 14 C52 14.66 52 15.32 52 16 C53.98 16 55.96 16 58 16 C58 16.66 58 17.32 58 18 C56.68 18 55.36 18 54 18 C54 18.66 54 19.32 54 20 C55.32 20 56.64 20 58 20 C58 20.66 58 21.32 58 22 C56.02 22 54.04 22 52 22 C52 22.66 52 23.32 52 24 C53.98 24 55.96 24 58 24 C58 24.66 58 25.32 58 26 C56.68 26 55.36 26 54 26 C54 27.32 54 28.64 54 30 C53.34 30 52.68 30 52 30 C52 30.66 52 31.32 52 32 C53.98 32 55.96 32 58 32 C58 32.66 58 33.32 58 34 C56.68 34 55.36 34 54 34 C54 34.66 54 35.32 54 36 C55.32 36 56.64 36 58 36 C58 36.66 58 37.32 58 38 C56.02 38 54.04 38 52 38 C52 38.66 52 39.32 52 40 C52.66 40 53.32 40 54 40 C54 41.32 54 42.64 54 44 C55.32 44 56.64 44 58 44 C58 44.66 58 45.32 58 46 C56.02 46 54.04 46 52 46 C52 46.66 52 47.32 52 48 C53.98 48 55.96 48 58 48 C58 48.66 58 49.32 58 50 C56.68 50 55.36 50 54 50 C54 50.66 54 51.32 54 52 C55.32 52 56.64 52 58 52 C58 52.66 58 53.32 58 54 C56.02 54 54.04 54 52 54 C52 54.66 52 55.32 52 56 C52.66 56 53.32 56 54 56 C54 57.32 54 58.64 54 60 C55.32 60 56.64 60 58 60 C58 60.66 58 61.32 58 62 C56.02 62 54.04 62 52 62 C52 62.66 52 63.32 52 64 C53.98 64 55.96 64 58 64 C58 64.66 58 65.32 58 66 C56.68 66 55.36 66 54 66 C54 67.32 54 68.64 54 70 C53.34 70 52.68 70 52 70 C52 70.66 52 71.32 52 72 C53.98 72 55.96 72 58 72 C58 72.66 58 73.32 58 74 C56.68 74 55.36 74 54 74 C54 74.66 54 75.32 54 76 C55.32 76 56.64 76 58 76 C58 76.66 58 77.32 58 78 C56.02 78 54.04 78 52 78 C52 78.66 52 79.32 52 80 C53.98 80 55.96 80 58 80 C58 80.66 58 81.32 58 82 C56.68 82 55.36 82 54 82 C54 82.66 54 83.32 54 84 C55.32 84 56.64 84 58 84 C58 84.66 58 85.32 58 86 C48.1 86 38.2 86 28 86 C28 83.36 28 80.72 28 78 C28.66 78 29.32 78 30 78 C30 76.68 30 75.36 30 74 C30.66 74 31.32 74 32 74 C32 73.34 32 72.68 32 72 C32.66 72 33.32 72 34 72 C34 68.7 34 65.4 34 62 C33.34 62 32.68 62 32 62 C32 60.68 32 59.36 32 58 C31.34 58 30.68 58 30 58 C30 57.34 30 56.68 30 56 C29.34 56 28.68 56 28 56 C28 55.34 28 54.68 28 54 C27.34 54 26.68 54 26 54 C26 53.34 26 52.68 26 52 C25.34 52 24.68 52 24 52 C24 51.34 24 50.68 24 50 C23.34 50 22.68 50 22 50 C22 49.34 22 48.68 22 48 C21.34 48 20.68 48 20 48 C20 44.04 20 40.08 20 36 C20.66 36 21.32 36 22 36 C22 35.34 22 34.68 22 34 C22.66 34 23.32 34 24 34 C24 33.34 24 32.68 24 32 C24.66 32 25.32 32 26 32 C26 30.68 26 29.36 26 28 C26.66 28 27.32 28 28 28 C28 25.36 28 22.72 28 20 C27.34 20 26.68 20 26 20 C26 18.68 26 17.36 26 16 C25.34 16 24.68 16 24 16 C24 15.34 24 14.68 24 14 C22.68 14 21.36 14 20 14 C20 13.34 20 12.68 20 12 C18.68 12 17.36 12 16 12 C16 11.34 16 10.68 16 10 C13.36 10 10.72 10 8 10 C8 9.34 8 8.68 8 8 C6.68 8 5.36 8 4 8 C4 7.34 4 6.68 4 6 C3.34 6 2.68 6 2 6 C2 5.34 2 4.68 2 4 C1.34 4 0.68 4 0 4 C0 2.68 0 1.36 0 0 Z " fill="#3BBDE7" transform="translate(126,100)"/>
<path d="M0 0 C71.28 0 142.56 0 216 0 C216 3.3 216 6.6 216 10 C144.72 10 73.44 10 0 10 C0 6.7 0 3.4 0 0 Z " fill="#ECAEF6" transform="translate(128,6)"/>
<path d="M0 0 C0.66 0 1.32 0 2 0 C2 27.06 2 54.12 2 82 C1.34 82 0.68 82 0 82 C0 72.1 0 62.2 0 52 C-18.48 52 -36.96 52 -56 52 C-56 51.34 -56 50.68 -56 50 C-56.66 50 -57.32 50 -58 50 C-58 49.34 -58 48.68 -58 48 C-58.66 48 -59.32 48 -60 48 C-60 47.34 -60 46.68 -60 46 C-60.66 46 -61.32 46 -62 46 C-62 42.7 -62 39.4 -62 36 C-61.34 36 -60.68 36 -60 36 C-60 35.34 -60 34.68 -60 34 C-59.34 34 -58.68 34 -58 34 C-58 33.34 -58 32.68 -58 32 C-57.34 32 -56.68 32 -56 32 C-56 31.34 -56 30.68 -56 30 C-37.52 30 -19.04 30 0 30 C0 20.1 0 10.2 0 0 Z " fill="#714500" transform="translate(62,102)"/>
<path d="M0 0 C11.88 0 23.76 0 36 0 C36 8.58 36 17.16 36 26 C24.78 26 13.56 26 2 26 C2 45.14 2 64.28 2 84 C1.34 84 0.68 84 0 84 C0 84.66 0 85.32 0 86 C-0.66 86 -1.32 86 -2 86 C-2 58.28 -2 30.56 -2 2 C-1.34 2 -0.68 2 0 2 C0 1.34 0 0.68 0 0 Z " fill="#C5CBCE" transform="translate(66,98)"/>
<path d="M0 0 C11.88 0 23.76 0 36 0 C36 0.66 36 1.32 36 2 C60.42 2 84.84 2 110 2 C110 2.66 110 3.32 110 4 C85.58 4 61.16 4 36 4 C36 32.38 36 60.76 36 90 C60.42 90 84.84 90 110 90 C110 90.66 110 91.32 110 92 C85.58 92 61.16 92 36 92 C36 103.22 36 114.44 36 126 C30.06 126 24.12 126 18 126 C18 115.44 18 104.88 18 94 C12.06 94 6.12 94 0 94 C0 93.34 0 92.68 0 92 C11.22 92 22.44 92 34 92 C34 62.3 34 32.6 34 2 C22.78 2 11.56 2 0 2 C0 1.34 0 0.68 0 0 Z " fill="#020102" transform="translate(68,96)"/>
<path d="M0 0 C2.64 0 5.28 0 8 0 C8 0.66 8 1.32 8 2 C11.3 2 14.6 2 18 2 C18 23.78 18 45.56 18 68 C17.34 68 16.68 68 16 68 C16 68.66 16 69.32 16 70 C11.38 70 6.76 70 2 70 C2 68.68 2 67.36 2 66 C1.34 66 0.68 66 0 66 C0 65.34 0 64.68 0 64 C0.66 64 1.32 64 2 64 C2 63.34 2 62.68 2 62 C1.34 62 0.68 62 0 62 C0 61.34 0 60.68 0 60 C0.66 60 1.32 60 2 60 C2 58.02 2 56.04 2 54 C1.34 54 0.68 54 0 54 C0 53.34 0 52.68 0 52 C0.66 52 1.32 52 2 52 C2 51.34 2 50.68 2 50 C1.34 50 0.68 50 0 50 C0 49.34 0 48.68 0 48 C0.66 48 1.32 48 2 48 C2 47.34 2 46.68 2 46 C1.34 46 0.68 46 0 46 C0 45.34 0 44.68 0 44 C0.66 44 1.32 44 2 44 C2 42.02 2 40.04 2 38 C1.34 38 0.68 38 0 38 C0 37.34 0 36.68 0 36 C0.66 36 1.32 36 2 36 C2 35.34 2 34.68 2 34 C1.34 34 0.68 34 0 34 C0 33.34 0 32.68 0 32 C0.66 32 1.32 32 2 32 C2 30.02 2 28.04 2 26 C1.34 26 0.68 26 0 26 C0 25.34 0 24.68 0 24 C0.66 24 1.32 24 2 24 C2 23.34 2 22.68 2 22 C1.34 22 0.68 22 0 22 C0 21.34 0 20.68 0 20 C0.66 20 1.32 20 2 20 C2 19.34 2 18.68 2 18 C1.34 18 0.68 18 0 18 C0 17.34 0 16.68 0 16 C0.66 16 1.32 16 2 16 C2 15.34 2 14.68 2 14 C1.34 14 0.68 14 0 14 C0 13.34 0 12.68 0 12 C0.66 12 1.32 12 2 12 C2 10.02 2 8.04 2 6 C1.34 6 0.68 6 0 6 C0 5.34 0 4.68 0 4 C0.66 4 1.32 4 2 4 C2 3.34 2 2.68 2 2 C1.34 2 0.68 2 0 2 C0 1.34 0 0.68 0 0 Z " fill="#6B3F9A" transform="translate(352,92)"/>
<path d="M0 0 C1.32 0 2.64 0 4 0 C4 11.88 4 23.76 4 36 C-30.32 36 -64.64 36 -100 36 C-100 42.6 -100 49.2 -100 56 C-107.92 56 -115.84 56 -124 56 C-124 49.4 -124 42.8 -124 36 C-124.66 36 -125.32 36 -126 36 C-126 34.68 -126 33.36 -126 32 C-84.42 32 -42.84 32 0 32 C0 21.44 0 10.88 0 0 Z " fill="#000525" transform="translate(478,166)"/>
<path d="M0 0 C0.66 0 1.32 0 2 0 C2 11.22 2 22.44 2 34 C1.34 34 0.68 34 0 34 C0 34.66 0 35.32 0 36 C-4.62 36 -9.24 36 -14 36 C-14 34.68 -14 33.36 -14 32 C-14.66 32 -15.32 32 -16 32 C-16 31.34 -16 30.68 -16 30 C-15.34 30 -14.68 30 -14 30 C-14 29.34 -14 28.68 -14 28 C-14.66 28 -15.32 28 -16 28 C-16 27.34 -16 26.68 -16 26 C-15.34 26 -14.68 26 -14 26 C-14 24.02 -14 22.04 -14 20 C-14.66 20 -15.32 20 -16 20 C-16 19.34 -16 18.68 -16 18 C-15.34 18 -14.68 18 -14 18 C-14 17.34 -14 16.68 -14 16 C-14.66 16 -15.32 16 -16 16 C-16 15.34 -16 14.68 -16 14 C-15.34 14 -14.68 14 -14 14 C-14 13.34 -14 12.68 -14 12 C-14.66 12 -15.32 12 -16 12 C-16 11.34 -16 10.68 -16 10 C-15.34 10 -14.68 10 -14 10 C-14 8.02 -14 6.04 -14 4 C-12.02 4 -10.04 4 -8 4 C-8 3.34 -8 2.68 -8 2 C-5.36 2 -2.72 2 0 2 C0 1.34 0 0.68 0 0 Z " fill="#6B3F9A" transform="translate(368,126)"/>
<path d="M0 0 C5.28 0 10.56 0 16 0 C16 10.56 16 21.12 16 32 C10.72 32 5.44 32 0 32 C0 21.44 0 10.88 0 0 Z " fill="#6E2288" transform="translate(88,190)"/>
<path d="M0 0 C0.66 0 1.32 0 2 0 C2 0.66 2 1.32 2 2 C2.66 2 3.32 2 4 2 C4 3.32 4 4.64 4 6 C5.32 6 6.64 6 8 6 C8 6.66 8 7.32 8 8 C6.02 8 4.04 8 2 8 C2 8.66 2 9.32 2 10 C3.98 10 5.96 10 8 10 C8 10.66 8 11.32 8 12 C6.68 12 5.36 12 4 12 C4 13.32 4 14.64 4 16 C3.34 16 2.68 16 2 16 C2 16.66 2 17.32 2 18 C3.98 18 5.96 18 8 18 C8 18.66 8 19.32 8 20 C6.68 20 5.36 20 4 20 C4 20.66 4 21.32 4 22 C5.32 22 6.64 22 8 22 C8 22.66 8 23.32 8 24 C6.02 24 4.04 24 2 24 C2 24.66 2 25.32 2 26 C3.98 26 5.96 26 8 26 C8 26.66 8 27.32 8 28 C6.68 28 5.36 28 4 28 C4 28.66 4 29.32 4 30 C5.32 30 6.64 30 8 30 C8 30.66 8 31.32 8 32 C-1.9 32 -11.8 32 -22 32 C-22 29.36 -22 26.72 -22 24 C-21.34 24 -20.68 24 -20 24 C-20 22.68 -20 21.36 -20 20 C-19.34 20 -18.68 20 -18 20 C-18 19.34 -18 18.68 -18 18 C-12.72 18 -7.44 18 -2 18 C-2 16.68 -2 15.36 -2 14 C-1.34 14 -0.68 14 0 14 C0 13.34 0 12.68 0 12 C-0.66 12 -1.32 12 -2 12 C-2 11.34 -2 10.68 -2 10 C-1.34 10 -0.68 10 0 10 C0 9.34 0 8.68 0 8 C-0.66 8 -1.32 8 -2 8 C-2 7.34 -2 6.68 -2 6 C-1.34 6 -0.68 6 0 6 C0 5.34 0 4.68 0 4 C-0.66 4 -1.32 4 -2 4 C-2 3.34 -2 2.68 -2 2 C-1.34 2 -0.68 2 0 2 C0 1.34 0 0.68 0 0 Z " fill="#5DCBF2" transform="translate(176,154)"/>
<path d="M0 0 C10.56 0 21.12 0 32 0 C32 3.96 32 7.92 32 12 C20.78 12 9.56 12 -2 12 C-2 8.7 -2 5.4 -2 2 C-1.34 2 -0.68 2 0 2 C0 1.34 0 0.68 0 0 Z " fill="#B8BEC4" transform="translate(70,102)"/>
<path d="M0 0 C7.92 0 15.84 0 24 0 C24 0.66 24 1.32 24 2 C24.66 2 25.32 2 26 2 C26 2.66 26 3.32 26 4 C25.34 4 24.68 4 24 4 C24 5.98 24 7.96 24 10 C24.66 10 25.32 10 26 10 C26 10.66 26 11.32 26 12 C25.34 12 24.68 12 24 12 C24 12.66 24 13.32 24 14 C14.76 14 5.52 14 -4 14 C-4 10.7 -4 7.4 -4 4 C-3.34 4 -2.68 4 -2 4 C-2 3.34 -2 2.68 -2 2 C-1.34 2 -0.68 2 0 2 C0 1.34 0 0.68 0 0 Z " fill="#54C7EF" transform="translate(150,132)"/>
<path d="M0 0 C0.66 0 1.32 0 2 0 C2 27.06 2 54.12 2 82 C1.34 82 0.68 82 0 82 C0 72.1 0 62.2 0 52 C-18.48 52 -36.96 52 -56 52 C-56 51.34 -56 50.68 -56 50 C-37.52 50 -19.04 50 0 50 C0 44.06 0 38.12 0 32 C-18.48 32 -36.96 32 -56 32 C-56 31.34 -56 30.68 -56 30 C-37.52 30 -19.04 30 0 30 C0 20.1 0 10.2 0 0 Z " fill="#000000" transform="translate(62,102)"/>
<path d="M0 0 C5.28 0 10.56 0 16 0 C16 6.6 16 13.2 16 20 C10.72 20 5.44 20 0 20 C0 13.4 0 6.8 0 0 Z " fill="#6E2288" transform="translate(354,202)"/>
<path d="M0 0 C17.16 0 34.32 0 52 0 C52 1.98 52 3.96 52 6 C34.84 6 17.68 6 0 6 C0 4.02 0 2.04 0 0 Z " fill="#E09700" transform="translate(108,164)"/>
<path d="M0 0 C15.84 0 31.68 0 48 0 C48 0.66 48 1.32 48 2 C48.66 2 49.32 2 50 2 C50 3.32 50 4.64 50 6 C33.5 6 17 6 0 6 C0 4.02 0 2.04 0 0 Z " fill="#E09700" transform="translate(108,156)"/>
<path d="M0 0 C16.5 0 33 0 50 0 C50 0.66 50 1.32 50 2 C49.34 2 48.68 2 48 2 C48 3.32 48 4.64 48 6 C32.16 6 16.32 6 0 6 C0 4.02 0 2.04 0 0 Z " fill="#E09700" transform="translate(108,172)"/>
<path d="M0 0 C15.84 0 31.68 0 48 0 C48 0.66 48 1.32 48 2 C48.66 2 49.32 2 50 2 C50 2.66 50 3.32 50 4 C49.34 4 48.68 4 48 4 C48 4.66 48 5.32 48 6 C32.82 6 17.64 6 2 6 C2 5.34 2 4.68 2 4 C1.34 4 0.68 4 0 4 C0 2.68 0 1.36 0 0 Z " fill="#5ECCF2" transform="translate(126,100)"/>
<path d="M0 0 C0.66 0 1.32 0 2 0 C2 1.98 2 3.96 2 6 C3.32 6 4.64 6 6 6 C6 6.66 6 7.32 6 8 C6.66 8 7.32 8 8 8 C8 8.66 8 9.32 8 10 C25.82 10 43.64 10 62 10 C62 11.32 62 12.64 62 14 C42.86 14 23.72 14 4 14 C4 13.34 4 12.68 4 12 C3.34 12 2.68 12 2 12 C2 11.34 2 10.68 2 10 C1.34 10 0.68 10 0 10 C0 6.7 0 3.4 0 0 Z " fill="#4D2E00" transform="translate(0,138)"/>
<path d="M0 0 C15.18 0 30.36 0 46 0 C46 1.32 46 2.64 46 4 C45.34 4 44.68 4 44 4 C44 4.66 44 5.32 44 6 C29.48 6 14.96 6 0 6 C0 4.02 0 2.04 0 0 Z " fill="#E09700" transform="translate(108,124)"/>
<path d="M0 0 C14.52 0 29.04 0 44 0 C44 1.32 44 2.64 44 4 C44.66 4 45.32 4 46 4 C46 4.66 46 5.32 46 6 C30.82 6 15.64 6 0 6 C0 4.02 0 2.04 0 0 Z " fill="#E09700" transform="translate(108,116)"/>
<path d="M0 0 C19.14 0 38.28 0 58 0 C58 1.32 58 2.64 58 4 C40.18 4 22.36 4 4 4 C4 4.66 4 5.32 4 6 C3.34 6 2.68 6 2 6 C2 7.32 2 8.64 2 10 C0.68 10 -0.64 10 -2 10 C-2 7.36 -2 4.72 -2 2 C-1.34 2 -0.68 2 0 2 C0 1.34 0 0.68 0 0 Z " fill="#845400" transform="translate(4,134)"/>
<path d="M0 0 C5.94 0 11.88 0 18 0 C18 0.66 18 1.32 18 2 C18.66 2 19.32 2 20 2 C20 2.66 20 3.32 20 4 C19.34 4 18.68 4 18 4 C18 4.66 18 5.32 18 6 C18.66 6 19.32 6 20 6 C20 6.66 20 7.32 20 8 C19.34 8 18.68 8 18 8 C18 8.66 18 9.32 18 10 C18.66 10 19.32 10 20 10 C20 10.66 20 11.32 20 12 C19.34 12 18.68 12 18 12 C18 13.32 18 14.64 18 16 C13.38 16 8.76 16 4 16 C4 12.7 4 9.4 4 6 C3.34 6 2.68 6 2 6 C2 4.68 2 3.36 2 2 C1.34 2 0.68 2 0 2 C0 1.34 0 0.68 0 0 Z " fill="#4FC5ED" transform="translate(156,156)"/>
<path d="M0 0 C13.2 0 26.4 0 40 0 C40 0.66 40 1.32 40 2 C40.66 2 41.32 2 42 2 C42 2.66 42 3.32 42 4 C42.66 4 43.32 4 44 4 C44 4.66 44 5.32 44 6 C29.48 6 14.96 6 0 6 C0 4.02 0 2.04 0 0 Z " fill="#E09700" transform="translate(108,148)"/>
<path d="M0 0 C2.64 0 5.28 0 8 0 C8 0.66 8 1.32 8 2 C11.3 2 14.6 2 18 2 C18 8.6 18 15.2 18 22 C14.7 22 11.4 22 8 22 C8 21.34 8 20.68 8 20 C10.64 20 13.28 20 16 20 C16 19.34 16 18.68 16 18 C13.36 18 10.72 18 8 18 C8 17.34 8 16.68 8 16 C10.64 16 13.28 16 16 16 C16 15.34 16 14.68 16 14 C13.36 14 10.72 14 8 14 C8 13.34 8 12.68 8 12 C6.02 12 4.04 12 2 12 C2 10.02 2 8.04 2 6 C1.34 6 0.68 6 0 6 C0 5.34 0 4.68 0 4 C0.66 4 1.32 4 2 4 C2 3.34 2 2.68 2 2 C1.34 2 0.68 2 0 2 C0 1.34 0 0.68 0 0 Z " fill="#6B3E9A" transform="translate(352,92)"/>
<path d="M0 0 C13.86 0 27.72 0 42 0 C42 0.66 42 1.32 42 2 C41.34 2 40.68 2 40 2 C40 2.66 40 3.32 40 4 C39.34 4 38.68 4 38 4 C38 4.66 38 5.32 38 6 C25.46 6 12.92 6 0 6 C0 4.02 0 2.04 0 0 Z " fill="#E09700" transform="translate(108,132)"/>
<path d="M0 0 C12.54 0 25.08 0 38 0 C38 1.98 38 3.96 38 6 C25.46 6 12.92 6 0 6 C0 4.02 0 2.04 0 0 Z " fill="#E09700" transform="translate(108,140)"/>
<path d="M0 0 C11.88 0 23.76 0 36 0 C36 1.98 36 3.96 36 6 C24.12 6 12.24 6 0 6 C0 5.34 0 4.68 0 4 C-0.66 4 -1.32 4 -2 4 C-2 3.34 -2 2.68 -2 2 C-1.34 2 -0.68 2 0 2 C0 1.34 0 0.68 0 0 Z " fill="#939A9F" transform="translate(66,182)"/>
<path d="M0 0 C13.2 0 26.4 0 40 0 C40 0.66 40 1.32 40 2 C40.66 2 41.32 2 42 2 C42 2.66 42 3.32 42 4 C41.34 4 40.68 4 40 4 C40 4.66 40 5.32 40 6 C30.76 6 21.52 6 12 6 C12 5.34 12 4.68 12 4 C10.68 4 9.36 4 8 4 C8 3.34 8 2.68 8 2 C5.36 2 2.72 2 0 2 C0 1.34 0 0.68 0 0 Z " fill="#5ECBF2" transform="translate(134,108)"/>
<path d="M0 0 C0.66 0 1.32 0 2 0 C2 0.66 2 1.32 2 2 C3.98 2 5.96 2 8 2 C8 2.66 8 3.32 8 4 C6.68 4 5.36 4 4 4 C4 5.32 4 6.64 4 8 C3.34 8 2.68 8 2 8 C2 8.66 2 9.32 2 10 C3.98 10 5.96 10 8 10 C8 10.66 8 11.32 8 12 C6.68 12 5.36 12 4 12 C4 12.66 4 13.32 4 14 C5.32 14 6.64 14 8 14 C8 14.66 8 15.32 8 16 C6.02 16 4.04 16 2 16 C2 16.66 2 17.32 2 18 C2.66 18 3.32 18 4 18 C4 19.32 4 20.64 4 22 C5.32 22 6.64 22 8 22 C8 22.66 8 23.32 8 24 C6.02 24 4.04 24 2 24 C2 24.66 2 25.32 2 26 C1.34 26 0.68 26 0 26 C0 25.34 0 24.68 0 24 C-0.66 24 -1.32 24 -2 24 C-2 23.34 -2 22.68 -2 22 C-1.34 22 -0.68 22 0 22 C0 21.34 0 20.68 0 20 C-0.66 20 -1.32 20 -2 20 C-2 18.02 -2 16.04 -2 14 C-1.34 14 -0.68 14 0 14 C0 13.34 0 12.68 0 12 C-0.66 12 -1.32 12 -2 12 C-2 11.34 -2 10.68 -2 10 C-9.26 10 -16.52 10 -24 10 C-24 9.34 -24 8.68 -24 8 C-16.74 8 -9.48 8 -2 8 C-2 7.34 -2 6.68 -2 6 C-1.34 6 -0.68 6 0 6 C0 5.34 0 4.68 0 4 C-0.66 4 -1.32 4 -2 4 C-2 3.34 -2 2.68 -2 2 C-1.34 2 -0.68 2 0 2 C0 1.34 0 0.68 0 0 Z " fill="#3DBEE7" transform="translate(176,122)"/>
<path d="M0 0 C8.58 0 17.16 0 26 0 C26 0.66 26 1.32 26 2 C28.64 2 31.28 2 34 2 C34 2.66 34 3.32 34 4 C35.32 4 36.64 4 38 4 C38 4.66 38 5.32 38 6 C25.46 6 12.92 6 0 6 C0 4.02 0 2.04 0 0 Z " fill="#E09700" transform="translate(108,108)"/>
<path d="M0 0 C3.3 0 6.6 0 10 0 C10 0.66 10 1.32 10 2 C8.68 2 7.36 2 6 2 C6 2.66 6 3.32 6 4 C7.32 4 8.64 4 10 4 C10 4.66 10 5.32 10 6 C8.02 6 6.04 6 4 6 C4 6.66 4 7.32 4 8 C4.66 8 5.32 8 6 8 C6 9.32 6 10.64 6 12 C7.32 12 8.64 12 10 12 C10 12.66 10 13.32 10 14 C8.02 14 6.04 14 4 14 C4 14.66 4 15.32 4 16 C3.34 16 2.68 16 2 16 C2 15.34 2 14.68 2 14 C1.34 14 0.68 14 0 14 C0 13.34 0 12.68 0 12 C0.66 12 1.32 12 2 12 C2 11.34 2 10.68 2 10 C1.34 10 0.68 10 0 10 C0 9.34 0 8.68 0 8 C-14.52 8 -29.04 8 -44 8 C-44 7.34 -44 6.68 -44 6 C-29.48 6 -14.96 6 0 6 C0 5.34 0 4.68 0 4 C0.66 4 1.32 4 2 4 C2 3.34 2 2.68 2 2 C1.34 2 0.68 2 0 2 C0 1.34 0 0.68 0 0 Z " fill="#3ABDE6" transform="translate(174,100)"/>
<path d="M0 0 C9.24 0 18.48 0 28 0 C28 0.66 28 1.32 28 2 C28.66 2 29.32 2 30 2 C30 2.66 30 3.32 30 4 C29.34 4 28.68 4 28 4 C28 4.66 28 5.32 28 6 C18.76 6 9.52 6 0 6 C0 4.02 0 2.04 0 0 Z " fill="#5ECBF2" transform="translate(146,140)"/>
<path d="M0 0 C0.66 0 1.32 0 2 0 C2 5.28 2 10.56 2 16 C-1.3 16 -4.6 16 -8 16 C-8 15.34 -8 14.68 -8 14 C-5.36 14 -2.72 14 0 14 C0 13.34 0 12.68 0 12 C-2.64 12 -5.28 12 -8 12 C-8 11.34 -8 10.68 -8 10 C-9.98 10 -11.96 10 -14 10 C-14 8.02 -14 6.04 -14 4 C-12.02 4 -10.04 4 -8 4 C-8 3.34 -8 2.68 -8 2 C-5.36 2 -2.72 2 0 2 C0 1.34 0 0.68 0 0 Z " fill="#6B3F9A" transform="translate(368,126)"/>
<path d="M0 0 C0.66 0 1.32 0 2 0 C2 0.66 2 1.32 2 2 C2.66 2 3.32 2 4 2 C4 3.32 4 4.64 4 6 C5.32 6 6.64 6 8 6 C8 6.66 8 7.32 8 8 C6.02 8 4.04 8 2 8 C2 8.66 2 9.32 2 10 C3.98 10 5.96 10 8 10 C8 10.66 8 11.32 8 12 C6.68 12 5.36 12 4 12 C4 13.32 4 14.64 4 16 C3.34 16 2.68 16 2 16 C2 16.66 2 17.32 2 18 C3.98 18 5.96 18 8 18 C8 18.66 8 19.32 8 20 C6.68 20 5.36 20 4 20 C4 20.66 4 21.32 4 22 C5.32 22 6.64 22 8 22 C8 22.66 8 23.32 8 24 C6.02 24 4.04 24 2 24 C2 24.66 2 25.32 2 26 C1.34 26 0.68 26 0 26 C0 25.34 0 24.68 0 24 C-0.66 24 -1.32 24 -2 24 C-2 23.34 -2 22.68 -2 22 C-1.34 22 -0.68 22 0 22 C0 21.34 0 20.68 0 20 C-0.66 20 -1.32 20 -2 20 C-2 18.02 -2 16.04 -2 14 C-1.34 14 -0.68 14 0 14 C0 13.34 0 12.68 0 12 C-0.66 12 -1.32 12 -2 12 C-2 11.34 -2 10.68 -2 10 C-1.34 10 -0.68 10 0 10 C0 9.34 0 8.68 0 8 C-0.66 8 -1.32 8 -2 8 C-2 7.34 -2 6.68 -2 6 C-1.34 6 -0.68 6 0 6 C0 5.34 0 4.68 0 4 C-0.66 4 -1.32 4 -2 4 C-2 3.34 -2 2.68 -2 2 C-1.34 2 -0.68 2 0 2 C0 1.34 0 0.68 0 0 Z " fill="#40BFE8" transform="translate(176,154)"/>
<path d="M0 0 C8.58 0 17.16 0 26 0 C26 0.66 26 1.32 26 2 C26.66 2 27.32 2 28 2 C28 2.66 28 3.32 28 4 C27.34 4 26.68 4 26 4 C26 4.66 26 5.32 26 6 C18.74 6 11.48 6 4 6 C4 5.34 4 4.68 4 4 C3.34 4 2.68 4 2 4 C2 3.34 2 2.68 2 2 C1.34 2 0.68 2 0 2 C0 1.34 0 0.68 0 0 Z " fill="#5ECBF2" transform="translate(148,148)"/>
<path d="M0 0 C2.64 0 5.28 0 8 0 C8 0.66 8 1.32 8 2 C10.64 2 13.28 2 16 2 C16 2.66 16 3.32 16 4 C13.36 4 10.72 4 8 4 C8 4.66 8 5.32 8 6 C10.64 6 13.28 6 16 6 C16 6.66 16 7.32 16 8 C13.36 8 10.72 8 8 8 C8 8.66 8 9.32 8 10 C10.64 10 13.28 10 16 10 C16 10.66 16 11.32 16 12 C13.36 12 10.72 12 8 12 C8 12.66 8 13.32 8 14 C5.36 14 2.72 14 0 14 C0 13.34 0 12.68 0 12 C0.66 12 1.32 12 2 12 C2 11.34 2 10.68 2 10 C1.34 10 0.68 10 0 10 C0 9.34 0 8.68 0 8 C0.66 8 1.32 8 2 8 C2 7.34 2 6.68 2 6 C1.34 6 0.68 6 0 6 C0 5.34 0 4.68 0 4 C0.66 4 1.32 4 2 4 C2 3.34 2 2.68 2 2 C1.34 2 0.68 2 0 2 C0 1.34 0 0.68 0 0 Z " fill="#639DD5" transform="translate(352,104)"/>
<path d="M0 0 C3.3 0 6.6 0 10 0 C10 0.66 10 1.32 10 2 C8.68 2 7.36 2 6 2 C6 2.66 6 3.32 6 4 C7.32 4 8.64 4 10 4 C10 4.66 10 5.32 10 6 C0.1 6 -9.8 6 -20 6 C-20 4.68 -20 3.36 -20 2 C-13.4 2 -6.8 2 0 2 C0 1.34 0 0.68 0 0 Z " fill="#3ABDE6" transform="translate(174,180)"/>
<path d="M0 0 C7.26 0 14.52 0 22 0 C22 0.66 22 1.32 22 2 C22.66 2 23.32 2 24 2 C24 2.66 24 3.32 24 4 C23.34 4 22.68 4 22 4 C22 4.66 22 5.32 22 6 C15.4 6 8.8 6 2 6 C2 5.34 2 4.68 2 4 C1.34 4 0.68 4 0 4 C0 2.68 0 1.36 0 0 Z " fill="#5ECBF2" transform="translate(152,116)"/>
<path d="M0 0 C6.6 0 13.2 0 20 0 C20 0.66 20 1.32 20 2 C20.66 2 21.32 2 22 2 C22 2.66 22 3.32 22 4 C21.34 4 20.68 4 20 4 C20 4.66 20 5.32 20 6 C12.74 6 5.48 6 -2 6 C-2 5.34 -2 4.68 -2 4 C-1.34 4 -0.68 4 0 4 C0 2.68 0 1.36 0 0 Z " fill="#5ECBF2" transform="translate(154,124)"/>
<path d="M0 0 C5.94 0 11.88 0 18 0 C18 1.32 18 2.64 18 4 C18.66 4 19.32 4 20 4 C20 4.66 20 5.32 20 6 C13.4 6 6.8 6 0 6 C0 4.02 0 2.04 0 0 Z " fill="#E09700" transform="translate(108,100)"/>
<path d="M0 0 C5.94 0 11.88 0 18 0 C18 0.66 18 1.32 18 2 C18.66 2 19.32 2 20 2 C20 2.66 20 3.32 20 4 C19.34 4 18.68 4 18 4 C18 4.66 18 5.32 18 6 C12.72 6 7.44 6 2 6 C2 4.68 2 3.36 2 2 C1.34 2 0.68 2 0 2 C0 1.34 0 0.68 0 0 Z " fill="#5DCBF2" transform="translate(156,156)"/>
<path d="M0 0 C2.64 0 5.28 0 8 0 C8 0.66 8 1.32 8 2 C10.64 2 13.28 2 16 2 C16 2.66 16 3.32 16 4 C13.36 4 10.72 4 8 4 C8 4.66 8 5.32 8 6 C10.64 6 13.28 6 16 6 C16 6.66 16 7.32 16 8 C13.36 8 10.72 8 8 8 C8 8.66 8 9.32 8 10 C5.36 10 2.72 10 0 10 C0 9.34 0 8.68 0 8 C0.66 8 1.32 8 2 8 C2 7.34 2 6.68 2 6 C1.34 6 0.68 6 0 6 C0 5.34 0 4.68 0 4 C0.66 4 1.32 4 2 4 C2 3.34 2 2.68 2 2 C1.34 2 0.68 2 0 2 C0 1.34 0 0.68 0 0 Z " fill="#62AADD" transform="translate(352,136)"/>
<path d="M0 0 C7.26 0 14.52 0 22 0 C22 0.66 22 1.32 22 2 C21.34 2 20.68 2 20 2 C20 2.66 20 3.32 20 4 C13.4 4 6.8 4 0 4 C0 2.68 0 1.36 0 0 Z " fill="#4DC4ED" transform="translate(154,178)"/>
<path d="M0 0 C0.66 0 1.32 0 2 0 C2 1.98 2 3.96 2 6 C1.34 6 0.68 6 0 6 C0 6.66 0 7.32 0 8 C-4.62 8 -9.24 8 -14 8 C-14 6.68 -14 5.36 -14 4 C-12.02 4 -10.04 4 -8 4 C-8 3.34 -8 2.68 -8 2 C-5.36 2 -2.72 2 0 2 C0 1.34 0 0.68 0 0 Z " fill="#6E2288" transform="translate(368,154)"/>
<path d="M0 0 C1.98 0 3.96 0 6 0 C6 0.66 6 1.32 6 2 C6.66 2 7.32 2 8 2 C8 3.98 8 5.96 8 8 C7.34 8 6.68 8 6 8 C6 8.66 6 9.32 6 10 C4.02 10 2.04 10 0 10 C0 9.34 0 8.68 0 8 C-0.66 8 -1.32 8 -2 8 C-2 6.02 -2 4.04 -2 2 C-1.34 2 -0.68 2 0 2 C0 1.34 0 0.68 0 0 Z " fill="#2F0E3A" transform="translate(356,6)"/>
<path d="M0 0 C1.32 0 2.64 0 4 0 C4 6.6 4 13.2 4 20 C2.68 20 1.36 20 0 20 C0 13.4 0 6.8 0 0 Z " fill="#E2BBF6" transform="translate(374,202)"/>
<path d="M0 0 C1.32 0 2.64 0 4 0 C4 6.6 4 13.2 4 20 C2.68 20 1.36 20 0 20 C0 13.4 0 6.8 0 0 Z " fill="#180C1E" transform="translate(370,202)"/>
<path d="M0 0 C2.64 0 5.28 0 8 0 C8 0.66 8 1.32 8 2 C10.64 2 13.28 2 16 2 C16 2.66 16 3.32 16 4 C13.36 4 10.72 4 8 4 C8 4.66 8 5.32 8 6 C5.36 6 2.72 6 0 6 C0 5.34 0 4.68 0 4 C0.66 4 1.32 4 2 4 C2 3.34 2 2.68 2 2 C1.34 2 0.68 2 0 2 C0 1.34 0 0.68 0 0 Z " fill="#62AADD" transform="translate(352,152)"/>
<path d="M0 0 C2.64 0 5.28 0 8 0 C8 0.66 8 1.32 8 2 C10.64 2 13.28 2 16 2 C16 2.66 16 3.32 16 4 C13.36 4 10.72 4 8 4 C8 4.66 8 5.32 8 6 C5.36 6 2.72 6 0 6 C0 5.34 0 4.68 0 4 C0.66 4 1.32 4 2 4 C2 3.34 2 2.68 2 2 C1.34 2 0.68 2 0 2 C0 1.34 0 0.68 0 0 Z " fill="#62AADD" transform="translate(352,124)"/>
<path d="M0 0 C2.64 0 5.28 0 8 0 C8 0.66 8 1.32 8 2 C10.64 2 13.28 2 16 2 C16 2.66 16 3.32 16 4 C13.36 4 10.72 4 8 4 C8 4.66 8 5.32 8 6 C5.36 6 2.72 6 0 6 C0 5.34 0 4.68 0 4 C0.66 4 1.32 4 2 4 C2 3.34 2 2.68 2 2 C1.34 2 0.68 2 0 2 C0 1.34 0 0.68 0 0 Z " fill="#62AADD" transform="translate(352,104)"/>
<path d="M0 0 C2.64 0 5.28 0 8 0 C8 0.66 8 1.32 8 2 C10.64 2 13.28 2 16 2 C16 2.66 16 3.32 16 4 C13.36 4 10.72 4 8 4 C8 4.66 8 5.32 8 6 C5.36 6 2.72 6 0 6 C0 5.34 0 4.68 0 4 C0.66 4 1.32 4 2 4 C2 3.34 2 2.68 2 2 C1.34 2 0.68 2 0 2 C0 1.34 0 0.68 0 0 Z " fill="#62AADD" transform="translate(352,92)"/>
<path d="M0 0 C0.66 0 1.32 0 2 0 C2 0.66 2 1.32 2 2 C2.66 2 3.32 2 4 2 C4 3.32 4 4.64 4 6 C5.32 6 6.64 6 8 6 C8 6.66 8 7.32 8 8 C6.02 8 4.04 8 2 8 C2 8.66 2 9.32 2 10 C1.34 10 0.68 10 0 10 C0 9.34 0 8.68 0 8 C-0.66 8 -1.32 8 -2 8 C-2 7.34 -2 6.68 -2 6 C-1.34 6 -0.68 6 0 6 C0 5.34 0 4.68 0 4 C-0.66 4 -1.32 4 -2 4 C-2 3.34 -2 2.68 -2 2 C-1.34 2 -0.68 2 0 2 C0 1.34 0 0.68 0 0 Z " fill="#2986A4" transform="translate(176,154)"/>
<path d="M0 0 C0.66 0 1.32 0 2 0 C2 0.66 2 1.32 2 2 C2.66 2 3.32 2 4 2 C4 3.32 4 4.64 4 6 C5.32 6 6.64 6 8 6 C8 6.66 8 7.32 8 8 C6.02 8 4.04 8 2 8 C2 8.66 2 9.32 2 10 C1.34 10 0.68 10 0 10 C0 9.34 0 8.68 0 8 C-0.66 8 -1.32 8 -2 8 C-2 7.34 -2 6.68 -2 6 C-1.34 6 -0.68 6 0 6 C0 5.34 0 4.68 0 4 C-0.66 4 -1.32 4 -2 4 C-2 3.34 -2 2.68 -2 2 C-1.34 2 -0.68 2 0 2 C0 1.34 0 0.68 0 0 Z " fill="#2886A4" transform="translate(176,138)"/>
<path d="M0 0 C0.66 0 1.32 0 2 0 C2 0.66 2 1.32 2 2 C3.98 2 5.96 2 8 2 C8 2.66 8 3.32 8 4 C6.68 4 5.36 4 4 4 C4 5.32 4 6.64 4 8 C3.34 8 2.68 8 2 8 C2 8.66 2 9.32 2 10 C1.34 10 0.68 10 0 10 C0 9.34 0 8.68 0 8 C-0.66 8 -1.32 8 -2 8 C-2 7.34 -2 6.68 -2 6 C-1.34 6 -0.68 6 0 6 C0 5.34 0 4.68 0 4 C-0.66 4 -1.32 4 -2 4 C-2 3.34 -2 2.68 -2 2 C-1.34 2 -0.68 2 0 2 C0 1.34 0 0.68 0 0 Z " fill="#2886A4" transform="translate(176,122)"/>
<path d="M0 0 C0.66 0 1.32 0 2 0 C2 0.66 2 1.32 2 2 C2.66 2 3.32 2 4 2 C4 3.32 4 4.64 4 6 C5.32 6 6.64 6 8 6 C8 6.66 8 7.32 8 8 C6.02 8 4.04 8 2 8 C2 8.66 2 9.32 2 10 C1.34 10 0.68 10 0 10 C0 9.34 0 8.68 0 8 C-0.66 8 -1.32 8 -2 8 C-2 7.34 -2 6.68 -2 6 C-1.34 6 -0.68 6 0 6 C0 5.34 0 4.68 0 4 C-0.66 4 -1.32 4 -2 4 C-2 3.34 -2 2.68 -2 2 C-1.34 2 -0.68 2 0 2 C0 1.34 0 0.68 0 0 Z " fill="#2886A4" transform="translate(176,106)"/>
<path d="M0 0 C2.64 0 5.28 0 8 0 C8 0.66 8 1.32 8 2 C10.64 2 13.28 2 16 2 C16 2.66 16 3.32 16 4 C11.38 4 6.76 4 2 4 C2 3.34 2 2.68 2 2 C1.34 2 0.68 2 0 2 C0 1.34 0 0.68 0 0 Z " fill="#639DD5" transform="translate(352,136)"/>
<path d="M0 0 C1.98 0 3.96 0 6 0 C6 0.66 6 1.32 6 2 C4.68 2 3.36 2 2 2 C2 2.66 2 3.32 2 4 C3.32 4 4.64 4 6 4 C6 4.66 6 5.32 6 6 C4.02 6 2.04 6 0 6 C0 4.02 0 2.04 0 0 Z " fill="#36748A" transform="translate(178,180)"/>
<path d="M0 0 C1.98 0 3.96 0 6 0 C6 0.66 6 1.32 6 2 C4.68 2 3.36 2 2 2 C2 2.66 2 3.32 2 4 C3.32 4 4.64 4 6 4 C6 4.66 6 5.32 6 6 C4.02 6 2.04 6 0 6 C0 4.02 0 2.04 0 0 Z " fill="#36748A" transform="translate(178,172)"/>
<path d="M0 0 C0.66 0 1.32 0 2 0 C2 3.3 2 6.6 2 10 C1.34 10 0.68 10 0 10 C0 9.34 0 8.68 0 8 C-0.66 8 -1.32 8 -2 8 C-2 7.34 -2 6.68 -2 6 C-1.34 6 -0.68 6 0 6 C0 5.34 0 4.68 0 4 C-0.66 4 -1.32 4 -2 4 C-2 3.34 -2 2.68 -2 2 C-1.34 2 -0.68 2 0 2 C0 1.34 0 0.68 0 0 Z " fill="#2986A4" transform="translate(176,170)"/>
<path d="M0 0 C1.98 0 3.96 0 6 0 C6 0.66 6 1.32 6 2 C4.68 2 3.36 2 2 2 C2 2.66 2 3.32 2 4 C3.32 4 4.64 4 6 4 C6 4.66 6 5.32 6 6 C4.02 6 2.04 6 0 6 C0 4.02 0 2.04 0 0 Z " fill="#36748A" transform="translate(178,148)"/>
<path d="M0 0 C1.98 0 3.96 0 6 0 C6 0.66 6 1.32 6 2 C4.68 2 3.36 2 2 2 C2 2.66 2 3.32 2 4 C3.32 4 4.64 4 6 4 C6 4.66 6 5.32 6 6 C4.02 6 2.04 6 0 6 C0 4.02 0 2.04 0 0 Z " fill="#36748A" transform="translate(178,132)"/>
<path d="M0 0 C1.98 0 3.96 0 6 0 C6 0.66 6 1.32 6 2 C4.68 2 3.36 2 2 2 C2 2.66 2 3.32 2 4 C3.32 4 4.64 4 6 4 C6 4.66 6 5.32 6 6 C4.02 6 2.04 6 0 6 C0 4.02 0 2.04 0 0 Z " fill="#36748A" transform="translate(178,116)"/>
<path d="M0 0 C1.98 0 3.96 0 6 0 C6 0.66 6 1.32 6 2 C4.68 2 3.36 2 2 2 C2 2.66 2 3.32 2 4 C3.32 4 4.64 4 6 4 C6 4.66 6 5.32 6 6 C4.02 6 2.04 6 0 6 C0 4.02 0 2.04 0 0 Z " fill="#36748A" transform="translate(178,100)"/>
<path d="M0 0 C3.96 0 7.92 0 12 0 C12 0.66 12 1.32 12 2 C8.04 2 4.08 2 0 2 C0 1.34 0 0.68 0 0 Z " fill="#5FCCF2" transform="translate(292,194)"/>
<path d="M0 0 C3.96 0 7.92 0 12 0 C12 0.66 12 1.32 12 2 C8.04 2 4.08 2 0 2 C0 1.34 0 0.68 0 0 Z " fill="#5FCCF3" transform="translate(292,190)"/>
<path d="M0 0 C3.96 0 7.92 0 12 0 C12 0.66 12 1.32 12 2 C8.04 2 4.08 2 0 2 C0 1.34 0 0.68 0 0 Z " fill="#5FCCF3" transform="translate(292,186)"/>
<path d="M0 0 C3.96 0 7.92 0 12 0 C12 0.66 12 1.32 12 2 C8.04 2 4.08 2 0 2 C0 1.34 0 0.68 0 0 Z " fill="#5FCCF2" transform="translate(292,182)"/>
<path d="M0 0 C3.96 0 7.92 0 12 0 C12 0.66 12 1.32 12 2 C8.04 2 4.08 2 0 2 C0 1.34 0 0.68 0 0 Z " fill="#5FCCF2" transform="translate(292,174)"/>
<path d="M0 0 C3.96 0 7.92 0 12 0 C12 0.66 12 1.32 12 2 C8.04 2 4.08 2 0 2 C0 1.34 0 0.68 0 0 Z " fill="#5FCCF2" transform="translate(216,172)"/>
<path d="M0 0 C3.96 0 7.92 0 12 0 C12 0.66 12 1.32 12 2 C8.04 2 4.08 2 0 2 C0 1.34 0 0.68 0 0 Z " fill="#5FCCF3" transform="translate(292,170)"/>
<path d="M0 0 C3.96 0 7.92 0 12 0 C12 0.66 12 1.32 12 2 C8.04 2 4.08 2 0 2 C0 1.34 0 0.68 0 0 Z " fill="#5FCCF3" transform="translate(216,168)"/>
<path d="M0 0 C3.96 0 7.92 0 12 0 C12 0.66 12 1.32 12 2 C8.04 2 4.08 2 0 2 C0 1.34 0 0.68 0 0 Z " fill="#5FCCF2" transform="translate(216,164)"/>
<path d="M0 0 C3.96 0 7.92 0 12 0 C12 0.66 12 1.32 12 2 C8.04 2 4.08 2 0 2 C0 1.34 0 0.68 0 0 Z " fill="#5FCCF2" transform="translate(292,162)"/>
<path d="M0 0 C3.96 0 7.92 0 12 0 C12 0.66 12 1.32 12 2 C8.04 2 4.08 2 0 2 C0 1.34 0 0.68 0 0 Z " fill="#5FCCF3" transform="translate(216,160)"/>
<path d="M0 0 C3.96 0 7.92 0 12 0 C12 0.66 12 1.32 12 2 C8.04 2 4.08 2 0 2 C0 1.34 0 0.68 0 0 Z " fill="#5FCCF2" transform="translate(292,158)"/>
<path d="M0 0 C3.96 0 7.92 0 12 0 C12 0.66 12 1.32 12 2 C8.04 2 4.08 2 0 2 C0 1.34 0 0.68 0 0 Z " fill="#5FCCF3" transform="translate(292,154)"/>
<path d="M0 0 C3.96 0 7.92 0 12 0 C12 0.66 12 1.32 12 2 C8.04 2 4.08 2 0 2 C0 1.34 0 0.68 0 0 Z " fill="#5FCCF2" transform="translate(216,152)"/>
<path d="M0 0 C3.96 0 7.92 0 12 0 C12 0.66 12 1.32 12 2 C8.04 2 4.08 2 0 2 C0 1.34 0 0.68 0 0 Z " fill="#5FCCF2" transform="translate(216,148)"/>
<path d="M0 0 C3.96 0 7.92 0 12 0 C12 0.66 12 1.32 12 2 C8.04 2 4.08 2 0 2 C0 1.34 0 0.68 0 0 Z " fill="#5FCCF2" transform="translate(292,146)"/>
<path d="M0 0 C3.96 0 7.92 0 12 0 C12 0.66 12 1.32 12 2 C8.04 2 4.08 2 0 2 C0 1.34 0 0.68 0 0 Z " fill="#5FCCF3" transform="translate(292,142)"/>
<path d="M0 0 C3.96 0 7.92 0 12 0 C12 0.66 12 1.32 12 2 C8.04 2 4.08 2 0 2 C0 1.34 0 0.68 0 0 Z " fill="#5FCCF3" transform="translate(216,140)"/>
<path d="M0 0 C3.96 0 7.92 0 12 0 C12 0.66 12 1.32 12 2 C8.04 2 4.08 2 0 2 C0 1.34 0 0.68 0 0 Z " fill="#5FCCF3" transform="translate(216,136)"/>
<path d="M0 0 C3.96 0 7.92 0 12 0 C12 0.66 12 1.32 12 2 C8.04 2 4.08 2 0 2 C0 1.34 0 0.68 0 0 Z " fill="#5FCCF2" transform="translate(292,134)"/>
<path d="M0 0 C3.96 0 7.92 0 12 0 C12 0.66 12 1.32 12 2 C8.04 2 4.08 2 0 2 C0 1.34 0 0.68 0 0 Z " fill="#5FCCF3" transform="translate(216,132)"/>
<path d="M0 0 C3.96 0 7.92 0 12 0 C12 0.66 12 1.32 12 2 C8.04 2 4.08 2 0 2 C0 1.34 0 0.68 0 0 Z " fill="#5FCCF3" transform="translate(292,130)"/>
<path d="M0 0 C3.96 0 7.92 0 12 0 C12 0.66 12 1.32 12 2 C8.04 2 4.08 2 0 2 C0 1.34 0 0.68 0 0 Z " fill="#5FCCF2" transform="translate(292,126)"/>
<path d="M0 0 C3.96 0 7.92 0 12 0 C12 0.66 12 1.32 12 2 C8.04 2 4.08 2 0 2 C0 1.34 0 0.68 0 0 Z " fill="#5FCCF3" transform="translate(216,124)"/>
<path d="M0 0 C3.96 0 7.92 0 12 0 C12 0.66 12 1.32 12 2 C8.04 2 4.08 2 0 2 C0 1.34 0 0.68 0 0 Z " fill="#5FCCF3" transform="translate(292,122)"/>
<path d="M0 0 C3.96 0 7.92 0 12 0 C12 0.66 12 1.32 12 2 C8.04 2 4.08 2 0 2 C0 1.34 0 0.68 0 0 Z " fill="#5FCCF3" transform="translate(216,120)"/>
<path d="M0 0 C3.96 0 7.92 0 12 0 C12 0.66 12 1.32 12 2 C8.04 2 4.08 2 0 2 C0 1.34 0 0.68 0 0 Z " fill="#5FCCF2" transform="translate(292,114)"/>
<path d="M0 0 C3.96 0 7.92 0 12 0 C12 0.66 12 1.32 12 2 C8.04 2 4.08 2 0 2 C0 1.34 0 0.68 0 0 Z " fill="#5FCCF2" transform="translate(216,112)"/>
<path d="M0 0 C3.96 0 7.92 0 12 0 C12 0.66 12 1.32 12 2 C8.04 2 4.08 2 0 2 C0 1.34 0 0.68 0 0 Z " fill="#5FCCF2" transform="translate(292,110)"/>
<path d="M0 0 C3.96 0 7.92 0 12 0 C12 0.66 12 1.32 12 2 C8.04 2 4.08 2 0 2 C0 1.34 0 0.68 0 0 Z " fill="#5FCCF2" transform="translate(216,108)"/>
<path d="M0 0 C3.96 0 7.92 0 12 0 C12 0.66 12 1.32 12 2 C8.04 2 4.08 2 0 2 C0 1.34 0 0.68 0 0 Z " fill="#5FCCF2" transform="translate(216,104)"/>
<path d="M0 0 C3.96 0 7.92 0 12 0 C12 0.66 12 1.32 12 2 C8.04 2 4.08 2 0 2 C0 1.34 0 0.68 0 0 Z " fill="#5FCCF2" transform="translate(216,100)"/>
<path d="M0 0 C3.96 0 7.92 0 12 0 C12 0.66 12 1.32 12 2 C8.04 2 4.08 2 0 2 C0 1.34 0 0.68 0 0 Z " fill="#5FCCF3" transform="translate(216,92)"/>
<path d="M0 0 C3.96 0 7.92 0 12 0 C12 0.66 12 1.32 12 2 C8.04 2 4.08 2 0 2 C0 1.34 0 0.68 0 0 Z " fill="#5FCCF2" transform="translate(216,88)"/>
<path d="M0 0 C1.98 0 3.96 0 6 0 C6 0.66 6 1.32 6 2 C4.68 2 3.36 2 2 2 C2 3.32 2 4.64 2 6 C1.34 6 0.68 6 0 6 C0 4.02 0 2.04 0 0 Z " fill="#265161" transform="translate(178,164)"/>
<path d="M0 0 C0.66 0 1.32 0 2 0 C2 1.32 2 2.64 2 4 C3.32 4 4.64 4 6 4 C6 4.66 6 5.32 6 6 C4.02 6 2.04 6 0 6 C0 4.02 0 2.04 0 0 Z " fill="#265161" transform="translate(178,156)"/>
<path d="M0 0 C0.66 0 1.32 0 2 0 C2 1.32 2 2.64 2 4 C3.32 4 4.64 4 6 4 C6 4.66 6 5.32 6 6 C4.02 6 2.04 6 0 6 C0 4.02 0 2.04 0 0 Z " fill="#265161" transform="translate(178,140)"/>
<path d="M0 0 C1.98 0 3.96 0 6 0 C6 0.66 6 1.32 6 2 C4.68 2 3.36 2 2 2 C2 3.32 2 4.64 2 6 C1.34 6 0.68 6 0 6 C0 4.02 0 2.04 0 0 Z " fill="#265161" transform="translate(178,124)"/>
<path d="M0 0 C0.66 0 1.32 0 2 0 C2 1.32 2 2.64 2 4 C3.32 4 4.64 4 6 4 C6 4.66 6 5.32 6 6 C4.02 6 2.04 6 0 6 C0 4.02 0 2.04 0 0 Z " fill="#265161" transform="translate(178,108)"/>
<path d="M0 0 C0.66 0 1.32 0 2 0 C2 0.66 2 1.32 2 2 C2.66 2 3.32 2 4 2 C4 2.66 4 3.32 4 4 C3.34 4 2.68 4 2 4 C2 4.66 2 5.32 2 6 C1.34 6 0.68 6 0 6 C0 5.34 0 4.68 0 4 C-0.66 4 -1.32 4 -2 4 C-2 3.34 -2 2.68 -2 2 C-1.34 2 -0.68 2 0 2 C0 1.34 0 0.68 0 0 Z " fill="#16061B" transform="translate(114,8)"/>
<path d="M0 0 C0.66 0 1.32 0 2 0 C2 0.66 2 1.32 2 2 C2.66 2 3.32 2 4 2 C4 2.66 4 3.32 4 4 C3.34 4 2.68 4 2 4 C2 4.66 2 5.32 2 6 C1.34 6 0.68 6 0 6 C0 5.34 0 4.68 0 4 C-0.66 4 -1.32 4 -2 4 C-2 3.34 -2 2.68 -2 2 C-1.34 2 -0.68 2 0 2 C0 1.34 0 0.68 0 0 Z " fill="#16061B" transform="translate(106,8)"/>
<path d="M0 0 C0.66 0 1.32 0 2 0 C2 0.66 2 1.32 2 2 C2.66 2 3.32 2 4 2 C4 2.66 4 3.32 4 4 C3.34 4 2.68 4 2 4 C2 4.66 2 5.32 2 6 C1.34 6 0.68 6 0 6 C0 5.34 0 4.68 0 4 C-0.66 4 -1.32 4 -2 4 C-2 3.34 -2 2.68 -2 2 C-1.34 2 -0.68 2 0 2 C0 1.34 0 0.68 0 0 Z " fill="#16061B" transform="translate(98,8)"/>
<path d="M0 0 C2.64 0 5.28 0 8 0 C8 0.66 8 1.32 8 2 C5.36 2 2.72 2 0 2 C0 1.34 0 0.68 0 0 Z " fill="#5FCCF3" transform="translate(304,192)"/>
<path d="M0 0 C2.64 0 5.28 0 8 0 C8 0.66 8 1.32 8 2 C5.36 2 2.72 2 0 2 C0 1.34 0 0.68 0 0 Z " fill="#5FCCF2" transform="translate(284,192)"/>
<path d="M0 0 C2.64 0 5.28 0 8 0 C8 0.66 8 1.32 8 2 C5.36 2 2.72 2 0 2 C0 1.34 0 0.68 0 0 Z " fill="#5FCCF2" transform="translate(312,190)"/>
<path d="M0 0 C2.64 0 5.28 0 8 0 C8 0.66 8 1.32 8 2 C5.36 2 2.72 2 0 2 C0 1.34 0 0.68 0 0 Z " fill="#5FCCF2" transform="translate(276,190)"/>
<path d="M0 0 C2.64 0 5.28 0 8 0 C8 0.66 8 1.32 8 2 C5.36 2 2.72 2 0 2 C0 1.34 0 0.68 0 0 Z " fill="#5FCCF3" transform="translate(304,188)"/>
<path d="M0 0 C2.64 0 5.28 0 8 0 C8 0.66 8 1.32 8 2 C5.36 2 2.72 2 0 2 C0 1.34 0 0.68 0 0 Z " fill="#5FCCF3" transform="translate(284,188)"/>
<path d="M0 0 C2.64 0 5.28 0 8 0 C8 0.66 8 1.32 8 2 C5.36 2 2.72 2 0 2 C0 1.34 0 0.68 0 0 Z " fill="#5FCCF3" transform="translate(312,186)"/>
<path d="M0 0 C2.64 0 5.28 0 8 0 C8 0.66 8 1.32 8 2 C5.36 2 2.72 2 0 2 C0 1.34 0 0.68 0 0 Z " fill="#5FCCF2" transform="translate(276,186)"/>
<path d="M0 0 C2.64 0 5.28 0 8 0 C8 0.66 8 1.32 8 2 C5.36 2 2.72 2 0 2 C0 1.34 0 0.68 0 0 Z " fill="#5FCCF2" transform="translate(304,184)"/>
<path d="M0 0 C2.64 0 5.28 0 8 0 C8 0.66 8 1.32 8 2 C5.36 2 2.72 2 0 2 C0 1.34 0 0.68 0 0 Z " fill="#5FCCF3" transform="translate(284,184)"/>
<path d="M0 0 C2.64 0 5.28 0 8 0 C8 0.66 8 1.32 8 2 C5.36 2 2.72 2 0 2 C0 1.34 0 0.68 0 0 Z " fill="#5FCCF3" transform="translate(312,182)"/>
<path d="M0 0 C2.64 0 5.28 0 8 0 C8 0.66 8 1.32 8 2 C5.36 2 2.72 2 0 2 C0 1.34 0 0.68 0 0 Z " fill="#5FCCF2" transform="translate(276,182)"/>
<path d="M0 0 C2.64 0 5.28 0 8 0 C8 0.66 8 1.32 8 2 C5.36 2 2.72 2 0 2 C0 1.34 0 0.68 0 0 Z " fill="#5FCCF2" transform="translate(304,180)"/>
<path d="M0 0 C2.64 0 5.28 0 8 0 C8 0.66 8 1.32 8 2 C5.36 2 2.72 2 0 2 C0 1.34 0 0.68 0 0 Z " fill="#5FCCF3" transform="translate(284,180)"/>
<path d="M0 0 C2.64 0 5.28 0 8 0 C8 0.66 8 1.32 8 2 C5.36 2 2.72 2 0 2 C0 1.34 0 0.68 0 0 Z " fill="#5FCCF2" transform="translate(312,178)"/>
<path d="M0 0 C2.64 0 5.28 0 8 0 C8 0.66 8 1.32 8 2 C5.36 2 2.72 2 0 2 C0 1.34 0 0.68 0 0 Z " fill="#5FCCF2" transform="translate(276,178)"/>
<path d="M0 0 C2.64 0 5.28 0 8 0 C8 0.66 8 1.32 8 2 C5.36 2 2.72 2 0 2 C0 1.34 0 0.68 0 0 Z " fill="#5FCCF3" transform="translate(236,176)"/>
<path d="M0 0 C2.64 0 5.28 0 8 0 C8 0.66 8 1.32 8 2 C5.36 2 2.72 2 0 2 C0 1.34 0 0.68 0 0 Z " fill="#5FCCF3" transform="translate(200,176)"/>
<path d="M0 0 C2.64 0 5.28 0 8 0 C8 0.66 8 1.32 8 2 C5.36 2 2.72 2 0 2 C0 1.34 0 0.68 0 0 Z " fill="#5FCCF3" transform="translate(228,174)"/>
<path d="M0 0 C2.64 0 5.28 0 8 0 C8 0.66 8 1.32 8 2 C5.36 2 2.72 2 0 2 C0 1.34 0 0.68 0 0 Z " fill="#60CCF3" transform="translate(208,174)"/>
<path d="M0 0 C2.64 0 5.28 0 8 0 C8 0.66 8 1.32 8 2 C5.36 2 2.72 2 0 2 C0 1.34 0 0.68 0 0 Z " fill="#5FCCF3" transform="translate(304,172)"/>
<path d="M0 0 C2.64 0 5.28 0 8 0 C8 0.66 8 1.32 8 2 C5.36 2 2.72 2 0 2 C0 1.34 0 0.68 0 0 Z " fill="#5FCCF2" transform="translate(284,172)"/>
<path d="M0 0 C2.64 0 5.28 0 8 0 C8 0.66 8 1.32 8 2 C5.36 2 2.72 2 0 2 C0 1.34 0 0.68 0 0 Z " fill="#5FCCF3" transform="translate(236,172)"/>
<path d="M0 0 C2.64 0 5.28 0 8 0 C8 0.66 8 1.32 8 2 C5.36 2 2.72 2 0 2 C0 1.34 0 0.68 0 0 Z " fill="#5FCCF2" transform="translate(200,172)"/>
<path d="M0 0 C2.64 0 5.28 0 8 0 C8 0.66 8 1.32 8 2 C5.36 2 2.72 2 0 2 C0 1.34 0 0.68 0 0 Z " fill="#5FCCF3" transform="translate(312,170)"/>
<path d="M0 0 C2.64 0 5.28 0 8 0 C8 0.66 8 1.32 8 2 C5.36 2 2.72 2 0 2 C0 1.34 0 0.68 0 0 Z " fill="#5FCCF2" transform="translate(276,170)"/>
<path d="M0 0 C2.64 0 5.28 0 8 0 C8 0.66 8 1.32 8 2 C5.36 2 2.72 2 0 2 C0 1.34 0 0.68 0 0 Z " fill="#5FCCF2" transform="translate(228,170)"/>
<path d="M0 0 C2.64 0 5.28 0 8 0 C8 0.66 8 1.32 8 2 C5.36 2 2.72 2 0 2 C0 1.34 0 0.68 0 0 Z " fill="#5FCCF2" transform="translate(208,170)"/>
<path d="M0 0 C2.64 0 5.28 0 8 0 C8 0.66 8 1.32 8 2 C5.36 2 2.72 2 0 2 C0 1.34 0 0.68 0 0 Z " fill="#5FCCF2" transform="translate(304,168)"/>
<path d="M0 0 C2.64 0 5.28 0 8 0 C8 0.66 8 1.32 8 2 C5.36 2 2.72 2 0 2 C0 1.34 0 0.68 0 0 Z " fill="#5FCCF3" transform="translate(284,168)"/>
<path d="M0 0 C2.64 0 5.28 0 8 0 C8 0.66 8 1.32 8 2 C5.36 2 2.72 2 0 2 C0 1.34 0 0.68 0 0 Z " fill="#5FCCF3" transform="translate(236,168)"/>
<path d="M0 0 C2.64 0 5.28 0 8 0 C8 0.66 8 1.32 8 2 C5.36 2 2.72 2 0 2 C0 1.34 0 0.68 0 0 Z " fill="#5FCCF2" transform="translate(200,168)"/>
<path d="M0 0 C2.64 0 5.28 0 8 0 C8 0.66 8 1.32 8 2 C5.36 2 2.72 2 0 2 C0 1.34 0 0.68 0 0 Z " fill="#5FCCF3" transform="translate(312,166)"/>
<path d="M0 0 C2.64 0 5.28 0 8 0 C8 0.66 8 1.32 8 2 C5.36 2 2.72 2 0 2 C0 1.34 0 0.68 0 0 Z " fill="#5FCCF3" transform="translate(276,166)"/>
<path d="M0 0 C2.64 0 5.28 0 8 0 C8 0.66 8 1.32 8 2 C5.36 2 2.72 2 0 2 C0 1.34 0 0.68 0 0 Z " fill="#5FCCF2" transform="translate(228,166)"/>
<path d="M0 0 C2.64 0 5.28 0 8 0 C8 0.66 8 1.32 8 2 C5.36 2 2.72 2 0 2 C0 1.34 0 0.68 0 0 Z " fill="#5FCCF3" transform="translate(208,166)"/>
<path d="M0 0 C2.64 0 5.28 0 8 0 C8 0.66 8 1.32 8 2 C5.36 2 2.72 2 0 2 C0 1.34 0 0.68 0 0 Z " fill="#5FCCF2" transform="translate(236,164)"/>
<path d="M0 0 C2.64 0 5.28 0 8 0 C8 0.66 8 1.32 8 2 C5.36 2 2.72 2 0 2 C0 1.34 0 0.68 0 0 Z " fill="#5FCCF2" transform="translate(200,164)"/>
<path d="M0 0 C2.64 0 5.28 0 8 0 C8 0.66 8 1.32 8 2 C5.36 2 2.72 2 0 2 C0 1.34 0 0.68 0 0 Z " fill="#5FCCF3" transform="translate(228,162)"/>
<path d="M0 0 C2.64 0 5.28 0 8 0 C8 0.66 8 1.32 8 2 C5.36 2 2.72 2 0 2 C0 1.34 0 0.68 0 0 Z " fill="#5FCCF3" transform="translate(208,162)"/>
<path d="M0 0 C2.64 0 5.28 0 8 0 C8 0.66 8 1.32 8 2 C5.36 2 2.72 2 0 2 C0 1.34 0 0.68 0 0 Z " fill="#5FCCF3" transform="translate(304,160)"/>
<path d="M0 0 C2.64 0 5.28 0 8 0 C8 0.66 8 1.32 8 2 C5.36 2 2.72 2 0 2 C0 1.34 0 0.68 0 0 Z " fill="#5FCCF2" transform="translate(284,160)"/>
<path d="M0 0 C2.64 0 5.28 0 8 0 C8 0.66 8 1.32 8 2 C5.36 2 2.72 2 0 2 C0 1.34 0 0.68 0 0 Z " fill="#5FCCF3" transform="translate(312,158)"/>
<path d="M0 0 C2.64 0 5.28 0 8 0 C8 0.66 8 1.32 8 2 C5.36 2 2.72 2 0 2 C0 1.34 0 0.68 0 0 Z " fill="#5FCCF3" transform="translate(276,158)"/>
<path d="M0 0 C2.64 0 5.28 0 8 0 C8 0.66 8 1.32 8 2 C5.36 2 2.72 2 0 2 C0 1.34 0 0.68 0 0 Z " fill="#5FCCF2" transform="translate(304,156)"/>
<path d="M0 0 C2.64 0 5.28 0 8 0 C8 0.66 8 1.32 8 2 C5.36 2 2.72 2 0 2 C0 1.34 0 0.68 0 0 Z " fill="#5FCCF2" transform="translate(284,156)"/>
<path d="M0 0 C2.64 0 5.28 0 8 0 C8 0.66 8 1.32 8 2 C5.36 2 2.72 2 0 2 C0 1.34 0 0.68 0 0 Z " fill="#5FCCF3" transform="translate(236,156)"/>
<path d="M0 0 C2.64 0 5.28 0 8 0 C8 0.66 8 1.32 8 2 C5.36 2 2.72 2 0 2 C0 1.34 0 0.68 0 0 Z " fill="#5FCCF2" transform="translate(200,156)"/>
<path d="M0 0 C2.64 0 5.28 0 8 0 C8 0.66 8 1.32 8 2 C5.36 2 2.72 2 0 2 C0 1.34 0 0.68 0 0 Z " fill="#5FCCF3" transform="translate(312,154)"/>
<path d="M0 0 C2.64 0 5.28 0 8 0 C8 0.66 8 1.32 8 2 C5.36 2 2.72 2 0 2 C0 1.34 0 0.68 0 0 Z " fill="#5FCCF2" transform="translate(276,154)"/>
<path d="M0 0 C2.64 0 5.28 0 8 0 C8 0.66 8 1.32 8 2 C5.36 2 2.72 2 0 2 C0 1.34 0 0.68 0 0 Z " fill="#5FCCF3" transform="translate(228,154)"/>
<path d="M0 0 C2.64 0 5.28 0 8 0 C8 0.66 8 1.32 8 2 C5.36 2 2.72 2 0 2 C0 1.34 0 0.68 0 0 Z " fill="#5FCCF3" transform="translate(208,154)"/>
<path d="M0 0 C2.64 0 5.28 0 8 0 C8 0.66 8 1.32 8 2 C5.36 2 2.72 2 0 2 C0 1.34 0 0.68 0 0 Z " fill="#5FCCF3" transform="translate(304,152)"/>
<path d="M0 0 C2.64 0 5.28 0 8 0 C8 0.66 8 1.32 8 2 C5.36 2 2.72 2 0 2 C0 1.34 0 0.68 0 0 Z " fill="#5FCCF3" transform="translate(284,152)"/>
<path d="M0 0 C2.64 0 5.28 0 8 0 C8 0.66 8 1.32 8 2 C5.36 2 2.72 2 0 2 C0 1.34 0 0.68 0 0 Z " fill="#5FCCF3" transform="translate(236,152)"/>
<path d="M0 0 C2.64 0 5.28 0 8 0 C8 0.66 8 1.32 8 2 C5.36 2 2.72 2 0 2 C0 1.34 0 0.68 0 0 Z " fill="#5FCCF3" transform="translate(200,152)"/>
<path d="M0 0 C2.64 0 5.28 0 8 0 C8 0.66 8 1.32 8 2 C5.36 2 2.72 2 0 2 C0 1.34 0 0.68 0 0 Z " fill="#5FCCF3" transform="translate(312,150)"/>
<path d="M0 0 C2.64 0 5.28 0 8 0 C8 0.66 8 1.32 8 2 C5.36 2 2.72 2 0 2 C0 1.34 0 0.68 0 0 Z " fill="#5FCCF2" transform="translate(276,150)"/>
<path d="M0 0 C2.64 0 5.28 0 8 0 C8 0.66 8 1.32 8 2 C5.36 2 2.72 2 0 2 C0 1.34 0 0.68 0 0 Z " fill="#5FCCF3" transform="translate(228,150)"/>
<path d="M0 0 C2.64 0 5.28 0 8 0 C8 0.66 8 1.32 8 2 C5.36 2 2.72 2 0 2 C0 1.34 0 0.68 0 0 Z " fill="#5FCCF3" transform="translate(208,150)"/>
<path d="M0 0 C2.64 0 5.28 0 8 0 C8 0.66 8 1.32 8 2 C5.36 2 2.72 2 0 2 C0 1.34 0 0.68 0 0 Z " fill="#5FCCF2" transform="translate(304,144)"/>
<path d="M0 0 C2.64 0 5.28 0 8 0 C8 0.66 8 1.32 8 2 C5.36 2 2.72 2 0 2 C0 1.34 0 0.68 0 0 Z " fill="#5FCCF3" transform="translate(284,144)"/>
<path d="M0 0 C2.64 0 5.28 0 8 0 C8 0.66 8 1.32 8 2 C5.36 2 2.72 2 0 2 C0 1.34 0 0.68 0 0 Z " fill="#5FCCF2" transform="translate(236,144)"/>
<path d="M0 0 C2.64 0 5.28 0 8 0 C8 0.66 8 1.32 8 2 C5.36 2 2.72 2 0 2 C0 1.34 0 0.68 0 0 Z " fill="#5FCCF3" transform="translate(200,144)"/>
<path d="M0 0 C2.64 0 5.28 0 8 0 C8 0.66 8 1.32 8 2 C5.36 2 2.72 2 0 2 C0 1.34 0 0.68 0 0 Z " fill="#5FCCF3" transform="translate(312,142)"/>
<path d="M0 0 C2.64 0 5.28 0 8 0 C8 0.66 8 1.32 8 2 C5.36 2 2.72 2 0 2 C0 1.34 0 0.68 0 0 Z " fill="#5FCCF2" transform="translate(276,142)"/>
<path d="M0 0 C2.64 0 5.28 0 8 0 C8 0.66 8 1.32 8 2 C5.36 2 2.72 2 0 2 C0 1.34 0 0.68 0 0 Z " fill="#5FCCF3" transform="translate(228,142)"/>
<path d="M0 0 C2.64 0 5.28 0 8 0 C8 0.66 8 1.32 8 2 C5.36 2 2.72 2 0 2 C0 1.34 0 0.68 0 0 Z " fill="#5FCCF2" transform="translate(208,142)"/>
<path d="M0 0 C2.64 0 5.28 0 8 0 C8 0.66 8 1.32 8 2 C5.36 2 2.72 2 0 2 C0 1.34 0 0.68 0 0 Z " fill="#5FCCF3" transform="translate(304,140)"/>
<path d="M0 0 C2.64 0 5.28 0 8 0 C8 0.66 8 1.32 8 2 C5.36 2 2.72 2 0 2 C0 1.34 0 0.68 0 0 Z " fill="#60CCF3" transform="translate(284,140)"/>
<path d="M0 0 C2.64 0 5.28 0 8 0 C8 0.66 8 1.32 8 2 C5.36 2 2.72 2 0 2 C0 1.34 0 0.68 0 0 Z " fill="#5FCCF3" transform="translate(236,140)"/>
<path d="M0 0 C2.64 0 5.28 0 8 0 C8 0.66 8 1.32 8 2 C5.36 2 2.72 2 0 2 C0 1.34 0 0.68 0 0 Z " fill="#5FCCF3" transform="translate(200,140)"/>
<path d="M0 0 C2.64 0 5.28 0 8 0 C8 0.66 8 1.32 8 2 C5.36 2 2.72 2 0 2 C0 1.34 0 0.68 0 0 Z " fill="#5FCCF3" transform="translate(312,138)"/>
<path d="M0 0 C2.64 0 5.28 0 8 0 C8 0.66 8 1.32 8 2 C5.36 2 2.72 2 0 2 C0 1.34 0 0.68 0 0 Z " fill="#5FCCF3" transform="translate(276,138)"/>
<path d="M0 0 C2.64 0 5.28 0 8 0 C8 0.66 8 1.32 8 2 C5.36 2 2.72 2 0 2 C0 1.34 0 0.68 0 0 Z " fill="#5FCCF3" transform="translate(228,138)"/>
<path d="M0 0 C2.64 0 5.28 0 8 0 C8 0.66 8 1.32 8 2 C5.36 2 2.72 2 0 2 C0 1.34 0 0.68 0 0 Z " fill="#5FCCF3" transform="translate(208,138)"/>
<path d="M0 0 C2.64 0 5.28 0 8 0 C8 0.66 8 1.32 8 2 C5.36 2 2.72 2 0 2 C0 1.34 0 0.68 0 0 Z " fill="#5FCCF2" transform="translate(236,136)"/>
<path d="M0 0 C2.64 0 5.28 0 8 0 C8 0.66 8 1.32 8 2 C5.36 2 2.72 2 0 2 C0 1.34 0 0.68 0 0 Z " fill="#5FCCF2" transform="translate(200,136)"/>
<path d="M0 0 C2.64 0 5.28 0 8 0 C8 0.66 8 1.32 8 2 C5.36 2 2.72 2 0 2 C0 1.34 0 0.68 0 0 Z " fill="#5FCCF3" transform="translate(228,134)"/>
<path d="M0 0 C2.64 0 5.28 0 8 0 C8 0.66 8 1.32 8 2 C5.36 2 2.72 2 0 2 C0 1.34 0 0.68 0 0 Z " fill="#5FCCF3" transform="translate(208,134)"/>
<path d="M0 0 C2.64 0 5.28 0 8 0 C8 0.66 8 1.32 8 2 C5.36 2 2.72 2 0 2 C0 1.34 0 0.68 0 0 Z " fill="#5FCCF2" transform="translate(304,132)"/>
<path d="M0 0 C2.64 0 5.28 0 8 0 C8 0.66 8 1.32 8 2 C5.36 2 2.72 2 0 2 C0 1.34 0 0.68 0 0 Z " fill="#5FCCF2" transform="translate(284,132)"/>
<path d="M0 0 C2.64 0 5.28 0 8 0 C8 0.66 8 1.32 8 2 C5.36 2 2.72 2 0 2 C0 1.34 0 0.68 0 0 Z " fill="#5FCCF2" transform="translate(312,130)"/>
<path d="M0 0 C2.64 0 5.28 0 8 0 C8 0.66 8 1.32 8 2 C5.36 2 2.72 2 0 2 C0 1.34 0 0.68 0 0 Z " fill="#5FCCF2" transform="translate(276,130)"/>
<path d="M0 0 C2.64 0 5.28 0 8 0 C8 0.66 8 1.32 8 2 C5.36 2 2.72 2 0 2 C0 1.34 0 0.68 0 0 Z " fill="#5FCCF3" transform="translate(304,128)"/>
<path d="M0 0 C2.64 0 5.28 0 8 0 C8 0.66 8 1.32 8 2 C5.36 2 2.72 2 0 2 C0 1.34 0 0.68 0 0 Z " fill="#5FCCF3" transform="translate(284,128)"/>
<path d="M0 0 C2.64 0 5.28 0 8 0 C8 0.66 8 1.32 8 2 C5.36 2 2.72 2 0 2 C0 1.34 0 0.68 0 0 Z " fill="#5FCCF3" transform="translate(236,128)"/>
<path d="M0 0 C2.64 0 5.28 0 8 0 C8 0.66 8 1.32 8 2 C5.36 2 2.72 2 0 2 C0 1.34 0 0.68 0 0 Z " fill="#5FCCF2" transform="translate(200,128)"/>
<path d="M0 0 C2.64 0 5.28 0 8 0 C8 0.66 8 1.32 8 2 C5.36 2 2.72 2 0 2 C0 1.34 0 0.68 0 0 Z " fill="#5FCCF3" transform="translate(312,126)"/>
<path d="M0 0 C2.64 0 5.28 0 8 0 C8 0.66 8 1.32 8 2 C5.36 2 2.72 2 0 2 C0 1.34 0 0.68 0 0 Z " fill="#5FCCF3" transform="translate(276,126)"/>
<path d="M0 0 C2.64 0 5.28 0 8 0 C8 0.66 8 1.32 8 2 C5.36 2 2.72 2 0 2 C0 1.34 0 0.68 0 0 Z " fill="#5FCCF3" transform="translate(228,126)"/>
<path d="M0 0 C2.64 0 5.28 0 8 0 C8 0.66 8 1.32 8 2 C5.36 2 2.72 2 0 2 C0 1.34 0 0.68 0 0 Z " fill="#5FCCF3" transform="translate(208,126)"/>
<path d="M0 0 C2.64 0 5.28 0 8 0 C8 0.66 8 1.32 8 2 C5.36 2 2.72 2 0 2 C0 1.34 0 0.68 0 0 Z " fill="#5FCCF3" transform="translate(304,124)"/>
<path d="M0 0 C2.64 0 5.28 0 8 0 C8 0.66 8 1.32 8 2 C5.36 2 2.72 2 0 2 C0 1.34 0 0.68 0 0 Z " fill="#5FCCF3" transform="translate(284,124)"/>
<path d="M0 0 C2.64 0 5.28 0 8 0 C8 0.66 8 1.32 8 2 C5.36 2 2.72 2 0 2 C0 1.34 0 0.68 0 0 Z " fill="#5FCCF3" transform="translate(236,124)"/>
<path d="M0 0 C2.64 0 5.28 0 8 0 C8 0.66 8 1.32 8 2 C5.36 2 2.72 2 0 2 C0 1.34 0 0.68 0 0 Z " fill="#5FCCF2" transform="translate(200,124)"/>
<path d="M0 0 C2.64 0 5.28 0 8 0 C8 0.66 8 1.32 8 2 C5.36 2 2.72 2 0 2 C0 1.34 0 0.68 0 0 Z " fill="#5FCCF3" transform="translate(312,122)"/>
<path d="M0 0 C2.64 0 5.28 0 8 0 C8 0.66 8 1.32 8 2 C5.36 2 2.72 2 0 2 C0 1.34 0 0.68 0 0 Z " fill="#5FCCF2" transform="translate(276,122)"/>
<path d="M0 0 C2.64 0 5.28 0 8 0 C8 0.66 8 1.32 8 2 C5.36 2 2.72 2 0 2 C0 1.34 0 0.68 0 0 Z " fill="#5FCCF3" transform="translate(228,122)"/>
<path d="M0 0 C2.64 0 5.28 0 8 0 C8 0.66 8 1.32 8 2 C5.36 2 2.72 2 0 2 C0 1.34 0 0.68 0 0 Z " fill="#60CCF3" transform="translate(208,122)"/>
<path d="M0 0 C2.64 0 5.28 0 8 0 C8 0.66 8 1.32 8 2 C5.36 2 2.72 2 0 2 C0 1.34 0 0.68 0 0 Z " fill="#5FCCF2" transform="translate(304,120)"/>
<path d="M0 0 C2.64 0 5.28 0 8 0 C8 0.66 8 1.32 8 2 C5.36 2 2.72 2 0 2 C0 1.34 0 0.68 0 0 Z " fill="#5FCCF2" transform="translate(284,120)"/>
<path d="M0 0 C2.64 0 5.28 0 8 0 C8 0.66 8 1.32 8 2 C5.36 2 2.72 2 0 2 C0 1.34 0 0.68 0 0 Z " fill="#5FCCF3" transform="translate(312,118)"/>
<path d="M0 0 C2.64 0 5.28 0 8 0 C8 0.66 8 1.32 8 2 C5.36 2 2.72 2 0 2 C0 1.34 0 0.68 0 0 Z " fill="#5FCCF2" transform="translate(276,118)"/>
<path d="M0 0 C2.64 0 5.28 0 8 0 C8 0.66 8 1.32 8 2 C5.36 2 2.72 2 0 2 C0 1.34 0 0.68 0 0 Z " fill="#5FCCF2" transform="translate(236,116)"/>
<path d="M0 0 C2.64 0 5.28 0 8 0 C8 0.66 8 1.32 8 2 C5.36 2 2.72 2 0 2 C0 1.34 0 0.68 0 0 Z " fill="#60CDF3" transform="translate(200,116)"/>
<path d="M0 0 C2.64 0 5.28 0 8 0 C8 0.66 8 1.32 8 2 C5.36 2 2.72 2 0 2 C0 1.34 0 0.68 0 0 Z " fill="#5FCCF2" transform="translate(228,114)"/>
<path d="M0 0 C2.64 0 5.28 0 8 0 C8 0.66 8 1.32 8 2 C5.36 2 2.72 2 0 2 C0 1.34 0 0.68 0 0 Z " fill="#5FCCF3" transform="translate(208,114)"/>
<path d="M0 0 C2.64 0 5.28 0 8 0 C8 0.66 8 1.32 8 2 C5.36 2 2.72 2 0 2 C0 1.34 0 0.68 0 0 Z " fill="#5FCCF3" transform="translate(304,112)"/>
<path d="M0 0 C2.64 0 5.28 0 8 0 C8 0.66 8 1.32 8 2 C5.36 2 2.72 2 0 2 C0 1.34 0 0.68 0 0 Z " fill="#5FCCF3" transform="translate(284,112)"/>
<path d="M0 0 C2.64 0 5.28 0 8 0 C8 0.66 8 1.32 8 2 C5.36 2 2.72 2 0 2 C0 1.34 0 0.68 0 0 Z " fill="#5FCCF3" transform="translate(236,112)"/>
<path d="M0 0 C2.64 0 5.28 0 8 0 C8 0.66 8 1.32 8 2 C5.36 2 2.72 2 0 2 C0 1.34 0 0.68 0 0 Z " fill="#5FCCF2" transform="translate(200,112)"/>
<path d="M0 0 C2.64 0 5.28 0 8 0 C8 0.66 8 1.32 8 2 C5.36 2 2.72 2 0 2 C0 1.34 0 0.68 0 0 Z " fill="#5FCCF3" transform="translate(312,110)"/>
<path d="M0 0 C2.64 0 5.28 0 8 0 C8 0.66 8 1.32 8 2 C5.36 2 2.72 2 0 2 C0 1.34 0 0.68 0 0 Z " fill="#5FCCF2" transform="translate(276,110)"/>
<path d="M0 0 C2.64 0 5.28 0 8 0 C8 0.66 8 1.32 8 2 C5.36 2 2.72 2 0 2 C0 1.34 0 0.68 0 0 Z " fill="#5FCCF3" transform="translate(228,110)"/>
<path d="M0 0 C2.64 0 5.28 0 8 0 C8 0.66 8 1.32 8 2 C5.36 2 2.72 2 0 2 C0 1.34 0 0.68 0 0 Z " fill="#5FCCF2" transform="translate(208,110)"/>
<path d="M0 0 C2.64 0 5.28 0 8 0 C8 0.66 8 1.32 8 2 C5.36 2 2.72 2 0 2 C0 1.34 0 0.68 0 0 Z " fill="#5FCCF3" transform="translate(304,108)"/>
<path d="M0 0 C2.64 0 5.28 0 8 0 C8 0.66 8 1.32 8 2 C5.36 2 2.72 2 0 2 C0 1.34 0 0.68 0 0 Z " fill="#5FCCF3" transform="translate(284,108)"/>
<path d="M0 0 C2.64 0 5.28 0 8 0 C8 0.66 8 1.32 8 2 C5.36 2 2.72 2 0 2 C0 1.34 0 0.68 0 0 Z " fill="#5FCCF2" transform="translate(236,108)"/>
<path d="M0 0 C2.64 0 5.28 0 8 0 C8 0.66 8 1.32 8 2 C5.36 2 2.72 2 0 2 C0 1.34 0 0.68 0 0 Z " fill="#5FCCF2" transform="translate(200,108)"/>
<path d="M0 0 C2.64 0 5.28 0 8 0 C8 0.66 8 1.32 8 2 C5.36 2 2.72 2 0 2 C0 1.34 0 0.68 0 0 Z " fill="#5FCCF2" transform="translate(312,106)"/>
<path d="M0 0 C2.64 0 5.28 0 8 0 C8 0.66 8 1.32 8 2 C5.36 2 2.72 2 0 2 C0 1.34 0 0.68 0 0 Z " fill="#5FCCF2" transform="translate(276,106)"/>
<path d="M0 0 C2.64 0 5.28 0 8 0 C8 0.66 8 1.32 8 2 C5.36 2 2.72 2 0 2 C0 1.34 0 0.68 0 0 Z " fill="#5FCCF3" transform="translate(228,106)"/>
<path d="M0 0 C2.64 0 5.28 0 8 0 C8 0.66 8 1.32 8 2 C5.36 2 2.72 2 0 2 C0 1.34 0 0.68 0 0 Z " fill="#5FCCF2" transform="translate(208,106)"/>
<path d="M0 0 C2.64 0 5.28 0 8 0 C8 0.66 8 1.32 8 2 C5.36 2 2.72 2 0 2 C0 1.34 0 0.68 0 0 Z " fill="#5FCCF3" transform="translate(236,104)"/>
<path d="M0 0 C2.64 0 5.28 0 8 0 C8 0.66 8 1.32 8 2 C5.36 2 2.72 2 0 2 C0 1.34 0 0.68 0 0 Z " fill="#5FCCF3" transform="translate(200,104)"/>
<path d="M0 0 C2.64 0 5.28 0 8 0 C8 0.66 8 1.32 8 2 C5.36 2 2.72 2 0 2 C0 1.34 0 0.68 0 0 Z " fill="#5FCCF2" transform="translate(228,102)"/>
<path d="M0 0 C2.64 0 5.28 0 8 0 C8 0.66 8 1.32 8 2 C5.36 2 2.72 2 0 2 C0 1.34 0 0.68 0 0 Z " fill="#5FCCF2" transform="translate(208,102)"/>
<path d="M0 0 C2.64 0 5.28 0 8 0 C8 0.66 8 1.32 8 2 C5.36 2 2.72 2 0 2 C0 1.34 0 0.68 0 0 Z " fill="#5FCCF3" transform="translate(236,96)"/>
<path d="M0 0 C2.64 0 5.28 0 8 0 C8 0.66 8 1.32 8 2 C5.36 2 2.72 2 0 2 C0 1.34 0 0.68 0 0 Z " fill="#5FCCF3" transform="translate(200,96)"/>
<path d="M0 0 C2.64 0 5.28 0 8 0 C8 0.66 8 1.32 8 2 C5.36 2 2.72 2 0 2 C0 1.34 0 0.68 0 0 Z " fill="#5FCCF2" transform="translate(228,94)"/>
<path d="M0 0 C2.64 0 5.28 0 8 0 C8 0.66 8 1.32 8 2 C5.36 2 2.72 2 0 2 C0 1.34 0 0.68 0 0 Z " fill="#5FCCF3" transform="translate(208,94)"/>
<path d="M0 0 C2.64 0 5.28 0 8 0 C8 0.66 8 1.32 8 2 C5.36 2 2.72 2 0 2 C0 1.34 0 0.68 0 0 Z " fill="#5FCCF3" transform="translate(236,92)"/>
<path d="M0 0 C2.64 0 5.28 0 8 0 C8 0.66 8 1.32 8 2 C5.36 2 2.72 2 0 2 C0 1.34 0 0.68 0 0 Z " fill="#5FCCF2" transform="translate(200,92)"/>
<path d="M0 0 C2.64 0 5.28 0 8 0 C8 0.66 8 1.32 8 2 C5.36 2 2.72 2 0 2 C0 1.34 0 0.68 0 0 Z " fill="#5FCCF3" transform="translate(228,90)"/>
<path d="M0 0 C2.64 0 5.28 0 8 0 C8 0.66 8 1.32 8 2 C5.36 2 2.72 2 0 2 C0 1.34 0 0.68 0 0 Z " fill="#5FCCF3" transform="translate(208,90)"/>
<path d="M0 0 C1.98 0 3.96 0 6 0 C6 0.66 6 1.32 6 2 C4.02 2 2.04 2 0 2 C0 1.34 0 0.68 0 0 Z " fill="#5FCCF3" transform="translate(320,188)"/>
<path d="M0 0 C1.98 0 3.96 0 6 0 C6 0.66 6 1.32 6 2 C4.02 2 2.04 2 0 2 C0 1.34 0 0.68 0 0 Z " fill="#5FCCF3" transform="translate(270,188)"/>
<path d="M0 0 C1.98 0 3.96 0 6 0 C6 0.66 6 1.32 6 2 C4.02 2 2.04 2 0 2 C0 1.34 0 0.68 0 0 Z " fill="#5FCCF3" transform="translate(326,186)"/>
<path d="M0 0 C1.98 0 3.96 0 6 0 C6 0.66 6 1.32 6 2 C4.02 2 2.04 2 0 2 C0 1.34 0 0.68 0 0 Z " fill="#5FCCF2" transform="translate(264,186)"/>
<path d="M0 0 C1.98 0 3.96 0 6 0 C6 0.66 6 1.32 6 2 C4.02 2 2.04 2 0 2 C0 1.34 0 0.68 0 0 Z " fill="#5FCCF3" transform="translate(320,184)"/>
<path d="M0 0 C1.98 0 3.96 0 6 0 C6 0.66 6 1.32 6 2 C4.02 2 2.04 2 0 2 C0 1.34 0 0.68 0 0 Z " fill="#5FCCF3" transform="translate(270,184)"/>
<path d="M0 0 C1.98 0 3.96 0 6 0 C6 0.66 6 1.32 6 2 C4.02 2 2.04 2 0 2 C0 1.34 0 0.68 0 0 Z " fill="#5FCCF2" transform="translate(326,182)"/>
<path d="M0 0 C1.98 0 3.96 0 6 0 C6 0.66 6 1.32 6 2 C4.02 2 2.04 2 0 2 C0 1.34 0 0.68 0 0 Z " fill="#5FCCF3" transform="translate(264,182)"/>
<path d="M0 0 C1.98 0 3.96 0 6 0 C6 0.66 6 1.32 6 2 C4.02 2 2.04 2 0 2 C0 1.34 0 0.68 0 0 Z " fill="#5FCCF3" transform="translate(340,180)"/>
<path d="M0 0 C1.98 0 3.96 0 6 0 C6 0.66 6 1.32 6 2 C4.02 2 2.04 2 0 2 C0 1.34 0 0.68 0 0 Z " fill="#5FCCF3" transform="translate(320,180)"/>
<path d="M0 0 C1.98 0 3.96 0 6 0 C6 0.66 6 1.32 6 2 C4.02 2 2.04 2 0 2 C0 1.34 0 0.68 0 0 Z " fill="#5FCCF2" transform="translate(270,180)"/>
<path d="M0 0 C1.98 0 3.96 0 6 0 C6 0.66 6 1.32 6 2 C4.02 2 2.04 2 0 2 C0 1.34 0 0.68 0 0 Z " fill="#5FCCF3" transform="translate(250,180)"/>
<path d="M0 0 C1.98 0 3.96 0 6 0 C6 0.66 6 1.32 6 2 C4.02 2 2.04 2 0 2 C0 1.34 0 0.68 0 0 Z " fill="#5FCCF3" transform="translate(188,180)"/>
<path d="M0 0 C1.98 0 3.96 0 6 0 C6 0.66 6 1.32 6 2 C4.02 2 2.04 2 0 2 C0 1.34 0 0.68 0 0 Z " fill="#5FCCF3" transform="translate(326,178)"/>
<path d="M0 0 C1.98 0 3.96 0 6 0 C6 0.66 6 1.32 6 2 C4.02 2 2.04 2 0 2 C0 1.34 0 0.68 0 0 Z " fill="#5FCCF3" transform="translate(264,178)"/>
<path d="M0 0 C1.98 0 3.96 0 6 0 C6 0.66 6 1.32 6 2 C4.02 2 2.04 2 0 2 C0 1.34 0 0.68 0 0 Z " fill="#5FCCF3" transform="translate(244,178)"/>
<path d="M0 0 C1.98 0 3.96 0 6 0 C6 0.66 6 1.32 6 2 C4.02 2 2.04 2 0 2 C0 1.34 0 0.68 0 0 Z " fill="#5FCCF3" transform="translate(194,178)"/>
<path d="M0 0 C1.98 0 3.96 0 6 0 C6 0.66 6 1.32 6 2 C4.02 2 2.04 2 0 2 C0 1.34 0 0.68 0 0 Z " fill="#5FCCF2" transform="translate(340,176)"/>
<path d="M0 0 C1.98 0 3.96 0 6 0 C6 0.66 6 1.32 6 2 C4.02 2 2.04 2 0 2 C0 1.34 0 0.68 0 0 Z " fill="#5FCCF2" transform="translate(320,176)"/>
<path d="M0 0 C1.98 0 3.96 0 6 0 C6 0.66 6 1.32 6 2 C4.02 2 2.04 2 0 2 C0 1.34 0 0.68 0 0 Z " fill="#5FCCF3" transform="translate(270,176)"/>
<path d="M0 0 C1.98 0 3.96 0 6 0 C6 0.66 6 1.32 6 2 C4.02 2 2.04 2 0 2 C0 1.34 0 0.68 0 0 Z " fill="#5FCCF3" transform="translate(250,176)"/>
<path d="M0 0 C1.98 0 3.96 0 6 0 C6 0.66 6 1.32 6 2 C4.02 2 2.04 2 0 2 C0 1.34 0 0.68 0 0 Z " fill="#60CCF3" transform="translate(188,176)"/>
<path d="M0 0 C1.98 0 3.96 0 6 0 C6 0.66 6 1.32 6 2 C4.02 2 2.04 2 0 2 C0 1.34 0 0.68 0 0 Z " fill="#5FCCF3" transform="translate(326,174)"/>
<path d="M0 0 C1.98 0 3.96 0 6 0 C6 0.66 6 1.32 6 2 C4.02 2 2.04 2 0 2 C0 1.34 0 0.68 0 0 Z " fill="#5FCCF3" transform="translate(264,174)"/>
<path d="M0 0 C1.98 0 3.96 0 6 0 C6 0.66 6 1.32 6 2 C4.02 2 2.04 2 0 2 C0 1.34 0 0.68 0 0 Z " fill="#5FCCF2" transform="translate(244,174)"/>
<path d="M0 0 C1.98 0 3.96 0 6 0 C6 0.66 6 1.32 6 2 C4.02 2 2.04 2 0 2 C0 1.34 0 0.68 0 0 Z " fill="#5FCCF2" transform="translate(194,174)"/>
<path d="M0 0 C1.98 0 3.96 0 6 0 C6 0.66 6 1.32 6 2 C4.02 2 2.04 2 0 2 C0 1.34 0 0.68 0 0 Z " fill="#5FCCF2" transform="translate(340,172)"/>
<path d="M0 0 C1.98 0 3.96 0 6 0 C6 0.66 6 1.32 6 2 C4.02 2 2.04 2 0 2 C0 1.34 0 0.68 0 0 Z " fill="#5FCCF2" transform="translate(250,172)"/>
<path d="M0 0 C1.98 0 3.96 0 6 0 C6 0.66 6 1.32 6 2 C4.02 2 2.04 2 0 2 C0 1.34 0 0.68 0 0 Z " fill="#5FCCF3" transform="translate(188,172)"/>
<path d="M0 0 C1.98 0 3.96 0 6 0 C6 0.66 6 1.32 6 2 C4.02 2 2.04 2 0 2 C0 1.34 0 0.68 0 0 Z " fill="#5FCCF3" transform="translate(244,170)"/>
<path d="M0 0 C1.98 0 3.96 0 6 0 C6 0.66 6 1.32 6 2 C4.02 2 2.04 2 0 2 C0 1.34 0 0.68 0 0 Z " fill="#5FCCF2" transform="translate(194,170)"/>
<path d="M0 0 C1.98 0 3.96 0 6 0 C6 0.66 6 1.32 6 2 C4.02 2 2.04 2 0 2 C0 1.34 0 0.68 0 0 Z " fill="#5FCCF3" transform="translate(340,168)"/>
<path d="M0 0 C1.98 0 3.96 0 6 0 C6 0.66 6 1.32 6 2 C4.02 2 2.04 2 0 2 C0 1.34 0 0.68 0 0 Z " fill="#60CCF3" transform="translate(320,168)"/>
<path d="M0 0 C1.98 0 3.96 0 6 0 C6 0.66 6 1.32 6 2 C4.02 2 2.04 2 0 2 C0 1.34 0 0.68 0 0 Z " fill="#5FCCF3" transform="translate(270,168)"/>
<path d="M0 0 C1.98 0 3.96 0 6 0 C6 0.66 6 1.32 6 2 C4.02 2 2.04 2 0 2 C0 1.34 0 0.68 0 0 Z " fill="#5FCCF3" transform="translate(250,168)"/>
<path d="M0 0 C1.98 0 3.96 0 6 0 C6 0.66 6 1.32 6 2 C4.02 2 2.04 2 0 2 C0 1.34 0 0.68 0 0 Z " fill="#5FCCF3" transform="translate(188,168)"/>
<path d="M0 0 C1.98 0 3.96 0 6 0 C6 0.66 6 1.32 6 2 C4.02 2 2.04 2 0 2 C0 1.34 0 0.68 0 0 Z " fill="#5FCCF3" transform="translate(326,166)"/>
<path d="M0 0 C1.98 0 3.96 0 6 0 C6 0.66 6 1.32 6 2 C4.02 2 2.04 2 0 2 C0 1.34 0 0.68 0 0 Z " fill="#5FCCF3" transform="translate(264,166)"/>
<path d="M0 0 C1.98 0 3.96 0 6 0 C6 0.66 6 1.32 6 2 C4.02 2 2.04 2 0 2 C0 1.34 0 0.68 0 0 Z " fill="#5FCCF3" transform="translate(244,166)"/>
<path d="M0 0 C1.98 0 3.96 0 6 0 C6 0.66 6 1.32 6 2 C4.02 2 2.04 2 0 2 C0 1.34 0 0.68 0 0 Z " fill="#5FCCF3" transform="translate(194,166)"/>
<path d="M0 0 C1.98 0 3.96 0 6 0 C6 0.66 6 1.32 6 2 C4.02 2 2.04 2 0 2 C0 1.34 0 0.68 0 0 Z " fill="#5FCCF2" transform="translate(320,164)"/>
<path d="M0 0 C1.98 0 3.96 0 6 0 C6 0.66 6 1.32 6 2 C4.02 2 2.04 2 0 2 C0 1.34 0 0.68 0 0 Z " fill="#5FCCF3" transform="translate(270,164)"/>
<path d="M0 0 C1.98 0 3.96 0 6 0 C6 0.66 6 1.32 6 2 C4.02 2 2.04 2 0 2 C0 1.34 0 0.68 0 0 Z " fill="#5FCCF3" transform="translate(326,162)"/>
<path d="M0 0 C1.98 0 3.96 0 6 0 C6 0.66 6 1.32 6 2 C4.02 2 2.04 2 0 2 C0 1.34 0 0.68 0 0 Z " fill="#5FCCF2" transform="translate(264,162)"/>
<path d="M0 0 C1.98 0 3.96 0 6 0 C6 0.66 6 1.32 6 2 C4.02 2 2.04 2 0 2 C0 1.34 0 0.68 0 0 Z " fill="#5FCCF2" transform="translate(340,160)"/>
<path d="M0 0 C1.98 0 3.96 0 6 0 C6 0.66 6 1.32 6 2 C4.02 2 2.04 2 0 2 C0 1.34 0 0.68 0 0 Z " fill="#5FCCF2" transform="translate(250,160)"/>
<path d="M0 0 C1.98 0 3.96 0 6 0 C6 0.66 6 1.32 6 2 C4.02 2 2.04 2 0 2 C0 1.34 0 0.68 0 0 Z " fill="#5FCCF3" transform="translate(188,160)"/>
<path d="M0 0 C1.98 0 3.96 0 6 0 C6 0.66 6 1.32 6 2 C4.02 2 2.04 2 0 2 C0 1.34 0 0.68 0 0 Z " fill="#5FCCF3" transform="translate(346,158)"/>
<path d="M0 0 C1.98 0 3.96 0 6 0 C6 0.66 6 1.32 6 2 C4.02 2 2.04 2 0 2 C0 1.34 0 0.68 0 0 Z " fill="#5FCCF2" transform="translate(244,158)"/>
<path d="M0 0 C1.98 0 3.96 0 6 0 C6 0.66 6 1.32 6 2 C4.02 2 2.04 2 0 2 C0 1.34 0 0.68 0 0 Z " fill="#5FCCF3" transform="translate(194,158)"/>
<path d="M0 0 C1.98 0 3.96 0 6 0 C6 0.66 6 1.32 6 2 C4.02 2 2.04 2 0 2 C0 1.34 0 0.68 0 0 Z " fill="#5FCCF2" transform="translate(340,156)"/>
<path d="M0 0 C1.98 0 3.96 0 6 0 C6 0.66 6 1.32 6 2 C4.02 2 2.04 2 0 2 C0 1.34 0 0.68 0 0 Z " fill="#5FCCF3" transform="translate(320,156)"/>
<path d="M0 0 C1.98 0 3.96 0 6 0 C6 0.66 6 1.32 6 2 C4.02 2 2.04 2 0 2 C0 1.34 0 0.68 0 0 Z " fill="#5FCCF3" transform="translate(270,156)"/>
<path d="M0 0 C1.98 0 3.96 0 6 0 C6 0.66 6 1.32 6 2 C4.02 2 2.04 2 0 2 C0 1.34 0 0.68 0 0 Z " fill="#5FCCF2" transform="translate(250,156)"/>
<path d="M0 0 C1.98 0 3.96 0 6 0 C6 0.66 6 1.32 6 2 C4.02 2 2.04 2 0 2 C0 1.34 0 0.68 0 0 Z " fill="#5FCCF3" transform="translate(188,156)"/>
<path d="M0 0 C1.98 0 3.96 0 6 0 C6 0.66 6 1.32 6 2 C4.02 2 2.04 2 0 2 C0 1.34 0 0.68 0 0 Z " fill="#5FCCF2" transform="translate(346,154)"/>
<path d="M0 0 C1.98 0 3.96 0 6 0 C6 0.66 6 1.32 6 2 C4.02 2 2.04 2 0 2 C0 1.34 0 0.68 0 0 Z " fill="#5FCCF3" transform="translate(326,154)"/>
<path d="M0 0 C1.98 0 3.96 0 6 0 C6 0.66 6 1.32 6 2 C4.02 2 2.04 2 0 2 C0 1.34 0 0.68 0 0 Z " fill="#5FCCF3" transform="translate(264,154)"/>
<path d="M0 0 C1.98 0 3.96 0 6 0 C6 0.66 6 1.32 6 2 C4.02 2 2.04 2 0 2 C0 1.34 0 0.68 0 0 Z " fill="#5FCCF3" transform="translate(244,154)"/>
<path d="M0 0 C1.98 0 3.96 0 6 0 C6 0.66 6 1.32 6 2 C4.02 2 2.04 2 0 2 C0 1.34 0 0.68 0 0 Z " fill="#5FCCF3" transform="translate(194,154)"/>
<path d="M0 0 C1.98 0 3.96 0 6 0 C6 0.66 6 1.32 6 2 C4.02 2 2.04 2 0 2 C0 1.34 0 0.68 0 0 Z " fill="#60CCF3" transform="translate(320,152)"/>
<path d="M0 0 C1.98 0 3.96 0 6 0 C6 0.66 6 1.32 6 2 C4.02 2 2.04 2 0 2 C0 1.34 0 0.68 0 0 Z " fill="#5FCCF2" transform="translate(270,152)"/>
<path d="M0 0 C1.98 0 3.96 0 6 0 C6 0.66 6 1.32 6 2 C4.02 2 2.04 2 0 2 C0 1.34 0 0.68 0 0 Z " fill="#5FCCF3" transform="translate(326,150)"/>
<path d="M0 0 C1.98 0 3.96 0 6 0 C6 0.66 6 1.32 6 2 C4.02 2 2.04 2 0 2 C0 1.34 0 0.68 0 0 Z " fill="#5FCCF2" transform="translate(264,150)"/>
<path d="M0 0 C1.98 0 3.96 0 6 0 C6 0.66 6 1.32 6 2 C4.02 2 2.04 2 0 2 C0 1.34 0 0.68 0 0 Z " fill="#5FCCF2" transform="translate(340,148)"/>
<path d="M0 0 C1.98 0 3.96 0 6 0 C6 0.66 6 1.32 6 2 C4.02 2 2.04 2 0 2 C0 1.34 0 0.68 0 0 Z " fill="#60CCF3" transform="translate(320,148)"/>
<path d="M0 0 C1.98 0 3.96 0 6 0 C6 0.66 6 1.32 6 2 C4.02 2 2.04 2 0 2 C0 1.34 0 0.68 0 0 Z " fill="#5FCCF3" transform="translate(270,148)"/>
<path d="M0 0 C1.98 0 3.96 0 6 0 C6 0.66 6 1.32 6 2 C4.02 2 2.04 2 0 2 C0 1.34 0 0.68 0 0 Z " fill="#5FCCF3" transform="translate(250,148)"/>
<path d="M0 0 C1.98 0 3.96 0 6 0 C6 0.66 6 1.32 6 2 C4.02 2 2.04 2 0 2 C0 1.34 0 0.68 0 0 Z " fill="#5FCCF3" transform="translate(188,148)"/>
<path d="M0 0 C1.98 0 3.96 0 6 0 C6 0.66 6 1.32 6 2 C4.02 2 2.04 2 0 2 C0 1.34 0 0.68 0 0 Z " fill="#5FCCF2" transform="translate(346,146)"/>
<path d="M0 0 C1.98 0 3.96 0 6 0 C6 0.66 6 1.32 6 2 C4.02 2 2.04 2 0 2 C0 1.34 0 0.68 0 0 Z " fill="#5FCCF2" transform="translate(326,146)"/>
<path d="M0 0 C1.98 0 3.96 0 6 0 C6 0.66 6 1.32 6 2 C4.02 2 2.04 2 0 2 C0 1.34 0 0.68 0 0 Z " fill="#5FCCF3" transform="translate(264,146)"/>
<path d="M0 0 C1.98 0 3.96 0 6 0 C6 0.66 6 1.32 6 2 C4.02 2 2.04 2 0 2 C0 1.34 0 0.68 0 0 Z " fill="#5FCCF2" transform="translate(244,146)"/>
<path d="M0 0 C1.98 0 3.96 0 6 0 C6 0.66 6 1.32 6 2 C4.02 2 2.04 2 0 2 C0 1.34 0 0.68 0 0 Z " fill="#5FCCF3" transform="translate(194,146)"/>
<path d="M0 0 C1.98 0 3.96 0 6 0 C6 0.66 6 1.32 6 2 C4.02 2 2.04 2 0 2 C0 1.34 0 0.68 0 0 Z " fill="#5FCCF3" transform="translate(340,144)"/>
<path d="M0 0 C1.98 0 3.96 0 6 0 C6 0.66 6 1.32 6 2 C4.02 2 2.04 2 0 2 C0 1.34 0 0.68 0 0 Z " fill="#5FCCF3" transform="translate(250,144)"/>
<path d="M0 0 C1.98 0 3.96 0 6 0 C6 0.66 6 1.32 6 2 C4.02 2 2.04 2 0 2 C0 1.34 0 0.68 0 0 Z " fill="#5FCCF3" transform="translate(188,144)"/>
<path d="M0 0 C1.98 0 3.96 0 6 0 C6 0.66 6 1.32 6 2 C4.02 2 2.04 2 0 2 C0 1.34 0 0.68 0 0 Z " fill="#5FCCF3" transform="translate(346,142)"/>
<path d="M0 0 C1.98 0 3.96 0 6 0 C6 0.66 6 1.32 6 2 C4.02 2 2.04 2 0 2 C0 1.34 0 0.68 0 0 Z " fill="#5FCCF3" transform="translate(244,142)"/>
<path d="M0 0 C1.98 0 3.96 0 6 0 C6 0.66 6 1.32 6 2 C4.02 2 2.04 2 0 2 C0 1.34 0 0.68 0 0 Z " fill="#5FCCF3" transform="translate(194,142)"/>
<path d="M0 0 C1.98 0 3.96 0 6 0 C6 0.66 6 1.32 6 2 C4.02 2 2.04 2 0 2 C0 1.34 0 0.68 0 0 Z " fill="#5FCCF3" transform="translate(340,140)"/>
<path d="M0 0 C1.98 0 3.96 0 6 0 C6 0.66 6 1.32 6 2 C4.02 2 2.04 2 0 2 C0 1.34 0 0.68 0 0 Z " fill="#5FCCF2" transform="translate(320,140)"/>
<path d="M0 0 C1.98 0 3.96 0 6 0 C6 0.66 6 1.32 6 2 C4.02 2 2.04 2 0 2 C0 1.34 0 0.68 0 0 Z " fill="#5FCCF2" transform="translate(270,140)"/>
<path d="M0 0 C1.98 0 3.96 0 6 0 C6 0.66 6 1.32 6 2 C4.02 2 2.04 2 0 2 C0 1.34 0 0.68 0 0 Z " fill="#5FCCF3" transform="translate(250,140)"/>
<path d="M0 0 C1.98 0 3.96 0 6 0 C6 0.66 6 1.32 6 2 C4.02 2 2.04 2 0 2 C0 1.34 0 0.68 0 0 Z " fill="#5FCCF2" transform="translate(188,140)"/>
<path d="M0 0 C1.98 0 3.96 0 6 0 C6 0.66 6 1.32 6 2 C4.02 2 2.04 2 0 2 C0 1.34 0 0.68 0 0 Z " fill="#5FCCF2" transform="translate(346,138)"/>
<path d="M0 0 C1.98 0 3.96 0 6 0 C6 0.66 6 1.32 6 2 C4.02 2 2.04 2 0 2 C0 1.34 0 0.68 0 0 Z " fill="#60CCF3" transform="translate(326,138)"/>
<path d="M0 0 C1.98 0 3.96 0 6 0 C6 0.66 6 1.32 6 2 C4.02 2 2.04 2 0 2 C0 1.34 0 0.68 0 0 Z " fill="#5FCCF3" transform="translate(264,138)"/>
<path d="M0 0 C1.98 0 3.96 0 6 0 C6 0.66 6 1.32 6 2 C4.02 2 2.04 2 0 2 C0 1.34 0 0.68 0 0 Z " fill="#5FCCF2" transform="translate(244,138)"/>
<path d="M0 0 C1.98 0 3.96 0 6 0 C6 0.66 6 1.32 6 2 C4.02 2 2.04 2 0 2 C0 1.34 0 0.68 0 0 Z " fill="#5FCCF2" transform="translate(194,138)"/>
<path d="M0 0 C1.98 0 3.96 0 6 0 C6 0.66 6 1.32 6 2 C4.02 2 2.04 2 0 2 C0 1.34 0 0.68 0 0 Z " fill="#5FCCF2" transform="translate(320,136)"/>
<path d="M0 0 C1.98 0 3.96 0 6 0 C6 0.66 6 1.32 6 2 C4.02 2 2.04 2 0 2 C0 1.34 0 0.68 0 0 Z " fill="#5FCCF3" transform="translate(270,136)"/>
<path d="M0 0 C1.98 0 3.96 0 6 0 C6 0.66 6 1.32 6 2 C4.02 2 2.04 2 0 2 C0 1.34 0 0.68 0 0 Z " fill="#5FCCF3" transform="translate(326,134)"/>
<path d="M0 0 C1.98 0 3.96 0 6 0 C6 0.66 6 1.32 6 2 C4.02 2 2.04 2 0 2 C0 1.34 0 0.68 0 0 Z " fill="#5FCCF2" transform="translate(264,134)"/>
<path d="M0 0 C1.98 0 3.96 0 6 0 C6 0.66 6 1.32 6 2 C4.02 2 2.04 2 0 2 C0 1.34 0 0.68 0 0 Z " fill="#5FCCF2" transform="translate(340,132)"/>
<path d="M0 0 C1.98 0 3.96 0 6 0 C6 0.66 6 1.32 6 2 C4.02 2 2.04 2 0 2 C0 1.34 0 0.68 0 0 Z " fill="#5FCCF3" transform="translate(250,132)"/>
<path d="M0 0 C1.98 0 3.96 0 6 0 C6 0.66 6 1.32 6 2 C4.02 2 2.04 2 0 2 C0 1.34 0 0.68 0 0 Z " fill="#5FCCF2" transform="translate(188,132)"/>
<path d="M0 0 C1.98 0 3.96 0 6 0 C6 0.66 6 1.32 6 2 C4.02 2 2.04 2 0 2 C0 1.34 0 0.68 0 0 Z " fill="#5FCCF2" transform="translate(346,130)"/>
<path d="M0 0 C1.98 0 3.96 0 6 0 C6 0.66 6 1.32 6 2 C4.02 2 2.04 2 0 2 C0 1.34 0 0.68 0 0 Z " fill="#5FCCF2" transform="translate(244,130)"/>
<path d="M0 0 C1.98 0 3.96 0 6 0 C6 0.66 6 1.32 6 2 C4.02 2 2.04 2 0 2 C0 1.34 0 0.68 0 0 Z " fill="#5FCCF3" transform="translate(194,130)"/>
<path d="M0 0 C1.98 0 3.96 0 6 0 C6 0.66 6 1.32 6 2 C4.02 2 2.04 2 0 2 C0 1.34 0 0.68 0 0 Z " fill="#5FCCF2" transform="translate(340,128)"/>
<path d="M0 0 C1.98 0 3.96 0 6 0 C6 0.66 6 1.32 6 2 C4.02 2 2.04 2 0 2 C0 1.34 0 0.68 0 0 Z " fill="#5FCCF3" transform="translate(320,128)"/>
<path d="M0 0 C1.98 0 3.96 0 6 0 C6 0.66 6 1.32 6 2 C4.02 2 2.04 2 0 2 C0 1.34 0 0.68 0 0 Z " fill="#5FCCF3" transform="translate(270,128)"/>
<path d="M0 0 C1.98 0 3.96 0 6 0 C6 0.66 6 1.32 6 2 C4.02 2 2.04 2 0 2 C0 1.34 0 0.68 0 0 Z " fill="#5FCCF2" transform="translate(250,128)"/>
<path d="M0 0 C1.98 0 3.96 0 6 0 C6 0.66 6 1.32 6 2 C4.02 2 2.04 2 0 2 C0 1.34 0 0.68 0 0 Z " fill="#60CCF3" transform="translate(188,128)"/>
<path d="M0 0 C1.98 0 3.96 0 6 0 C6 0.66 6 1.32 6 2 C4.02 2 2.04 2 0 2 C0 1.34 0 0.68 0 0 Z " fill="#5FCCF3" transform="translate(346,126)"/>
<path d="M0 0 C1.98 0 3.96 0 6 0 C6 0.66 6 1.32 6 2 C4.02 2 2.04 2 0 2 C0 1.34 0 0.68 0 0 Z " fill="#5FCCF2" transform="translate(326,126)"/>
<path d="M0 0 C1.98 0 3.96 0 6 0 C6 0.66 6 1.32 6 2 C4.02 2 2.04 2 0 2 C0 1.34 0 0.68 0 0 Z " fill="#5FCCF3" transform="translate(264,126)"/>
<path d="M0 0 C1.98 0 3.96 0 6 0 C6 0.66 6 1.32 6 2 C4.02 2 2.04 2 0 2 C0 1.34 0 0.68 0 0 Z " fill="#5FCCF3" transform="translate(244,126)"/>
<path d="M0 0 C1.98 0 3.96 0 6 0 C6 0.66 6 1.32 6 2 C4.02 2 2.04 2 0 2 C0 1.34 0 0.68 0 0 Z " fill="#5FCCF2" transform="translate(194,126)"/>
<path d="M0 0 C1.98 0 3.96 0 6 0 C6 0.66 6 1.32 6 2 C4.02 2 2.04 2 0 2 C0 1.34 0 0.68 0 0 Z " fill="#5FCCF2" transform="translate(320,124)"/>
<path d="M0 0 C1.98 0 3.96 0 6 0 C6 0.66 6 1.32 6 2 C4.02 2 2.04 2 0 2 C0 1.34 0 0.68 0 0 Z " fill="#5FCCF3" transform="translate(270,124)"/>
<path d="M0 0 C1.98 0 3.96 0 6 0 C6 0.66 6 1.32 6 2 C4.02 2 2.04 2 0 2 C0 1.34 0 0.68 0 0 Z " fill="#5FCCF3" transform="translate(326,122)"/>
<path d="M0 0 C1.98 0 3.96 0 6 0 C6 0.66 6 1.32 6 2 C4.02 2 2.04 2 0 2 C0 1.34 0 0.68 0 0 Z " fill="#5FCCF2" transform="translate(264,122)"/>
<path d="M0 0 C1.98 0 3.96 0 6 0 C6 0.66 6 1.32 6 2 C4.02 2 2.04 2 0 2 C0 1.34 0 0.68 0 0 Z " fill="#5FCCF3" transform="translate(340,120)"/>
<path d="M0 0 C1.98 0 3.96 0 6 0 C6 0.66 6 1.32 6 2 C4.02 2 2.04 2 0 2 C0 1.34 0 0.68 0 0 Z " fill="#5FCCF3" transform="translate(320,120)"/>
<path d="M0 0 C1.98 0 3.96 0 6 0 C6 0.66 6 1.32 6 2 C4.02 2 2.04 2 0 2 C0 1.34 0 0.68 0 0 Z " fill="#5FCCF2" transform="translate(270,120)"/>
<path d="M0 0 C1.98 0 3.96 0 6 0 C6 0.66 6 1.32 6 2 C4.02 2 2.04 2 0 2 C0 1.34 0 0.68 0 0 Z " fill="#5FCCF2" transform="translate(250,120)"/>
<path d="M0 0 C1.98 0 3.96 0 6 0 C6 0.66 6 1.32 6 2 C4.02 2 2.04 2 0 2 C0 1.34 0 0.68 0 0 Z " fill="#5FCCF3" transform="translate(188,120)"/>
<path d="M0 0 C1.98 0 3.96 0 6 0 C6 0.66 6 1.32 6 2 C4.02 2 2.04 2 0 2 C0 1.34 0 0.68 0 0 Z " fill="#5FCCF3" transform="translate(346,118)"/>
<path d="M0 0 C1.98 0 3.96 0 6 0 C6 0.66 6 1.32 6 2 C4.02 2 2.04 2 0 2 C0 1.34 0 0.68 0 0 Z " fill="#5FCCF3" transform="translate(326,118)"/>
<path d="M0 0 C1.98 0 3.96 0 6 0 C6 0.66 6 1.32 6 2 C4.02 2 2.04 2 0 2 C0 1.34 0 0.68 0 0 Z " fill="#5FCCF2" transform="translate(264,118)"/>
<path d="M0 0 C1.98 0 3.96 0 6 0 C6 0.66 6 1.32 6 2 C4.02 2 2.04 2 0 2 C0 1.34 0 0.68 0 0 Z " fill="#5FCCF3" transform="translate(244,118)"/>
<path d="M0 0 C1.98 0 3.96 0 6 0 C6 0.66 6 1.32 6 2 C4.02 2 2.04 2 0 2 C0 1.34 0 0.68 0 0 Z " fill="#5FCCF3" transform="translate(194,118)"/>
<path d="M0 0 C1.98 0 3.96 0 6 0 C6 0.66 6 1.32 6 2 C4.02 2 2.04 2 0 2 C0 1.34 0 0.68 0 0 Z " fill="#5FCCF3" transform="translate(340,116)"/>
<path d="M0 0 C1.98 0 3.96 0 6 0 C6 0.66 6 1.32 6 2 C4.02 2 2.04 2 0 2 C0 1.34 0 0.68 0 0 Z " fill="#5FCCF2" transform="translate(320,116)"/>
<path d="M0 0 C1.98 0 3.96 0 6 0 C6 0.66 6 1.32 6 2 C4.02 2 2.04 2 0 2 C0 1.34 0 0.68 0 0 Z " fill="#5FCCF3" transform="translate(270,116)"/>
<path d="M0 0 C1.98 0 3.96 0 6 0 C6 0.66 6 1.32 6 2 C4.02 2 2.04 2 0 2 C0 1.34 0 0.68 0 0 Z " fill="#5FCCF3" transform="translate(250,116)"/>
<path d="M0 0 C1.98 0 3.96 0 6 0 C6 0.66 6 1.32 6 2 C4.02 2 2.04 2 0 2 C0 1.34 0 0.68 0 0 Z " fill="#5FCCF3" transform="translate(188,116)"/>
<path d="M0 0 C1.98 0 3.96 0 6 0 C6 0.66 6 1.32 6 2 C4.02 2 2.04 2 0 2 C0 1.34 0 0.68 0 0 Z " fill="#5FCCF2" transform="translate(346,114)"/>
<path d="M0 0 C1.98 0 3.96 0 6 0 C6 0.66 6 1.32 6 2 C4.02 2 2.04 2 0 2 C0 1.34 0 0.68 0 0 Z " fill="#5FCCF2" transform="translate(326,114)"/>
<path d="M0 0 C1.98 0 3.96 0 6 0 C6 0.66 6 1.32 6 2 C4.02 2 2.04 2 0 2 C0 1.34 0 0.68 0 0 Z " fill="#5FCCF2" transform="translate(264,114)"/>
<path d="M0 0 C1.98 0 3.96 0 6 0 C6 0.66 6 1.32 6 2 C4.02 2 2.04 2 0 2 C0 1.34 0 0.68 0 0 Z " fill="#5FCCF3" transform="translate(244,114)"/>
<path d="M0 0 C1.98 0 3.96 0 6 0 C6 0.66 6 1.32 6 2 C4.02 2 2.04 2 0 2 C0 1.34 0 0.68 0 0 Z " fill="#5FCCF2" transform="translate(194,114)"/>
<path d="M0 0 C1.98 0 3.96 0 6 0 C6 0.66 6 1.32 6 2 C4.02 2 2.04 2 0 2 C0 1.34 0 0.68 0 0 Z " fill="#5FCCF2" transform="translate(340,112)"/>
<path d="M0 0 C1.98 0 3.96 0 6 0 C6 0.66 6 1.32 6 2 C4.02 2 2.04 2 0 2 C0 1.34 0 0.68 0 0 Z " fill="#5FCCF3" transform="translate(250,112)"/>
<path d="M0 0 C1.98 0 3.96 0 6 0 C6 0.66 6 1.32 6 2 C4.02 2 2.04 2 0 2 C0 1.34 0 0.68 0 0 Z " fill="#5FCCF2" transform="translate(188,112)"/>
<path d="M0 0 C1.98 0 3.96 0 6 0 C6 0.66 6 1.32 6 2 C4.02 2 2.04 2 0 2 C0 1.34 0 0.68 0 0 Z " fill="#5FCCF2" transform="translate(346,110)"/>
<path d="M0 0 C1.98 0 3.96 0 6 0 C6 0.66 6 1.32 6 2 C4.02 2 2.04 2 0 2 C0 1.34 0 0.68 0 0 Z " fill="#5FCCF2" transform="translate(244,110)"/>
<path d="M0 0 C1.98 0 3.96 0 6 0 C6 0.66 6 1.32 6 2 C4.02 2 2.04 2 0 2 C0 1.34 0 0.68 0 0 Z " fill="#5FCCF3" transform="translate(194,110)"/>
<path d="M0 0 C1.98 0 3.96 0 6 0 C6 0.66 6 1.32 6 2 C4.02 2 2.04 2 0 2 C0 1.34 0 0.68 0 0 Z " fill="#5FCCF3" transform="translate(340,108)"/>
<path d="M0 0 C1.98 0 3.96 0 6 0 C6 0.66 6 1.32 6 2 C4.02 2 2.04 2 0 2 C0 1.34 0 0.68 0 0 Z " fill="#5FCCF3" transform="translate(320,108)"/>
<path d="M0 0 C1.98 0 3.96 0 6 0 C6 0.66 6 1.32 6 2 C4.02 2 2.04 2 0 2 C0 1.34 0 0.68 0 0 Z " fill="#5FCCF3" transform="translate(270,108)"/>
<path d="M0 0 C1.98 0 3.96 0 6 0 C6 0.66 6 1.32 6 2 C4.02 2 2.04 2 0 2 C0 1.34 0 0.68 0 0 Z " fill="#5FCCF2" transform="translate(250,108)"/>
<path d="M0 0 C1.98 0 3.96 0 6 0 C6 0.66 6 1.32 6 2 C4.02 2 2.04 2 0 2 C0 1.34 0 0.68 0 0 Z " fill="#5FCCF3" transform="translate(188,108)"/>
<path d="M0 0 C1.98 0 3.96 0 6 0 C6 0.66 6 1.32 6 2 C4.02 2 2.04 2 0 2 C0 1.34 0 0.68 0 0 Z " fill="#5FCCF3" transform="translate(346,106)"/>
<path d="M0 0 C1.98 0 3.96 0 6 0 C6 0.66 6 1.32 6 2 C4.02 2 2.04 2 0 2 C0 1.34 0 0.68 0 0 Z " fill="#5FCCF3" transform="translate(326,106)"/>
<path d="M0 0 C1.98 0 3.96 0 6 0 C6 0.66 6 1.32 6 2 C4.02 2 2.04 2 0 2 C0 1.34 0 0.68 0 0 Z " fill="#60CDF3" transform="translate(264,106)"/>
<path d="M0 0 C1.98 0 3.96 0 6 0 C6 0.66 6 1.32 6 2 C4.02 2 2.04 2 0 2 C0 1.34 0 0.68 0 0 Z " fill="#5FCCF3" transform="translate(244,106)"/>
<path d="M0 0 C1.98 0 3.96 0 6 0 C6 0.66 6 1.32 6 2 C4.02 2 2.04 2 0 2 C0 1.34 0 0.68 0 0 Z " fill="#5FCCF3" transform="translate(194,106)"/>
<path d="M0 0 C1.98 0 3.96 0 6 0 C6 0.66 6 1.32 6 2 C4.02 2 2.04 2 0 2 C0 1.34 0 0.68 0 0 Z " fill="#5FCCF3" transform="translate(320,104)"/>
<path d="M0 0 C1.98 0 3.96 0 6 0 C6 0.66 6 1.32 6 2 C4.02 2 2.04 2 0 2 C0 1.34 0 0.68 0 0 Z " fill="#5FCCF3" transform="translate(270,104)"/>
<path d="M0 0 C1.98 0 3.96 0 6 0 C6 0.66 6 1.32 6 2 C4.02 2 2.04 2 0 2 C0 1.34 0 0.68 0 0 Z " fill="#5FCCF3" transform="translate(326,102)"/>
<path d="M0 0 C1.98 0 3.96 0 6 0 C6 0.66 6 1.32 6 2 C4.02 2 2.04 2 0 2 C0 1.34 0 0.68 0 0 Z " fill="#60CDF3" transform="translate(264,102)"/>
<path d="M0 0 C1.98 0 3.96 0 6 0 C6 0.66 6 1.32 6 2 C4.02 2 2.04 2 0 2 C0 1.34 0 0.68 0 0 Z " fill="#5FCCF3" transform="translate(340,100)"/>
<path d="M0 0 C1.98 0 3.96 0 6 0 C6 0.66 6 1.32 6 2 C4.02 2 2.04 2 0 2 C0 1.34 0 0.68 0 0 Z " fill="#60CCF3" transform="translate(250,100)"/>
<path d="M0 0 C1.98 0 3.96 0 6 0 C6 0.66 6 1.32 6 2 C4.02 2 2.04 2 0 2 C0 1.34 0 0.68 0 0 Z " fill="#5FCCF3" transform="translate(188,100)"/>
<path d="M0 0 C1.98 0 3.96 0 6 0 C6 0.66 6 1.32 6 2 C4.02 2 2.04 2 0 2 C0 1.34 0 0.68 0 0 Z " fill="#5FCCF3" transform="translate(346,98)"/>
<path d="M0 0 C1.98 0 3.96 0 6 0 C6 0.66 6 1.32 6 2 C4.02 2 2.04 2 0 2 C0 1.34 0 0.68 0 0 Z " fill="#5FCCF3" transform="translate(244,98)"/>
<path d="M0 0 C1.98 0 3.96 0 6 0 C6 0.66 6 1.32 6 2 C4.02 2 2.04 2 0 2 C0 1.34 0 0.68 0 0 Z " fill="#5FCCF3" transform="translate(194,98)"/>
<path d="M0 0 C1.98 0 3.96 0 6 0 C6 0.66 6 1.32 6 2 C4.02 2 2.04 2 0 2 C0 1.34 0 0.68 0 0 Z " fill="#5FCCF3" transform="translate(340,96)"/>
<path d="M0 0 C1.98 0 3.96 0 6 0 C6 0.66 6 1.32 6 2 C4.02 2 2.04 2 0 2 C0 1.34 0 0.68 0 0 Z " fill="#5FCCF2" transform="translate(250,96)"/>
<path d="M0 0 C1.98 0 3.96 0 6 0 C6 0.66 6 1.32 6 2 C4.02 2 2.04 2 0 2 C0 1.34 0 0.68 0 0 Z " fill="#5FCCF3" transform="translate(188,96)"/>
<path d="M0 0 C1.98 0 3.96 0 6 0 C6 0.66 6 1.32 6 2 C4.02 2 2.04 2 0 2 C0 1.34 0 0.68 0 0 Z " fill="#5FCCF3" transform="translate(346,94)"/>
<path d="M0 0 C1.98 0 3.96 0 6 0 C6 0.66 6 1.32 6 2 C4.02 2 2.04 2 0 2 C0 1.34 0 0.68 0 0 Z " fill="#5FCCF3" transform="translate(244,94)"/>
<path d="M0 0 C1.98 0 3.96 0 6 0 C6 0.66 6 1.32 6 2 C4.02 2 2.04 2 0 2 C0 1.34 0 0.68 0 0 Z " fill="#5FCCF2" transform="translate(194,94)"/>
<path d="M0 0 C1.32 0 2.64 0 4 0 C4 0.66 4 1.32 4 2 C2.68 2 1.36 2 0 2 C0 1.34 0 0.68 0 0 Z " fill="#5FCCF3" transform="translate(332,184)"/>
<path d="M0 0 C1.32 0 2.64 0 4 0 C4 0.66 4 1.32 4 2 C2.68 2 1.36 2 0 2 C0 1.34 0 0.68 0 0 Z " fill="#5FCCF3" transform="translate(260,184)"/>
<path d="M0 0 C1.32 0 2.64 0 4 0 C4 0.66 4 1.32 4 2 C2.68 2 1.36 2 0 2 C0 1.34 0 0.68 0 0 Z " fill="#5FCCF3" transform="translate(336,182)"/>
<path d="M0 0 C1.32 0 2.64 0 4 0 C4 0.66 4 1.32 4 2 C2.68 2 1.36 2 0 2 C0 1.34 0 0.68 0 0 Z " fill="#5FCCF2" transform="translate(256,182)"/>
<path d="M0 0 C1.32 0 2.64 0 4 0 C4 0.66 4 1.32 4 2 C2.68 2 1.36 2 0 2 C0 1.34 0 0.68 0 0 Z " fill="#60CDF3" transform="translate(184,182)"/>
<path d="M0 0 C1.32 0 2.64 0 4 0 C4 0.66 4 1.32 4 2 C2.68 2 1.36 2 0 2 C0 1.34 0 0.68 0 0 Z " fill="#5FCCF3" transform="translate(332,180)"/>
<path d="M0 0 C1.32 0 2.64 0 4 0 C4 0.66 4 1.32 4 2 C2.68 2 1.36 2 0 2 C0 1.34 0 0.68 0 0 Z " fill="#5FCCF2" transform="translate(260,180)"/>
<path d="M0 0 C1.32 0 2.64 0 4 0 C4 0.66 4 1.32 4 2 C2.68 2 1.36 2 0 2 C0 1.34 0 0.68 0 0 Z " fill="#5FCCF2" transform="translate(336,178)"/>
<path d="M0 0 C1.32 0 2.64 0 4 0 C4 0.66 4 1.32 4 2 C2.68 2 1.36 2 0 2 C0 1.34 0 0.68 0 0 Z " fill="#5FCCF3" transform="translate(256,178)"/>
<path d="M0 0 C1.32 0 2.64 0 4 0 C4 0.66 4 1.32 4 2 C2.68 2 1.36 2 0 2 C0 1.34 0 0.68 0 0 Z " fill="#5FCCF3" transform="translate(184,178)"/>
<path d="M0 0 C1.32 0 2.64 0 4 0 C4 0.66 4 1.32 4 2 C2.68 2 1.36 2 0 2 C0 1.34 0 0.68 0 0 Z " fill="#5FCCF3" transform="translate(332,176)"/>
<path d="M0 0 C1.32 0 2.64 0 4 0 C4 0.66 4 1.32 4 2 C2.68 2 1.36 2 0 2 C0 1.34 0 0.68 0 0 Z " fill="#5FCCF2" transform="translate(260,176)"/>
<path d="M0 0 C1.32 0 2.64 0 4 0 C4 0.66 4 1.32 4 2 C2.68 2 1.36 2 0 2 C0 1.34 0 0.68 0 0 Z " fill="#5FCCF3" transform="translate(336,174)"/>
<path d="M0 0 C1.32 0 2.64 0 4 0 C4 0.66 4 1.32 4 2 C2.68 2 1.36 2 0 2 C0 1.34 0 0.68 0 0 Z " fill="#5FCCF3" transform="translate(256,174)"/>
<path d="M0 0 C1.32 0 2.64 0 4 0 C4 0.66 4 1.32 4 2 C2.68 2 1.36 2 0 2 C0 1.34 0 0.68 0 0 Z " fill="#5FCCF3" transform="translate(184,174)"/>
<path d="M0 0 C1.32 0 2.64 0 4 0 C4 0.66 4 1.32 4 2 C2.68 2 1.36 2 0 2 C0 1.34 0 0.68 0 0 Z " fill="#5FCCF3" transform="translate(332,172)"/>
<path d="M0 0 C1.32 0 2.64 0 4 0 C4 0.66 4 1.32 4 2 C2.68 2 1.36 2 0 2 C0 1.34 0 0.68 0 0 Z " fill="#5FCCF3" transform="translate(260,172)"/>
<path d="M0 0 C1.32 0 2.64 0 4 0 C4 0.66 4 1.32 4 2 C2.68 2 1.36 2 0 2 C0 1.34 0 0.68 0 0 Z " fill="#5FCCF3" transform="translate(336,170)"/>
<path d="M0 0 C1.32 0 2.64 0 4 0 C4 0.66 4 1.32 4 2 C2.68 2 1.36 2 0 2 C0 1.34 0 0.68 0 0 Z " fill="#5FCCF2" transform="translate(256,170)"/>
<path d="M0 0 C1.32 0 2.64 0 4 0 C4 0.66 4 1.32 4 2 C2.68 2 1.36 2 0 2 C0 1.34 0 0.68 0 0 Z " fill="#5FCCF2" transform="translate(184,170)"/>
<path d="M0 0 C1.32 0 2.64 0 4 0 C4 0.66 4 1.32 4 2 C2.68 2 1.36 2 0 2 C0 1.34 0 0.68 0 0 Z " fill="#5FCCF3" transform="translate(332,164)"/>
<path d="M0 0 C1.32 0 2.64 0 4 0 C4 0.66 4 1.32 4 2 C2.68 2 1.36 2 0 2 C0 1.34 0 0.68 0 0 Z " fill="#5FCCF3" transform="translate(260,164)"/>
<path d="M0 0 C1.32 0 2.64 0 4 0 C4 0.66 4 1.32 4 2 C2.68 2 1.36 2 0 2 C0 1.34 0 0.68 0 0 Z " fill="#5FCCF2" transform="translate(336,162)"/>
<path d="M0 0 C1.32 0 2.64 0 4 0 C4 0.66 4 1.32 4 2 C2.68 2 1.36 2 0 2 C0 1.34 0 0.68 0 0 Z " fill="#5FCCF3" transform="translate(256,162)"/>
<path d="M0 0 C1.32 0 2.64 0 4 0 C4 0.66 4 1.32 4 2 C2.68 2 1.36 2 0 2 C0 1.34 0 0.68 0 0 Z " fill="#5FCCF2" transform="translate(184,162)"/>
<path d="M0 0 C1.32 0 2.64 0 4 0 C4 0.66 4 1.32 4 2 C2.68 2 1.36 2 0 2 C0 1.34 0 0.68 0 0 Z " fill="#5FCCF3" transform="translate(332,160)"/>
<path d="M0 0 C1.32 0 2.64 0 4 0 C4 0.66 4 1.32 4 2 C2.68 2 1.36 2 0 2 C0 1.34 0 0.68 0 0 Z " fill="#5FCCF2" transform="translate(260,160)"/>
<path d="M0 0 C1.32 0 2.64 0 4 0 C4 0.66 4 1.32 4 2 C2.68 2 1.36 2 0 2 C0 1.34 0 0.68 0 0 Z " fill="#5FCCF2" transform="translate(336,158)"/>
<path d="M0 0 C1.32 0 2.64 0 4 0 C4 0.66 4 1.32 4 2 C2.68 2 1.36 2 0 2 C0 1.34 0 0.68 0 0 Z " fill="#5FCCF3" transform="translate(256,158)"/>
<path d="M0 0 C1.32 0 2.64 0 4 0 C4 0.66 4 1.32 4 2 C2.68 2 1.36 2 0 2 C0 1.34 0 0.68 0 0 Z " fill="#5FCCF2" transform="translate(184,158)"/>
<path d="M0 0 C1.32 0 2.64 0 4 0 C4 0.66 4 1.32 4 2 C2.68 2 1.36 2 0 2 C0 1.34 0 0.68 0 0 Z " fill="#5FCCF2" transform="translate(332,152)"/>
<path d="M0 0 C1.32 0 2.64 0 4 0 C4 0.66 4 1.32 4 2 C2.68 2 1.36 2 0 2 C0 1.34 0 0.68 0 0 Z " fill="#5FCCF2" transform="translate(260,152)"/>
<path d="M0 0 C1.32 0 2.64 0 4 0 C4 0.66 4 1.32 4 2 C2.68 2 1.36 2 0 2 C0 1.34 0 0.68 0 0 Z " fill="#5FCCF3" transform="translate(336,150)"/>
<path d="M0 0 C1.32 0 2.64 0 4 0 C4 0.66 4 1.32 4 2 C2.68 2 1.36 2 0 2 C0 1.34 0 0.68 0 0 Z " fill="#5FCCF3" transform="translate(256,150)"/>
<path d="M0 0 C1.32 0 2.64 0 4 0 C4 0.66 4 1.32 4 2 C2.68 2 1.36 2 0 2 C0 1.34 0 0.68 0 0 Z " fill="#5FCCF2" transform="translate(184,150)"/>
<path d="M0 0 C1.32 0 2.64 0 4 0 C4 0.66 4 1.32 4 2 C2.68 2 1.36 2 0 2 C0 1.34 0 0.68 0 0 Z " fill="#60CCF3" transform="translate(332,148)"/>
<path d="M0 0 C1.32 0 2.64 0 4 0 C4 0.66 4 1.32 4 2 C2.68 2 1.36 2 0 2 C0 1.34 0 0.68 0 0 Z " fill="#5FCCF2" transform="translate(260,148)"/>
<path d="M0 0 C1.32 0 2.64 0 4 0 C4 0.66 4 1.32 4 2 C2.68 2 1.36 2 0 2 C0 1.34 0 0.68 0 0 Z " fill="#5FCCF3" transform="translate(336,146)"/>
<path d="M0 0 C1.32 0 2.64 0 4 0 C4 0.66 4 1.32 4 2 C2.68 2 1.36 2 0 2 C0 1.34 0 0.68 0 0 Z " fill="#5FCCF3" transform="translate(256,146)"/>
<path d="M0 0 C1.32 0 2.64 0 4 0 C4 0.66 4 1.32 4 2 C2.68 2 1.36 2 0 2 C0 1.34 0 0.68 0 0 Z " fill="#5FCCF3" transform="translate(184,146)"/>
<path d="M0 0 C1.32 0 2.64 0 4 0 C4 0.66 4 1.32 4 2 C2.68 2 1.36 2 0 2 C0 1.34 0 0.68 0 0 Z " fill="#5FCCF3" transform="translate(332,144)"/>
<path d="M0 0 C1.32 0 2.64 0 4 0 C4 0.66 4 1.32 4 2 C2.68 2 1.36 2 0 2 C0 1.34 0 0.68 0 0 Z " fill="#5FCCF3" transform="translate(260,144)"/>
<path d="M0 0 C1.32 0 2.64 0 4 0 C4 0.66 4 1.32 4 2 C2.68 2 1.36 2 0 2 C0 1.34 0 0.68 0 0 Z " fill="#5FCCF3" transform="translate(336,142)"/>
<path d="M0 0 C1.32 0 2.64 0 4 0 C4 0.66 4 1.32 4 2 C2.68 2 1.36 2 0 2 C0 1.34 0 0.68 0 0 Z " fill="#5FCCF3" transform="translate(256,142)"/>
<path d="M0 0 C1.32 0 2.64 0 4 0 C4 0.66 4 1.32 4 2 C2.68 2 1.36 2 0 2 C0 1.34 0 0.68 0 0 Z " fill="#5FCCF3" transform="translate(184,142)"/>
<path d="M0 0 C1.32 0 2.64 0 4 0 C4 0.66 4 1.32 4 2 C2.68 2 1.36 2 0 2 C0 1.34 0 0.68 0 0 Z " fill="#5FCCF2" transform="translate(332,136)"/>
<path d="M0 0 C1.32 0 2.64 0 4 0 C4 0.66 4 1.32 4 2 C2.68 2 1.36 2 0 2 C0 1.34 0 0.68 0 0 Z " fill="#5FCCF3" transform="translate(260,136)"/>
<path d="M0 0 C1.32 0 2.64 0 4 0 C4 0.66 4 1.32 4 2 C2.68 2 1.36 2 0 2 C0 1.34 0 0.68 0 0 Z " fill="#5FCCF3" transform="translate(336,134)"/>
<path d="M0 0 C1.32 0 2.64 0 4 0 C4 0.66 4 1.32 4 2 C2.68 2 1.36 2 0 2 C0 1.34 0 0.68 0 0 Z " fill="#5FCCF3" transform="translate(256,134)"/>
<path d="M0 0 C1.32 0 2.64 0 4 0 C4 0.66 4 1.32 4 2 C2.68 2 1.36 2 0 2 C0 1.34 0 0.68 0 0 Z " fill="#5FCCF3" transform="translate(184,134)"/>
<path d="M0 0 C1.32 0 2.64 0 4 0 C4 0.66 4 1.32 4 2 C2.68 2 1.36 2 0 2 C0 1.34 0 0.68 0 0 Z " fill="#5FCCF3" transform="translate(332,132)"/>
<path d="M0 0 C1.32 0 2.64 0 4 0 C4 0.66 4 1.32 4 2 C2.68 2 1.36 2 0 2 C0 1.34 0 0.68 0 0 Z " fill="#5FCCF3" transform="translate(260,132)"/>
<path d="M0 0 C1.32 0 2.64 0 4 0 C4 0.66 4 1.32 4 2 C2.68 2 1.36 2 0 2 C0 1.34 0 0.68 0 0 Z " fill="#5FCCF3" transform="translate(336,130)"/>
<path d="M0 0 C1.32 0 2.64 0 4 0 C4 0.66 4 1.32 4 2 C2.68 2 1.36 2 0 2 C0 1.34 0 0.68 0 0 Z " fill="#5FCCF3" transform="translate(256,130)"/>
<path d="M0 0 C1.32 0 2.64 0 4 0 C4 0.66 4 1.32 4 2 C2.68 2 1.36 2 0 2 C0 1.34 0 0.68 0 0 Z " fill="#5FCCF3" transform="translate(184,130)"/>
<path d="M0 0 C1.32 0 2.64 0 4 0 C4 0.66 4 1.32 4 2 C2.68 2 1.36 2 0 2 C0 1.34 0 0.68 0 0 Z " fill="#5FCCF2" transform="translate(332,124)"/>
<path d="M0 0 C1.32 0 2.64 0 4 0 C4 0.66 4 1.32 4 2 C2.68 2 1.36 2 0 2 C0 1.34 0 0.68 0 0 Z " fill="#5FCCF2" transform="translate(260,124)"/>
<path d="M0 0 C1.32 0 2.64 0 4 0 C4 0.66 4 1.32 4 2 C2.68 2 1.36 2 0 2 C0 1.34 0 0.68 0 0 Z " fill="#5FCCF2" transform="translate(336,122)"/>
<path d="M0 0 C1.32 0 2.64 0 4 0 C4 0.66 4 1.32 4 2 C2.68 2 1.36 2 0 2 C0 1.34 0 0.68 0 0 Z " fill="#5FCCF3" transform="translate(256,122)"/>
<path d="M0 0 C1.32 0 2.64 0 4 0 C4 0.66 4 1.32 4 2 C2.68 2 1.36 2 0 2 C0 1.34 0 0.68 0 0 Z " fill="#5FCCF3" transform="translate(184,122)"/>
<path d="M0 0 C1.32 0 2.64 0 4 0 C4 0.66 4 1.32 4 2 C2.68 2 1.36 2 0 2 C0 1.34 0 0.68 0 0 Z " fill="#60CDF3" transform="translate(332,120)"/>
<path d="M0 0 C1.32 0 2.64 0 4 0 C4 0.66 4 1.32 4 2 C2.68 2 1.36 2 0 2 C0 1.34 0 0.68 0 0 Z " fill="#60CCF3" transform="translate(260,120)"/>
<path d="M0 0 C1.32 0 2.64 0 4 0 C4 0.66 4 1.32 4 2 C2.68 2 1.36 2 0 2 C0 1.34 0 0.68 0 0 Z " fill="#5FCCF2" transform="translate(336,118)"/>
<path d="M0 0 C1.32 0 2.64 0 4 0 C4 0.66 4 1.32 4 2 C2.68 2 1.36 2 0 2 C0 1.34 0 0.68 0 0 Z " fill="#5FCCF3" transform="translate(256,118)"/>
<path d="M0 0 C1.32 0 2.64 0 4 0 C4 0.66 4 1.32 4 2 C2.68 2 1.36 2 0 2 C0 1.34 0 0.68 0 0 Z " fill="#60CCF3" transform="translate(184,118)"/>
<path d="M0 0 C1.32 0 2.64 0 4 0 C4 0.66 4 1.32 4 2 C2.68 2 1.36 2 0 2 C0 1.34 0 0.68 0 0 Z " fill="#5FCCF3" transform="translate(332,116)"/>
<path d="M0 0 C1.32 0 2.64 0 4 0 C4 0.66 4 1.32 4 2 C2.68 2 1.36 2 0 2 C0 1.34 0 0.68 0 0 Z " fill="#5FCCF2" transform="translate(260,116)"/>
<path d="M0 0 C1.32 0 2.64 0 4 0 C4 0.66 4 1.32 4 2 C2.68 2 1.36 2 0 2 C0 1.34 0 0.68 0 0 Z " fill="#60CCF3" transform="translate(336,114)"/>
<path d="M0 0 C1.32 0 2.64 0 4 0 C4 0.66 4 1.32 4 2 C2.68 2 1.36 2 0 2 C0 1.34 0 0.68 0 0 Z " fill="#5FCCF3" transform="translate(256,114)"/>
<path d="M0 0 C1.32 0 2.64 0 4 0 C4 0.66 4 1.32 4 2 C2.68 2 1.36 2 0 2 C0 1.34 0 0.68 0 0 Z " fill="#5FCCF3" transform="translate(184,114)"/>
<path d="M0 0 C1.32 0 2.64 0 4 0 C4 0.66 4 1.32 4 2 C2.68 2 1.36 2 0 2 C0 1.34 0 0.68 0 0 Z " fill="#60CDF3" transform="translate(332,112)"/>
<path d="M0 0 C1.32 0 2.64 0 4 0 C4 0.66 4 1.32 4 2 C2.68 2 1.36 2 0 2 C0 1.34 0 0.68 0 0 Z " fill="#5FCCF2" transform="translate(260,112)"/>
<path d="M0 0 C1.32 0 2.64 0 4 0 C4 0.66 4 1.32 4 2 C2.68 2 1.36 2 0 2 C0 1.34 0 0.68 0 0 Z " fill="#5FCCF3" transform="translate(336,110)"/>
<path d="M0 0 C1.32 0 2.64 0 4 0 C4 0.66 4 1.32 4 2 C2.68 2 1.36 2 0 2 C0 1.34 0 0.68 0 0 Z " fill="#5FCCF2" transform="translate(256,110)"/>
<path d="M0 0 C1.32 0 2.64 0 4 0 C4 0.66 4 1.32 4 2 C2.68 2 1.36 2 0 2 C0 1.34 0 0.68 0 0 Z " fill="#5FCCF3" transform="translate(184,110)"/>
<path d="M0 0 C1.32 0 2.64 0 4 0 C4 0.66 4 1.32 4 2 C2.68 2 1.36 2 0 2 C0 1.34 0 0.68 0 0 Z " fill="#5FCCF3" transform="translate(332,104)"/>
<path d="M0 0 C1.32 0 2.64 0 4 0 C4 0.66 4 1.32 4 2 C2.68 2 1.36 2 0 2 C0 1.34 0 0.68 0 0 Z " fill="#5FCCF3" transform="translate(260,104)"/>
<path d="M0 0 C1.32 0 2.64 0 4 0 C4 0.66 4 1.32 4 2 C2.68 2 1.36 2 0 2 C0 1.34 0 0.68 0 0 Z " fill="#5FCCF3" transform="translate(336,102)"/>
<path d="M0 0 C1.32 0 2.64 0 4 0 C4 0.66 4 1.32 4 2 C2.68 2 1.36 2 0 2 C0 1.34 0 0.68 0 0 Z " fill="#60CDF3" transform="translate(256,102)"/>
<path d="M0 0 C1.32 0 2.64 0 4 0 C4 0.66 4 1.32 4 2 C2.68 2 1.36 2 0 2 C0 1.34 0 0.68 0 0 Z " fill="#5FCCF3" transform="translate(184,102)"/>
<path d="M0 0 C1.32 0 2.64 0 4 0 C4 0.66 4 1.32 4 2 C2.68 2 1.36 2 0 2 C0 1.34 0 0.68 0 0 Z " fill="#5FCCF2" transform="translate(332,100)"/>
<path d="M0 0 C1.32 0 2.64 0 4 0 C4 0.66 4 1.32 4 2 C2.68 2 1.36 2 0 2 C0 1.34 0 0.68 0 0 Z " fill="#5FCCF2" transform="translate(260,100)"/>
<path d="M0 0 C1.32 0 2.64 0 4 0 C4 0.66 4 1.32 4 2 C2.68 2 1.36 2 0 2 C0 1.34 0 0.68 0 0 Z " fill="#5FCCF2" transform="translate(336,98)"/>
<path d="M0 0 C1.32 0 2.64 0 4 0 C4 0.66 4 1.32 4 2 C2.68 2 1.36 2 0 2 C0 1.34 0 0.68 0 0 Z " fill="#5FCCF2" transform="translate(256,98)"/>
<path d="M0 0 C1.32 0 2.64 0 4 0 C4 0.66 4 1.32 4 2 C2.68 2 1.36 2 0 2 C0 1.34 0 0.68 0 0 Z " fill="#5FCCF3" transform="translate(184,98)"/>
</svg>
