<svg width="284" height="81" viewBox="0 0 284 81" fill="none" xmlns="http://www.w3.org/2000/svg">
<path d="M44.5413 37.6657H35.2081L33.0413 21.7493C32.8747 20.6244 32.7498 19.3743 32.6248 17.9994C32.4998 16.6244 32.3747 15.1247 32.2914 13.4997C32.0414 15.0413 31.583 16.9997 30.9163 19.333C30.7497 19.8329 30.6663 20.1663 30.5829 20.4163L25.5832 37.624H18.9164L13.9164 20.4163C13.8331 20.1663 13.75 19.8329 13.625 19.333C12.9166 16.9997 12.4582 15.083 12.2499 13.5414C12.1666 14.9164 12.0415 16.2913 11.9165 17.6662C11.7915 19.0412 11.6249 20.3744 11.4582 21.7493L9.2915 37.6657H0L5.66656 0.916748H15.5414L21.0831 19.8746L21.2914 20.5414C21.7914 22.2497 22.1247 23.6659 22.2497 24.8742C22.333 24.2076 22.4581 23.4992 22.6248 22.7076C22.7914 21.9159 23.0414 20.9579 23.3747 19.8329L28.9581 0.916748H38.8747L44.4996 37.6657H44.5413Z" fill="currentColor"/>
<path d="M87.5409 19.3328C87.5409 21.9577 87.0407 24.4577 86.0824 26.7493C85.1241 29.0409 83.7076 31.1241 81.8326 32.9574C79.9576 34.749 77.8325 36.1656 75.4158 37.1239C72.9992 38.1238 70.4992 38.5821 67.9159 38.5821C65.3326 38.5821 62.791 38.0822 60.3743 37.1239C57.9994 36.1239 55.8743 34.749 54.041 32.9574C52.166 31.1241 50.7078 29.0408 49.7495 26.7076C48.7912 24.3743 48.291 21.916 48.291 19.2911C48.291 16.6661 48.7912 14.2078 49.7495 11.8745C50.7078 9.54127 52.166 7.49972 54.041 5.66645C55.8743 3.87485 57.9577 2.45823 60.3743 1.49993C62.7493 0.499964 65.291 0.041748 67.9159 0.041748C70.5409 0.041748 73.0409 0.541629 75.4575 1.49993C77.8742 2.49989 79.9993 3.87485 81.8326 5.66645C83.6659 7.45805 85.0823 9.54127 86.0407 11.8745C86.999 14.2078 87.4991 16.6661 87.4991 19.2911L87.5409 19.3328ZM67.9576 30.1656C70.7076 30.1656 72.9994 29.1657 74.8327 27.0824C76.6243 25.0408 77.5408 22.4576 77.5408 19.3328C77.5408 16.2079 76.6243 13.6664 74.791 11.6248C72.9577 9.5832 70.6659 8.54161 67.9576 8.54161C65.2493 8.54161 62.9159 9.5832 61.0826 11.6248C59.2493 13.6664 58.3744 16.2495 58.3744 19.3328C58.3744 22.416 59.2492 25.0825 61.0409 27.0824C62.8325 29.0824 65.1243 30.1239 67.9576 30.1239V30.1656Z" fill="currentColor"/>
<path d="M93.791 37.6655V0.916504H103.416L117.249 19.8327C117.499 20.2077 117.958 20.999 118.583 22.1657C119.208 23.3323 119.874 24.7072 120.582 26.3322C120.374 24.7906 120.249 23.4574 120.166 22.2491C120.082 21.0408 120.041 19.9991 120.041 19.0825V0.916504H129.624V37.6655H120.041L106.207 18.6659C105.916 18.2909 105.499 17.4996 104.874 16.3329C104.249 15.1663 103.583 13.7914 102.874 12.2081C103.083 13.7497 103.208 15.1246 103.333 16.2912C103.416 17.4995 103.458 18.5412 103.458 19.4578V37.6238H93.8327L93.791 37.6655Z" fill="currentColor"/>
<path d="M139.124 25.7905C140.624 27.4988 142.082 28.7489 143.499 29.5822C144.916 30.4155 146.374 30.8324 147.832 30.8324C149.165 30.8324 150.249 30.4573 151.124 29.749C151.999 29.0407 152.416 28.1239 152.416 26.999C152.416 25.7907 152.041 24.8327 151.291 24.166C150.541 23.4994 148.874 22.8328 146.249 22.1245C142.666 21.1662 140.124 19.8744 138.624 18.3328C137.124 16.7912 136.416 14.6244 136.416 11.9162C136.416 8.41631 137.582 5.54168 139.916 3.33342C142.249 1.12516 145.291 0 149.041 0C151.041 0 152.957 0.249788 154.79 0.833101C156.582 1.37475 158.332 2.20842 159.915 3.29171L156.791 10.4997C155.666 9.54141 154.499 8.79132 153.29 8.29134C152.082 7.79135 150.916 7.54165 149.749 7.54165C148.582 7.54165 147.582 7.83314 146.832 8.41645C146.082 8.99977 145.707 9.74986 145.707 10.6248C145.707 11.4998 146.041 12.2911 146.707 12.8327C147.374 13.3743 148.624 13.916 150.541 14.416L150.999 14.5411C155.082 15.6661 157.749 16.8743 159.04 18.166C159.915 19.0826 160.582 20.166 160.999 21.416C161.457 22.6659 161.665 24.0826 161.665 25.6242C161.665 29.5407 160.374 32.6657 157.832 35.0406C155.291 37.4155 151.874 38.582 147.624 38.582C145.082 38.582 142.749 38.1651 140.666 37.2902C138.582 36.4152 136.541 35.0403 134.624 33.207L139.124 25.7493V25.7905Z" fill="currentColor"/>
<path d="M177.623 0.874756H167.54V37.6237H177.623V0.874756Z" fill="currentColor"/>
<path d="M185.665 37.6655V0.874756H208.123V8.95807H195.415V15.333H207.415V23.2072H195.415V29.4158H208.123V37.6655H185.665Z" fill="currentColor"/>
<path d="M214.54 0.874756H224.498V18.7493C224.498 21.3742 224.582 23.2491 224.707 24.4157C224.832 25.5823 225.082 26.5409 225.373 27.2909C225.748 28.2075 226.415 28.957 227.373 29.457C228.332 29.957 229.498 30.2072 230.873 30.2072C232.248 30.2072 233.415 29.957 234.332 29.457C235.29 28.957 235.956 28.2492 236.331 27.2909C236.665 26.5409 236.873 25.5823 236.998 24.4157C237.123 23.2491 237.207 21.3742 237.207 18.7493V0.874756H247.165V20.3326C247.165 24.3741 246.915 27.3324 246.456 29.249C245.956 31.1656 245.165 32.7903 243.998 34.1652C242.748 35.6652 241.04 36.7903 238.832 37.4986C236.665 38.2486 233.998 38.6237 230.873 38.6237C227.748 38.6237 225.082 38.2486 222.915 37.4986C220.748 36.7487 218.998 35.6235 217.748 34.1652C216.623 32.7903 215.79 31.1656 215.29 29.249C214.79 27.3324 214.54 24.3741 214.54 20.3326V0.874756Z" fill="currentColor"/>
<path d="M254.706 37.6655V0.916504H265.164C269.248 0.916504 272.081 1.08319 273.706 1.45817C275.331 1.83316 276.706 2.45848 277.873 3.37512C279.206 4.37508 280.206 5.66638 280.914 7.20799C281.622 8.7496 281.997 10.4995 281.997 12.3744C281.997 15.2077 281.289 17.5411 279.914 19.3327C278.539 21.1243 276.497 22.2908 273.831 22.8741L283.831 37.7072H272.539L264.123 23.3324V37.7072H254.748L254.706 37.6655ZM264.081 18.2494H265.914C268.081 18.2494 269.623 17.8743 270.623 17.166C271.623 16.4161 272.123 15.2913 272.123 13.708C272.123 11.8747 271.664 10.5412 270.747 9.79121C269.831 8.99957 268.248 8.62446 266.081 8.62446H264.081V18.2911V18.2494Z" fill="currentColor"/>
<path d="M70.3323 80.4145H60.9991L58.8324 64.4981C58.6657 63.3732 58.5408 62.1231 58.4158 60.7482C58.2908 59.3732 58.1657 57.8734 58.0824 56.2485C57.8324 57.7901 57.3743 59.7485 56.7076 62.0817C56.5409 62.5817 56.4575 62.9151 56.3742 63.1651L51.3742 80.3728H44.7077L39.7077 63.1651C39.6243 62.9151 39.541 62.5817 39.416 62.0817C38.7077 59.7485 38.2493 57.8318 38.0409 56.2902C37.9576 57.6652 37.8325 59.0401 37.7075 60.415C37.5825 61.79 37.4159 63.1232 37.2492 64.4981L35.0828 80.4145H25.791L31.4576 43.6655H41.3327L46.8742 62.6234L47.0824 63.2902C47.5824 64.9985 47.9159 66.4147 48.0409 67.623C48.1243 66.9564 48.2491 66.248 48.4158 65.4563C48.5825 64.6647 48.8324 63.7067 49.1658 62.5817L54.7491 43.6655H64.6657L70.2906 80.4145H70.3323Z" fill="currentColor"/>
<path d="M71.4157 80.4145L84.0822 43.6655H96.5821L109.249 80.4145H99.2905L97.4572 73.8311H83.2491L81.3323 80.4145H71.374H71.4157ZM85.4155 66.6648H95.3739L91.6238 54.5401C91.4988 54.1651 91.3322 53.5821 91.1655 52.7488C90.9572 51.9155 90.7072 50.8738 90.3738 49.5822C90.1655 50.4988 89.9573 51.3321 89.749 52.1654C89.5407 52.9987 89.3322 53.7901 89.1239 54.5401L85.4573 66.6648H85.4155Z" fill="currentColor"/>
<path d="M112.749 80.4145V43.6655H120.374C126.082 43.6655 130.082 43.9158 132.457 44.4574C134.832 44.9991 136.916 45.8741 138.666 47.1241C140.999 48.749 142.749 50.8323 143.957 53.3738C145.165 55.9154 145.749 58.7901 145.749 62.04C145.749 65.2899 145.165 68.1646 143.957 70.7062C142.749 73.2478 140.999 75.331 138.666 76.956C136.874 78.2059 134.874 79.081 132.624 79.6226C130.332 80.1643 126.832 80.4145 122.041 80.4145H112.749ZM122.624 72.1649H124.291C128.207 72.1649 131.082 71.3729 132.874 69.748C134.666 68.123 135.582 65.5816 135.582 62.04C135.582 58.4985 134.666 55.957 132.874 54.2904C131.082 52.6654 128.207 51.8323 124.291 51.8323H122.624V72.1649Z" fill="currentColor"/>
<path d="M146.831 80.4145L159.456 43.6655H171.956L184.623 80.4145H174.665L172.831 73.8311H158.623L156.706 80.4145H146.748H146.831ZM160.831 66.6648H170.789L167.04 54.5401C166.915 54.1651 166.748 53.5821 166.581 52.7488C166.373 51.9155 166.123 50.8738 165.79 49.5822C165.581 50.4988 165.373 51.3321 165.164 52.1654C164.956 52.9987 164.748 53.7901 164.539 54.5401L160.873 66.6648H160.831Z" fill="currentColor"/>
<path d="M230.164 80.4145H220.831L218.665 64.4981C218.498 63.3732 218.373 62.1231 218.248 60.7482C218.123 59.3732 217.998 57.8734 217.914 56.2485C217.664 57.7901 217.206 59.7485 216.54 62.0817C216.373 62.5817 216.29 62.9151 216.206 63.1651L211.206 80.3728H204.54L199.54 63.1651C199.456 62.9151 199.373 62.5817 199.248 62.0817C198.54 59.7485 198.081 57.8318 197.873 56.2902C197.79 57.6652 197.665 59.0401 197.54 60.415C197.415 61.79 197.248 63.1232 197.081 64.4981L194.915 80.4145H185.623L191.29 43.6655H201.165L206.706 62.6234L206.915 63.2902C207.415 64.9985 207.748 66.4147 207.873 67.623C207.956 66.9564 208.081 66.248 208.248 65.4563C208.415 64.6647 208.665 63.7067 208.998 62.5817L214.581 43.6655H224.498L230.123 80.4145H230.164Z" fill="currentColor"/>
<path d="M235.581 80.4145V43.6238H258.039V51.7071H245.289V58.082H257.289V65.9563H245.289V72.1648H258.039V80.4145H235.581Z" fill="currentColor"/>
</svg>
