<svg width="472" height="85" viewBox="0 0 472 85" fill="none" xmlns="http://www.w3.org/2000/svg">
<path d="M26.4663 67.06C21.34 67.06 16.7799 65.987 12.7861 63.8411C8.85192 61.6952 5.72245 58.7744 3.39771 55.0786C1.13257 51.3232 0 47.0612 0 42.2925C0 37.4642 1.13257 33.2021 3.39771 29.5064C5.72245 25.751 8.85192 22.8302 12.7861 20.7439C16.7799 18.598 21.34 17.525 26.4663 17.525C31.5331 17.525 36.0634 18.598 40.0572 20.7439C44.051 22.8302 47.1804 25.7212 49.4456 29.417C51.7107 33.1127 52.8433 37.4046 52.8433 42.2925C52.8433 47.0612 51.7107 51.3232 49.4456 55.0786C47.1804 58.7744 44.051 61.6952 40.0572 63.8411C36.0634 65.987 31.5331 67.06 26.4663 67.06ZM26.4663 55.6151C28.7911 55.6151 30.8774 55.0786 32.7253 54.0056C34.5731 52.9327 36.0336 51.4127 37.1065 49.4456C38.1795 47.4189 38.716 45.0345 38.716 42.2925C38.716 39.4909 38.1795 37.1065 37.1065 35.1394C36.0336 33.1723 34.5731 31.6523 32.7253 30.5794C30.8774 29.5064 28.7911 28.9699 26.4663 28.9699C24.1416 28.9699 22.0553 29.5064 20.2074 30.5794C18.3595 31.6523 16.8693 33.1723 15.7367 35.1394C14.6638 37.1065 14.1273 39.4909 14.1273 42.2925C14.1273 45.0345 14.6638 47.4189 15.7367 49.4456C16.8693 51.4127 18.3595 52.9327 20.2074 54.0056C22.0553 55.0786 24.1416 55.6151 26.4663 55.6151Z" fill="currentColor"/>
<path d="M62.1667 66.3447V0H76.1152V31.5629L72.9857 27.5393C74.7144 24.3204 77.1881 21.8467 80.407 20.118C83.6259 18.3893 87.2918 17.525 91.4048 17.525C95.2198 17.525 98.6175 18.2999 101.598 19.8498C104.638 21.34 107.022 23.6647 108.751 26.824C110.48 29.9237 111.344 33.9175 111.344 38.8054V66.3447H97.3955V40.9513C97.3955 37.0767 96.5312 34.2155 94.8026 32.3676C93.1335 30.5197 90.7492 29.5958 87.6495 29.5958C85.444 29.5958 83.4471 30.0727 81.6588 31.0264C79.9301 31.9206 78.5591 33.3214 77.5458 35.2288C76.592 37.1363 76.1152 39.5803 76.1152 42.5607V66.3447H62.1667Z" fill="currentColor"/>
<path d="M123.988 66.3447V18.2403H137.31V31.3841L134.807 27.5393C136.476 24.2608 138.83 21.787 141.87 20.118C144.97 18.3893 148.487 17.525 152.421 17.525C156.832 17.525 160.677 18.6576 163.955 20.9227C167.293 23.1282 169.499 26.526 170.572 31.1158L165.654 29.7746C167.264 26.0193 169.827 23.0388 173.344 20.8333C176.92 18.6278 181.003 17.525 185.593 17.525C189.408 17.525 192.776 18.2999 195.697 19.8498C198.678 21.34 201.002 23.6647 202.671 26.824C204.4 29.9237 205.264 33.9175 205.264 38.8054V66.3447H191.316V40.9513C191.316 37.0767 190.511 34.2155 188.902 32.3676C187.292 30.5197 185.027 29.5958 182.106 29.5958C180.08 29.5958 178.261 30.0727 176.652 31.0264C175.043 31.9206 173.791 33.2916 172.897 35.1394C172.003 36.9873 171.555 39.3419 171.555 42.2031V66.3447H157.607V40.9513C157.607 37.0767 156.802 34.2155 155.193 32.3676C153.643 30.5197 151.408 29.5958 148.487 29.5958C146.46 29.5958 144.642 30.0727 143.033 31.0264C141.423 31.9206 140.171 33.2916 139.277 35.1394C138.383 36.9873 137.936 39.3419 137.936 42.2031V66.3447H123.988Z" fill="currentColor"/>
<path d="M223.061 84.4062C220.557 84.4062 218.084 84.0187 215.64 83.2438C213.196 82.4689 211.199 81.3959 209.649 80.0249L214.746 70.1C215.819 71.0538 217.041 71.7989 218.412 72.3354C219.842 72.8719 221.243 73.1401 222.614 73.1401C224.581 73.1401 226.131 72.6632 227.263 71.7095C228.456 70.8153 229.529 69.2953 230.482 67.1494L232.986 61.2481L234.059 59.7281L251.316 18.2403H264.728L243 69.2953C241.45 73.1699 239.662 76.2099 237.635 78.4155C235.668 80.621 233.463 82.1708 231.019 83.065C228.634 83.9591 225.982 84.4062 223.061 84.4062ZM231.287 68.2224L209.828 18.2403H224.223L240.854 58.4763L231.287 68.2224Z" fill="currentColor"/>
<path d="M292.357 67.06C287.171 67.06 282.551 66.0168 278.498 63.9305C274.445 61.7846 271.256 58.834 268.931 55.0786C266.666 51.3232 265.533 47.0612 265.533 42.2925C265.533 37.4642 266.666 33.2021 268.931 29.5064C271.256 25.751 274.445 22.8302 278.498 20.7439C282.551 18.598 287.171 17.525 292.357 17.525C297.424 17.525 301.835 18.598 305.59 20.7439C309.346 22.8302 312.117 25.8404 313.906 29.7746L303.087 35.5865C301.835 33.3214 300.255 31.6523 298.348 30.5794C296.5 29.5064 294.473 28.9699 292.268 28.9699C289.883 28.9699 287.737 29.5064 285.83 30.5794C283.922 31.6523 282.402 33.1723 281.27 35.1394C280.197 37.1065 279.66 39.4909 279.66 42.2925C279.66 45.0941 280.197 47.4785 281.27 49.4456C282.402 51.4127 283.922 52.9327 285.83 54.0056C287.737 55.0786 289.883 55.6151 292.268 55.6151C294.473 55.6151 296.5 55.1084 298.348 54.0951C300.255 53.0221 301.835 51.3232 303.087 48.9985L313.906 54.8998C312.117 58.7743 309.346 61.7846 305.59 63.9305C301.835 66.0168 297.424 67.06 292.357 67.06Z" fill="currentColor"/>
<path d="M351.443 66.3447V56.9563L350.549 54.8998V38.0901C350.549 35.1096 349.625 32.7849 347.777 31.1158C345.989 29.4468 343.217 28.6123 339.462 28.6123C336.899 28.6123 334.365 29.0295 331.862 29.864C329.418 30.639 327.331 31.7119 325.603 33.0829L320.596 23.3369C323.218 21.489 326.378 20.0584 330.073 19.045C333.769 18.0317 337.525 17.525 341.34 17.525C348.671 17.525 354.364 19.2537 358.417 22.711C362.471 26.1683 364.498 31.5629 364.498 38.8948V66.3447H351.443ZM336.779 67.06C333.024 67.06 329.805 66.4341 327.123 65.1823C324.44 63.8709 322.384 62.1124 320.953 59.9069C319.523 57.7014 318.807 55.2276 318.807 52.4856C318.807 49.6244 319.493 47.1208 320.864 44.9749C322.294 42.829 324.53 41.1599 327.57 39.9678C330.61 38.716 334.574 38.0901 339.462 38.0901H352.248V46.2267H340.982C337.703 46.2267 335.438 46.7632 334.186 47.8361C332.994 48.9091 332.398 50.2503 332.398 51.8597C332.398 53.648 333.084 55.0786 334.455 56.1516C335.885 57.1649 337.823 57.6716 340.267 57.6716C342.591 57.6716 344.678 57.1351 346.525 56.0621C348.373 54.9296 349.715 53.2903 350.549 51.1444L352.695 57.5822C351.682 60.6818 349.834 63.0364 347.151 64.6458C344.469 66.2553 341.012 67.06 336.779 67.06Z" fill="currentColor"/>
<path d="M393.305 67.06C389.192 67.06 385.228 66.5831 381.413 65.6294C377.658 64.616 374.678 63.3642 372.472 61.874L377.122 51.8597C379.327 53.2307 381.92 54.3633 384.901 55.2574C387.941 56.092 390.921 56.5092 393.842 56.5092C397.061 56.5092 399.326 56.1218 400.637 55.3468C402.008 54.5719 402.694 53.499 402.694 52.128C402.694 50.9954 402.157 50.1609 401.084 49.6244C400.071 49.0283 398.7 48.5812 396.971 48.2832C395.243 47.9851 393.335 47.6871 391.249 47.3891C389.222 47.091 387.166 46.7036 385.079 46.2267C382.993 45.6902 381.086 44.9153 379.357 43.9019C377.628 42.8886 376.227 41.5176 375.154 39.7889C374.141 38.0603 373.634 35.8249 373.634 33.0829C373.634 30.0429 374.499 27.3605 376.227 25.0357C378.016 22.711 380.579 20.8929 383.917 19.5815C387.255 18.2105 391.249 17.525 395.898 17.525C399.177 17.525 402.515 17.8827 405.913 18.598C409.31 19.3133 412.142 20.3564 414.407 21.7274L409.757 31.6523C407.433 30.2813 405.078 29.3574 402.694 28.8805C400.369 28.344 398.104 28.0758 395.898 28.0758C392.799 28.0758 390.534 28.493 389.103 29.3276C387.672 30.1621 386.957 31.235 386.957 32.5464C386.957 33.7386 387.464 34.6328 388.477 35.2288C389.55 35.8249 390.951 36.3018 392.679 36.6595C394.408 37.0171 396.286 37.345 398.313 37.643C400.399 37.8814 402.485 38.2689 404.571 38.8054C406.658 39.3419 408.535 40.1168 410.204 41.1301C411.933 42.0839 413.334 43.4251 414.407 45.1537C415.48 46.8228 416.016 49.0283 416.016 51.7703C416.016 54.7508 415.122 57.4033 413.334 59.7281C411.546 61.9932 408.953 63.7815 405.555 65.0929C402.217 66.4043 398.134 67.06 393.305 67.06Z" fill="currentColor"/>
<path d="M448.496 67.06C443.012 67.06 438.183 65.987 434.011 63.8411C429.898 61.6952 426.709 58.7744 424.444 55.0786C422.178 51.3232 421.046 47.0612 421.046 42.2925C421.046 37.4642 422.149 33.2021 424.354 29.5064C426.619 25.751 429.689 22.8302 433.564 20.7439C437.438 18.598 441.82 17.525 446.707 17.525C451.417 17.525 455.649 18.5384 459.404 20.5651C463.219 22.5322 466.229 25.3934 468.435 29.1487C470.64 32.8445 471.743 37.2854 471.743 42.4713C471.743 43.0078 471.713 43.6337 471.654 44.349C471.594 45.0047 471.535 45.6306 471.475 46.2267H432.401V38.0901H464.143L458.778 40.5042C458.778 38.0007 458.272 35.8249 457.258 33.9771C456.245 32.1292 454.844 30.6986 453.056 29.6852C451.268 28.6123 449.181 28.0758 446.797 28.0758C444.413 28.0758 442.296 28.6123 440.449 29.6852C438.66 30.6986 437.26 32.159 436.246 34.0665C435.233 35.9143 434.726 38.1199 434.726 40.6831V42.829C434.726 45.4518 435.292 47.7765 436.425 49.8032C437.617 51.7703 439.256 53.2903 441.343 54.3633C443.489 55.3766 445.992 55.8833 448.853 55.8833C451.417 55.8833 453.652 55.4959 455.559 54.7209C457.527 53.946 459.315 52.7837 460.924 51.2338L468.346 59.281C466.14 61.7846 463.368 63.7219 460.03 65.0929C456.692 66.4043 452.847 67.06 448.496 67.06Z" fill="currentColor"/>
</svg>
