<svg xmlns:xlink="http://www.w3.org/1999/xlink"  viewBox="0 0 24 24" style="width:42px" xmlns="http://www.w3.org/2000/svg"><path d="M2.92 9.07c0 .56-.15 1.1-.46 1.6L.19 14.6a1.24 1.24 0 001.05 1.9H3v2.28a2.213 2.213 0 002.84 2.13L8 20.32v2.93c0 .41.34.75.75.75h2.5V.03C6.6.39 2.92 4.31 2.92 9.07zM22.9 14.43v-.01l-1.41-1.29a10.836 10.836 0 000-2.26l1.41-1.3c.59-.55.72-1.42.32-2.13l-1.65-2.87a1.75 1.75 0 00-2.03-.79l-1.82.58c-.61-.47-1.27-.85-1.95-1.14l-.43-1.87C15.17.55 14.47 0 13.66 0h-.91v7.31c2.26.36 4 2.32 4 4.69s-1.74 4.33-4 4.69V24h.91c.81 0 1.51-.55 1.68-1.35l.43-1.87c.68-.29 1.34-.67 1.95-1.14l1.82.58c.78.24 1.63-.09 2.02-.78l1.67-2.89c.39-.7.26-1.57-.33-2.12z"></path></svg>