<svg width="197" height="77" viewBox="0 0 197 77" fill="none" xmlns="http://www.w3.org/2000/svg">
<rect x="1.5" y="1.5" width="194" height="74" rx="17" stroke="#FC5200" stroke-width="3" stroke-dasharray="14 14"/>
<path d="M37.124 42.856L41.849 28.546H46.736L40.013 47.5H34.235L27.512 28.546H32.426L37.124 42.856ZM63.4077 39.967C63.4077 44.746 59.9517 47.716 55.5237 47.716C51.0957 47.716 47.7477 44.746 47.7477 39.967C47.7477 35.188 51.1767 32.218 55.5777 32.218C60.0057 32.218 63.4077 35.188 63.4077 39.967ZM52.4457 39.967C52.4457 42.505 53.8497 43.72 55.5237 43.72C57.1707 43.72 58.7097 42.505 58.7097 39.967C58.7097 37.402 57.1977 36.214 55.5777 36.214C53.9037 36.214 52.4457 37.402 52.4457 39.967ZM66.5861 42.262V36.268H64.7501V32.434H66.5861V28.762H71.2031V32.434H74.2271V36.268H71.2031V42.316C71.2031 43.207 71.5811 43.585 72.6071 43.585H74.2541V47.5H71.9051C68.7731 47.5 66.5861 46.177 66.5861 42.262ZM81.4429 40.507V47.5H76.8259V32.434H81.4429V34.945C82.4959 33.352 84.1429 32.272 86.1679 32.272V37.159H84.8989C82.7119 37.159 81.4429 37.915 81.4429 40.507ZM95.0167 35.917C93.5047 35.917 92.3437 36.835 92.0737 38.509H97.8517C97.8517 36.862 96.5557 35.917 95.0167 35.917ZM102.226 42.505C101.497 45.448 98.8237 47.716 95.0707 47.716C90.6427 47.716 87.4567 44.746 87.4567 39.967C87.4567 35.188 90.5887 32.218 95.0707 32.218C99.4717 32.218 102.577 35.134 102.577 39.724C102.577 40.156 102.55 40.615 102.496 41.074H92.0467C92.2087 43.045 93.4237 43.963 94.9087 43.963C96.2047 43.963 96.9337 43.315 97.3117 42.505H102.226ZM110.734 47.5V27.52H115.351V47.5H110.734ZM133.439 39.967C133.439 44.746 129.983 47.716 125.555 47.716C121.127 47.716 117.779 44.746 117.779 39.967C117.779 35.188 121.208 32.218 125.609 32.218C130.037 32.218 133.439 35.188 133.439 39.967ZM122.477 39.967C122.477 42.505 123.881 43.72 125.555 43.72C127.202 43.72 128.741 42.505 128.741 39.967C128.741 37.402 127.229 36.214 125.609 36.214C123.935 36.214 122.477 37.402 122.477 39.967ZM134.97 39.94C134.97 35.188 137.913 32.218 141.612 32.218C143.826 32.218 145.446 33.217 146.256 34.567V32.434H150.873V47.473C150.873 51.496 148.551 54.925 143.34 54.925C138.858 54.925 135.942 52.657 135.537 49.066H140.1C140.397 50.2 141.531 50.929 143.124 50.929C144.879 50.929 146.256 50.011 146.256 47.473V45.34C145.419 46.663 143.826 47.716 141.612 47.716C137.913 47.716 134.97 44.692 134.97 39.94ZM146.256 39.967C146.256 37.564 144.717 36.241 142.962 36.241C141.234 36.241 139.668 37.537 139.668 39.94C139.668 42.343 141.234 43.693 142.962 43.693C144.717 43.693 146.256 42.37 146.256 39.967ZM168.956 39.967C168.956 44.746 165.5 47.716 161.072 47.716C156.644 47.716 153.296 44.746 153.296 39.967C153.296 35.188 156.725 32.218 161.126 32.218C165.554 32.218 168.956 35.188 168.956 39.967ZM157.994 39.967C157.994 42.505 159.398 43.72 161.072 43.72C162.719 43.72 164.258 42.505 164.258 39.967C164.258 37.402 162.746 36.214 161.126 36.214C159.452 36.214 157.994 37.402 157.994 39.967Z" fill="#FC5200"/>
</svg>
