<svg width="197" height="77" viewBox="0 0 197 77" fill="none" xmlns="http://www.w3.org/2000/svg">
<rect x="1.5" y="1.5" width="194" height="74" rx="17" stroke="#36F4A4" stroke-width="3" stroke-dasharray="14 14"/>
<path d="M37.5402 43.639L42.6972 28.654H46.7202L39.8082 47.5H35.2182L28.3062 28.654H32.3562L37.5402 43.639ZM63.4315 40.021C63.4315 44.719 59.9755 47.743 55.6285 47.743C51.3085 47.743 48.0415 44.719 48.0415 40.021C48.0415 35.296 51.4165 32.299 55.7365 32.299C60.0565 32.299 63.4315 35.296 63.4315 40.021ZM51.8755 40.021C51.8755 42.991 53.6035 44.449 55.6285 44.449C57.6265 44.449 59.5435 42.991 59.5435 40.021C59.5435 37.024 57.6805 35.593 55.6825 35.593C53.6845 35.593 51.8755 37.024 51.8755 40.021ZM66.7983 42.856V35.647H65.0163V32.542H66.7983V28.843H70.6053V32.542H73.9533V35.647H70.6053V42.883C70.6053 43.882 71.0103 44.314 72.1983 44.314H73.9533V47.5H71.5773C68.7153 47.5 66.7983 46.285 66.7983 42.856ZM80.4521 40.048V47.5H76.6721V32.542H80.4521V34.864C81.3971 33.325 82.9631 32.326 85.0421 32.326V36.295H84.0431C81.8021 36.295 80.4521 37.159 80.4521 40.048ZM94.0141 35.404C92.2051 35.404 90.7741 36.565 90.4771 38.617H97.5781C97.5241 36.646 95.9581 35.404 94.0141 35.404ZM101.115 42.802C100.305 45.556 97.8211 47.743 94.1221 47.743C89.7751 47.743 86.6161 44.719 86.6161 40.021C86.6161 35.296 89.6941 32.299 94.1221 32.299C98.4421 32.299 101.493 35.242 101.493 39.697C101.493 40.183 101.466 40.669 101.385 41.155H90.4501C90.6391 43.369 92.1511 44.611 94.0411 44.611C95.6611 44.611 96.5521 43.801 97.0381 42.802H101.115ZM110.686 47.5V27.52H114.466V47.5H110.686ZM132.645 40.021C132.645 44.719 129.189 47.743 124.842 47.743C120.522 47.743 117.255 44.719 117.255 40.021C117.255 35.296 120.63 32.299 124.95 32.299C129.27 32.299 132.645 35.296 132.645 40.021ZM121.089 40.021C121.089 42.991 122.817 44.449 124.842 44.449C126.84 44.449 128.757 42.991 128.757 40.021C128.757 37.024 126.894 35.593 124.896 35.593C122.898 35.593 121.089 37.024 121.089 40.021ZM134.446 39.967C134.446 35.296 137.47 32.299 141.277 32.299C143.626 32.299 145.327 33.379 146.218 34.675V32.542H150.025V47.608C150.025 51.658 147.541 54.871 142.627 54.871C138.415 54.871 135.472 52.765 135.094 49.336H138.847C139.225 50.686 140.629 51.577 142.519 51.577C144.598 51.577 146.218 50.389 146.218 47.608V45.286C145.327 46.582 143.626 47.743 141.277 47.743C137.47 47.743 134.446 44.638 134.446 39.967ZM146.218 40.021C146.218 37.186 144.328 35.62 142.249 35.62C140.224 35.62 138.307 37.132 138.307 39.967C138.307 42.802 140.224 44.422 142.249 44.422C144.328 44.422 146.218 42.856 146.218 40.021ZM168.162 40.021C168.162 44.719 164.706 47.743 160.359 47.743C156.039 47.743 152.772 44.719 152.772 40.021C152.772 35.296 156.147 32.299 160.467 32.299C164.787 32.299 168.162 35.296 168.162 40.021ZM156.606 40.021C156.606 42.991 158.334 44.449 160.359 44.449C162.357 44.449 164.274 42.991 164.274 40.021C164.274 37.024 162.411 35.593 160.413 35.593C158.415 35.593 156.606 37.024 156.606 40.021Z" fill="#36F4A4"/>
</svg>
