<svg width="148" height="148" viewBox="0 0 148 148" fill="none" xmlns="http://www.w3.org/2000/svg">
<path d="M86.7034 61.2967L74.0001 55.5L86.7034 49.7034L92.5001 37L98.2968 49.7034L111 55.5L98.2968 61.2967L92.5001 74L86.7034 61.2967ZM24.6667 86.3334L30.4634 73.63L43.1667 67.8334L30.4634 62.0367L24.6667 49.3334L18.8701 62.0367L6.16675 67.8334L18.8701 73.63L24.6667 86.3334ZM52.4168 55.5L59.1384 40.6384L74.0001 33.9167L59.1384 27.195L52.4168 12.3334L45.6951 27.195L30.8334 33.9167L45.6951 40.6384L52.4168 55.5ZM27.7501 126.417L64.7501 89.355L89.4168 114.022L141.833 55.0684L133.138 46.3734L89.4168 95.5217L64.7501 70.855L18.5001 117.167L27.7501 126.417Z" fill="#FC5200"/>
</svg>
