<svg width="148" height="148" viewBox="0 0 148 148" fill="none" xmlns="http://www.w3.org/2000/svg">
<path d="M104.833 104.772C96.5083 104.772 91.2666 107.362 86.6416 109.705C82.6333 111.74 79.3649 113.405 73.9999 113.405C68.4499 113.405 65.3666 111.863 61.3583 109.705C56.7333 107.362 51.6766 104.772 43.1666 104.772C34.6566 104.772 29.5999 107.362 24.9749 109.705C20.9666 111.74 17.7599 113.405 12.3333 113.405V125.43C20.6583 125.43 25.8999 122.84 30.5249 120.497C34.5333 118.462 37.7399 116.797 43.1666 116.797C48.5933 116.797 51.7999 118.338 55.8083 120.497C60.4333 122.84 65.4899 125.43 73.9999 125.43C82.5099 125.43 87.5666 122.84 92.1916 120.497C96.1999 118.462 99.4683 116.797 104.833 116.797C110.383 116.797 113.467 118.338 117.475 120.497C122.1 122.84 127.218 125.43 135.667 125.43V113.405C130.117 113.405 127.033 111.863 123.025 109.705C118.4 107.362 113.158 104.772 104.833 104.772ZM104.833 77.3299C96.5083 77.3299 91.2666 79.9816 86.6416 82.2633C82.6333 84.2366 79.3649 85.9633 73.9999 85.9633C68.4499 85.9633 65.3666 84.4216 61.3583 82.2633C56.7333 79.9199 51.6766 77.3299 43.1666 77.3299C34.6566 77.3299 29.5999 79.9816 24.9749 82.2633C20.9666 84.2366 17.7599 85.9633 12.3333 85.9633V97.9883C20.6583 97.9883 25.8999 95.3366 30.5249 93.0549C34.5333 90.8966 37.6166 89.3549 43.1666 89.3549C48.7166 89.3549 51.7999 90.8966 55.8083 93.0549C60.4333 95.3983 65.4899 97.9883 73.9999 97.9883C82.5099 97.9883 87.5666 95.3366 92.1916 93.0549C96.1999 90.8966 99.2833 89.3549 104.833 89.3549C110.383 89.3549 113.467 90.8966 117.475 93.0549C122.1 95.3983 127.218 97.9883 135.667 97.9883V85.9633C130.117 85.9633 127.033 84.4216 123.025 82.2633C118.4 79.9199 113.158 77.3299 104.833 77.3299ZM123.025 27.5033C118.4 25.1599 113.282 22.5699 104.833 22.5699C96.3849 22.5699 91.2666 25.1599 86.6416 27.5033C82.6333 29.4766 79.3649 31.2033 73.9999 31.2033C68.4499 31.2033 65.3666 29.6616 61.3583 27.5033C56.7333 25.2216 51.6766 22.5699 43.1666 22.5699C34.6566 22.5699 29.5999 25.1599 24.9749 27.5033C20.9666 29.5383 17.7599 31.2033 12.3333 31.2033V43.1049C20.6583 43.1049 25.8999 40.4533 30.5249 38.1716C34.5333 36.1366 37.7399 34.4716 43.1666 34.4716C48.5933 34.4716 51.7999 36.0133 55.8083 38.1716C60.4333 40.5149 65.4899 43.1049 73.9999 43.1049C82.5099 43.1049 87.5666 40.4533 92.1916 38.1716C96.1999 36.1983 99.4683 34.4716 104.833 34.4716C110.383 34.4716 113.467 36.0133 117.475 38.1716C122.1 40.5149 127.218 43.1049 135.667 43.1049V31.0799C130.117 31.0799 127.033 29.5383 123.025 27.5033ZM104.833 49.8883C96.5083 49.8883 91.2666 52.5399 86.6416 54.8216C82.6333 56.9799 79.5499 58.5216 73.9999 58.5216C68.4499 58.5216 65.3666 56.9799 61.3583 54.8216C56.7333 52.4783 51.6766 49.8883 43.1666 49.8883C34.6566 49.8883 29.5999 52.5399 24.9749 54.8216C20.9666 56.9799 17.8833 58.5216 12.3333 58.5216V70.5466C20.6583 70.5466 25.8999 67.8949 30.5249 65.6133C34.5333 63.6399 37.8016 61.9133 43.1666 61.9133C48.5316 61.9133 51.7999 63.4549 55.8083 65.6133C60.4333 67.9566 65.4899 70.5466 73.9999 70.5466C82.5099 70.5466 87.5666 67.8949 92.1916 65.6133C96.1999 63.6399 99.4683 61.9133 104.833 61.9133C110.383 61.9133 113.467 63.4549 117.475 65.6133C122.1 67.9566 127.218 70.5466 135.667 70.5466V58.5216C130.117 58.5216 127.033 56.9799 123.025 54.8216C118.4 52.4783 113.158 49.8883 104.833 49.8883Z" fill="#FC5200"/>
</svg>
