<svg width="148" height="148" viewBox="0 0 148 148" fill="none" xmlns="http://www.w3.org/2000/svg">
<g clip-path="url(#clip0_74_312)">
<path d="M83.421 4.05368L74.1184 49.0619C74.0699 49.4363 74.1081 49.8169 74.2298 50.1742C74.3516 50.5316 74.5537 50.8563 74.8207 51.1232C75.0877 51.3902 75.4123 51.5923 75.7697 51.7141C76.1271 51.8359 76.5076 51.874 76.882 51.8256H125.049C125.846 51.8964 126.614 52.1601 127.287 52.5939C127.959 53.0276 128.516 53.6185 128.91 54.3154C129.303 55.0124 129.521 55.7946 129.545 56.5946C129.569 57.3946 129.397 58.1883 129.046 58.9075L76.5859 145.025C76.1189 145.947 75.3528 146.683 74.413 147.113C73.4733 147.543 72.4154 147.642 71.4125 147.392C70.4095 147.143 69.5208 146.561 68.8918 145.741C68.2627 144.921 67.9305 143.912 67.9495 142.878L77.2028 89.8753C77.2028 88.0246 75.6729 88.6415 73.8223 88.6415H23.336C19.9555 88.6415 17.4879 83.7064 19.3386 80.622L74.8093 1.9069C75.2972 1.01884 76.0652 0.317189 76.9937 -0.0886179C77.9222 -0.494425 78.9588 -0.58158 79.942 -0.33649C80.9252 -0.0913997 81.7996 0.472159 82.4289 1.2663C83.0582 2.06043 83.4071 3.04051 83.421 4.05368Z" fill="#FC5200"/>
</g>
<defs>
<clipPath id="clip0_74_312">
<rect width="148" height="148" fill="white"/>
</clipPath>
</defs>
</svg>
