<svg width="688" height="503" viewBox="0 0 688 503" fill="none" xmlns="http://www.w3.org/2000/svg">
<rect width="687.5" height="503" rx="46.4547" fill="white"/>
<rect x="3.4594" y="3.4594" width="680.581" height="496.081" rx="42.9953" stroke="black" stroke-opacity="0.1" stroke-width="6.91879"/>
<g filter="url(#filter0_d_72_941)">
<rect x="36" y="52" width="615" height="90" rx="12" fill="#FC5A0C"/>
<rect x="52" y="60" width="74" height="74" rx="9" fill="#C24102"/>
<rect x="142" y="108" width="87" height="9" rx="4.5" fill="#C24102"/>
<rect x="233" y="108" width="303" height="9" rx="4.5" fill="#C24102"/>
<path d="M147.693 91.42L150.318 83.47H153.033L149.298 94H146.088L142.353 83.47H145.083L147.693 91.42ZM162.295 89.815C162.295 92.47 160.375 94.12 157.915 94.12C155.455 94.12 153.595 92.47 153.595 89.815C153.595 87.16 155.5 85.51 157.945 85.51C160.405 85.51 162.295 87.16 162.295 89.815ZM156.205 89.815C156.205 91.225 156.985 91.9 157.915 91.9C158.83 91.9 159.685 91.225 159.685 89.815C159.685 88.39 158.845 87.73 157.945 87.73C157.015 87.73 156.205 88.39 156.205 89.815ZM164.061 91.09V87.76H163.041V85.63H164.061V83.59H166.626V85.63H168.306V87.76H166.626V91.12C166.626 91.615 166.836 91.825 167.406 91.825H168.321V94H167.016C165.276 94 164.061 93.265 164.061 91.09ZM172.314 90.115V94H169.749V85.63H172.314V87.025C172.899 86.14 173.814 85.54 174.939 85.54V88.255H174.234C173.019 88.255 172.314 88.675 172.314 90.115ZM179.855 87.565C179.015 87.565 178.37 88.075 178.22 89.005H181.43C181.43 88.09 180.71 87.565 179.855 87.565ZM183.86 91.225C183.455 92.86 181.97 94.12 179.885 94.12C177.425 94.12 175.655 92.47 175.655 89.815C175.655 87.16 177.395 85.51 179.885 85.51C182.33 85.51 184.055 87.13 184.055 89.68C184.055 89.92 184.04 90.175 184.01 90.43H178.205C178.295 91.525 178.97 92.035 179.795 92.035C180.515 92.035 180.92 91.675 181.13 91.225H183.86ZM195.382 91.57C195.382 93.025 194.092 94.12 191.992 94.12C189.757 94.12 188.257 92.875 188.137 91.255H190.672C190.732 91.84 191.257 92.23 191.962 92.23C192.622 92.23 192.967 91.93 192.967 91.555C192.967 90.205 188.407 91.18 188.407 88.105C188.407 86.68 189.622 85.51 191.812 85.51C193.972 85.51 195.172 86.71 195.337 88.36H192.967C192.892 87.79 192.457 87.415 191.737 87.415C191.137 87.415 190.807 87.655 190.807 88.06C190.807 89.395 195.337 88.45 195.382 91.57ZM196.951 94V85.63H199.516V94H196.951ZM198.241 84.76C197.326 84.76 196.711 84.145 196.711 83.38C196.711 82.6 197.326 81.985 198.241 81.985C199.141 81.985 199.756 82.6 199.756 83.38C199.756 84.145 199.141 84.76 198.241 84.76ZM201.78 91.09V87.76H200.76V85.63H201.78V83.59H204.345V85.63H206.025V87.76H204.345V91.12C204.345 91.615 204.555 91.825 205.125 91.825H206.04V94H204.735C202.995 94 201.78 93.265 201.78 91.09ZM211.159 87.565C210.319 87.565 209.674 88.075 209.524 89.005H212.734C212.734 88.09 212.014 87.565 211.159 87.565ZM215.164 91.225C214.759 92.86 213.274 94.12 211.189 94.12C208.729 94.12 206.959 92.47 206.959 89.815C206.959 87.16 208.699 85.51 211.189 85.51C213.634 85.51 215.359 87.13 215.359 89.68C215.359 89.92 215.344 90.175 215.314 90.43H209.509C209.599 91.525 210.274 92.035 211.099 92.035C211.819 92.035 212.224 91.675 212.434 91.225H215.164Z" fill="white"/>
</g>
<rect x="36.5" y="155.5" width="614" height="89" rx="11.5" fill="#E5E5E5" fill-opacity="0.34" stroke="#E5E5E5"/>
<rect x="52" y="163" width="74" height="74" rx="9" fill="#E0E0E0"/>
<rect x="142" y="211" width="87" height="9" rx="4.5" fill="#E0E0E0"/>
<rect x="233" y="211" width="303" height="9" rx="4.5" fill="#E0E0E0"/>
<path d="M150.58 193.865C150.58 195.635 149.2 197.105 146.74 197.105C144.475 197.105 142.705 195.98 142.63 193.85H145.36C145.435 194.66 145.945 195.05 146.665 195.05C147.415 195.05 147.895 194.675 147.895 194.06C147.895 192.11 142.63 193.16 142.66 189.425C142.66 187.43 144.295 186.32 146.5 186.32C148.795 186.32 150.34 187.46 150.445 189.47H147.67C147.625 188.795 147.145 188.39 146.455 188.375C145.84 188.36 145.375 188.675 145.375 189.335C145.375 191.165 150.58 190.34 150.58 193.865ZM152.159 197V188.63H154.724V197H152.159ZM153.449 187.76C152.534 187.76 151.919 187.145 151.919 186.38C151.919 185.6 152.534 184.985 153.449 184.985C154.349 184.985 154.964 185.6 154.964 186.38C154.964 187.145 154.349 187.76 153.449 187.76ZM156.987 194.09V190.76H155.967V188.63H156.987V186.59H159.552V188.63H161.232V190.76H159.552V194.12C159.552 194.615 159.762 194.825 160.332 194.825H161.247V197H159.942C158.202 197 156.987 196.265 156.987 194.09ZM166.366 190.565C165.526 190.565 164.881 191.075 164.731 192.005H167.941C167.941 191.09 167.221 190.565 166.366 190.565ZM170.371 194.225C169.966 195.86 168.481 197.12 166.396 197.12C163.936 197.12 162.166 195.47 162.166 192.815C162.166 190.16 163.906 188.51 166.396 188.51C168.841 188.51 170.566 190.13 170.566 192.68C170.566 192.92 170.551 193.175 170.521 193.43H164.716C164.806 194.525 165.481 195.035 166.306 195.035C167.026 195.035 167.431 194.675 167.641 194.225H170.371ZM174.588 192.815C174.588 190.175 176.328 188.51 178.788 188.51C180.888 188.51 182.373 189.665 182.808 191.66H180.078C179.868 191.075 179.448 190.7 178.743 190.7C177.828 190.7 177.198 191.42 177.198 192.815C177.198 194.21 177.828 194.93 178.743 194.93C179.448 194.93 179.853 194.585 180.078 193.97H182.808C182.373 195.905 180.888 197.12 178.788 197.12C176.328 197.12 174.588 195.47 174.588 192.815ZM192.37 192.815C192.37 195.47 190.45 197.12 187.99 197.12C185.53 197.12 183.67 195.47 183.67 192.815C183.67 190.16 185.575 188.51 188.02 188.51C190.48 188.51 192.37 190.16 192.37 192.815ZM186.28 192.815C186.28 194.225 187.06 194.9 187.99 194.9C188.905 194.9 189.76 194.225 189.76 192.815C189.76 191.39 188.92 190.73 188.02 190.73C187.09 190.73 186.28 191.39 186.28 192.815ZM199.506 197V192.455C199.506 191.315 198.876 190.685 197.901 190.685C196.926 190.685 196.296 191.315 196.296 192.455V197H193.731V188.63H196.296V189.74C196.806 189.035 197.706 188.54 198.831 188.54C200.766 188.54 202.056 189.86 202.056 192.11V197H199.506ZM203.328 192.815C203.328 190.175 205.068 188.51 207.528 188.51C209.628 188.51 211.113 189.665 211.548 191.66H208.818C208.608 191.075 208.188 190.7 207.483 190.7C206.568 190.7 205.938 191.42 205.938 192.815C205.938 194.21 206.568 194.93 207.483 194.93C208.188 194.93 208.593 194.585 208.818 193.97H211.548C211.113 195.905 209.628 197.12 207.528 197.12C205.068 197.12 203.328 195.47 203.328 192.815ZM221.185 188.63V197H218.62V195.86C218.11 196.58 217.21 197.09 216.085 197.09C214.15 197.09 212.845 195.755 212.845 193.52V188.63H215.395V193.175C215.395 194.315 216.04 194.945 217 194.945C217.99 194.945 218.62 194.315 218.62 193.175V188.63H221.185ZM225.593 193.115V197H223.028V188.63H225.593V190.025C226.178 189.14 227.093 188.54 228.218 188.54V191.255H227.513C226.298 191.255 225.593 191.675 225.593 193.115ZM232.009 193.115V197H229.444V188.63H232.009V190.025C232.594 189.14 233.509 188.54 234.634 188.54V191.255H233.929C232.714 191.255 232.009 191.675 232.009 193.115ZM239.55 190.565C238.71 190.565 238.065 191.075 237.915 192.005H241.125C241.125 191.09 240.405 190.565 239.55 190.565ZM243.555 194.225C243.15 195.86 241.665 197.12 239.58 197.12C237.12 197.12 235.35 195.47 235.35 192.815C235.35 190.16 237.09 188.51 239.58 188.51C242.025 188.51 243.75 190.13 243.75 192.68C243.75 192.92 243.735 193.175 243.705 193.43H237.9C237.99 194.525 238.665 195.035 239.49 195.035C240.21 195.035 240.615 194.675 240.825 194.225H243.555ZM250.878 197V192.455C250.878 191.315 250.248 190.685 249.273 190.685C248.298 190.685 247.668 191.315 247.668 192.455V197H245.103V188.63H247.668V189.74C248.178 189.035 249.078 188.54 250.203 188.54C252.138 188.54 253.428 189.86 253.428 192.11V197H250.878ZM255.615 194.09V190.76H254.595V188.63H255.615V186.59H258.18V188.63H259.86V190.76H258.18V194.12C258.18 194.615 258.39 194.825 258.96 194.825H259.875V197H258.57C256.83 197 255.615 196.265 255.615 194.09Z" fill="black"/>
<rect x="36.5" y="258.5" width="614" height="89" rx="11.5" fill="#E5E5E5" fill-opacity="0.34" stroke="#E5E5E5"/>
<rect x="52" y="266" width="74" height="74" rx="9" fill="#E0E0E0"/>
<rect x="142" y="314" width="87" height="9" rx="4.5" fill="#E0E0E0"/>
<rect x="233" y="314" width="303" height="9" rx="4.5" fill="#E0E0E0"/>
<path d="M150.58 296.865C150.58 298.635 149.2 300.105 146.74 300.105C144.475 300.105 142.705 298.98 142.63 296.85H145.36C145.435 297.66 145.945 298.05 146.665 298.05C147.415 298.05 147.895 297.675 147.895 297.06C147.895 295.11 142.63 296.16 142.66 292.425C142.66 290.43 144.295 289.32 146.5 289.32C148.795 289.32 150.34 290.46 150.445 292.47H147.67C147.625 291.795 147.145 291.39 146.455 291.375C145.84 291.36 145.375 291.675 145.375 292.335C145.375 294.165 150.58 293.34 150.58 296.865ZM152.159 300V291.63H154.724V300H152.159ZM153.449 290.76C152.534 290.76 151.919 290.145 151.919 289.38C151.919 288.6 152.534 287.985 153.449 287.985C154.349 287.985 154.964 288.6 154.964 289.38C154.964 290.145 154.349 290.76 153.449 290.76ZM156.987 297.09V293.76H155.967V291.63H156.987V289.59H159.552V291.63H161.232V293.76H159.552V297.12C159.552 297.615 159.762 297.825 160.332 297.825H161.247V300H159.942C158.202 300 156.987 299.265 156.987 297.09ZM166.366 293.565C165.526 293.565 164.881 294.075 164.731 295.005H167.941C167.941 294.09 167.221 293.565 166.366 293.565ZM170.371 297.225C169.966 298.86 168.481 300.12 166.396 300.12C163.936 300.12 162.166 298.47 162.166 295.815C162.166 293.16 163.906 291.51 166.396 291.51C168.841 291.51 170.566 293.13 170.566 295.68C170.566 295.92 170.551 296.175 170.521 296.43H164.716C164.806 297.525 165.481 298.035 166.306 298.035C167.026 298.035 167.431 297.675 167.641 297.225H170.371ZM174.588 295.815C174.588 293.175 176.328 291.51 178.788 291.51C180.888 291.51 182.373 292.665 182.808 294.66H180.078C179.868 294.075 179.448 293.7 178.743 293.7C177.828 293.7 177.198 294.42 177.198 295.815C177.198 297.21 177.828 297.93 178.743 297.93C179.448 297.93 179.853 297.585 180.078 296.97H182.808C182.373 298.905 180.888 300.12 178.788 300.12C176.328 300.12 174.588 298.47 174.588 295.815ZM192.37 295.815C192.37 298.47 190.45 300.12 187.99 300.12C185.53 300.12 183.67 298.47 183.67 295.815C183.67 293.16 185.575 291.51 188.02 291.51C190.48 291.51 192.37 293.16 192.37 295.815ZM186.28 295.815C186.28 297.225 187.06 297.9 187.99 297.9C188.905 297.9 189.76 297.225 189.76 295.815C189.76 294.39 188.92 293.73 188.02 293.73C187.09 293.73 186.28 294.39 186.28 295.815ZM199.506 300V295.455C199.506 294.315 198.876 293.685 197.901 293.685C196.926 293.685 196.296 294.315 196.296 295.455V300H193.731V291.63H196.296V292.74C196.806 292.035 197.706 291.54 198.831 291.54C200.766 291.54 202.056 292.86 202.056 295.11V300H199.506ZM203.328 295.815C203.328 293.175 205.068 291.51 207.528 291.51C209.628 291.51 211.113 292.665 211.548 294.66H208.818C208.608 294.075 208.188 293.7 207.483 293.7C206.568 293.7 205.938 294.42 205.938 295.815C205.938 297.21 206.568 297.93 207.483 297.93C208.188 297.93 208.593 297.585 208.818 296.97H211.548C211.113 298.905 209.628 300.12 207.528 300.12C205.068 300.12 203.328 298.47 203.328 295.815ZM221.185 291.63V300H218.62V298.86C218.11 299.58 217.21 300.09 216.085 300.09C214.15 300.09 212.845 298.755 212.845 296.52V291.63H215.395V296.175C215.395 297.315 216.04 297.945 217 297.945C217.99 297.945 218.62 297.315 218.62 296.175V291.63H221.185ZM225.593 296.115V300H223.028V291.63H225.593V293.025C226.178 292.14 227.093 291.54 228.218 291.54V294.255H227.513C226.298 294.255 225.593 294.675 225.593 296.115ZM232.009 296.115V300H229.444V291.63H232.009V293.025C232.594 292.14 233.509 291.54 234.634 291.54V294.255H233.929C232.714 294.255 232.009 294.675 232.009 296.115ZM239.55 293.565C238.71 293.565 238.065 294.075 237.915 295.005H241.125C241.125 294.09 240.405 293.565 239.55 293.565ZM243.555 297.225C243.15 298.86 241.665 300.12 239.58 300.12C237.12 300.12 235.35 298.47 235.35 295.815C235.35 293.16 237.09 291.51 239.58 291.51C242.025 291.51 243.75 293.13 243.75 295.68C243.75 295.92 243.735 296.175 243.705 296.43H237.9C237.99 297.525 238.665 298.035 239.49 298.035C240.21 298.035 240.615 297.675 240.825 297.225H243.555ZM250.878 300V295.455C250.878 294.315 250.248 293.685 249.273 293.685C248.298 293.685 247.668 294.315 247.668 295.455V300H245.103V291.63H247.668V292.74C248.178 292.035 249.078 291.54 250.203 291.54C252.138 291.54 253.428 292.86 253.428 295.11V300H250.878ZM255.615 297.09V293.76H254.595V291.63H255.615V289.59H258.18V291.63H259.86V293.76H258.18V297.12C258.18 297.615 258.39 297.825 258.96 297.825H259.875V300H258.57C256.83 300 255.615 299.265 255.615 297.09Z" fill="black"/>
<rect x="36.5" y="361.5" width="614" height="89" rx="11.5" fill="#E5E5E5" fill-opacity="0.34" stroke="#E5E5E5"/>
<rect x="52" y="369" width="74" height="74" rx="9" fill="#E0E0E0"/>
<rect x="142" y="417" width="87" height="9" rx="4.5" fill="#E0E0E0"/>
<rect x="233" y="417" width="303" height="9" rx="4.5" fill="#E0E0E0"/>
<path d="M150.58 399.865C150.58 401.635 149.2 403.105 146.74 403.105C144.475 403.105 142.705 401.98 142.63 399.85H145.36C145.435 400.66 145.945 401.05 146.665 401.05C147.415 401.05 147.895 400.675 147.895 400.06C147.895 398.11 142.63 399.16 142.66 395.425C142.66 393.43 144.295 392.32 146.5 392.32C148.795 392.32 150.34 393.46 150.445 395.47H147.67C147.625 394.795 147.145 394.39 146.455 394.375C145.84 394.36 145.375 394.675 145.375 395.335C145.375 397.165 150.58 396.34 150.58 399.865ZM152.159 403V394.63H154.724V403H152.159ZM153.449 393.76C152.534 393.76 151.919 393.145 151.919 392.38C151.919 391.6 152.534 390.985 153.449 390.985C154.349 390.985 154.964 391.6 154.964 392.38C154.964 393.145 154.349 393.76 153.449 393.76ZM156.987 400.09V396.76H155.967V394.63H156.987V392.59H159.552V394.63H161.232V396.76H159.552V400.12C159.552 400.615 159.762 400.825 160.332 400.825H161.247V403H159.942C158.202 403 156.987 402.265 156.987 400.09ZM166.366 396.565C165.526 396.565 164.881 397.075 164.731 398.005H167.941C167.941 397.09 167.221 396.565 166.366 396.565ZM170.371 400.225C169.966 401.86 168.481 403.12 166.396 403.12C163.936 403.12 162.166 401.47 162.166 398.815C162.166 396.16 163.906 394.51 166.396 394.51C168.841 394.51 170.566 396.13 170.566 398.68C170.566 398.92 170.551 399.175 170.521 399.43H164.716C164.806 400.525 165.481 401.035 166.306 401.035C167.026 401.035 167.431 400.675 167.641 400.225H170.371ZM174.588 398.815C174.588 396.175 176.328 394.51 178.788 394.51C180.888 394.51 182.373 395.665 182.808 397.66H180.078C179.868 397.075 179.448 396.7 178.743 396.7C177.828 396.7 177.198 397.42 177.198 398.815C177.198 400.21 177.828 400.93 178.743 400.93C179.448 400.93 179.853 400.585 180.078 399.97H182.808C182.373 401.905 180.888 403.12 178.788 403.12C176.328 403.12 174.588 401.47 174.588 398.815ZM192.37 398.815C192.37 401.47 190.45 403.12 187.99 403.12C185.53 403.12 183.67 401.47 183.67 398.815C183.67 396.16 185.575 394.51 188.02 394.51C190.48 394.51 192.37 396.16 192.37 398.815ZM186.28 398.815C186.28 400.225 187.06 400.9 187.99 400.9C188.905 400.9 189.76 400.225 189.76 398.815C189.76 397.39 188.92 396.73 188.02 396.73C187.09 396.73 186.28 397.39 186.28 398.815ZM199.506 403V398.455C199.506 397.315 198.876 396.685 197.901 396.685C196.926 396.685 196.296 397.315 196.296 398.455V403H193.731V394.63H196.296V395.74C196.806 395.035 197.706 394.54 198.831 394.54C200.766 394.54 202.056 395.86 202.056 398.11V403H199.506ZM203.328 398.815C203.328 396.175 205.068 394.51 207.528 394.51C209.628 394.51 211.113 395.665 211.548 397.66H208.818C208.608 397.075 208.188 396.7 207.483 396.7C206.568 396.7 205.938 397.42 205.938 398.815C205.938 400.21 206.568 400.93 207.483 400.93C208.188 400.93 208.593 400.585 208.818 399.97H211.548C211.113 401.905 209.628 403.12 207.528 403.12C205.068 403.12 203.328 401.47 203.328 398.815ZM221.185 394.63V403H218.62V401.86C218.11 402.58 217.21 403.09 216.085 403.09C214.15 403.09 212.845 401.755 212.845 399.52V394.63H215.395V399.175C215.395 400.315 216.04 400.945 217 400.945C217.99 400.945 218.62 400.315 218.62 399.175V394.63H221.185ZM225.593 399.115V403H223.028V394.63H225.593V396.025C226.178 395.14 227.093 394.54 228.218 394.54V397.255H227.513C226.298 397.255 225.593 397.675 225.593 399.115ZM232.009 399.115V403H229.444V394.63H232.009V396.025C232.594 395.14 233.509 394.54 234.634 394.54V397.255H233.929C232.714 397.255 232.009 397.675 232.009 399.115ZM239.55 396.565C238.71 396.565 238.065 397.075 237.915 398.005H241.125C241.125 397.09 240.405 396.565 239.55 396.565ZM243.555 400.225C243.15 401.86 241.665 403.12 239.58 403.12C237.12 403.12 235.35 401.47 235.35 398.815C235.35 396.16 237.09 394.51 239.58 394.51C242.025 394.51 243.75 396.13 243.75 398.68C243.75 398.92 243.735 399.175 243.705 399.43H237.9C237.99 400.525 238.665 401.035 239.49 401.035C240.21 401.035 240.615 400.675 240.825 400.225H243.555ZM250.878 403V398.455C250.878 397.315 250.248 396.685 249.273 396.685C248.298 396.685 247.668 397.315 247.668 398.455V403H245.103V394.63H247.668V395.74C248.178 395.035 249.078 394.54 250.203 394.54C252.138 394.54 253.428 395.86 253.428 398.11V403H250.878ZM255.615 400.09V396.76H254.595V394.63H255.615V392.59H258.18V394.63H259.86V396.76H258.18V400.12C258.18 400.615 258.39 400.825 258.96 400.825H259.875V403H258.57C256.83 403 255.615 402.265 255.615 400.09Z" fill="black"/>
<rect x="558" y="23" width="63" height="63" rx="8" fill="#FFCC00"/>
<path d="M586.106 55.79L586.946 51.86H581.966L581.126 55.79H586.106ZM584.126 65L585.116 60.41H580.136L579.146 65H574.346L575.336 60.41H570.896V55.79H576.326L577.166 51.86H572.816V47.24H578.126L579.086 42.8H583.886L582.926 47.24H587.906L588.866 42.8H593.666L592.706 47.24H596.426V51.86H591.746L590.906 55.79H594.506V60.41H589.916L588.926 65H584.126ZM601.205 65V47.87H598.235V43.1H606.545V65H601.205Z" fill="black"/>
<defs>
<filter id="filter0_d_72_941" x="29.7" y="49.7" width="627.6" height="102.6" filterUnits="userSpaceOnUse" color-interpolation-filters="sRGB">
<feFlood flood-opacity="0" result="BackgroundImageFix"/>
<feColorMatrix in="SourceAlpha" type="matrix" values="0 0 0 0 0 0 0 0 0 0 0 0 0 0 0 0 0 0 127 0" result="hardAlpha"/>
<feOffset dy="4"/>
<feGaussianBlur stdDeviation="3.15"/>
<feComposite in2="hardAlpha" operator="out"/>
<feColorMatrix type="matrix" values="0 0 0 0 0 0 0 0 0 0 0 0 0 0 0 0 0 0 0.25 0"/>
<feBlend mode="normal" in2="BackgroundImageFix" result="effect1_dropShadow_72_941"/>
<feBlend mode="normal" in="SourceGraphic" in2="effect1_dropShadow_72_941" result="shape"/>
</filter>
</defs>
</svg>
