<svg width="688" height="503" viewBox="0 0 688 503" fill="none" xmlns="http://www.w3.org/2000/svg">
<rect width="687.5" height="503" rx="46.4547" fill="white"/>
<rect x="3.4594" y="3.4594" width="680.581" height="496.081" rx="42.9953" stroke="black" stroke-opacity="0.1" stroke-width="6.91879"/>
<line x1="7" y1="467" x2="682" y2="467" stroke="#E5E5E5" stroke-width="2" stroke-dasharray="18 18"/>
<line x1="7" y1="425" x2="682" y2="425" stroke="#E5E5E5" stroke-width="2" stroke-dasharray="18 18"/>
<line x1="7" y1="383" x2="682" y2="383" stroke="#E5E5E5" stroke-width="2" stroke-dasharray="18 18"/>
<line x1="7" y1="341" x2="682" y2="341" stroke="#E5E5E5" stroke-width="2" stroke-dasharray="18 18"/>
<line x1="7" y1="299" x2="682" y2="299" stroke="#E5E5E5" stroke-width="2" stroke-dasharray="18 18"/>
<line x1="7" y1="257" x2="682" y2="257" stroke="#E5E5E5" stroke-width="2" stroke-dasharray="18 18"/>
<line x1="7" y1="215" x2="682" y2="215" stroke="#E5E5E5" stroke-width="2" stroke-dasharray="18 18"/>
<line x1="7" y1="173" x2="682" y2="173" stroke="#E5E5E5" stroke-width="2" stroke-dasharray="18 18"/>
<line x1="7" y1="131" x2="682" y2="131" stroke="#E5E5E5" stroke-width="2" stroke-dasharray="18 18"/>
<rect x="137" y="371" width="97" height="90" rx="12" transform="rotate(90 137 371)" fill="#C24102"/>
<rect x="258" y="408" width="60" height="90" rx="12" transform="rotate(90 258 408)" fill="#C24102"/>
<rect x="379" y="86" width="382" height="90" rx="12" transform="rotate(90 379 86)" fill="#FC5A0C"/>
<rect x="500" y="153" width="315" height="90" rx="12" transform="rotate(90 500 153)" fill="#FC5A0C"/>
<rect x="621" y="111" width="357" height="90" rx="12" transform="rotate(90 621 111)" fill="#FC5A0C"/>
<g filter="url(#filter0_d_72_1049)">
<rect x="245" y="370" width="181" height="44" rx="4" fill="#FCFCFC"/>
<rect x="244.5" y="369.5" width="182" height="45" rx="4.5" stroke="#F1F1F1"/>
</g>
<path d="M289.886 387.262H291.219V390.665H294.559V391.872H291.219V395.259H289.886V391.872H286.561V390.665H289.886V387.262ZM298.944 391.104C297.783 390.649 297.125 389.771 297.125 388.5C297.125 386.838 298.379 385.49 300.841 385.49C303.303 385.49 304.574 386.854 304.574 388.5C304.574 389.724 303.868 390.665 302.754 391.104C304.04 391.496 304.872 392.531 304.872 393.942C304.872 395.996 303.241 397.314 300.841 397.314C298.458 397.314 296.842 395.996 296.842 393.942C296.842 392.515 297.674 391.48 298.944 391.104ZM300.841 390.633C302.237 390.633 303.194 389.849 303.194 388.673C303.194 387.371 302.268 386.681 300.841 386.681C299.446 386.681 298.505 387.356 298.505 388.689C298.505 389.865 299.461 390.633 300.841 390.633ZM300.841 391.731C299.383 391.731 298.207 392.39 298.207 393.895C298.207 395.228 299.226 396.122 300.841 396.122C302.457 396.122 303.46 395.212 303.46 393.895C303.46 392.437 302.331 391.731 300.841 391.731ZM312.224 397V394.475H306.422V393.393L311.926 385.772H313.635V393.236H315.204V394.475H313.635V397H312.224ZM308.068 393.236H312.287V387.262L308.068 393.236ZM316.316 388.218C316.316 386.76 317.304 385.882 318.605 385.882C319.922 385.882 320.895 386.76 320.895 388.218C320.895 389.692 319.922 390.57 318.605 390.57C317.304 390.57 316.316 389.692 316.316 388.218ZM318.605 386.76C317.915 386.76 317.46 387.23 317.46 388.218C317.46 389.19 317.915 389.692 318.605 389.692C319.295 389.692 319.766 389.19 319.766 388.218C319.766 387.23 319.295 386.76 318.605 386.76ZM317.711 397L324.062 386.054H325.474L319.123 397H317.711ZM322.322 394.836C322.322 393.362 323.294 392.484 324.611 392.484C325.913 392.484 326.885 393.362 326.885 394.836C326.885 396.294 325.913 397.188 324.611 397.188C323.294 397.188 322.322 396.294 322.322 394.836ZM324.596 393.377C323.906 393.377 323.435 393.848 323.435 394.836C323.435 395.808 323.906 396.279 324.596 396.279C325.286 396.279 325.756 395.808 325.756 394.836C325.756 393.848 325.286 393.377 324.596 393.377ZM332.411 392.687C332.411 389.99 334.152 388.265 336.598 388.265C338.731 388.265 340.127 389.363 340.566 391.166H339.029C338.731 390.131 337.869 389.473 336.598 389.473C335.03 389.473 333.87 390.586 333.87 392.687C333.87 394.82 335.03 395.934 336.598 395.934C337.869 395.934 338.715 395.322 339.029 394.24H340.566C340.127 395.949 338.731 397.141 336.598 397.141C334.152 397.141 332.411 395.416 332.411 392.687ZM350.624 392.687C350.624 395.416 348.664 397.141 346.218 397.141C343.787 397.141 341.937 395.416 341.937 392.687C341.937 389.975 343.85 388.265 346.281 388.265C348.727 388.265 350.624 389.975 350.624 392.687ZM343.395 392.687C343.395 394.867 344.728 395.887 346.218 395.887C347.708 395.887 349.166 394.867 349.166 392.687C349.166 390.523 347.739 389.504 346.265 389.504C344.759 389.504 343.395 390.523 343.395 392.687ZM358.789 397V392.139C358.789 390.382 357.833 389.488 356.39 389.488C354.931 389.488 353.928 390.398 353.928 392.248V397H352.501V388.406H353.928V389.63C354.492 388.736 355.527 388.25 356.688 388.25C358.679 388.25 360.201 389.473 360.201 391.935V397H358.789ZM361.512 388.406H363.049L365.731 395.683L368.397 388.406H369.918L366.546 397H364.884L361.512 388.406ZM374.976 389.473C373.58 389.473 372.42 390.398 372.263 392.076H377.689C377.705 390.398 376.45 389.473 374.976 389.473ZM378.99 394.35C378.551 395.918 377.171 397.141 375.039 397.141C372.592 397.141 370.789 395.416 370.789 392.687C370.789 389.975 372.53 388.265 375.039 388.265C377.532 388.265 379.163 390.022 379.163 392.374C379.163 392.687 379.147 392.938 379.116 393.236H372.247C372.357 394.977 373.58 395.934 375.039 395.934C376.325 395.934 377.14 395.275 377.454 394.35H378.99ZM382.474 392.327V397H381.047V388.406H382.474V389.802C382.96 388.845 383.885 388.25 385.249 388.25V389.724H384.873C383.509 389.724 382.474 390.335 382.474 392.327ZM393.075 394.663C393.075 396.075 391.836 397.141 389.939 397.141C387.932 397.141 386.52 396.043 386.426 394.475H387.9C387.979 395.306 388.716 395.934 389.923 395.934C391.052 395.934 391.68 395.369 391.68 394.663C391.68 392.75 386.599 393.864 386.599 390.665C386.599 389.347 387.838 388.265 389.751 388.265C391.648 388.265 392.903 389.285 392.997 390.962H391.57C391.507 390.1 390.848 389.473 389.704 389.473C388.653 389.473 388.026 389.975 388.026 390.665C388.026 392.703 393.013 391.59 393.075 394.663ZM395.09 397V388.406H396.517V397H395.09ZM395.827 387.011C395.278 387.011 394.855 386.587 394.855 386.038C394.855 385.49 395.278 385.066 395.827 385.066C396.344 385.066 396.768 385.49 396.768 386.038C396.768 386.587 396.344 387.011 395.827 387.011ZM407.104 392.687C407.104 395.416 405.143 397.141 402.697 397.141C400.266 397.141 398.416 395.416 398.416 392.687C398.416 389.975 400.329 388.265 402.76 388.265C405.206 388.265 407.104 389.975 407.104 392.687ZM399.874 392.687C399.874 394.867 401.207 395.887 402.697 395.887C404.187 395.887 405.645 394.867 405.645 392.687C405.645 390.523 404.218 389.504 402.744 389.504C401.239 389.504 399.874 390.523 399.874 392.687ZM415.268 397V392.139C415.268 390.382 414.312 389.488 412.869 389.488C411.41 389.488 410.407 390.398 410.407 392.248V397H408.98V388.406H410.407V389.63C410.971 388.736 412.006 388.25 413.167 388.25C415.158 388.25 416.68 389.473 416.68 391.935V397H415.268Z" fill="black"/>
<path d="M251.394 399.394C251.059 399.729 251.059 400.271 251.394 400.606C251.729 400.941 252.271 400.941 252.606 400.606L252 400L251.394 399.394ZM262 390L262.549 389.342L261.947 388.84L261.394 389.394L262 390ZM267.143 394.286L266.594 394.944L267.195 395.445L267.749 394.892L267.143 394.286ZM278.286 384C278.286 383.527 277.902 383.143 277.429 383.143H269.714C269.241 383.143 268.857 383.527 268.857 384C268.857 384.473 269.241 384.857 269.714 384.857H276.571V391.714C276.571 392.188 276.955 392.571 277.429 392.571C277.902 392.571 278.286 392.188 278.286 391.714V384ZM252 400L252.606 400.606L262.606 390.606L262 390L261.394 389.394L251.394 399.394L252 400ZM262 390L261.451 390.658L266.594 394.944L267.143 394.286L267.692 393.627L262.549 389.342L262 390ZM267.143 394.286L267.749 394.892L278.035 384.606L277.429 384L276.822 383.394L266.537 393.68L267.143 394.286Z" fill="#FC5200"/>
<defs>
<filter id="filter0_d_72_1049" x="240" y="365" width="191" height="54" filterUnits="userSpaceOnUse" color-interpolation-filters="sRGB">
<feFlood flood-opacity="0" result="BackgroundImageFix"/>
<feColorMatrix in="SourceAlpha" type="matrix" values="0 0 0 0 0 0 0 0 0 0 0 0 0 0 0 0 0 0 127 0" result="hardAlpha"/>
<feOffset/>
<feGaussianBlur stdDeviation="2"/>
<feComposite in2="hardAlpha" operator="out"/>
<feColorMatrix type="matrix" values="0 0 0 0 0 0 0 0 0 0 0 0 0 0 0 0 0 0 0.25 0"/>
<feBlend mode="normal" in2="BackgroundImageFix" result="effect1_dropShadow_72_1049"/>
<feBlend mode="normal" in="SourceGraphic" in2="effect1_dropShadow_72_1049" result="shape"/>
</filter>
</defs>
</svg>
