<svg width="688" height="503" viewBox="0 0 688 503" fill="none" xmlns="http://www.w3.org/2000/svg">
<rect width="687.5" height="503" rx="46.4547" fill="white"/>
<rect x="3.4594" y="3.4594" width="680.581" height="496.081" rx="42.9953" stroke="black" stroke-opacity="0.1" stroke-width="6.91879"/>
<rect x="132.154" y="151.715" width="422.693" height="27.4919" fill="#FC5A0C"/>
<rect x="167.128" y="190.407" width="352.743" height="27.4919" fill="#FC5A0C"/>
<rect x="261.06" y="237.245" width="165.879" height="27.4919" fill="#FC5A0C"/>
<rect x="59.207" y="298.338" width="125.908" height="182.261" fill="#FFCC00"/>
<rect x="205.101" y="298.338" width="125.908" height="182.261" fill="#FC5A0C"/>
<rect x="352.993" y="298.338" width="125.908" height="182.261" fill="#FC5A0C"/>
<rect x="501.885" y="298.338" width="125.908" height="182.261" fill="#FC5A0C"/>
<g filter="url(#filter0_d_72_889)">
<rect x="415.385" y="202.494" width="173.406" height="30.5297" rx="4.91972" fill="white" stroke="#E5E5E5" stroke-width="1.22993"/>
<g filter="url(#filter1_di_72_889)">
<path d="M463.505 222V213.513H465.007L467.986 220.168L470.954 213.513H472.444V222H471.052V216.187L468.463 222H467.498L464.897 216.187V222H463.505ZM480.685 218.63C480.685 220.742 479.121 222.11 477.192 222.11C475.275 222.11 473.822 220.742 473.822 218.63C473.822 216.517 475.336 215.161 477.253 215.161C479.17 215.161 480.685 216.517 480.685 218.63ZM475.238 218.63C475.238 220.156 476.142 220.901 477.192 220.901C478.23 220.901 479.256 220.156 479.256 218.63C479.256 217.103 478.267 216.37 477.229 216.37C476.178 216.37 475.238 217.103 475.238 218.63ZM481.597 218.605C481.597 216.529 483.001 215.161 484.784 215.161C485.663 215.161 486.591 215.577 487.104 216.212V212.963H488.509V222H487.104V220.986C486.677 221.597 485.871 222.11 484.772 222.11C483.001 222.11 481.597 220.681 481.597 218.605ZM487.104 218.63C487.104 217.189 486.115 216.37 485.065 216.37C484.027 216.37 483.025 217.152 483.025 218.605C483.025 220.058 484.027 220.901 485.065 220.901C486.115 220.901 487.104 220.083 487.104 218.63ZM490.337 222V215.271H491.729V222H490.337ZM491.045 214.38C490.545 214.38 490.154 213.989 490.154 213.488C490.154 212.988 490.545 212.597 491.045 212.597C491.534 212.597 491.925 212.988 491.925 213.488C491.925 213.989 491.534 214.38 491.045 214.38ZM493.728 222V216.407H492.934V215.271H493.728V214.795C493.728 213.244 494.522 212.573 496.28 212.573V213.733C495.425 213.733 495.132 214.026 495.132 214.795V215.271H496.378V216.407H495.132V222H493.728ZM497.612 222V215.271H499.004V222H497.612ZM498.32 214.38C497.819 214.38 497.428 213.989 497.428 213.488C497.428 212.988 497.819 212.597 498.32 212.597C498.808 212.597 499.199 212.988 499.199 213.488C499.199 213.989 498.808 214.38 498.32 214.38ZM503.665 216.334C502.724 216.334 501.967 216.969 501.821 218.031H505.545C505.521 216.993 504.703 216.334 503.665 216.334ZM506.815 219.997C506.437 221.17 505.374 222.11 503.726 222.11C501.796 222.11 500.367 220.742 500.367 218.63C500.367 216.517 501.735 215.161 503.726 215.161C505.643 215.161 506.998 216.493 506.998 218.471C506.998 218.703 506.986 218.923 506.95 219.155H501.808C501.906 220.266 502.7 220.938 503.726 220.938C504.581 220.938 505.057 220.522 505.313 219.997H506.815ZM509.761 218.459V222H508.368V215.271H509.761V216.248C510.151 215.577 510.823 215.161 511.776 215.161V216.602H511.421C510.396 216.602 509.761 217.03 509.761 218.459ZM516.227 222V212.963H517.62V222H516.227ZM522.28 216.334C521.34 216.334 520.583 216.969 520.436 218.031H524.161C524.137 216.993 523.318 216.334 522.28 216.334ZM525.431 219.997C525.052 221.17 523.99 222.11 522.341 222.11C520.412 222.11 518.983 220.742 518.983 218.63C518.983 216.517 520.351 215.161 522.341 215.161C524.259 215.161 525.614 216.493 525.614 218.471C525.614 218.703 525.602 218.923 525.565 219.155H520.424C520.522 220.266 521.316 220.938 522.341 220.938C523.196 220.938 523.673 220.522 523.929 219.997H525.431ZM535.542 222V218.288H531.549V222H530.156V213.513H531.549V217.152H535.542V213.513H536.934V222H535.542ZM539.536 222V214.368H538.4V213.098H540.94V222H539.536Z" fill="#0B0B0B"/>
</g>
</g>
<g filter="url(#filter2_di_72_889)">
<path d="M383.228 173.683L396.245 202.426C396.454 202.818 396.782 203.135 397.181 203.33C397.581 203.525 398.032 203.589 398.47 203.513C398.908 203.437 399.311 203.225 399.622 202.906C399.932 202.588 400.134 202.18 400.199 201.74L402.474 190.492L413.74 188.199C414.181 188.137 414.591 187.937 414.912 187.628C415.233 187.319 415.448 186.916 415.526 186.477C415.604 186.039 415.541 185.586 415.347 185.186C415.153 184.785 414.837 184.455 414.444 184.245L385.683 171.228C385.34 171.037 384.944 170.963 384.555 171.017C384.167 171.072 383.806 171.251 383.529 171.529C383.251 171.806 383.072 172.167 383.017 172.555C382.963 172.944 383.037 173.34 383.228 173.683Z" fill="#34C759"/>
<path d="M383.228 173.683L396.245 202.426C396.454 202.818 396.782 203.135 397.181 203.33C397.581 203.525 398.032 203.589 398.47 203.513C398.908 203.437 399.311 203.225 399.622 202.906C399.932 202.588 400.134 202.18 400.199 201.74L402.474 190.492L413.74 188.199C414.181 188.137 414.591 187.937 414.912 187.628C415.233 187.319 415.448 186.916 415.526 186.477C415.604 186.039 415.541 185.586 415.347 185.186C415.153 184.785 414.837 184.455 414.444 184.245L385.683 171.228C385.34 171.037 384.944 170.963 384.555 171.017C384.167 171.072 383.806 171.251 383.529 171.529C383.251 171.806 383.072 172.167 383.017 172.555C382.963 172.944 383.037 173.34 383.228 173.683Z" stroke="#20A441" stroke-width="1.40825" stroke-linecap="round" stroke-linejoin="round"/>
</g>
<g filter="url(#filter3_d_72_889)">
<rect x="205.385" y="307.022" width="173.406" height="30.5297" rx="4.91972" fill="white" stroke="#E5E5E5" stroke-width="1.22993"/>
<g filter="url(#filter4_di_72_889)">
<path d="M236.368 326.527V318.04H237.87L240.849 324.696L243.817 318.04H245.307V326.527H243.915V320.715L241.326 326.527H240.361L237.76 320.715V326.527H236.368ZM253.548 323.157C253.548 325.27 251.984 326.637 250.055 326.637C248.138 326.637 246.685 325.27 246.685 323.157C246.685 321.044 248.199 319.689 250.116 319.689C252.033 319.689 253.548 321.044 253.548 323.157ZM248.101 323.157C248.101 324.683 249.005 325.428 250.055 325.428C251.093 325.428 252.119 324.683 252.119 323.157C252.119 321.63 251.13 320.898 250.092 320.898C249.041 320.898 248.101 321.63 248.101 323.157ZM254.46 323.132C254.46 321.056 255.864 319.689 257.647 319.689C258.526 319.689 259.454 320.104 259.967 320.739V317.491H261.372V326.527H259.967V325.514C259.54 326.124 258.734 326.637 257.635 326.637C255.864 326.637 254.46 325.208 254.46 323.132ZM259.967 323.157C259.967 321.716 258.978 320.898 257.928 320.898C256.89 320.898 255.889 321.679 255.889 323.132C255.889 324.586 256.89 325.428 257.928 325.428C258.978 325.428 259.967 324.61 259.967 323.157ZM263.2 326.527V319.799H264.592V326.527H263.2ZM263.908 318.907C263.408 318.907 263.017 318.516 263.017 318.016C263.017 317.515 263.408 317.124 263.908 317.124C264.397 317.124 264.788 317.515 264.788 318.016C264.788 318.516 264.397 318.907 263.908 318.907ZM266.591 326.527V320.934H265.797V319.799H266.591V319.322C266.591 317.772 267.385 317.1 269.143 317.1V318.26C268.288 318.26 267.995 318.553 267.995 319.322V319.799H269.241V320.934H267.995V326.527H266.591ZM270.475 326.527V319.799H271.867V326.527H270.475ZM271.183 318.907C270.682 318.907 270.291 318.516 270.291 318.016C270.291 317.515 270.682 317.124 271.183 317.124C271.671 317.124 272.062 317.515 272.062 318.016C272.062 318.516 271.671 318.907 271.183 318.907ZM276.528 320.861C275.587 320.861 274.83 321.496 274.684 322.559H278.408C278.384 321.521 277.566 320.861 276.528 320.861ZM279.678 324.525C279.3 325.697 278.237 326.637 276.589 326.637C274.659 326.637 273.231 325.27 273.231 323.157C273.231 321.044 274.598 319.689 276.589 319.689C278.506 319.689 279.861 321.02 279.861 322.998C279.861 323.23 279.849 323.45 279.813 323.682H274.672C274.769 324.793 275.563 325.465 276.589 325.465C277.444 325.465 277.92 325.05 278.176 324.525H279.678ZM282.624 322.986V326.527H281.231V319.799H282.624V320.776C283.014 320.104 283.686 319.689 284.639 319.689V321.13H284.284C283.259 321.13 282.624 321.557 282.624 322.986ZM289.09 326.527V317.491H290.483V326.527H289.09ZM291.846 323.132C291.846 321.056 293.251 319.689 295.021 319.689C296.157 319.689 296.939 320.226 297.354 320.776V319.799H298.758V326.527H297.354V325.526C296.926 326.1 296.12 326.637 294.997 326.637C293.251 326.637 291.846 325.208 291.846 323.132ZM297.354 323.157C297.354 321.716 296.365 320.898 295.314 320.898C294.276 320.898 293.275 321.679 293.275 323.132C293.275 324.586 294.276 325.428 295.314 325.428C296.365 325.428 297.354 324.61 297.354 323.157ZM303.295 323.157C303.295 321.056 304.662 319.689 306.592 319.689C308.241 319.689 309.315 320.507 309.694 321.924H308.192C307.96 321.276 307.422 320.861 306.592 320.861C305.468 320.861 304.724 321.691 304.724 323.157C304.724 324.635 305.468 325.465 306.592 325.465C307.422 325.465 307.935 325.099 308.192 324.403H309.694C309.315 325.721 308.241 326.637 306.592 326.637C304.662 326.637 303.295 325.27 303.295 323.157ZM317.492 323.157C317.492 325.27 315.929 326.637 314 326.637C312.082 326.637 310.629 325.27 310.629 323.157C310.629 321.044 312.144 319.689 314.061 319.689C315.978 319.689 317.492 321.044 317.492 323.157ZM312.046 323.157C312.046 324.683 312.949 325.428 314 325.428C315.038 325.428 316.063 324.683 316.063 323.157C316.063 321.63 315.074 320.898 314.036 320.898C312.986 320.898 312.046 321.63 312.046 323.157ZM324.962 319.799V326.527H323.57V325.721C323.13 326.295 322.373 326.625 321.579 326.625C320.004 326.625 318.807 325.636 318.807 323.755V319.799H320.187V323.548C320.187 324.781 320.859 325.416 321.873 325.416C322.898 325.416 323.57 324.781 323.57 323.548V319.799H324.962ZM326.799 326.527V317.491H328.191V326.527H326.799ZM332.852 320.861C331.912 320.861 331.155 321.496 331.008 322.559H334.733C334.708 321.521 333.89 320.861 332.852 320.861ZM336.003 324.525C335.624 325.697 334.562 326.637 332.913 326.637C330.984 326.637 329.555 325.27 329.555 323.157C329.555 321.044 330.923 319.689 332.913 319.689C334.83 319.689 336.186 321.02 336.186 322.998C336.186 323.23 336.174 323.45 336.137 323.682H330.996C331.093 324.793 331.887 325.465 332.913 325.465C333.768 325.465 334.244 325.05 334.501 324.525H336.003ZM343.649 319.799V326.527H342.257V325.721C341.818 326.295 341.061 326.625 340.267 326.625C338.691 326.625 337.495 325.636 337.495 323.755V319.799H338.875V323.548C338.875 324.781 339.546 325.416 340.56 325.416C341.586 325.416 342.257 324.781 342.257 323.548V319.799H343.649ZM346.878 322.986V326.527H345.486V319.799H346.878V320.776C347.269 320.104 347.941 319.689 348.893 319.689V321.13H348.539C347.513 321.13 346.878 321.557 346.878 322.986Z" fill="#0B0B0B"/>
</g>
</g>
<g filter="url(#filter5_di_72_889)">
<path d="M176.549 370.013L204.571 355.509C204.952 355.28 205.251 354.936 205.425 354.527C205.599 354.118 205.639 353.664 205.541 353.23C205.442 352.797 205.208 352.405 204.874 352.112C204.54 351.819 204.122 351.638 203.679 351.597L192.327 349.914L189.448 338.783C189.363 338.346 189.142 337.946 188.816 337.642C188.491 337.338 188.077 337.144 187.635 337.089C187.193 337.034 186.745 337.121 186.354 337.336C185.964 337.551 185.652 337.884 185.462 338.287L173.968 367.69C173.796 368.042 173.743 368.441 173.817 368.827C173.892 369.212 174.09 369.562 174.382 369.825C174.673 370.088 175.043 370.248 175.434 370.282C175.825 370.316 176.216 370.222 176.549 370.013Z" fill="#34C759"/>
<path d="M176.549 370.013L204.571 355.509C204.952 355.28 205.251 354.936 205.425 354.527C205.599 354.118 205.639 353.664 205.541 353.23C205.442 352.797 205.208 352.405 204.874 352.112C204.54 351.819 204.122 351.638 203.679 351.597L192.327 349.914L189.448 338.783C189.363 338.346 189.142 337.946 188.816 337.642C188.491 337.338 188.077 337.144 187.635 337.089C187.193 337.034 186.745 337.121 186.354 337.336C185.964 337.551 185.652 337.884 185.462 338.287L173.968 367.69C173.796 368.042 173.743 368.441 173.817 368.827C173.892 369.212 174.09 369.562 174.382 369.825C174.673 370.088 175.043 370.248 175.434 370.282C175.825 370.316 176.216 370.222 176.549 370.013Z" stroke="#20A441" stroke-width="1.40825" stroke-linecap="round" stroke-linejoin="round"/>
</g>
<defs>
<filter id="filter0_d_72_889" x="397.325" y="187.923" width="209.527" height="66.6504" filterUnits="userSpaceOnUse" color-interpolation-filters="sRGB">
<feFlood flood-opacity="0" result="BackgroundImageFix"/>
<feColorMatrix in="SourceAlpha" type="matrix" values="0 0 0 0 0 0 0 0 0 0 0 0 0 0 0 0 0 0 127 0" result="hardAlpha"/>
<feOffset dy="3.48907"/>
<feGaussianBlur stdDeviation="8.72267"/>
<feComposite in2="hardAlpha" operator="out"/>
<feColorMatrix type="matrix" values="0 0 0 0 0.760949 0 0 0 0 0.255482 0 0 0 0 0.00898882 0 0 0 0.25 0"/>
<feBlend mode="normal" in2="BackgroundImageFix" result="effect1_dropShadow_72_889"/>
<feBlend mode="normal" in="SourceGraphic" in2="effect1_dropShadow_72_889" result="shape"/>
</filter>
<filter id="filter1_di_72_889" x="462.275" y="211.958" width="79.8957" height="11.9972" filterUnits="userSpaceOnUse" color-interpolation-filters="sRGB">
<feFlood flood-opacity="0" result="BackgroundImageFix"/>
<feColorMatrix in="SourceAlpha" type="matrix" values="0 0 0 0 0 0 0 0 0 0 0 0 0 0 0 0 0 0 127 0" result="hardAlpha"/>
<feOffset dy="0.614965"/>
<feGaussianBlur stdDeviation="0.614965"/>
<feComposite in2="hardAlpha" operator="out"/>
<feColorMatrix type="matrix" values="0 0 0 0 0 0 0 0 0 0 0 0 0 0 0 0 0 0 0.25 0"/>
<feBlend mode="normal" in2="BackgroundImageFix" result="effect1_dropShadow_72_889"/>
<feBlend mode="normal" in="SourceGraphic" in2="effect1_dropShadow_72_889" result="shape"/>
<feColorMatrix in="SourceAlpha" type="matrix" values="0 0 0 0 0 0 0 0 0 0 0 0 0 0 0 0 0 0 127 0" result="hardAlpha"/>
<feOffset dy="0.614965"/>
<feGaussianBlur stdDeviation="0.614965"/>
<feComposite in2="hardAlpha" operator="arithmetic" k2="-1" k3="1"/>
<feColorMatrix type="matrix" values="0 0 0 0 1 0 0 0 0 1 0 0 0 0 1 0 0 0 0.25 0"/>
<feBlend mode="normal" in2="shape" result="effect2_innerShadow_72_889"/>
</filter>
<filter id="filter2_di_72_889" x="372.43" y="162.403" width="53.6996" height="53.6852" filterUnits="userSpaceOnUse" color-interpolation-filters="sRGB">
<feFlood flood-opacity="0" result="BackgroundImageFix"/>
<feColorMatrix in="SourceAlpha" type="matrix" values="0 0 0 0 0 0 0 0 0 0 0 0 0 0 0 0 0 0 127 0" result="hardAlpha"/>
<feOffset dy="1.97325"/>
<feGaussianBlur stdDeviation="4.93314"/>
<feComposite in2="hardAlpha" operator="out"/>
<feColorMatrix type="matrix" values="0 0 0 0 0.988235 0 0 0 0 0.321569 0 0 0 0 0 0 0 0 0.3 0"/>
<feBlend mode="normal" in2="BackgroundImageFix" result="effect1_dropShadow_72_889"/>
<feBlend mode="normal" in="SourceGraphic" in2="effect1_dropShadow_72_889" result="shape"/>
<feColorMatrix in="SourceAlpha" type="matrix" values="0 0 0 0 0 0 0 0 0 0 0 0 0 0 0 0 0 0 127 0" result="hardAlpha"/>
<feOffset dy="2.05821"/>
<feGaussianBlur stdDeviation="0.452264"/>
<feComposite in2="hardAlpha" operator="arithmetic" k2="-1" k3="1"/>
<feColorMatrix type="matrix" values="0 0 0 0 1 0 0 0 0 1 0 0 0 0 1 0 0 0 0.25 0"/>
<feBlend mode="normal" in2="shape" result="effect2_innerShadow_72_889"/>
</filter>
<filter id="filter3_d_72_889" x="187.325" y="292.45" width="209.527" height="66.6504" filterUnits="userSpaceOnUse" color-interpolation-filters="sRGB">
<feFlood flood-opacity="0" result="BackgroundImageFix"/>
<feColorMatrix in="SourceAlpha" type="matrix" values="0 0 0 0 0 0 0 0 0 0 0 0 0 0 0 0 0 0 127 0" result="hardAlpha"/>
<feOffset dy="3.48907"/>
<feGaussianBlur stdDeviation="8.72267"/>
<feComposite in2="hardAlpha" operator="out"/>
<feColorMatrix type="matrix" values="0 0 0 0 0.760949 0 0 0 0 0.255482 0 0 0 0 0.00898882 0 0 0 0.25 0"/>
<feBlend mode="normal" in2="BackgroundImageFix" result="effect1_dropShadow_72_889"/>
<feBlend mode="normal" in="SourceGraphic" in2="effect1_dropShadow_72_889" result="shape"/>
</filter>
<filter id="filter4_di_72_889" x="235.138" y="316.485" width="114.985" height="11.9972" filterUnits="userSpaceOnUse" color-interpolation-filters="sRGB">
<feFlood flood-opacity="0" result="BackgroundImageFix"/>
<feColorMatrix in="SourceAlpha" type="matrix" values="0 0 0 0 0 0 0 0 0 0 0 0 0 0 0 0 0 0 127 0" result="hardAlpha"/>
<feOffset dy="0.614965"/>
<feGaussianBlur stdDeviation="0.614965"/>
<feComposite in2="hardAlpha" operator="out"/>
<feColorMatrix type="matrix" values="0 0 0 0 0 0 0 0 0 0 0 0 0 0 0 0 0 0 0.25 0"/>
<feBlend mode="normal" in2="BackgroundImageFix" result="effect1_dropShadow_72_889"/>
<feBlend mode="normal" in="SourceGraphic" in2="effect1_dropShadow_72_889" result="shape"/>
<feColorMatrix in="SourceAlpha" type="matrix" values="0 0 0 0 0 0 0 0 0 0 0 0 0 0 0 0 0 0 127 0" result="hardAlpha"/>
<feOffset dy="0.614965"/>
<feGaussianBlur stdDeviation="0.614965"/>
<feComposite in2="hardAlpha" operator="arithmetic" k2="-1" k3="1"/>
<feColorMatrix type="matrix" values="0 0 0 0 1 0 0 0 0 1 0 0 0 0 1 0 0 0 0.25 0"/>
<feBlend mode="normal" in2="shape" result="effect2_innerShadow_72_889"/>
</filter>
<filter id="filter5_di_72_889" x="163.214" y="328.476" width="52.9498" height="54.3563" filterUnits="userSpaceOnUse" color-interpolation-filters="sRGB">
<feFlood flood-opacity="0" result="BackgroundImageFix"/>
<feColorMatrix in="SourceAlpha" type="matrix" values="0 0 0 0 0 0 0 0 0 0 0 0 0 0 0 0 0 0 127 0" result="hardAlpha"/>
<feOffset dy="1.97325"/>
<feGaussianBlur stdDeviation="4.93314"/>
<feComposite in2="hardAlpha" operator="out"/>
<feColorMatrix type="matrix" values="0 0 0 0 0.988235 0 0 0 0 0.321569 0 0 0 0 0 0 0 0 0.3 0"/>
<feBlend mode="normal" in2="BackgroundImageFix" result="effect1_dropShadow_72_889"/>
<feBlend mode="normal" in="SourceGraphic" in2="effect1_dropShadow_72_889" result="shape"/>
<feColorMatrix in="SourceAlpha" type="matrix" values="0 0 0 0 0 0 0 0 0 0 0 0 0 0 0 0 0 0 127 0" result="hardAlpha"/>
<feOffset dy="2.05821"/>
<feGaussianBlur stdDeviation="0.452264"/>
<feComposite in2="hardAlpha" operator="arithmetic" k2="-1" k3="1"/>
<feColorMatrix type="matrix" values="0 0 0 0 1 0 0 0 0 1 0 0 0 0 1 0 0 0 0.25 0"/>
<feBlend mode="normal" in2="shape" result="effect2_innerShadow_72_889"/>
</filter>
</defs>
</svg>
