<svg xmlns="http://www.w3.org/2000/svg" fill="none" viewBox="0 0 2152 294" height="294" width="2152">
<g clip-path="url(#clip0_680_1982)">
<path fill="black" d="M31.6602 81.46H66.9102V57.5H31.6602V46.9H78.1902V20.81H41.2102C44.3802 14.55 46.1902 7.48 46.1902 0H20.0402C20.0402 11.05 11.0402 20.05 -0.00976562 20.05V46.2V119.52H79.6302V93.43H31.6602V81.46Z"></path>
<path fill="black" d="M159.88 68.8L122.58 20.82H95.79V119.53H127.46V71.61L164.84 119.53H191.61V20.82H159.88V68.8Z"></path>
<path fill="black" d="M244.38 81.46H279.63V57.51H244.38V46.91H290.92V20.82H212.72V119.53H292.36V93.44H244.38V81.46Z"></path>
<path fill="black" d="M380.51 84.01C381.66 83.46 382.97 82.43 384.47 80.91C385.96 79.39 387.47 77.59 388.98 75.47C390.5 73.35 391.79 70.58 392.86 67.14C393.94 63.69 394.48 60.01 394.48 56.06C394.48 46 391.03 37.63 384.13 30.89C377.22 24.16 368.21 20.81 357.11 20.81H308.51V119.52H340.17V91.29H350.08L364.88 119.52H397.99L379 84.97L380.52 84.01H380.53H380.51ZM360.7 61.26C359.32 62.52 357.41 63.15 354.99 63.15H340.19V49.04H354.99C357.47 49.04 359.38 49.67 360.74 50.93C362.1 52.19 362.77 53.92 362.77 56.09C362.77 58.26 362.09 59.99 360.7 61.25V61.26Z"></path>
<path fill="black" d="M460.69 81.46H474.8V89.92L473.57 91.02C472.61 91.7 471.02 92.4 468.82 93.09C466.62 93.77 464.17 94.12 461.45 94.12C454.75 94.12 449.07 91.79 444.41 87.14C439.76 82.49 437.43 76.82 437.43 70.18C437.43 63.54 439.78 57.76 444.49 53.14C449.19 48.52 455.08 46.22 462.15 46.22C464.76 46.22 467.36 46.62 469.97 47.43C472.56 48.23 474.71 49.12 476.4 50.12C478.09 51.1 479.71 52.26 481.25 53.57C482.79 54.88 483.8 55.8 484.27 56.32C484.76 56.84 485.13 57.25 485.4 57.53L504.39 37.78L502.87 35.79C501.72 34.41 499.93 32.77 497.51 30.84C495.09 28.91 492.26 26.98 489.05 25.05C485.84 23.12 481.78 21.47 476.87 20.1C471.95 18.73 466.81 18.03 461.45 18.03C445.76 18.03 432.55 23.16 421.84 33.41C411.12 43.67 405.77 55.92 405.77 70.2C405.77 84.48 411.12 96.73 421.84 106.99C432.56 117.25 445.76 122.37 461.45 122.37C466.81 122.37 472.09 121.67 477.24 120.27C482.4 118.86 486.6 117.3 489.83 115.55C493.06 113.8 496.12 111.8 498.99 109.53C501.86 107.25 503.72 105.67 504.57 104.78C505.42 103.88 506.08 103.16 506.54 102.61V63.85H460.7V81.47H460.69V81.46Z"></path>
<path fill="black" d="M557.16 20.82H525.5V119.53H557.16V20.82Z"></path>
<path fill="black" d="M610.02 81.46H645.27V57.51H610.02V46.91H656.56V20.82H578.36V119.53H658V93.44H610.02V81.46Z"></path>
<path fill="black" d="M704.44 119.53H736.1V88.48H772.1V61.02H736.1V48.35H783.32V20.82H704.44V119.53Z"></path>
<path fill="black" d="M870.1 84.01C871.24 83.46 872.56 82.43 874.06 80.91C875.55 79.39 877.06 77.59 878.57 75.47C880.08 73.35 881.38 70.58 882.45 67.14C883.53 63.69 884.07 60.01 884.07 56.06C884.07 46 880.62 37.63 873.72 30.89C866.81 24.17 857.8 20.81 846.7 20.81H798.1V119.52H829.76V91.29H839.68L854.48 119.52H887.59L868.6 84.97L870.12 84.01H870.1ZM850.27 61.26C848.89 62.52 846.98 63.15 844.56 63.15H829.76V49.04H844.56C847.04 49.04 848.95 49.67 850.31 50.93C851.67 52.19 852.34 53.92 852.34 56.09C852.34 58.26 851.66 59.99 850.27 61.25V61.26Z"></path>
<path fill="black" d="M960.87 77.95C960.87 82.44 959.39 86.26 956.43 89.41C953.47 92.56 950.02 94.13 946.08 94.13C942.14 94.13 938.69 92.56 935.73 89.41C932.77 86.26 931.29 82.44 931.29 77.95V20.81H899.55V77.95C899.55 90.71 903.89 101.3 912.59 109.71C921.29 118.14 932.45 122.34 946.08 122.34C959.71 122.34 970.87 118.15 979.57 109.75C988.27 101.35 992.61 90.76 992.61 77.95V20.81H960.87V77.95Z"></path>
<path fill="black" d="M1043.93 20.82H1012.27V119.53H1043.93V20.82Z"></path>
<path fill="black" d="M1057.34 20.82V49.73H1083.43V119.53H1115.15V49.73H1141.25V20.82H1057.34Z"></path>
<path fill="black" d="M2151.12 20.18H1198.81V121.29H2151.12V20.18Z"></path>
<path fill="white" d="M1263.92 92.98V50.7117H1275.87V92.98H1263.92ZM1235.66 92.98V50.7117H1247.61V92.98H1235.66ZM1246.77 76.4953V66.5925H1264.76V76.4953H1246.77Z"></path>
<path fill="white" d="M1284.59 92.98L1303.25 50.7117H1315.03L1333.75 92.98H1321.31L1306.69 56.5688H1311.4L1296.79 92.98H1284.59ZM1294.8 84.7679L1297.88 75.9519H1318.53L1321.61 84.7679H1294.8Z"></path>
<path fill="white" d="M1343.77 92.98V50.7117H1355.72V92.98H1343.77Z"></path>
<path fill="white" d="M1370.87 92.98V50.7117H1389.77C1395.93 50.7117 1400.66 52.1206 1403.96 54.9385C1407.3 57.7161 1408.97 61.5203 1408.97 66.3509C1408.97 69.5311 1408.2 72.2886 1406.67 74.6235C1405.14 76.918 1402.97 78.6893 1400.15 79.9372C1397.37 81.1449 1394.05 81.7487 1390.19 81.7487H1377.51L1382.82 76.7369V92.98H1370.87ZM1397.01 92.98L1386.51 77.5822H1399.25L1409.81 92.98H1397.01ZM1382.82 78.0049L1377.51 72.51H1389.46C1391.96 72.51 1393.81 71.9666 1395.02 70.8797C1396.27 69.7928 1396.89 68.2832 1396.89 66.3509C1396.89 64.3784 1396.27 62.8487 1395.02 61.7618C1393.81 60.6749 1391.96 60.1315 1389.46 60.1315H1377.51L1382.82 54.6366V78.0049Z"></path>
<path fill="white" d="M1441.62 93.8254C1438.28 93.8254 1435.18 93.302 1432.32 92.2554C1429.5 91.1685 1427.05 89.6388 1424.95 87.6663C1422.9 85.6937 1421.29 83.379 1420.12 80.7222C1418.96 78.0251 1418.37 75.0663 1418.37 71.8458C1418.37 68.6254 1418.96 65.6867 1420.12 63.0299C1421.29 60.3327 1422.9 57.9979 1424.95 56.0254C1427.05 54.0529 1429.5 52.5433 1432.32 51.4966C1435.18 50.4097 1438.28 49.8663 1441.62 49.8663C1445.53 49.8663 1449.01 50.5506 1452.07 51.9193C1455.17 53.288 1457.74 55.2605 1459.8 57.8369L1452.19 64.7206C1450.82 63.1104 1449.31 61.8826 1447.66 61.0372C1446.05 60.1918 1444.24 59.7692 1442.22 59.7692C1440.49 59.7692 1438.9 60.0509 1437.45 60.6145C1436 61.1781 1434.76 62.0033 1433.71 63.0902C1432.7 64.1369 1431.9 65.4049 1431.29 66.8944C1430.73 68.3838 1430.45 70.0343 1430.45 71.8458C1430.45 73.6573 1430.73 75.3078 1431.29 76.7973C1431.9 78.2867 1432.7 79.5749 1433.71 80.6618C1434.76 81.7084 1436 82.5136 1437.45 83.0771C1438.9 83.6407 1440.49 83.9225 1442.22 83.9225C1444.24 83.9225 1446.05 83.4998 1447.66 82.6544C1449.31 81.8091 1450.82 80.5813 1452.19 78.9711L1459.8 85.8548C1457.74 88.3909 1455.17 90.3634 1452.07 91.7723C1449.01 93.141 1445.53 93.8254 1441.62 93.8254Z"></path>
<path fill="white" d="M1465.85 92.98L1484.51 50.7117H1496.29L1515.01 92.98H1502.57L1487.95 56.5688H1492.66L1478.05 92.98H1465.85ZM1476.06 84.7679L1479.14 75.9519H1499.79L1502.87 84.7679H1476.06Z"></path>
<path fill="white" d="M1518.4 92.98V50.7117H1537.3C1543.46 50.7117 1548.19 52.1206 1551.49 54.9385C1554.83 57.7161 1556.5 61.5203 1556.5 66.3509C1556.5 69.5311 1555.73 72.2886 1554.2 74.6235C1552.67 76.918 1550.5 78.6893 1547.68 79.9372C1544.9 81.1449 1541.58 81.7487 1537.72 81.7487H1525.04L1530.35 76.7369V92.98H1518.4ZM1544.54 92.98L1534.04 77.5822H1546.78L1557.34 92.98H1544.54ZM1530.35 78.0049L1525.04 72.51H1536.99C1539.49 72.51 1541.34 71.9666 1542.55 70.8797C1543.8 69.7928 1544.42 68.2832 1544.42 66.3509C1544.42 64.3784 1543.8 62.8487 1542.55 61.7618C1541.34 60.6749 1539.49 60.1315 1536.99 60.1315H1525.04L1530.35 54.6366V78.0049Z"></path>
<path fill="white" d="M1575.51 92.98V50.7117H1608.66V59.9503H1587.34V83.7413H1609.44V92.98H1575.51ZM1586.5 76.0123V67.0755H1606.12V76.0123H1586.5Z"></path>
<path fill="white" d="M1667.1 93.7046L1641.98 71.3024C1640.61 70.0947 1639.49 68.9273 1638.6 67.8001C1637.76 66.673 1637.11 65.5458 1636.67 64.4187C1636.27 63.2915 1636.06 62.1442 1636.06 60.9768C1636.06 58.803 1636.65 56.911 1637.82 55.3008C1638.98 53.6503 1640.63 52.3823 1642.77 51.4966C1644.9 50.5708 1647.4 50.1078 1650.25 50.1078C1652.87 50.1078 1655.15 50.5104 1657.08 51.3155C1659.05 52.1206 1660.58 53.288 1661.67 54.8177C1662.75 56.3474 1663.3 58.1589 1663.3 60.2522C1663.3 62.104 1662.81 63.7947 1661.85 65.3244C1660.92 66.8541 1659.47 68.2631 1657.5 69.5513C1655.57 70.8394 1653.09 72.1075 1650.07 73.3554C1648.22 74.1203 1646.73 74.8851 1645.61 75.65C1644.52 76.4148 1643.73 77.1998 1643.25 78.0049C1642.77 78.7698 1642.53 79.6554 1642.53 80.6618C1642.53 81.4669 1642.79 82.2116 1643.31 82.896C1643.83 83.5803 1644.58 84.1238 1645.54 84.5263C1646.51 84.8886 1647.66 85.0698 1648.99 85.0698C1651.32 85.0698 1653.48 84.5062 1655.45 83.379C1657.42 82.2116 1659.11 80.5209 1660.52 78.3068C1661.97 76.0928 1662.96 73.4158 1663.48 70.2759L1672.72 73.0535C1671.83 77.1998 1670.22 80.8228 1667.89 83.9225C1665.59 87.0222 1662.75 89.4576 1659.37 91.2289C1656.03 92.9599 1652.29 93.8254 1648.14 93.8254C1644.92 93.8254 1642.04 93.3222 1639.51 92.3158C1636.97 91.2691 1634.96 89.8401 1633.47 88.0286C1632.02 86.2171 1631.29 84.1842 1631.29 81.9298C1631.29 79.7158 1631.78 77.7433 1632.74 76.0123C1633.75 74.2813 1635.28 72.6912 1637.33 71.242C1639.43 69.7928 1642.08 68.404 1645.3 67.0755C1647.44 66.1497 1649.11 65.3244 1650.32 64.5998C1651.52 63.8752 1652.37 63.1909 1652.85 62.5468C1653.37 61.8624 1653.64 61.1781 1653.64 60.4938C1653.64 59.6484 1653.35 58.964 1652.79 58.4407C1652.23 57.9174 1651.38 57.6557 1650.25 57.6557C1649.09 57.6557 1648.16 57.9577 1647.48 58.5615C1646.83 59.1653 1646.51 59.9101 1646.51 60.7957C1646.51 61.319 1646.61 61.8423 1646.81 62.3656C1647.05 62.889 1647.5 63.4928 1648.14 64.1771C1648.83 64.8615 1649.77 65.7471 1650.98 66.834L1673.26 86.6398L1667.1 93.7046Z"></path>
<path fill="white" d="M1721.21 92.98V50.7117H1742.82C1748.38 50.7117 1752.53 51.7382 1755.26 53.7912C1758 55.804 1759.37 58.4609 1759.37 61.7618C1759.37 63.9356 1758.79 65.8477 1757.62 67.4982C1756.49 69.1084 1754.88 70.3966 1752.79 71.3628C1750.73 72.2886 1748.28 72.7516 1745.42 72.7516L1746.63 69.8532C1749.61 69.8532 1752.2 70.3161 1754.42 71.242C1756.63 72.1276 1758.34 73.4359 1759.55 75.1669C1760.8 76.8576 1761.42 78.9308 1761.42 81.3864C1761.42 85.0497 1759.93 87.9078 1756.95 89.9608C1754.01 91.9736 1749.71 92.98 1744.03 92.98H1721.21ZM1733.04 84.3452H1743.07C1745.12 84.3452 1746.67 84.003 1747.71 83.3187C1748.8 82.5941 1749.35 81.5072 1749.35 80.058C1749.35 78.6088 1748.8 77.542 1747.71 76.8576C1746.67 76.133 1745.12 75.7707 1743.07 75.7707H1732.2V67.4982H1741.25C1743.27 67.4982 1744.78 67.1561 1745.78 66.4717C1746.79 65.7874 1747.29 64.7608 1747.29 63.3922C1747.29 62.0235 1746.79 61.0171 1745.78 60.373C1744.78 59.6886 1743.27 59.3465 1741.25 59.3465H1733.04V84.3452Z"></path>
<path fill="white" d="M1793.76 93.8254C1790.38 93.8254 1787.26 93.2819 1784.4 92.195C1781.54 91.1081 1779.05 89.5784 1776.92 87.6059C1774.82 85.5931 1773.19 83.2583 1772.02 80.6014C1770.86 77.9445 1770.27 75.026 1770.27 71.8458C1770.27 68.6656 1770.86 65.7471 1772.02 63.0902C1773.19 60.4334 1774.82 58.1187 1776.92 56.1462C1779.05 54.1334 1781.54 52.5835 1784.4 51.4966C1787.26 50.4097 1790.38 49.8663 1793.76 49.8663C1797.18 49.8663 1800.3 50.4097 1803.12 51.4966C1805.98 52.5835 1808.46 54.1334 1810.55 56.1462C1812.64 58.1187 1814.27 60.4334 1815.44 63.0902C1816.65 65.7471 1817.25 68.6656 1817.25 71.8458C1817.25 75.026 1816.65 77.9647 1815.44 80.6618C1814.27 83.3187 1812.64 85.6334 1810.55 87.6059C1808.46 89.5784 1805.98 91.1081 1803.12 92.195C1800.3 93.2819 1797.18 93.8254 1793.76 93.8254ZM1793.76 83.9225C1795.37 83.9225 1796.86 83.6407 1798.23 83.0771C1799.64 82.5136 1800.85 81.7084 1801.85 80.6618C1802.9 79.5749 1803.71 78.2867 1804.27 76.7973C1804.87 75.3078 1805.17 73.6573 1805.17 71.8458C1805.17 69.9941 1804.87 68.3436 1804.27 66.8944C1803.71 65.4049 1802.9 64.1369 1801.85 63.0902C1800.85 62.0033 1799.64 61.1781 1798.23 60.6145C1796.86 60.0509 1795.37 59.7692 1793.76 59.7692C1792.15 59.7692 1790.64 60.0509 1789.23 60.6145C1787.86 61.1781 1786.66 62.0033 1785.61 63.0902C1784.6 64.1369 1783.8 65.4049 1783.19 66.8944C1782.63 68.3436 1782.35 69.9941 1782.35 71.8458C1782.35 73.6573 1782.63 75.3078 1783.19 76.7973C1783.8 78.2867 1784.6 79.5749 1785.61 80.6618C1786.66 81.7084 1787.86 82.5136 1789.23 83.0771C1790.64 83.6407 1792.15 83.9225 1793.76 83.9225Z"></path>
<path fill="white" d="M1828.8 92.98V50.7117H1848.78C1853.45 50.7117 1857.56 51.5771 1861.1 53.3081C1864.64 55.0391 1867.4 57.4746 1869.37 60.6145C1871.39 63.7545 1872.39 67.4982 1872.39 71.8458C1872.39 76.1532 1871.39 79.8969 1869.37 83.0771C1867.4 86.2171 1864.64 88.6525 1861.1 90.3835C1857.56 92.1145 1853.45 92.98 1848.78 92.98H1828.8ZM1840.75 83.4394H1848.3C1850.72 83.4394 1852.81 82.9966 1854.58 82.111C1856.39 81.1851 1857.8 79.8567 1858.81 78.1257C1859.81 76.3545 1860.32 74.2612 1860.32 71.8458C1860.32 69.3902 1859.81 67.2969 1858.81 65.566C1857.8 63.835 1856.39 62.5267 1854.58 61.641C1852.81 60.7152 1850.72 60.2522 1848.3 60.2522H1840.75V83.4394Z"></path>
<path fill="white" d="M1891.67 92.98V75.1065L1894.45 82.2921L1875.55 50.7117H1888.17L1901.82 73.5969H1894.51L1908.22 50.7117H1919.81L1900.97 82.2921L1903.63 75.1065V92.98H1891.67Z"></path>
<path fill="white" d="M1947.39 93.8254C1944.05 93.8254 1940.95 93.302 1938.09 92.2554C1935.27 91.1685 1932.82 89.6388 1930.72 87.6663C1928.67 85.6937 1927.06 83.379 1925.89 80.7222C1924.73 78.0251 1924.14 75.0663 1924.14 71.8458C1924.14 68.6254 1924.73 65.6867 1925.89 63.0299C1927.06 60.3327 1928.67 57.9979 1930.72 56.0254C1932.82 54.0529 1935.27 52.5433 1938.09 51.4966C1940.95 50.4097 1944.05 49.8663 1947.39 49.8663C1951.3 49.8663 1954.78 50.5506 1957.84 51.9193C1960.94 53.288 1963.51 55.2605 1965.57 57.8369L1957.96 64.7206C1956.59 63.1104 1955.08 61.8826 1953.43 61.0372C1951.82 60.1918 1950.01 59.7692 1947.99 59.7692C1946.26 59.7692 1944.67 60.0509 1943.22 60.6145C1941.77 61.1781 1940.53 62.0033 1939.48 63.0902C1938.47 64.1369 1937.67 65.4049 1937.06 66.8944C1936.5 68.3838 1936.22 70.0343 1936.22 71.8458C1936.22 73.6573 1936.5 75.3078 1937.06 76.7973C1937.67 78.2867 1938.47 79.5749 1939.48 80.6618C1940.53 81.7084 1941.77 82.5136 1943.22 83.0771C1944.67 83.6407 1946.26 83.9225 1947.99 83.9225C1950.01 83.9225 1951.82 83.4998 1953.43 82.6544C1955.08 81.8091 1956.59 80.5813 1957.96 78.9711L1965.57 85.8548C1963.51 88.3909 1960.94 90.3634 1957.84 91.7723C1954.78 93.141 1951.3 93.8254 1947.39 93.8254Z"></path>
<path fill="white" d="M1971.64 92.98L1990.3 50.7117H2002.08L2020.8 92.98H2008.36L1993.74 56.5688H1998.45L1983.84 92.98H1971.64ZM1981.85 84.7679L1984.93 75.9519H2005.58L2008.66 84.7679H1981.85Z"></path>
<path fill="white" d="M2024.19 92.98V50.7117H2043.09C2049.25 50.7117 2053.98 52.1206 2057.28 54.9385C2060.62 57.7161 2062.29 61.5203 2062.29 66.3509C2062.29 69.5311 2061.52 72.2886 2059.99 74.6235C2058.46 76.918 2056.29 78.6893 2053.47 79.9372C2050.69 81.1449 2047.37 81.7487 2043.51 81.7487H2030.83L2036.14 76.7369V92.98H2024.19ZM2050.33 92.98L2039.83 77.5822H2052.57L2063.13 92.98H2050.33ZM2036.14 78.0049L2030.83 72.51H2042.78C2045.28 72.51 2047.13 71.9666 2048.34 70.8797C2049.59 69.7928 2050.21 68.2832 2050.21 66.3509C2050.21 64.3784 2049.59 62.8487 2048.34 61.7618C2047.13 60.6749 2045.28 60.1315 2042.78 60.1315H2030.83L2036.14 54.6366V78.0049Z"></path>
<path fill="white" d="M2081.26 92.98V50.7117H2114.41V59.9503H2093.09V83.7413H2115.19V92.98H2081.26ZM2092.25 76.0123V67.0755H2111.87V76.0123H2092.25Z"></path>
<path fill="black" d="M1319.52 170.04H855.54V271.24H1319.52V170.04Z"></path>
<path fill="white" d="M916.767 243.686C913.302 243.686 909.958 243.263 906.735 242.417C903.552 241.531 900.953 240.403 898.939 239.033L902.867 230.21C904.761 231.418 906.936 232.425 909.394 233.231C911.892 233.997 914.369 234.379 916.827 234.379C918.479 234.379 919.808 234.238 920.816 233.956C921.823 233.634 922.548 233.231 922.991 232.748C923.475 232.224 923.716 231.62 923.716 230.935C923.716 229.968 923.273 229.202 922.387 228.638C921.5 228.074 920.352 227.611 918.942 227.248C917.532 226.886 915.961 226.523 914.228 226.161C912.536 225.798 910.824 225.335 909.092 224.771C907.4 224.207 905.848 223.481 904.438 222.595C903.028 221.668 901.88 220.48 900.994 219.03C900.107 217.539 899.664 215.665 899.664 213.409C899.664 210.871 900.349 208.575 901.719 206.52C903.129 204.465 905.224 202.813 908.004 201.565C910.784 200.316 914.249 199.691 918.398 199.691C921.178 199.691 923.898 200.013 926.557 200.658C929.256 201.262 931.653 202.169 933.748 203.378L930.062 212.261C928.047 211.173 926.053 210.368 924.079 209.844C922.105 209.28 920.191 208.998 918.338 208.998C916.686 208.998 915.356 209.179 914.349 209.542C913.342 209.864 912.617 210.307 912.174 210.871C911.731 211.435 911.509 212.08 911.509 212.805C911.509 213.732 911.932 214.477 912.778 215.041C913.664 215.565 914.813 216.008 916.223 216.371C917.673 216.693 919.244 217.035 920.936 217.398C922.669 217.76 924.381 218.224 926.073 218.788C927.806 219.312 929.377 220.037 930.787 220.963C932.197 221.85 933.325 223.038 934.171 224.529C935.058 225.979 935.501 227.812 935.501 230.028C935.501 232.486 934.796 234.762 933.386 236.857C932.016 238.912 929.941 240.564 927.161 241.813C924.421 243.062 920.957 243.686 916.767 243.686Z"></path>
<path fill="white" d="M958.237 233.473L957.572 220.057L975.762 200.537H988.937L970.807 220.178L964.159 227.128L958.237 233.473ZM947.54 242.84V200.537H959.385V242.84H947.54ZM975.943 242.84L962.165 225.375L969.961 217.035L989.843 242.84H975.943Z"></path>
<path fill="white" d="M999.44 242.84V200.537H1011.41V242.84H999.44Z"></path>
<path fill="white" d="M1026.57 242.84V200.537H1036.42L1059.75 228.699H1055.09V200.537H1066.82V242.84H1056.97L1033.64 214.678H1038.29V242.84H1026.57Z"></path>
<path fill="white" d="M1101.58 243.686C1098.24 243.686 1095.14 243.162 1092.27 242.115C1089.45 241.027 1087 239.496 1084.9 237.522C1082.85 235.548 1081.24 233.231 1080.07 230.572C1078.9 227.873 1078.31 224.912 1078.31 221.689C1078.31 218.466 1078.9 215.524 1080.07 212.865C1081.24 210.166 1082.85 207.829 1084.9 205.855C1087 203.881 1089.45 202.37 1092.27 201.323C1095.14 200.235 1098.24 199.691 1101.58 199.691C1105.49 199.691 1108.97 200.376 1112.04 201.746C1115.14 203.116 1117.72 205.09 1119.77 207.668L1112.16 214.558C1110.79 212.946 1109.28 211.717 1107.62 210.871C1106.01 210.025 1104.2 209.602 1102.19 209.602C1100.45 209.602 1098.86 209.884 1097.41 210.448C1095.96 211.012 1094.71 211.838 1093.66 212.926C1092.66 213.973 1091.85 215.242 1091.25 216.733C1090.68 218.224 1090.4 219.876 1090.4 221.689C1090.4 223.502 1090.68 225.153 1091.25 226.644C1091.85 228.135 1092.66 229.424 1093.66 230.512C1094.71 231.559 1095.96 232.365 1097.41 232.929C1098.86 233.493 1100.45 233.775 1102.19 233.775C1104.2 233.775 1106.01 233.352 1107.62 232.506C1109.28 231.66 1110.79 230.431 1112.16 228.82L1119.77 235.709C1117.72 238.247 1115.14 240.221 1112.04 241.631C1108.97 243.001 1105.49 243.686 1101.58 243.686Z"></path>
<path fill="white" d="M1125.83 242.84L1144.51 200.537H1156.29L1175.03 242.84H1162.58L1147.95 206.399H1152.67L1138.04 242.84H1125.83ZM1136.05 234.621L1139.13 225.798H1159.8L1162.88 234.621H1136.05Z"></path>
<path fill="white" d="M1178.42 242.84V200.537H1197.33C1203.5 200.537 1208.23 201.947 1211.54 204.767C1214.88 207.547 1216.55 211.355 1216.55 216.189C1216.55 219.372 1215.79 222.132 1214.25 224.468C1212.72 226.765 1210.55 228.538 1207.73 229.787C1204.95 230.995 1201.62 231.6 1197.76 231.6H1185.07L1190.38 226.584V242.84H1178.42ZM1204.59 242.84L1194.07 227.43H1206.82L1217.4 242.84H1204.59ZM1190.38 227.853L1185.07 222.353H1197.03C1199.53 222.353 1201.38 221.809 1202.59 220.722C1203.84 219.634 1204.46 218.123 1204.46 216.189C1204.46 214.215 1203.84 212.684 1202.59 211.596C1201.38 210.509 1199.53 209.965 1197.03 209.965H1185.07L1190.38 204.465V227.853Z"></path>
<path fill="white" d="M1235.58 242.84V200.537H1268.76V209.783H1247.42V233.594H1269.54V242.84H1235.58ZM1246.58 225.858V216.914H1266.22V225.858H1246.58Z"></path>
<path fill="black" d="M665.46 252.47C673.23 243.21 677.92 231.28 677.92 218.25C677.92 188.82 654.07 164.96 624.63 164.96C595.19 164.96 571.34 188.81 571.34 218.25C571.34 247.69 595.19 271.54 624.63 271.54C630.5 271.54 636.13 270.56 641.41 268.8C644.87 278.33 651.2 286.49 659.43 292.14L662.47 293.26L672.05 267.39C668.16 263.59 665.72 258.31 665.72 252.45H665.45H665.46V252.47ZM624.62 193.1C638.51 193.1 649.77 204.36 649.77 218.25C649.77 219.16 649.6 220.02 649.51 220.89C636.98 207.4 617.94 203.13 601.33 208.84C605.05 199.61 614.06 193.08 624.62 193.08V193.1ZM605.99 235.01C611.84 231.46 619.03 231.22 624.99 234.18C625.05 234.2 625.11 234.23 625.16 234.25C625.27 234.3 625.37 234.4 625.47 234.45C628.56 236.21 631.13 238.77 632.87 241.9C630.27 242.81 627.51 243.41 624.61 243.41C617.19 243.41 610.58 240.13 605.97 235.01H605.98H605.99Z"></path>
<path fill="black" d="M1.76977 198.92V168.33C14.7098 168.33 25.2398 157.8 25.2398 144.86H55.8298C55.8298 174.68 31.5798 198.93 1.75977 198.93H1.76977V198.92Z"></path>
<path fill="black" d="M81.3795 244.49V270.57H1.76953V171.89H79.9395V197.97H33.4295V208.57H68.6595V232.51H33.4295V244.48H81.3895L81.3795 244.49Z"></path>
<path fill="black" d="M194.2 171.89V270.57H167.43L130.06 222.67V270.57H98.4097V171.89H125.18L162.48 219.85V171.89H194.21H194.2Z"></path>
<path fill="black" d="M294.61 244.49V270.57H215V171.89H293.17V197.97H246.66V208.57H281.89V232.51H246.66V244.48H294.62L294.61 244.49Z"></path>
<path fill="black" d="M311.64 171.89H360.22C371.32 171.89 380.32 175.25 387.23 181.97C394.13 188.68 397.59 197.08 397.59 207.12C397.59 211.07 397.05 214.76 395.97 218.19C394.89 221.63 393.59 224.41 392.08 226.51C390.57 228.62 389.07 230.43 387.57 231.94C386.08 233.45 384.75 234.48 383.61 235.04L382.1 236L401.1 270.54H368L353.21 242.33H343.29V270.54H311.64V171.88H311.63L311.64 171.89ZM363.83 202C362.47 200.74 360.57 200.11 358.09 200.11H343.29V214.21H358.09C360.52 214.21 362.42 213.57 363.8 212.32C365.17 211.06 365.87 209.34 365.87 207.16C365.87 204.98 365.2 203.26 363.84 202H363.83Z"></path>
<path fill="black" d="M527.01 171.89H558.66V270.57H527.01V171.89Z"></path>
<path fill="black" d="M722.21 251.57L716.57 270.57H682.79L718.7 171.89H753.93L789.84 270.57H755.98L750.41 251.57H722.2H722.21ZM736.32 202.92L729.23 227.56H743.34L736.33 202.92H736.32Z"></path>
<path fill="black" d="M467.46 212.19V233.73H486.1C485.79 234.29 485.51 234.78 485.18 235.24C477.51 245.78 463.59 249.95 451.37 245.37C440.58 241.33 434.18 230.51 435.05 217.77C435.7 208.28 441.09 200.11 449.49 195.9C457.84 191.7 467.59 192.26 475.55 197.39C477.14 198.42 478.59 199.67 480.12 200.99C480.83 201.6 481.55 202.22 482.29 202.83L482.91 203.33L503.69 185.65L502.89 184.92C501.92 184.04 500.98 183.14 500.07 182.25C498.04 180.29 496.12 178.45 493.94 176.84C482.99 168.77 470.61 165.21 457.17 166.21C441.45 167.41 428.43 174.42 418.48 187.07C410.37 197.37 406.6 209.35 407.23 222.7C408.03 239.19 415.13 252.8 428.36 263.15C437.91 270.62 448.78 274.4 460.76 274.4C464.05 274.4 467.41 274.11 470.86 273.55C484.29 271.35 495.61 264.59 504.51 253.48C514.87 240.54 516.29 225.66 515.66 212.21H467.48V212.19H467.46Z"></path>
</g>
<defs>
<clipPath id="clip0_680_1982">
<rect fill="white" height="293.27" width="2151.12"></rect>
</clipPath>
</defs>
</svg>
