<?xml version="1.0" encoding="UTF-8"?><svg id="Calque_1" xmlns="http://www.w3.org/2000/svg" viewBox="0 0 445.46 229.5"><defs><style>.cls-1{fill:#fff;stroke-width:0px;}</style></defs><path class="cls-1" d="M167.83,183.16v8.13h2.32v1.54h-7.94v-1.54h2.32v-20.16h-2.32v-1.54h8.7c2.52,0,4.41.51,5.66,1.53s1.88,2.55,1.88,4.6c0,2.47-.82,4.33-2.47,5.57-1.65,1.24-4.12,1.86-7.42,1.86h-.74ZM167.83,181.62h1.21c1.98,0,3.47-.5,4.46-1.51s1.48-2.51,1.48-4.52c0-1.64-.42-2.79-1.25-3.46-.84-.67-2.29-1-4.35-1h-1.53v10.49Z"/><path class="cls-1" d="M193.13,185.86l-2.13,5.43h2.32v1.54h-5.54v-1.54h1.35l8.69-22.09h1.86l8.68,22.09h1.35v1.54h-7v-1.54h2.12l-2.14-5.43h-9.55ZM193.73,184.32h8.34l-4.17-10.61-4.16,10.61Z"/><path class="cls-1" d="M225.5,182.58v8.71h2.32v1.54h-7.94v-1.54h2.32v-20.16h-2.32v-1.54h8.24c2.62,0,4.58.49,5.88,1.45,1.3.97,1.95,2.43,1.95,4.38,0,1.58-.4,2.92-1.21,4-.81,1.08-2.02,1.91-3.63,2.48l6.2,9.38h1.73v1.54h-4.82l-6.36-10.25h-2.37ZM225.5,181.04h.99c2,0,3.49-.46,4.49-1.38,1-.92,1.49-2.29,1.49-4.12,0-1.69-.45-2.85-1.35-3.47-.9-.62-2.58-.94-5.04-.94h-.58v9.91Z"/><path class="cls-1" d="M255.23,171.13v20.16h2.32v1.54h-7.94v-1.54h2.32v-20.16h-2.32v-1.54h7.94v1.54h-2.32Z"/><path class="cls-1" d="M269.14,192.36v-4.46h1.74l.19,2.32c.87.54,1.67.96,2.4,1.23.73.28,1.39.42,1.97.42,1.31,0,2.39-.4,3.25-1.2.85-.8,1.28-1.82,1.28-3.05,0-1.04-.27-1.91-.8-2.64-.54-.72-1.5-1.47-2.87-2.24l-1.63-.94c-1.94-1.1-3.32-2.15-4.13-3.15-.81-1-1.21-2.14-1.21-3.43,0-1.78.64-3.26,1.91-4.43,1.28-1.18,2.88-1.77,4.8-1.77,1.06,0,2.09.08,3.11.24,1.02.16,2.01.4,2.98.72v4.08h-1.74l-.19-2.23c-.68-.43-1.36-.75-2.02-.96-.67-.21-1.32-.31-1.96-.31-.98,0-1.83.39-2.53,1.15s-1.05,1.7-1.05,2.79c0,1.61,1.05,3.01,3.16,4.21l1.65.94c2.28,1.3,3.82,2.43,4.62,3.39.8.96,1.19,2.17,1.19,3.63,0,1.93-.72,3.54-2.16,4.83-1.44,1.28-3.24,1.92-5.4,1.92-1.26,0-2.43-.09-3.53-.27-1.1-.18-2.1-.44-3.03-.78Z"/><path class="cls-1" d="M107.08,68.77v-6.24h2.44l.26,3.25c1.22.76,2.34,1.34,3.36,1.73,1.02.39,1.94.58,2.76.58,1.84,0,3.35-.56,4.55-1.68,1.2-1.12,1.79-2.55,1.79-4.28,0-1.45-.37-2.68-1.12-3.69-.76-1.01-2.1-2.06-4.02-3.14l-2.29-1.32c-2.72-1.54-4.65-3.01-5.78-4.41-1.13-1.4-1.69-3-1.69-4.8,0-2.49.89-4.56,2.68-6.21,1.79-1.65,4.03-2.47,6.73-2.47,1.48,0,2.93.11,4.35.33,1.42.22,2.81.56,4.18,1.01v5.71h-2.44l-.26-3.12c-.96-.6-1.9-1.05-2.83-1.34-.93-.29-1.85-.44-2.74-.44-1.38,0-2.56.54-3.55,1.62-.98,1.08-1.48,2.38-1.48,3.9,0,2.26,1.47,4.22,4.42,5.89l2.31,1.32c3.2,1.82,5.35,3.4,6.46,4.75,1.11,1.35,1.67,3.04,1.67,5.08,0,2.71-1.01,4.96-3.02,6.76-2.02,1.79-4.54,2.69-7.56,2.69-1.76,0-3.41-.12-4.94-.37-1.53-.25-2.94-.62-4.24-1.1Z"/><path class="cls-1" d="M142.38,39.34h-9.36v3.78h-2.44v-6.22h28.22v6.22h-2.44v-3.78h-9.36v27.93h3.25v2.15h-11.12v-2.15h3.25v-27.93Z"/><path class="cls-1" d="M184.67,69.43h-22.37v-2.15h3.25v-28.22h-3.25v-2.15h21.43v5.41h-2.44v-3.25h-11.12v12.48h7.85v-2.73h2.18v7.6h-2.18v-2.72h-7.85v13.32h12.07v-3.52h2.44v5.93Z"/><path class="cls-1" d="M196.05,55.89v11.38h3.25v2.15h-11.12v-2.15h3.25v-28.22h-3.25v-2.15h12.19c3.53,0,6.17.71,7.93,2.15,1.76,1.43,2.64,3.57,2.64,6.44,0,3.46-1.15,6.06-3.46,7.8-2.3,1.74-5.77,2.61-10.39,2.61h-1.03ZM196.05,53.74h1.69c2.78,0,4.86-.7,6.24-2.12,1.38-1.41,2.07-3.52,2.07-6.33,0-2.29-.58-3.91-1.75-4.84s-3.2-1.4-6.1-1.4h-2.15v14.68Z"/><path class="cls-1" d="M222.2,53.69v13.58h3.25v2.15h-11.12v-2.15h3.25v-28.22h-3.25v-2.15h11.12v2.15h-3.25v12.48h15.16v-12.48h-3.25v-2.15h11.12v2.15h-3.25v28.22h3.25v2.15h-11.12v-2.15h3.25v-13.58h-15.16Z"/><path class="cls-1" d="M255.46,59.67l-2.99,7.6h3.24v2.15h-7.76v-2.15h1.9l12.16-30.92h2.6l12.16,30.92h1.89v2.15h-9.8v-2.15h2.97l-2.99-7.6h-13.37ZM256.31,57.52h11.67l-5.84-14.85-5.83,14.85Z"/><path class="cls-1" d="M304.84,69.85l-16.94-26.27v23.7h3.25v2.15h-9.49v-2.15h3.25v-28.22h-3.25v-2.15h6.81l17.23,26.31v-24.15h-3.25v-2.15h9.49v2.15h-3.25v30.79h-3.85Z"/><path class="cls-1" d="M338.38,69.43h-22.37v-2.15h3.25v-28.22h-3.25v-2.15h21.43v5.41h-2.44v-3.25h-11.12v12.48h7.85v-2.73h2.18v7.6h-2.18v-2.72h-7.85v13.32h12.07v-3.52h2.44v5.93Z"/><path class="cls-1" d="M40.86,110.13v13.58h3.25v2.15h-11.12v-2.15h3.25v-28.22h-3.25v-2.15h11.12v2.15h-3.25v12.48h15.17v-12.48h-3.25v-2.15h11.12v2.15h-3.25v28.22h3.25v2.15h-11.12v-2.15h3.25v-13.58h-15.17Z"/><path class="cls-1" d="M70.95,95.5h-3.25v-2.15h10.84v2.15h-2.97v17.33c0,2.82.14,4.87.41,6.16.27,1.29.79,2.35,1.55,3.19,1.42,1.57,3.3,2.35,5.63,2.35s4.09-.73,5.54-2.2c1.38-1.38,2.07-4.22,2.07-8.53v-18.3h-3.25v-2.15h9.76v2.15h-3.25v17.1c0,3.02-.16,5.22-.49,6.59-.33,1.38-1.01,2.7-2.03,3.98-1.89,2.34-4.81,3.52-8.77,3.52s-7.03-1.04-8.92-3.11c-1.89-2.07-2.84-5.34-2.84-9.81v-18.26Z"/><path class="cls-1" d="M104.31,123.72v-28.22h-3.25v-2.15h8.62l9.17,23.88,9.45-23.88h7.74v2.15h-3.25v28.22h3.25v2.15h-10.84v-2.15h3.25l-.04-24.15-9.45,23.89h-2.15l-9.5-24.87v25.14h3.52v2.15h-9.76v-2.15h3.25Z"/><path class="cls-1" d="M154.51,109.04c2.68.41,4.79,1.39,6.34,2.93,1.55,1.55,2.32,3.45,2.32,5.7,0,2.4-.87,4.39-2.59,5.96-.97.88-2.04,1.47-3.23,1.78s-2.98.46-5.38.46h-11.58v-2.15h3.25v-28.22h-3.25v-2.15h12.29c2.97,0,5.24.62,6.8,1.85s2.34,3.02,2.34,5.36c0,1.92-.61,3.59-1.82,5-1.22,1.42-3.04,2.58-5.47,3.48ZM148.25,107.98h1.03c2.64,0,4.62-.56,5.93-1.69,1.32-1.13,1.98-2.81,1.98-5.06,0-2.05-.62-3.52-1.87-4.41-1.25-.89-3.33-1.33-6.24-1.33h-.84v12.48ZM148.25,123.72h.7c3.21,0,5.35-.31,6.44-.93,1.99-1.16,2.99-2.95,2.99-5.37,0-2.09-.88-3.82-2.65-5.21s-3.98-2.08-6.65-2.08h-.84v13.58Z"/><path class="cls-1" d="M190.53,125.87h-22.37v-2.15h3.25v-28.22h-3.25v-2.15h21.43v5.41h-2.44v-3.25h-11.12v12.48h7.85v-2.73h2.18v7.6h-2.18v-2.73h-7.85v13.32h12.07v-3.52h2.44v5.93Z"/><path class="cls-1" d="M201.92,111.52v12.2h3.25v2.15h-11.12v-2.15h3.25v-28.22h-3.25v-2.15h11.54c3.66,0,6.41.68,8.23,2.04,1.82,1.36,2.74,3.4,2.74,6.13,0,2.22-.56,4.08-1.69,5.59-1.13,1.51-2.82,2.67-5.08,3.48l8.68,13.13h2.42v2.15h-6.74l-8.91-14.35h-3.32ZM201.92,109.36h1.38c2.8,0,4.89-.64,6.29-1.93,1.39-1.29,2.09-3.21,2.09-5.77,0-2.37-.63-3.99-1.89-4.86-1.26-.87-3.61-1.31-7.06-1.31h-.81v13.87Z"/><path class="cls-1" d="M235.41,95.78h-9.36v3.78h-2.44v-6.22h28.22v6.22h-2.44v-3.78h-9.36v27.94h3.25v2.15h-11.12v-2.15h3.25v-27.94Z"/><path class="cls-1" d="M292.34,125.87h-22.77v-2.15h3.25v-28.22h-3.25v-2.15h10.84v2.15h-2.97v27.93h12.2v-4.04h2.7v6.48Z"/><path class="cls-1" d="M298.03,95.5h-3.25v-2.15h10.84v2.15h-2.97v17.33c0,2.82.14,4.87.41,6.16.27,1.29.79,2.35,1.55,3.19,1.42,1.57,3.3,2.35,5.63,2.35s4.09-.73,5.54-2.2c1.38-1.38,2.07-4.22,2.07-8.53v-18.3h-3.25v-2.15h9.76v2.15h-3.25v17.1c0,3.02-.16,5.22-.49,6.59-.33,1.38-1.01,2.7-2.03,3.98-1.89,2.34-4.81,3.52-8.77,3.52s-7.03-1.04-8.92-3.11c-1.89-2.07-2.84-5.34-2.84-9.81v-18.26Z"/><path class="cls-1" d="M354.84,124.07c-2.92,1.75-6.32,2.62-10.2,2.62-4.94,0-8.83-1.53-11.69-4.59-2.86-3.06-4.29-7.25-4.29-12.57s1.37-9.57,4.12-12.54,6.62-4.45,11.62-4.45c1.32,0,2.82.13,4.5.41,1.69.27,3.56.68,5.63,1.22v5.96h-2.45l-.39-3.34c-1.19-.7-2.35-1.23-3.5-1.57-1.15-.34-2.29-.52-3.42-.52-3.4,0-6.12,1.37-8.17,4.11-2.04,2.74-3.07,6.39-3.07,10.94,0,4.26,1.14,7.77,3.41,10.52,2.27,2.75,5.17,4.12,8.71,4.12,3.33,0,6.39-.95,9.19-2.86v2.55Z"/><path class="cls-1" d="M365.88,116.11l-2.99,7.6h3.24v2.15h-7.76v-2.15h1.9l12.16-30.92h2.6l12.16,30.92h1.89v2.15h-9.8v-2.15h2.97l-3-7.6h-13.37ZM366.73,113.96h11.67l-5.84-14.85-5.83,14.85Z"/><path class="cls-1" d="M392.71,125.21v-6.24h2.44l.26,3.25c1.22.76,2.34,1.34,3.36,1.73,1.02.39,1.94.58,2.76.58,1.83,0,3.35-.56,4.55-1.68,1.2-1.12,1.79-2.54,1.79-4.28,0-1.45-.37-2.68-1.12-3.69-.76-1.01-2.1-2.06-4.02-3.14l-2.28-1.32c-2.73-1.54-4.65-3.01-5.78-4.41-1.13-1.4-1.69-3-1.69-4.8,0-2.49.89-4.56,2.68-6.21,1.79-1.65,4.03-2.47,6.73-2.47,1.48,0,2.93.11,4.35.33,1.42.22,2.81.56,4.18,1.01v5.71h-2.44l-.26-3.12c-.96-.6-1.9-1.05-2.83-1.34-.93-.29-1.85-.44-2.74-.44-1.38,0-2.56.54-3.55,1.62-.98,1.08-1.48,2.38-1.48,3.9,0,2.26,1.47,4.22,4.42,5.89l2.31,1.32c3.19,1.82,5.35,3.4,6.46,4.75,1.11,1.35,1.67,3.04,1.67,5.08,0,2.71-1.01,4.96-3.02,6.76-2.02,1.79-4.54,2.69-7.56,2.69-1.76,0-3.41-.13-4.94-.37s-2.94-.61-4.24-1.1Z"/></svg>