<svg width="209" height="56" viewBox="0 0 209 56" fill="none" xmlns="http://www.w3.org/2000/svg" class="w-[160px] lg:w-[209px]">
  <path d="M14.3463 33.9C18.9338 33.9 22.1064 31.6811 24.5447 27.2937C24.6411 27.1004 24.7885 27.0528 24.8878 27.1004C24.9842 27.148 25.0352 27.2937 24.936 27.4394C22.2028 32.502 17.0795 36.6008 11.7124 36.6008C4.83126 36.6008 0 31.8268 0 25.0272C0 18.2276 6.7819 11.526 13.9069 11.526C18.6899 11.526 22.0554 13.4536 22.0554 15.143C22.0554 15.9638 21.2246 17.1209 19.6653 17.1209C17.6154 17.1209 16.5918 12.5878 11.857 12.5878C7.12213 12.5878 3.1698 16.3 3.1698 22.8587C3.1698 29.4174 7.75723 33.9028 14.3463 33.9028V33.9Z" fill="#191918"></path>
  <path d="M26.2062 31.2469C26.2062 28.0166 29.3788 24.8339 38.4062 21.3626L42.4578 19.8189C42.2621 13.7898 40.6999 11.9575 37.2353 11.9575C32.9399 11.9575 32.0127 15.7677 30.941 17.3086C30.5016 17.9362 30.0621 18.1771 28.7437 18.1771C27.5727 18.1771 26.7931 17.7429 26.7931 17.0677C26.7931 16.4877 27.2807 15.5744 28.4999 14.8012C30.4505 13.546 34.5503 11.5204 38.0149 11.5204C42.798 11.5204 46.2627 13.9803 46.2627 20.298C46.2627 23.5283 45.8714 28.9775 45.8714 30.8574C45.8714 33.6059 46.2116 34.9563 47.238 34.9563C48.1169 34.9563 49.3361 33.2697 49.8719 32.3031C50.1158 31.9165 50.7027 32.3031 50.4588 32.6897C49.6791 33.7992 46.6029 36.5952 44.7005 36.5952C42.798 36.5952 41.9191 35.3429 41.9191 33.1716C41.9191 31.9165 42.0155 30.2299 42.1147 29.2185C40.7963 31.4374 35.673 36.6457 32.2566 36.6457C28.3524 36.6457 26.2062 34.1858 26.2062 31.2441V31.2469ZM34.6977 34.5248C37.4309 34.5248 41.7745 29.7032 42.2139 28.1118C42.2621 27.4842 42.506 25.1225 42.506 21.1665V20.1551L38.5054 21.8417C31.3323 24.8311 29.6226 26.2767 29.6226 29.846C29.6226 32.4488 32.3076 34.5248 34.6977 34.5248Z" fill="#191918"></path>
  <path d="M60.9039 11.526C64.9044 11.526 66.2228 11.9126 69.0524 12.3469C69.3444 12.3945 69.3926 12.5402 69.3926 12.7335C69.3926 14.2772 69.1488 19.4855 69.1488 21.1721C69.1488 21.5587 68.7575 21.5587 68.7575 21.1721C68.7575 15.3363 66.7076 11.9126 60.9492 11.9126C56.9487 11.9126 54.2155 13.5992 54.2155 16.1067C54.2155 19.3847 58.0204 20.6398 61.9246 21.9902C66.0243 23.3882 70.2687 24.8843 70.2687 29.1764C70.2687 33.4686 66.4638 36.6036 61.5333 36.6036C56.6028 36.6036 54.0681 35.3989 52.1146 34.8666C51.8708 34.819 51.7715 34.6257 51.7715 34.1914C51.7715 33.4686 52.0636 32.4068 52.0636 25.6071C52.0636 25.1729 52.4548 25.1729 52.4548 25.6071C52.4548 32.502 54.6011 36.1666 61.5305 36.1666C66.2653 36.1666 67.8757 33.9953 67.8757 31.3449C67.8757 28.0166 64.068 26.7642 60.1157 25.4615C56.0159 24.1111 51.8679 22.5673 51.8679 18.7095C51.8679 13.7421 56.8466 11.5232 60.8954 11.5232L60.9039 11.526Z" fill="#191918"></path>
  <path d="M78.667 12.0556C80.13 12.0556 83.6457 12.0556 85.2561 12.008C86.8665 11.9603 86.9629 12.008 86.9629 12.1032C86.9629 12.3918 86.084 13.3556 84.5728 14.706C84.1815 14.706 80.2292 14.6583 78.5706 14.6583V29.7985C78.5706 33.2697 79.6933 35.102 81.7432 35.102C83.7931 35.102 85.5991 33.3174 86.7219 30.0871C86.8693 29.7004 87.5526 29.9918 87.357 30.3756C85.7948 33.5107 82.9652 36.5953 79.5969 36.5953C76.2287 36.5953 74.9131 34.5697 74.9131 29.9414V14.6555H72.2281C72.1799 14.6555 72.1317 14.5098 72.2281 14.4146L78.4742 7.3264C78.5706 7.23114 78.6698 7.18071 78.6698 7.37403V12.0528L78.667 12.0556Z" fill="#191918"></path>
  <path d="M88.6216 31.2468C88.6216 28.0165 91.7943 24.8338 100.822 21.3626L104.873 19.8189C104.678 13.7897 103.115 11.9574 99.6507 11.9574C95.3553 11.9574 94.4282 15.7677 93.3565 17.3086C92.917 17.9362 92.4775 18.1771 91.1592 18.1771C89.9882 18.1771 89.2085 17.7428 89.2085 17.0676C89.2085 16.4877 89.6962 15.5744 90.9153 14.8011C92.866 13.546 96.9657 11.5204 100.43 11.5204C105.213 11.5204 108.678 13.9802 108.678 20.2979C108.678 23.5283 108.287 28.9775 108.287 30.8574C108.287 33.6058 108.63 34.9562 109.653 34.9562C110.532 34.9562 111.752 33.2696 112.287 32.303C112.531 31.9164 113.118 32.303 112.874 32.6897C112.095 33.7991 109.018 36.5952 107.116 36.5952C105.213 36.5952 104.335 35.3428 104.335 33.1716C104.335 31.9164 104.431 30.2298 104.53 29.2184C103.212 31.4373 98.0885 36.6456 94.672 36.6456C90.7679 36.6456 88.6216 34.1858 88.6216 31.244V31.2468ZM97.1132 34.5248C99.8463 34.5248 104.19 29.7031 104.629 28.1118C104.678 27.4842 104.921 25.1224 104.921 21.1665V20.1551L100.921 21.8417C93.7477 24.831 92.0381 26.2767 92.0381 29.846C92.0381 32.4487 94.7231 34.5248 97.1132 34.5248Z" fill="#191918"></path>
  <path d="M124.05 12.1508C125.465 12.1508 125.757 12.1032 125.757 12.1984C125.757 12.487 124.49 13.6441 123.463 14.7535C122.048 14.7535 120.829 14.7059 119.219 14.7059C119.219 19.1409 119.267 30.8126 119.267 30.8126C119.267 35.539 119.658 35.6819 122.536 35.6819C122.927 35.6819 122.927 36.1161 122.536 36.1161C121.121 36.1161 118.241 36.0209 117.509 36.0209C116.778 36.0209 114.044 36.1161 112.63 36.1161C112.238 36.1161 112.238 35.6819 112.63 35.6819C115.51 35.6819 115.607 35.1019 115.607 30.8126C115.607 30.8126 115.558 15.3335 115.558 15.1401V14.6583H113.557C113.117 14.6583 112.874 14.6583 112.874 14.4173L114.58 12.1508H115.899C117.557 5.01496 124.83 0 130.197 0C132.686 0 135.176 0.579943 135.176 1.25234C135.176 2.07323 134.101 3.71219 132.542 3.71219C130.982 3.71219 128.442 2.79605 125.513 2.79605C122.145 2.79605 119.267 4.58071 119.219 12.1508H124.05ZM130.54 17.9362C130.54 14.2716 129.857 14.1259 127.415 14.6583C127.024 14.7535 126.88 14.3697 127.268 14.2716C129.709 13.7421 131.464 12.826 133.367 11.5232C133.514 11.428 134.246 11.6185 134.246 11.8622V30.8126C134.246 34.9591 134.441 35.6819 137.319 35.6819C137.71 35.6819 137.71 36.1161 137.319 36.1161C135.904 36.1161 133.219 36.0209 132.488 36.0209C131.756 36.0209 128.827 36.1161 127.413 36.1161C127.021 36.1161 127.021 35.6819 127.413 35.6819C130.293 35.6819 130.537 34.9591 130.537 30.8126V17.9362H130.54Z" fill="#191918"></path>
  <path d="M179.684 11.5261C180.855 11.5261 181.881 11.767 181.881 12.3946C181.881 13.165 181.15 14.9021 179.44 14.9021H177.634C174.121 14.9021 173.778 15.384 173.778 19.5304V35.6848H176.755C177.146 35.6848 177.146 36.119 176.755 36.119C176.364 36.119 173.194 36.0238 172.411 36.0238C171.68 36.0238 168.85 36.119 167.433 36.119C167.041 36.119 167.041 35.6848 167.433 35.6848C169.823 35.6848 170.166 35.3962 170.166 30.3812V17.9391C170.166 16.541 169.043 15.2859 167.92 14.2745C167.773 14.1288 167.824 14.0336 167.92 13.9859C168.799 13.6497 170.458 12.7812 171.289 11.9603C171.385 11.8651 171.436 11.8651 171.581 12.008C172.411 12.7784 173.483 14.5631 173.679 16.443C174.266 14.3221 175.581 13.2127 176.9 12.3442C177.73 11.8146 178.706 11.5233 179.681 11.5233L179.684 11.5261Z" fill="#191918"></path>
  <path d="M181.586 25.0271C181.586 17.7933 188.419 11.526 195.153 11.526C201.887 11.526 203.937 15.8181 203.645 18.037C203.548 18.8579 203.109 19.5331 201.595 19.5331H184.904C184.66 20.6426 184.512 21.8949 184.512 23.2453C184.512 29.1764 189.735 33.8047 196.321 33.8047C202.275 33.8047 205.887 30.1878 208.569 24.45C208.813 23.8701 209.156 24.0157 208.912 24.5453C206.327 30.4764 201.201 36.6008 193.832 36.6008C186.463 36.6008 181.584 31.6811 181.584 25.0271H181.586ZM198.958 18.5161C199.25 18.1771 199.397 17.6 199.397 16.9724C199.397 15.1401 197.543 12.585 193.786 12.585C189.59 12.585 186.27 14.8039 185.003 19.1437C190.517 19.1437 193.835 18.9503 197.007 18.9503C197.691 18.9503 198.813 18.6618 198.958 18.5161Z" fill="#191918"></path>
  <path d="M152.037 24.3044H151.907L150.869 13.0277C150.869 12.4253 151.362 11.9351 151.975 11.9351C152.584 11.9351 153.081 12.4225 153.081 13.0277L152.043 24.3044H152.037Z" fill="#B88645"></path>
  <path d="M152.035 24.2819L151.91 24.3267L147.03 14.0811C146.821 13.5151 147.118 12.8876 147.691 12.683C148.264 12.4757 148.899 12.7699 149.106 13.3358L152.032 24.2847L152.035 24.2819Z" fill="#B88645"></path>
  <path d="M152.023 24.2623L151.921 24.3464L143.789 16.3673C143.398 15.905 143.458 15.2186 143.926 14.8292C144.393 14.4425 145.088 14.5014 145.482 14.9636L152.023 24.2623Z" fill="#B88645"></path>
  <path d="M152.006 24.2484L151.94 24.3605L141.538 19.6117C141.01 19.3091 140.829 18.6423 141.132 18.1212C141.439 17.6001 142.113 17.4208 142.641 17.7206L152.006 24.2484Z" fill="#B88645"></path>
  <path d="M151.983 24.2399L151.96 24.3688L140.54 23.4218C139.939 23.3182 139.539 22.7522 139.644 22.1583C139.749 21.5643 140.322 21.1693 140.923 21.273L151.98 24.2427L151.983 24.2399Z" fill="#B88645"></path>
  <path d="M151.961 24.24L151.984 24.3689L140.926 27.3387C140.325 27.4423 139.752 27.0473 139.648 26.4533C139.543 25.8594 139.942 25.2934 140.543 25.1898L151.964 24.2428L151.961 24.24Z" fill="#B88645"></path>
  <path d="M151.94 24.2483L152.006 24.3604L142.641 30.8882C142.113 31.1908 141.436 31.0115 141.132 30.4876C140.826 29.9665 141.008 29.2969 141.538 28.9971L151.94 24.2483Z" fill="#B88645"></path>
  <path d="M151.924 24.2623L152.026 24.3464L145.485 33.6451C145.094 34.1074 144.396 34.1662 143.928 33.7796C143.461 33.3929 143.401 32.7037 143.792 32.2415L151.924 24.2623Z" fill="#B88645"></path>
  <path d="M151.91 24.282L152.034 24.3268L149.108 35.2757C148.899 35.8416 148.266 36.133 147.694 35.9284C147.121 35.7211 146.826 35.0964 147.033 34.5304L151.912 24.2848L151.91 24.282Z" fill="#B88645"></path>
  <path d="M151.907 24.3044H152.037L153.075 35.581C153.075 36.1834 152.582 36.6737 151.969 36.6737C151.36 36.6737 150.864 36.1862 150.864 35.581L151.901 24.3043L151.907 24.3044Z" fill="#B88645"></path>
  <path d="M151.91 24.3267L152.035 24.2819L156.914 34.5276C157.124 35.0935 156.826 35.7211 156.253 35.9256C155.68 36.133 155.045 35.8388 154.838 35.2729L151.912 24.324L151.91 24.3267Z" fill="#B88645"></path>
  <path d="M151.924 24.3464L152.026 24.2623L160.157 32.2415C160.549 32.7037 160.489 33.3901 160.021 33.7796C159.553 34.1662 158.859 34.1074 158.465 33.6451L151.924 24.3464Z" fill="#B88645"></path>
  <path d="M151.94 24.3605L152.006 24.2484L162.409 28.9971C162.936 29.2997 163.118 29.9665 162.814 30.4876C162.508 31.0087 161.833 31.188 161.306 30.8882L151.94 24.3605Z" fill="#B88645"></path>
  <path d="M151.96 24.3688L151.983 24.2399L163.404 25.187C164.005 25.2906 164.405 25.8566 164.3 26.4505C164.195 27.0445 163.622 27.4395 163.021 27.3359L151.964 24.3661L151.96 24.3688Z" fill="#B88645"></path>
  <path d="M151.984 24.3689L151.961 24.24L163.018 21.2703C163.619 21.1666 164.192 21.5616 164.297 22.1556C164.402 22.7495 164.002 23.3155 163.401 23.4191L151.981 24.3661L151.984 24.3689Z" fill="#B88645"></path>
  <path d="M152.006 24.3604L151.94 24.2483L161.306 17.7204C161.833 17.4178 162.511 17.5971 162.814 18.1211C163.12 18.6422 162.939 19.3118 162.409 19.6115L152.006 24.3604Z" fill="#B88645"></path>
  <path d="M152.023 24.3463L151.921 24.2623L158.462 14.9636C158.853 14.5013 159.551 14.4425 160.019 14.8291C160.486 15.2157 160.546 15.9049 160.155 16.3672L152.023 24.3463Z" fill="#B88645"></path>
  <path d="M152.034 24.3268L151.91 24.282L154.836 13.3331C155.045 12.7672 155.678 12.4758 156.25 12.6803C156.823 12.8876 157.118 13.5124 156.911 14.0783L152.031 24.324L152.034 24.3268Z" fill="#B88645"></path>
  <path d="M62.5909 54.8311C62.5909 55.5904 62.1401 56.0022 61.3745 56.0022C61.0825 56.0022 60.7735 55.9434 60.4814 55.8201L60.3312 54.6434L60.3992 54.6182C60.8585 55.4083 61.1591 55.8369 61.4823 55.8369C61.7403 55.8369 61.9161 55.5988 61.9161 55.1113V51.0825C61.9161 50.5222 61.848 50.2756 61.5815 49.8638V49.847H62.9226V49.8638C62.6476 50.2924 62.588 50.5138 62.588 51.0825V54.8311H62.5909Z" fill="#191918"></path>
  <path d="M64.3173 52.8699C64.3173 51.1077 65.7604 49.7236 67.402 49.7236C69.0436 49.7236 70.5038 51.1077 70.5038 52.8699C70.5038 54.6321 69.0692 55.9993 67.402 55.9993C65.7349 55.9993 64.3173 54.6237 64.3173 52.8699ZM69.7184 52.8699C69.7184 51.1721 68.9019 49.8889 67.402 49.8889C65.9022 49.8889 65.0998 51.1749 65.0998 52.8699C65.0998 54.5649 65.9079 55.834 67.402 55.834C68.8962 55.834 69.7184 54.5817 69.7184 52.8699Z" fill="#191918"></path>
  <path d="M72.3696 55.8762H71.3518V55.8593C71.709 55.5063 71.7941 55.257 72.018 54.6798L73.861 49.7713H74.0623L75.9307 54.7639C76.1717 55.4223 76.2879 55.6212 76.5715 55.8593V55.8762H75.2446V55.8593C75.3693 55.6688 75.4203 55.2906 75.2105 54.7303L74.7937 53.6012H72.6191L72.2761 54.523C72.001 55.257 72.1853 55.6352 72.3668 55.8565V55.8733L72.3696 55.8762ZM73.7192 50.6623L72.6843 53.4387H74.7342L73.7164 50.6623H73.7192Z" fill="#191918"></path>
  <path d="M77.8449 55.8593C78.1199 55.4306 78.1795 55.2093 78.1795 54.6405V51.0824C78.1795 50.5221 78.1114 50.284 77.8449 49.8637V49.8469H79.1945V49.8637C78.9195 50.2924 78.8599 50.5137 78.8599 51.0824V54.6405C78.8599 55.2093 78.9195 55.4306 79.1945 55.8593V55.8761H77.8449V55.8593Z" fill="#191918"></path>
  <path d="M80.8694 55.8761V55.8593C81.1359 55.4474 81.204 55.2009 81.204 54.6405V51.0824C81.204 50.5305 81.1302 50.2756 80.8694 49.8637V49.8469H82.219V49.8637C81.944 50.2924 81.8844 50.5137 81.8844 51.0824V55.7528L83.3928 55.694C84.0194 55.6603 84.4928 55.1336 84.9607 54.3744L85.0287 54.3996L84.6544 55.8733H80.8694V55.8761Z" fill="#191918"></path>
  <path d="M86.353 55.8761V55.8593C86.6196 55.4475 86.6876 55.2009 86.6876 54.6406V51.0825C86.6876 50.5306 86.6139 50.2756 86.353 49.8638V49.847H87.7026V49.8638C87.4276 50.2924 87.3681 50.5138 87.3681 51.0825V55.7529L88.8764 55.694C89.503 55.6604 89.9765 55.1337 90.4443 54.3745L90.5123 54.3997L90.1381 55.8733H86.353V55.8761Z" fill="#191918"></path>
  <path d="M95.931 55.8762H91.8369V55.8594C92.0439 55.4559 92.163 55.1758 92.163 54.7219V50.9985C92.163 50.5446 92.0553 50.2729 91.8369 49.861V49.8442H95.5142L95.8403 51.161L95.7723 51.1862C95.347 50.6987 94.9217 50.0571 94.6041 50.0319L92.8548 49.9731V52.7579H93.9067C94.2157 52.7579 94.4822 52.2648 94.7062 51.9763H94.7742V53.6573H94.7062C94.4822 53.4107 94.2214 52.9232 93.9067 52.9232H92.8548V55.7417L94.6722 55.6828C95.2818 55.6576 95.7552 55.0413 96.2316 54.3745L96.2996 54.3997L95.9339 55.8734L95.931 55.8762Z" fill="#191918"></path>
  <path d="M97.7224 55.8593C97.9889 55.4475 98.0569 55.2009 98.0569 54.6406V51.0825C98.0569 50.5306 97.9832 50.2756 97.7224 49.8638V49.847H99.8573C101.19 49.847 101.748 50.4157 101.748 51.273C101.748 52.0071 101.374 52.6402 100.566 52.8952L101.584 54.8059C101.919 55.4475 102.1 55.638 102.517 55.8453V55.8789H101.366L99.8573 53.0044H98.7402V54.6434C98.7402 55.2122 98.7998 55.4335 99.0748 55.8621V55.8789H97.7252V55.8621L97.7224 55.8593ZM99.347 50.0095C99.1797 50.0095 98.9812 50.0095 98.7374 50.0179V52.8363H99.7297C100.731 52.8363 101.04 52.1023 101.04 51.2702C101.04 50.5194 100.748 50.0095 99.7212 50.0095H99.347Z" fill="#191918"></path>
  <path d="M103.815 55.8593C104.09 55.4307 104.15 55.2094 104.15 54.6406V51.0825C104.15 50.5222 104.082 50.284 103.815 49.8638V49.847H105.165V49.8638C104.89 50.2924 104.83 50.5138 104.83 51.0825V54.6406C104.83 55.2094 104.89 55.4307 105.165 55.8593V55.8761H103.815V55.8593Z" fill="#191918"></path>
  <path d="M110.935 55.8762H106.841V55.8594C107.048 55.4559 107.167 55.1758 107.167 54.7219V50.9985C107.167 50.5446 107.059 50.2729 106.841 49.861V49.8442H110.518L110.844 51.161L110.776 51.1862C110.351 50.6987 109.926 50.0571 109.608 50.0319L107.859 49.9731V52.7579H108.911C109.22 52.7579 109.486 52.2648 109.71 51.9763H109.778V53.6573H109.71C109.486 53.4107 109.225 52.9232 108.911 52.9232H107.859V55.7417L109.676 55.6829C110.286 55.6577 110.759 55.0413 111.235 54.3745L111.304 54.3997L110.938 55.8734L110.935 55.8762Z" fill="#191918"></path>
  <path d="M114.844 55.8593C115.111 55.4474 115.179 55.2009 115.179 54.6405V51.0824C115.179 50.5305 115.105 50.2756 114.844 49.8637V49.8469C115.91 49.8469 116.043 49.8133 117.152 49.8133C119.077 49.8133 120.237 50.8835 120.237 52.8363C120.237 54.789 119.103 55.8761 117.07 55.8761H114.844V55.8593ZM115.862 49.9702V55.7276L116.996 55.7108C118.771 55.6856 119.454 54.747 119.454 52.9511C119.454 50.9087 118.672 49.987 117.078 49.9786L115.862 49.9702Z" fill="#191918"></path>
  <path d="M125.888 55.8761H121.794V55.8593C122.001 55.4559 122.12 55.1757 122.12 54.7219V50.9985C122.12 50.5446 122.012 50.2728 121.794 49.861V49.8442H125.471L125.797 51.161L125.729 51.1862C125.304 50.6987 124.878 50.0571 124.561 50.0319L122.811 49.9731V52.7579H123.863C124.172 52.7579 124.439 52.2648 124.663 51.9762H124.731V53.6572H124.663C124.439 53.4107 124.178 52.9232 123.863 52.9232H122.811V55.7417L124.629 55.6828C125.238 55.6576 125.712 55.0412 126.188 54.3745L126.256 54.3997L125.891 55.8733L125.888 55.8761Z" fill="#191918"></path>
  <path d="M131.896 55.9434L130.027 50.976C129.812 50.3653 129.653 50.1019 129.361 49.8638V49.847H130.821V49.8638C130.662 50.0627 130.58 50.5138 130.753 51.0013L132.244 55.0385L133.619 51.3487C133.937 50.5334 133.702 50.1047 133.529 49.8666V49.8498H134.637V49.8666C134.263 50.2196 134.113 50.5166 133.886 51.1526L132.094 55.9462H131.893L131.896 55.9434Z" fill="#191918"></path>
  <path d="M135.89 55.8593C136.165 55.4306 136.225 55.2093 136.225 54.6405V51.0824C136.225 50.5221 136.157 50.284 135.89 49.8637V49.8469H137.24V49.8637C136.965 50.2924 136.905 50.5137 136.905 51.0824V54.6405C136.905 55.2093 136.965 55.4306 137.24 55.8593V55.8761H135.89V55.8593Z" fill="#191918"></path>
  <path d="M143.007 55.8761H138.913V55.8593C139.12 55.4559 139.239 55.1757 139.239 54.7219V50.9985C139.239 50.5446 139.131 50.2728 138.913 49.861V49.8442H142.59L142.916 51.161L142.848 51.1862C142.423 50.6987 141.998 50.0571 141.68 50.0319L139.931 49.9731V52.7579H140.983C141.292 52.7579 141.558 52.2648 141.782 51.9762H141.85V53.6572H141.782C141.558 53.4107 141.297 52.9232 140.983 52.9232H139.931V55.7417L141.748 55.6828C142.358 55.6576 142.831 55.0412 143.307 54.3745L143.375 54.3997L143.01 55.8733L143.007 55.8761Z" fill="#191918"></path>
  <path d="M148.249 51.273L148.181 51.2982C147.73 50.2112 147.155 49.889 146.531 49.889C145.763 49.889 145.405 50.3513 145.405 50.9116C145.405 51.7437 146.157 52.0491 146.956 52.4021C147.798 52.7719 148.666 53.2006 148.666 54.3128C148.666 55.5231 147.665 56.0022 146.523 56.0022C145.956 56.0022 145.371 55.8789 144.872 55.6884L144.705 54.3548L144.773 54.3296C145.272 55.383 145.856 55.8369 146.724 55.8369C147.591 55.8369 148.042 55.3186 148.042 54.6182C148.042 53.7189 147.35 53.3574 146.591 53.0297C145.749 52.6346 144.872 52.2788 144.872 51.217C144.872 50.1552 145.698 49.7265 146.732 49.7265C147.231 49.7265 147.716 49.833 148.082 49.973L148.249 51.2758V51.273Z" fill="#191918"></path>
</svg>