<svg width="834" height="264" viewBox="0 0 834 264" fill="none" xmlns="http://www.w3.org/2000/svg">
<path d="M15.2312 124.143V0H50.9533L85.7912 85.9453L120.275 0H155.821V124.143H125.581V49.6926L97.8165 124.143H73.4123L45.4712 49.5158V124.143H15.2312Z" fill="#FC5200"/>
<path d="M171.554 74.6274C171.554 43.5032 190.83 24.0505 215.057 24.0505C229.735 24.0505 240.169 30.7705 245.474 39.4358V25.4653H275.714V124.143H245.474V110.173C239.992 118.838 229.558 125.558 214.88 125.558C190.83 125.558 171.554 105.752 171.554 74.6274ZM245.474 74.8042C245.474 59.0653 235.394 50.4 223.899 50.4C212.581 50.4 202.325 58.8884 202.325 74.6274C202.325 90.3663 212.581 99.2084 223.899 99.2084C235.394 99.2084 245.474 90.5432 245.474 74.8042Z" fill="#FC5200"/>
<path d="M355.949 124.143L337.027 96.7326L321.111 124.143H288.396L320.935 73.7432L287.511 25.4653H321.465L340.387 52.6989L356.303 25.4653H389.019L355.949 75.1579L389.903 124.143H355.949Z" fill="#FC5200"/>
<path d="M445.058 48.2779C435.155 48.2779 427.551 54.2905 425.783 65.2547H463.627C463.627 54.4674 455.138 48.2779 445.058 48.2779ZM492.275 91.4274C487.5 110.703 469.993 125.558 445.412 125.558C416.41 125.558 395.543 106.105 395.543 74.8042C395.543 43.5032 416.056 24.0505 445.412 24.0505C474.237 24.0505 494.574 43.1495 494.574 73.2126C494.574 76.0421 494.397 79.0484 494.044 82.0547H425.606C426.667 94.9642 434.625 100.977 444.351 100.977C452.839 100.977 457.614 96.7326 460.09 91.4274H492.275Z" fill="#FC5200"/>
<path d="M578.611 124.143V70.56C578.611 57.12 571.184 49.6926 559.689 49.6926C548.195 49.6926 540.767 57.12 540.767 70.56V124.143H510.527V25.4653H540.767V38.5516C546.78 30.24 557.39 24.4042 570.654 24.4042C593.466 24.4042 608.675 39.9663 608.675 66.4926V124.143H578.611Z" fill="#FC5200"/>
<path d="M623.676 74.8042C623.676 43.68 644.189 24.0505 673.192 24.0505C697.949 24.0505 715.457 37.6674 720.585 61.1874H688.4C685.924 54.2905 680.973 49.8695 672.661 49.8695C661.874 49.8695 654.446 58.3579 654.446 74.8042C654.446 91.2505 661.874 99.7389 672.661 99.7389C680.973 99.7389 685.747 95.6716 688.4 88.4211H720.585C715.457 111.234 697.949 125.558 673.192 125.558C644.189 125.558 623.676 106.105 623.676 74.8042Z" fill="#FC5200"/>
<path d="M780.264 48.2779C770.361 48.2779 762.757 54.2905 760.988 65.2547H798.832C798.832 54.4674 790.344 48.2779 780.264 48.2779ZM827.481 91.4274C822.706 110.703 805.199 125.558 780.618 125.558C751.616 125.558 730.748 106.105 730.748 74.8042C730.748 43.5032 751.262 24.0505 780.618 24.0505C809.443 24.0505 829.78 43.1495 829.78 73.2126C829.78 76.0421 829.603 79.0484 829.249 82.0547H760.811C761.872 94.9642 769.83 100.977 779.557 100.977C788.045 100.977 792.82 96.7326 795.296 91.4274H827.481Z" fill="#FC5200"/>
<path d="M63.1326 136.585C92.8421 136.585 114.417 151.794 120.96 177.259H87.5368C82.939 168.947 74.4505 164.526 63.1326 164.526C43.68 164.526 30.7705 178.32 30.7705 199.895C30.7705 222.884 43.8568 236.324 65.6084 236.324C80.64 236.324 91.0737 228.366 95.6716 214.396H57.2968V192.114H123.082V220.232C116.716 241.629 96.0253 263.027 63.3095 263.027C26.1726 263.027 0 237.032 0 199.895C0 162.758 25.9958 136.585 63.1326 136.585Z" fill="#FC5200"/>
<path d="M133.82 212.627C133.82 181.503 153.096 162.051 177.323 162.051C192.001 162.051 202.434 168.771 207.74 177.436V163.465H237.98V262.143H207.74V248.173C202.258 256.838 191.824 263.558 177.146 263.558C153.096 263.558 133.82 243.752 133.82 212.627ZM207.74 212.804C207.74 197.065 197.66 188.4 186.165 188.4C174.847 188.4 164.59 196.888 164.59 212.627C164.59 228.366 174.847 237.208 186.165 237.208C197.66 237.208 207.74 228.543 207.74 212.804Z" fill="#FC5200"/>
<path d="M290.097 216.341V262.143H259.857V163.465H290.097V179.912C296.994 169.478 307.781 162.404 321.044 162.404V194.413H312.733C298.409 194.413 290.097 199.364 290.097 216.341Z" fill="#FC5200"/>
<path d="M329.486 212.627C329.486 181.503 348.762 162.051 372.989 162.051C387.667 162.051 398.101 168.771 403.406 177.436V163.465H433.646V262.143H403.406V248.173C397.924 256.838 387.49 263.558 372.812 263.558C348.762 263.558 329.486 243.752 329.486 212.627ZM403.406 212.804C403.406 197.065 393.326 188.4 381.831 188.4C370.513 188.4 360.256 196.888 360.256 212.627C360.256 228.366 370.513 237.208 381.831 237.208C393.326 237.208 403.406 228.543 403.406 212.804Z" fill="#FC5200"/>
<path d="M523.607 262.143V208.56C523.607 195.12 516.18 187.693 504.685 187.693C493.191 187.693 485.763 195.12 485.763 208.56V262.143H455.523V163.465H485.763V176.552C491.776 168.24 502.386 162.404 515.649 162.404C538.462 162.404 553.671 177.966 553.671 204.493V262.143H523.607Z" fill="#FC5200"/>
<path d="M568.672 212.627C568.672 181.503 587.947 162.051 612.175 162.051C625.261 162.051 636.579 168.063 642.592 177.082V131.28H672.832V262.143H642.592V247.996C637.11 257.015 626.676 263.558 612.175 263.558C587.947 263.558 568.672 243.752 568.672 212.627ZM642.592 212.804C642.592 197.065 632.512 188.4 621.017 188.4C609.699 188.4 599.442 196.888 599.442 212.627C599.442 228.366 609.699 237.208 621.017 237.208C632.512 237.208 642.592 228.543 642.592 212.804Z" fill="#FC5200"/>
<path d="M738.212 186.278C728.309 186.278 720.705 192.291 718.936 203.255H756.781C756.781 192.467 748.292 186.278 738.212 186.278ZM785.429 229.427C780.654 248.703 763.147 263.558 738.566 263.558C709.564 263.558 688.696 244.105 688.696 212.804C688.696 181.503 709.21 162.051 738.566 162.051C767.391 162.051 787.728 181.149 787.728 211.213C787.728 214.042 787.551 217.048 787.197 220.055H718.759C719.821 232.964 727.778 238.977 737.505 238.977C745.993 238.977 750.768 234.733 753.244 229.427H785.429Z" fill="#FC5200"/>
<path d="M803.681 262.143V131.28H833.921V262.143H803.681Z" fill="#FC5200"/>
</svg>
