<svg width="221" height="40" viewBox="0 0 221 40" fill="none" xmlns="http://www.w3.org/2000/svg">
<path d="M12.3771 31.3608C9.9797 31.3608 7.84717 30.859 5.97946 29.8555C4.13962 28.8519 2.67612 27.486 1.58895 25.7577C0.529649 24.0015 0 22.0083 0 19.7782C0 17.5202 0.529649 15.5271 1.58895 13.7987C2.67612 12.0425 4.13962 10.6766 5.97946 9.70094C7.84717 8.69739 9.9797 8.19562 12.3771 8.19562C14.7465 8.19562 16.8651 8.69739 18.7328 9.70094C20.6006 10.6766 22.0641 12.0286 23.1234 13.7569C24.1826 15.4853 24.7123 17.4924 24.7123 19.7782C24.7123 22.0083 24.1826 24.0015 23.1234 25.7577C22.0641 27.486 20.6006 28.8519 18.7328 29.8555C16.8651 30.859 14.7465 31.3608 12.3771 31.3608ZM12.3771 26.0085C13.4642 26.0085 14.4399 25.7577 15.3041 25.2559C16.1682 24.7541 16.8512 24.0433 17.353 23.1234C17.8547 22.1756 18.1056 21.0605 18.1056 19.7782C18.1056 18.468 17.8547 17.353 17.353 16.4331C16.8512 15.5131 16.1682 14.8023 15.3041 14.3005C14.4399 13.7987 13.4642 13.5479 12.3771 13.5479C11.2899 13.5479 10.3142 13.7987 9.45005 14.3005C8.58589 14.8023 7.88898 15.5131 7.35933 16.4331C6.85756 17.353 6.60667 18.468 6.60667 19.7782C6.60667 21.0605 6.85756 22.1756 7.35933 23.1234C7.88898 24.0433 8.58589 24.7541 9.45005 25.2559C10.3142 25.7577 11.2899 26.0085 12.3771 26.0085Z" fill="black"/>
<path d="M29.0724 31.0263V0H35.5955V14.7605L34.132 12.8788C34.9404 11.3735 36.0972 10.2166 37.6026 9.40824C39.1079 8.59983 40.8223 8.19562 42.7457 8.19562C44.5298 8.19562 46.1188 8.55801 47.5126 9.28279C48.9343 9.9797 50.0493 11.0669 50.8577 12.5443C51.6661 13.9939 52.0703 15.8616 52.0703 18.1474V31.0263H45.5473V19.151C45.5473 17.339 45.1431 16.001 44.3347 15.1368C43.5541 14.2726 42.4391 13.8406 40.9895 13.8406C39.9581 13.8406 39.0242 14.0636 38.188 14.5096C37.3795 14.9277 36.7384 15.5828 36.2645 16.4749C35.8185 17.3669 35.5955 18.5098 35.5955 19.9036V31.0263H29.0724Z" fill="black"/>
<path d="M57.9831 31.0263V8.53013H64.2135V14.6768L63.0427 12.8788C63.8232 11.3456 64.9243 10.1888 66.346 9.40824C67.7956 8.59983 69.4403 8.19562 71.2801 8.19562C73.343 8.19562 75.141 8.72527 76.6742 9.78457C78.2352 10.816 79.2667 12.4049 79.7684 14.5514L77.4686 13.9242C78.2213 12.168 79.42 10.7742 81.0647 9.74275C82.7373 8.71133 84.6468 8.19562 86.7933 8.19562C88.5773 8.19562 90.1523 8.55801 91.5183 9.28279C92.9121 9.9797 93.9993 11.0669 94.7798 12.5443C95.5882 13.9939 95.9924 15.8616 95.9924 18.1474V31.0263H89.4694V19.151C89.4694 17.339 89.0931 16.001 88.3404 15.1368C87.5877 14.2726 86.5284 13.8406 85.1625 13.8406C84.2147 13.8406 83.3645 14.0636 82.6118 14.5096C81.8592 14.9277 81.2738 15.5689 80.8556 16.4331C80.4375 17.2972 80.2284 18.3983 80.2284 19.7364V31.0263H73.7054V19.151C73.7054 17.339 73.329 16.001 72.5764 15.1368C71.8516 14.2726 70.8062 13.8406 69.4403 13.8406C68.4925 13.8406 67.6423 14.0636 66.8896 14.5096C66.137 14.9277 65.5516 15.5689 65.1334 16.4331C64.7153 17.2972 64.5062 18.3983 64.5062 19.7364V31.0263H57.9831Z" fill="black"/>
<path d="M104.315 39.4728C103.144 39.4728 101.987 39.2916 100.845 38.9292C99.7016 38.5668 98.7677 38.065 98.043 37.4239L100.426 32.7825C100.928 33.2285 101.5 33.577 102.141 33.8278C102.81 34.0787 103.465 34.2042 104.106 34.2042C105.026 34.2042 105.751 33.9812 106.28 33.5351C106.838 33.117 107.34 32.4061 107.786 31.4026L108.957 28.6429L109.458 27.932L117.528 8.53013H123.801L113.64 32.4061C112.915 34.2181 112.079 35.6398 111.131 36.6712C110.211 37.7026 109.18 38.4274 108.037 38.8456C106.922 39.2637 105.681 39.4728 104.315 39.4728ZM108.162 31.9044L98.1266 8.53013H104.859L112.636 27.3466L108.162 31.9044Z" fill="black"/>
<path d="M136.722 31.3608C134.296 31.3608 132.136 30.873 130.24 29.8973C128.345 28.8937 126.853 27.5139 125.766 25.7577C124.707 24.0015 124.177 22.0083 124.177 19.7782C124.177 17.5202 124.707 15.5271 125.766 13.7987C126.853 12.0425 128.345 10.6766 130.24 9.70094C132.136 8.69739 134.296 8.19562 136.722 8.19562C139.091 8.19562 141.154 8.69739 142.91 9.70094C144.666 10.6766 145.963 12.0844 146.799 13.9242L141.739 16.6421C141.154 15.5828 140.415 14.8023 139.523 14.3005C138.659 13.7987 137.711 13.5479 136.68 13.5479C135.565 13.5479 134.561 13.7987 133.669 14.3005C132.777 14.8023 132.066 15.5131 131.537 16.4331C131.035 17.353 130.784 18.468 130.784 19.7782C130.784 21.0884 131.035 22.2034 131.537 23.1234C132.066 24.0433 132.777 24.7541 133.669 25.2559C134.561 25.7577 135.565 26.0085 136.68 26.0085C137.711 26.0085 138.659 25.7716 139.523 25.2977C140.415 24.7959 141.154 24.0015 141.739 22.9143L146.799 25.674C145.963 27.486 144.666 28.8937 142.91 29.8973C141.154 30.873 139.091 31.3608 136.722 31.3608Z" fill="black"/>
<path d="M164.353 31.0263V26.6358L163.935 25.674V17.8129C163.935 16.4191 163.503 15.3319 162.639 14.5514C161.803 13.7709 160.506 13.3806 158.75 13.3806C157.552 13.3806 156.367 13.5757 155.196 13.966C154.053 14.3284 153.077 14.8302 152.269 15.4713L149.927 10.9136C151.154 10.0494 152.631 9.38036 154.36 8.90646C156.088 8.43257 157.844 8.19562 159.628 8.19562C163.057 8.19562 165.719 9.00403 167.615 10.6209C169.51 12.2377 170.458 14.7605 170.458 18.1893V31.0263H164.353ZM157.496 31.3608C155.74 31.3608 154.234 31.0681 152.98 30.4827C151.725 29.8694 150.764 29.0471 150.095 28.0156C149.426 26.9842 149.091 25.8274 149.091 24.545C149.091 23.207 149.412 22.0362 150.053 21.0326C150.722 20.0291 151.767 19.2486 153.189 18.691C154.611 18.1056 156.464 17.8129 158.75 17.8129H164.73V21.618H159.461C157.928 21.618 156.869 21.8689 156.283 22.3707C155.726 22.8725 155.447 23.4997 155.447 24.2523C155.447 25.0886 155.767 25.7577 156.409 26.2594C157.078 26.7333 157.984 26.9703 159.127 26.9703C160.214 26.9703 161.189 26.7194 162.054 26.2176C162.918 25.688 163.545 24.9214 163.935 23.9178L164.939 26.9285C164.465 28.378 163.601 29.4791 162.346 30.2318C161.092 30.9845 159.475 31.3608 157.496 31.3608Z" fill="black"/>
<path d="M183.93 31.3608C182.007 31.3608 180.153 31.1378 178.369 30.6918C176.613 30.2179 175.219 29.6325 174.188 28.9356L176.362 24.2523C177.393 24.8935 178.606 25.4231 180 25.8413C181.421 26.2316 182.815 26.4267 184.181 26.4267C185.687 26.4267 186.746 26.2455 187.359 25.8831C188 25.5207 188.321 25.0189 188.321 24.3778C188.321 23.8481 188.07 23.4579 187.568 23.207C187.094 22.9282 186.453 22.7191 185.645 22.5798C184.836 22.4404 183.944 22.301 182.969 22.1616C182.021 22.0222 181.059 21.841 180.083 21.618C179.108 21.3672 178.216 21.0048 177.407 20.5309C176.599 20.057 175.944 19.4158 175.442 18.6074C174.968 17.799 174.731 16.7536 174.731 15.4713C174.731 14.0496 175.135 12.7952 175.944 11.708C176.78 10.6209 177.979 9.77063 179.54 9.15735C181.101 8.5162 182.969 8.19562 185.143 8.19562C186.676 8.19562 188.237 8.36288 189.826 8.69739C191.415 9.03191 192.739 9.51974 193.799 10.1609L191.624 14.8023C190.537 14.1611 189.436 13.7291 188.321 13.506C187.234 13.2552 186.174 13.1297 185.143 13.1297C183.693 13.1297 182.634 13.3248 181.965 13.7151C181.296 14.1054 180.962 14.6072 180.962 15.2204C180.962 15.778 181.198 16.1961 181.672 16.4749C182.174 16.7536 182.829 16.9766 183.638 17.1439C184.446 17.3112 185.324 17.4645 186.272 17.6039C187.248 17.7154 188.223 17.8966 189.199 18.1474C190.175 18.3983 191.053 18.7607 191.833 19.2346C192.642 19.6806 193.297 20.3079 193.799 21.1163C194.3 21.8968 194.551 22.9282 194.551 24.2105C194.551 25.6043 194.133 26.8448 193.297 27.932C192.46 28.9913 191.248 29.8276 189.659 30.4409C188.098 31.0541 186.188 31.3608 183.93 31.3608Z" fill="black"/>
<path d="M209.74 31.3608C207.176 31.3608 204.918 30.859 202.966 29.8555C201.043 28.8519 199.552 27.486 198.492 25.7577C197.433 24.0015 196.903 22.0083 196.903 19.7782C196.903 17.5202 197.419 15.5271 198.45 13.7987C199.51 12.0425 200.945 10.6766 202.757 9.70094C204.569 8.69739 206.618 8.19562 208.904 8.19562C211.106 8.19562 213.085 8.66952 214.842 9.61731C216.626 10.5372 218.033 11.8753 219.065 13.6315C220.096 15.3598 220.612 17.4366 220.612 19.8618C220.612 20.1127 220.598 20.4054 220.57 20.7399C220.542 21.0466 220.514 21.3393 220.487 21.618H202.214V17.8129H217.058L214.549 18.9419C214.549 17.7711 214.312 16.7536 213.838 15.8895C213.364 15.0253 212.709 14.3563 211.873 13.8824C211.037 13.3806 210.061 13.1297 208.946 13.1297C207.831 13.1297 206.841 13.3806 205.977 13.8824C205.141 14.3563 204.486 15.0392 204.012 15.9313C203.538 16.7954 203.301 17.8269 203.301 19.0255V20.0291C203.301 21.2556 203.566 22.3428 204.095 23.2906C204.653 24.2105 205.419 24.9214 206.395 25.4231C207.399 25.897 208.569 26.134 209.908 26.134C211.106 26.134 212.152 25.9528 213.044 25.5904C213.964 25.228 214.8 24.6844 215.552 23.9596L219.023 27.7229C217.992 28.8937 216.695 29.7997 215.134 30.4409C213.573 31.0541 211.775 31.3608 209.74 31.3608Z" fill="black"/>
</svg>
