<?xml version="1.0" encoding="utf-8"?>
<svg xmlns:xlink="http://www.w3.org/1999/xlink"  xmlns="http://www.w3.org/2000/svg" fill="none" height="100%" overflow="visible" preserveAspectRatio="none" style="display: block;" viewBox="0 0 22 22" width="100%">
<g id="Highlight_05">
<path clip-rule="evenodd" d="M12.9986 11.0662C9.31043 7.34461 5.15681 4.10211 1.5403 0.280718C1.21804 -0.0761769 0.645122 -0.095297 0.287052 0.237875C-0.071019 0.571402 -0.106686 1.13223 0.251385 1.48913C3.8679 5.3215 8.02152 8.57462 11.7096 12.3071C12.0677 12.6555 12.6405 12.6605 12.9986 12.3178C13.3208 11.9754 13.3566 11.4146 12.9986 11.0662Z" fill="var(--fill-0, white)" fill-rule="evenodd" id="Vector"/>
<path clip-rule="evenodd" d="M19.2561 0.933223C19.3636 3.06326 19.4708 5.1933 19.5782 7.32369C19.5782 7.81159 20.0081 8.18831 20.5094 8.16458C21.0107 8.14051 21.3685 7.7252 21.3685 7.23694C21.2611 5.10337 21.1539 2.97014 21.0465 0.836917C21.0107 0.349019 20.5809 -0.0252245 20.0796 0.00133015C19.6141 0.0278848 19.2203 0.445679 19.2561 0.933223Z" fill="var(--fill-0, white)" fill-rule="evenodd" id="Vector_2"/>
<path clip-rule="evenodd" d="M8.03007 19.8293C5.73842 19.1935 3.33913 18.8727 1.01167 18.5788C0.510372 18.5172 0.0449503 18.861 0.0091432 19.3453C-0.062471 19.8301 0.29581 20.2733 0.761302 20.3349C3.01715 20.6178 5.3444 20.9206 7.52863 21.5327C7.99412 21.6655 8.49563 21.3922 8.63886 20.922C8.78209 20.4521 8.49556 19.9625 8.03007 19.8293Z" fill="var(--fill-0, white)" fill-rule="evenodd" id="Vector_3"/>
</g>
</svg>