<svg width="1432" height="412" viewBox="0 0 1432 412" fill="none" xmlns="http://www.w3.org/2000/svg">
<path d="M107.202 411.23C86.8527 411.23 69.072 406.883 53.8595 398.191C38.8446 389.3 27.1883 376.952 18.8906 361.147C10.5929 345.145 6.44404 326.277 6.44404 304.545C6.44404 282.22 10.7905 262.76 19.4833 246.165C28.1761 229.372 40.3263 216.333 55.9339 207.047C71.5415 197.762 89.7174 193.119 110.462 193.119C120.735 193.119 129.527 194.107 136.837 196.082C144.146 197.86 150.37 200.132 155.506 202.898C160.841 205.467 165.385 207.739 169.138 209.714C172.892 211.492 176.251 212.381 179.214 212.381C182.178 212.381 184.45 210.998 186.03 208.232C187.808 205.467 189.092 200.923 189.883 194.601H202.033C201.638 201.12 201.341 207.936 201.144 215.048C200.946 221.963 200.749 230.063 200.551 239.349C200.551 248.634 200.551 260.192 200.551 274.021H188.697C186.919 260.192 182.869 248.239 176.547 238.164C170.422 228.088 162.52 220.383 152.839 215.048C143.356 209.517 132.589 206.751 120.537 206.751C106.313 206.751 94.1626 210.603 84.0868 218.308C74.2086 225.816 66.6024 236.781 61.2682 251.203C56.1315 265.625 53.5631 283.109 53.5631 303.656C53.5631 333.686 59.0949 357.097 70.1586 373.89C81.4197 390.683 97.1261 399.08 117.278 399.08C125.18 399.08 131.996 397.894 137.726 395.524C143.455 393.153 147.801 389.794 150.765 385.448C153.926 380.904 155.506 375.668 155.506 369.741V342.774C155.506 336.452 154.716 331.71 153.136 328.549C151.555 325.191 148.493 322.82 143.949 321.437C139.602 320.054 133.182 319.165 124.686 318.77V307.509C128.638 307.706 134.762 307.904 143.06 308.101C151.555 308.299 161.828 308.398 173.88 308.398C184.548 308.398 193.735 308.299 201.44 308.101C209.343 307.904 215.862 307.706 220.999 307.509V318.77C215.27 319.165 210.923 320.054 207.96 321.437C204.996 322.82 203.021 325.289 202.033 328.846C201.243 332.204 200.847 337.341 200.847 344.256V408.859H188.994C188.203 403.525 186.919 399.771 185.141 397.598C183.363 395.227 180.795 394.042 177.436 394.042C174.077 394.042 170.324 394.931 166.175 396.709C162.026 398.289 157.186 400.265 151.654 402.636C146.32 405.007 139.998 406.982 132.688 408.563C125.575 410.341 117.08 411.23 107.202 411.23Z" fill="white"/>
<path d="M292.064 411.23C279.025 411.23 268.653 407.871 260.948 401.154C253.243 394.239 249.39 384.954 249.39 373.298C249.39 364.21 251.465 356.9 255.614 351.368C259.96 345.639 265.492 340.996 272.209 337.44C278.926 333.883 286.039 331.019 293.546 328.846C301.251 326.475 308.462 324.302 315.179 322.326C321.896 320.153 327.33 317.683 331.478 314.917C335.825 311.954 337.998 308.101 337.998 303.36V289.135C337.998 280.245 335.627 273.429 330.886 268.687C326.144 263.946 319.131 261.575 309.845 261.575C303.128 261.575 297.596 262.563 293.25 264.538C288.903 266.514 286.73 269.082 286.73 272.243C286.73 274.614 287.52 276.985 289.101 279.356C290.681 281.726 292.163 284.295 293.546 287.061C295.127 289.629 295.917 292.494 295.917 295.655C295.917 300.001 294.139 303.557 290.583 306.323C287.224 308.892 282.68 310.176 276.951 310.176C270.431 310.176 265.196 308.299 261.244 304.545C257.491 300.594 255.614 295.457 255.614 289.135C255.614 281.233 258.38 274.417 263.911 268.687C269.641 262.76 277.543 258.118 287.619 254.759C297.695 251.4 309.252 249.721 322.292 249.721C335.726 249.721 346.592 251.598 354.89 255.352C363.187 258.908 369.213 264.835 372.967 273.132C376.918 281.233 378.894 292.099 378.894 305.731V382.188C378.894 386.732 379.585 389.992 380.968 391.967C382.351 393.943 384.623 394.931 387.784 394.931C390.353 394.931 393.02 394.338 395.786 393.153C398.551 391.967 401.317 390.387 404.083 388.411L408.825 397.894C403.688 402.241 397.86 405.501 391.34 407.674C384.821 410.045 377.511 411.23 369.411 411.23C348.864 411.23 338.492 403.13 338.294 386.929C332.565 395.03 325.848 401.154 318.143 405.303C310.438 409.254 301.745 411.23 292.064 411.23ZM311.03 389.3C316.365 389.3 321.304 388.115 325.848 385.744C330.392 383.176 334.442 379.521 337.998 374.779V319.659C336.22 322.622 333.454 325.289 329.7 327.66C326.144 329.833 322.094 332.007 317.55 334.18C313.006 336.353 308.66 338.823 304.511 341.588C300.362 344.354 296.905 347.812 294.139 351.961C291.373 355.912 289.99 360.95 289.99 367.074C289.99 373.989 291.867 379.422 295.62 383.373C299.374 387.325 304.511 389.3 311.03 389.3Z" fill="white"/>
<path d="M420.396 407.081V395.524C431.065 395.326 438.375 393.745 442.326 390.782C446.475 387.621 448.549 382.089 448.549 374.187V291.506C448.549 282.22 446.376 275.701 442.03 271.947C437.881 267.996 430.67 265.823 420.396 265.427V253.87C425.928 254.067 430.571 254.265 434.325 254.463C438.276 254.66 442.523 254.759 447.067 254.759C463.268 254.759 477.394 253.376 489.445 250.61V371.816C489.445 380.509 492.112 386.633 497.446 390.189C502.978 393.548 512.56 395.326 526.192 395.524V407.081C522.438 406.883 517.4 406.785 511.078 406.785C504.954 406.587 498.237 406.39 490.927 406.192C483.814 405.994 476.801 405.896 469.886 405.896C459.81 405.896 450.13 406.093 440.844 406.488C431.756 406.686 424.94 406.883 420.396 407.081ZM539.231 308.99C534.292 308.99 530.341 307.607 527.377 304.841C524.414 302.076 522.932 298.519 522.932 294.173C522.932 291.21 523.426 288.641 524.414 286.468C525.402 284.097 526.389 281.924 527.377 279.948C528.365 277.775 528.859 275.701 528.859 273.725C528.859 269.379 526.093 267.205 520.561 267.205C516.412 267.205 512.165 268.193 507.818 270.169C503.67 272.145 499.817 274.91 496.261 278.467C492.902 281.825 490.334 285.777 488.556 290.32L487.963 277.874C492.705 268.984 499.126 262.069 507.226 257.13C515.326 252.191 523.821 249.721 532.712 249.721C541.997 249.721 549.307 252.487 554.641 258.019C560.173 263.353 562.939 270.762 562.939 280.245C562.939 288.938 560.766 295.951 556.419 301.285C552.073 306.422 546.344 308.99 539.231 308.99Z" fill="white"/>
<path d="M625.443 411.23C612.403 411.23 602.031 407.871 594.326 401.154C586.621 394.239 582.769 384.954 582.769 373.298C582.769 364.21 584.843 356.9 588.992 351.368C593.338 345.639 598.87 340.996 605.587 337.44C612.305 333.883 619.417 331.019 626.924 328.846C634.629 326.475 641.84 324.302 648.558 322.326C655.275 320.153 660.708 317.683 664.857 314.917C669.203 311.954 671.376 308.101 671.376 303.36V289.135C671.376 280.245 669.006 273.429 664.264 268.687C659.522 263.946 652.509 261.575 643.223 261.575C636.506 261.575 630.974 262.563 626.628 264.538C622.282 266.514 620.108 269.082 620.108 272.243C620.108 274.614 620.899 276.985 622.479 279.356C624.06 281.726 625.541 284.295 626.924 287.061C628.505 289.629 629.295 292.494 629.295 295.655C629.295 300.001 627.517 303.557 623.961 306.323C620.602 308.892 616.058 310.176 610.329 310.176C603.809 310.176 598.574 308.299 594.623 304.545C590.869 300.594 588.992 295.457 588.992 289.135C588.992 281.233 591.758 274.417 597.29 268.687C603.019 262.76 610.922 258.118 620.997 254.759C631.073 251.4 642.631 249.721 655.67 249.721C669.104 249.721 679.97 251.598 688.268 255.352C696.566 258.908 702.591 264.835 706.345 273.132C710.297 281.233 712.272 292.099 712.272 305.731V382.188C712.272 386.732 712.964 389.992 714.347 391.967C715.73 393.943 718.002 394.931 721.163 394.931C723.731 394.931 726.398 394.338 729.164 393.153C731.93 391.967 734.696 390.387 737.462 388.411L742.203 397.894C737.066 402.241 731.238 405.501 724.719 407.674C718.199 410.045 710.889 411.23 702.789 411.23C682.242 411.23 671.87 403.13 671.673 386.929C665.943 395.03 659.226 401.154 651.521 405.303C643.816 409.254 635.123 411.23 625.443 411.23ZM644.409 389.3C649.743 389.3 654.682 388.115 659.226 385.744C663.77 383.176 667.82 379.521 671.376 374.779V319.659C669.598 322.622 666.832 325.289 663.079 327.66C659.522 329.833 655.472 332.007 650.928 334.18C646.384 336.353 642.038 338.823 637.889 341.588C633.74 344.354 630.283 347.812 627.517 351.961C624.751 355.912 623.368 360.95 623.368 367.074C623.368 373.989 625.245 379.422 628.999 383.373C632.753 387.325 637.889 389.3 644.409 389.3Z" fill="white"/>
<path d="M859.867 407.081V395.524C867.177 395.326 872.116 393.745 874.684 390.782C877.45 387.621 878.833 382.089 878.833 374.187V300.693C878.833 290.024 876.66 282.023 872.313 276.689C868.164 271.354 861.941 268.687 853.643 268.687C847.124 268.687 841.098 270.564 835.566 274.318C830.034 278.071 825.293 283.505 821.342 290.617V277.578C826.281 268.687 832.998 261.871 841.493 257.13C850.186 252.191 860.064 249.721 871.128 249.721C886.933 249.721 898.984 254.463 907.282 263.946C915.58 273.231 919.729 286.666 919.729 304.249V374.187C919.729 382.089 921.803 387.621 925.952 390.782C930.101 393.745 937.411 395.326 947.882 395.524V407.081C944.918 406.883 940.769 406.785 935.435 406.785C930.298 406.587 924.569 406.39 918.247 406.192C912.122 405.994 906.097 405.896 900.17 405.896C892.465 405.896 884.76 406.093 877.055 406.488C869.35 406.686 863.62 406.883 859.867 407.081ZM753.775 407.081V395.524C764.443 395.326 771.753 393.745 775.704 390.782C779.853 387.621 781.927 382.089 781.927 374.187V291.506C781.927 282.22 779.754 275.701 775.408 271.947C771.259 267.996 764.048 265.823 753.775 265.427V253.87C757.923 254.067 762.072 254.265 766.221 254.463C770.37 254.66 774.618 254.759 778.964 254.759C787.459 254.759 795.362 254.463 802.672 253.87C809.982 253.08 816.699 251.993 822.823 250.61V374.187C822.823 382.089 824.206 387.621 826.972 390.782C829.738 393.745 834.677 395.326 841.789 395.524V407.081C837.641 406.883 832.01 406.686 824.898 406.488C817.785 406.093 810.377 405.896 802.672 405.896C793.979 405.896 784.99 406.093 775.704 406.488C766.616 406.686 759.306 406.883 753.775 407.081Z" fill="white"/>
<path d="M1075.22 410.341V215.938C1075.22 206.652 1073.15 200.132 1069 196.379C1064.85 192.427 1057.64 190.254 1047.37 189.859V178.301C1051.71 178.499 1055.86 178.697 1059.81 178.894C1063.96 179.092 1068.31 179.191 1072.85 179.191C1080.95 179.191 1088.66 178.894 1095.97 178.301C1103.28 177.511 1110.1 176.425 1116.42 175.042V369.445C1116.42 378.533 1118.49 385.151 1122.64 389.3C1126.79 393.252 1134 395.326 1144.27 395.524V407.081C1140.12 406.686 1135.98 406.488 1131.83 406.488C1127.68 406.291 1123.33 406.192 1118.79 406.192C1110.69 406.192 1102.98 406.488 1095.67 407.081C1088.36 407.871 1081.55 408.958 1075.22 410.341ZM1031.07 411.23C1018.23 411.23 1007.16 408.069 997.878 401.747C988.593 395.227 981.382 386.04 976.245 374.187C971.109 362.333 968.54 348.207 968.54 331.809C968.54 314.621 971.306 299.902 976.838 287.653C982.567 275.404 990.667 266.02 1001.14 259.5C1011.61 252.981 1024.06 249.721 1038.48 249.721C1048.75 249.721 1057.54 251.598 1064.85 255.352C1072.16 259.105 1077.3 263.847 1080.26 269.576L1078.48 279.948C1076.11 275.404 1072.46 271.749 1067.52 268.984C1062.58 266.02 1056.75 264.538 1050.04 264.538C1037.59 264.538 1028.11 270.07 1021.59 281.134C1015.07 292.197 1011.81 308.595 1011.81 330.327C1011.81 350.874 1014.67 366.58 1020.4 377.446C1026.33 388.115 1034.92 393.449 1046.18 393.449C1053.3 393.449 1059.52 391.177 1064.85 386.633C1070.38 382.089 1074.53 375.668 1077.3 367.371L1078.78 378.039C1075.42 388.51 1069.59 396.709 1061.3 402.636C1053.2 408.365 1043.12 411.23 1031.07 411.23Z" fill="white"/>
<path d="M1239.17 411.23C1224.35 411.23 1211.41 408.069 1200.35 401.747C1189.48 395.227 1181.09 385.942 1175.16 373.89C1169.23 361.839 1166.27 347.515 1166.27 330.92C1166.27 313.534 1169.43 298.816 1175.75 286.764C1182.08 274.713 1190.97 265.526 1202.42 259.204C1213.88 252.882 1227.32 249.721 1242.73 249.721C1256.56 249.721 1268.31 252.289 1277.99 257.426C1287.67 262.365 1294.98 270.169 1299.92 280.837C1304.86 291.506 1307.13 305.335 1306.74 322.326H1195.61L1195.31 311.065H1269.7C1269.89 301.384 1269 292.889 1267.03 285.579C1265.25 278.072 1262.29 272.145 1258.14 267.798C1253.99 263.452 1248.56 261.279 1241.84 261.279C1233.34 261.279 1226.03 265.427 1219.91 273.725C1213.98 282.023 1210.43 295.161 1209.24 313.139L1209.83 314.325C1209.64 316.103 1209.54 318.078 1209.54 320.251C1209.54 322.425 1209.54 324.894 1209.54 327.66C1209.54 347.219 1213.19 362.53 1220.5 373.594C1228.01 384.658 1238.88 390.189 1253.1 390.189C1262.78 390.189 1271.18 387.819 1278.29 383.077C1285.6 378.138 1291.72 370.63 1296.66 360.555L1307.33 366.482C1301.6 380.904 1292.91 391.967 1281.25 399.672C1269.6 407.377 1255.57 411.23 1239.17 411.23Z" fill="white"/>
<path d="M1326.89 407.081V395.524C1337.36 395.326 1344.67 393.745 1348.82 390.782C1352.96 387.819 1355.04 382.287 1355.04 374.187V215.938C1355.04 207.047 1352.96 200.626 1348.82 196.675C1344.86 192.526 1337.55 190.254 1326.89 189.859V178.301C1331.03 178.499 1335.18 178.697 1339.33 178.894C1343.48 179.092 1347.53 179.191 1351.48 179.191C1359.98 179.191 1367.98 178.894 1375.49 178.301C1382.99 177.511 1389.81 176.425 1395.93 175.042V374.187C1395.93 382.287 1398.01 387.819 1402.16 390.782C1406.5 393.745 1413.81 395.326 1424.09 395.524V407.081C1421.12 406.883 1416.98 406.785 1411.64 406.785C1406.5 406.587 1400.77 406.39 1394.45 406.192C1388.33 405.994 1382.2 405.896 1376.08 405.896C1366.99 405.896 1357.71 406.093 1348.22 406.488C1338.74 406.686 1331.63 406.883 1326.89 407.081Z" fill="white"/>
<path fill-rule="evenodd" clip-rule="evenodd" d="M355.164 44.0957C388.481 44.0957 411.346 61.0817 421.799 79.7002V47.0361H451.85V226.034H421.799V192.717C411.02 211.989 387.829 228.975 354.838 228.975C307.148 228.975 270.238 191.411 270.238 135.882C270.238 80.0266 307.148 44.0959 355.164 44.0957ZM361.044 69.9004C328.38 69.9004 300.615 93.7453 300.615 135.882C300.615 178.018 328.38 202.843 361.044 202.843C393.708 202.843 421.799 178.345 421.799 136.208C421.799 94.725 393.708 69.9004 361.044 69.9004Z" fill="white"/>
<path fill-rule="evenodd" clip-rule="evenodd" d="M735.797 44.0957C787.733 44.0957 821.703 80.6798 821.703 129.676C821.703 136.208 821.377 141.435 820.724 147.641H677.655C679.942 183.898 705.419 203.823 735.797 203.823C762.581 203.823 779.567 190.104 786.1 170.832H818.11C808.964 203.496 780.22 228.975 735.797 228.975C684.841 228.975 647.277 193.043 647.277 136.208C647.278 79.6996 683.535 44.0957 735.797 44.0957ZM734.49 69.2471C705.419 69.2471 681.248 88.5193 677.981 123.47H790.999C791.326 88.5193 765.194 69.2471 734.49 69.2471Z" fill="white"/>
<path d="M1228.62 168.546C1219.47 204.15 1190.4 228.975 1145.98 228.975C1140.98 228.975 1136.12 228.626 1131.42 227.947V202.147C1136.03 203.262 1140.9 203.823 1145.98 203.823C1172.44 203.823 1190.08 191.084 1196.61 168.546H1228.62Z" fill="white"/>
<path fill-rule="evenodd" clip-rule="evenodd" d="M1345.69 44.0957C1397.63 44.0957 1431.6 80.6798 1431.6 129.676C1431.6 136.208 1431.27 141.435 1430.62 147.641H1287.55C1288.9 168.941 1298.24 184.604 1311.89 193.902V204.314L1326.33 204.849C1330.82 205.015 1333.91 205.561 1335.92 206.184C1337.33 206.623 1337.9 207.006 1338.02 207.09L1338.21 207.285L1338.47 207.537C1338.48 207.546 1338.55 207.618 1338.68 207.819C1338.8 208.033 1339 208.423 1339.21 209.065C1339.64 210.399 1340.04 212.592 1340.04 215.938V228.822C1291.98 226.257 1257.17 190.919 1257.17 136.208C1257.17 79.6996 1293.43 44.0958 1345.69 44.0957ZM1344.39 69.2471C1315.32 69.2472 1291.15 88.5194 1287.88 123.47H1400.9C1401.22 88.5193 1375.09 69.2471 1344.39 69.2471Z" fill="white"/>
<path d="M1395.93 215.063C1384.75 222.387 1371.04 227.228 1355.04 228.584L1355.04 215.938C1355.04 211.019 1354.4 206.856 1353.13 203.449C1373.62 201.346 1387.42 190.488 1394.19 175.421C1394.78 175.296 1395.36 175.171 1395.93 175.042L1395.93 215.063Z" fill="white"/>
<path d="M111.731 178.126C111.31 178.123 110.887 178.119 110.462 178.119C101.583 178.119 93.0232 178.888 84.8115 180.454L29.7246 57.1611V207.994C23.9123 213.384 18.7071 219.405 14.1123 226.034H0V0H32.0107L111.731 178.126Z" fill="white"/>
<path d="M120.538 221.751C123.06 221.751 125.476 221.901 127.794 222.193L126.083 226.034H105.178L104.376 224.24C109.13 222.609 114.477 221.751 120.538 221.751Z" fill="white"/>
<path d="M557.283 113.344L597.786 47.0361H628.817L571.328 135.555L629.144 226.034H595.5L553.037 159.399L512.207 226.034H481.176L538.991 137.188L481.176 47.0361H514.82L557.283 113.344Z" fill="white"/>
<path d="M948.151 43.7695C989.634 43.7697 1021.32 69.2473 1021.32 120.529V226.034H991.921V124.776C991.921 88.1927 971.995 69.5742 941.944 69.5742C911.567 69.5744 890.662 88.5192 890.662 127.062V226.034H860.938V47.0361H890.662V72.5137C902.421 53.8952 923.98 43.7695 948.151 43.7695Z" fill="white"/>
<path d="M230.935 226.034H215.858C215.952 222.247 216.045 218.729 216.138 215.478L216.139 215.465C216.332 208.502 216.621 201.85 217.006 195.508L217.97 179.601H201.21V57.4883L145.342 182.825C143.776 182.373 142.18 181.948 140.555 181.551C134.114 179.828 127.038 178.804 119.421 178.368L199.25 0H230.935V226.034Z" fill="white"/>
<path d="M1098.99 177.953C1103.51 185.67 1109.43 191.691 1116.42 195.976V224.486C1094.02 217.232 1076.59 201.451 1067.01 179.132C1068.92 179.17 1070.87 179.191 1072.85 179.191C1080.95 179.191 1088.66 178.894 1095.97 178.301C1096.99 178.192 1097.99 178.075 1098.99 177.953Z" fill="white"/>
<path d="M202.033 194.601C201.68 200.428 201.405 206.492 201.21 212.793V194.601L202.033 194.601Z" fill="white"/>
<path d="M110.462 193.119C120.735 193.119 129.527 194.107 136.837 196.082C137.626 196.274 138.404 196.474 139.168 196.678L134.109 208.026C129.783 207.177 125.258 206.751 120.537 206.751C112.431 206.751 104.999 208.003 98.2393 210.506L91.124 194.581C97.3009 193.608 103.747 193.119 110.462 193.119Z" fill="white"/>
<path d="M1428.01 170.832C1424.75 182.475 1419 193.203 1410.93 202.191V170.832H1428.01Z" fill="white"/>
<path d="M1145.98 44.0957C1190.4 44.0957 1219.47 66.9608 1228.62 104.524H1196.61C1190.4 82.9662 1172.44 69.2471 1145.98 69.2471C1113.32 69.2472 1089.14 92.4387 1089.14 136.208C1089.14 146.438 1090.43 155.543 1092.8 163.497C1086.51 163.955 1079.86 164.19 1072.85 164.19C1069.06 164.19 1065.43 164.117 1061.97 163.974C1059.87 155.408 1058.77 146.126 1058.77 136.208C1058.77 80.0263 1095.02 44.0958 1145.98 44.0957Z" fill="white"/>
</svg>
