<svg width="102" height="102" viewBox="0 0 102 102" fill="none" xmlns="http://www.w3.org/2000/svg">
<g filter="url(#filter0_d_1351_15747)">
<rect x="29.8438" y="17.0273" width="55.728" height="55.728" rx="6.2694" transform="rotate(13.297 29.8438 17.0273)" fill="#041E18"/>
<rect x="30.4909" y="18.075" width="53.9865" height="53.9865" rx="5.39865" transform="rotate(13.297 30.4909 18.075)" stroke="#36F4A4" stroke-width="1.7415"/>
</g>
<path d="M65.678 42.096C65.6906 41.9069 65.5677 41.7498 65.4161 41.714C65.2645 41.6782 62.611 40.987 62.611 40.987C62.611 40.987 60.8835 38.2741 60.7214 38.0117C60.5593 37.7493 60.0903 37.7025 59.9244 37.7273C59.9244 37.7273 59.4713 37.7483 58.7238 37.7957C58.6957 37.3729 58.6213 36.8752 58.4934 36.3328C58.0634 34.6307 57.0745 33.5327 55.68 33.2031C55.589 33.1816 55.4981 33.1601 55.3696 33.1618C55.3536 33.094 55.3002 33.0493 55.2842 32.9815C54.8355 32.1713 54.1189 31.6818 53.1719 31.49C51.3386 31.1208 49.2115 31.9945 47.2046 33.985C45.787 35.3784 44.5115 37.2537 43.8893 38.8031C41.647 38.9454 40.0843 39.0562 40.0468 39.0794C38.9069 39.1621 38.8695 39.1853 38.5118 40.157C38.2417 40.8935 30.4014 61.6074 30.4014 61.6074L52.6174 71.0831L63.2397 70.9687C63.2165 70.9312 65.6653 42.2851 65.678 42.096ZM57.4858 37.8872C56.9043 37.9098 56.2478 37.9787 55.5682 38.0102C55.7831 37.1007 55.97 35.7684 55.8035 34.5767C57.1032 35.172 57.4048 36.8758 57.4858 37.8872ZM54.2321 38.1105C52.9334 38.1877 51.4992 38.2969 50.0721 38.3758C50.7727 37.0369 51.837 35.784 52.908 35.0448C53.3203 34.7901 53.8682 34.5035 54.4409 34.3827C54.7358 35.5728 54.506 37.0869 54.2321 38.1105ZM52.9156 32.7099C53.3401 32.8102 53.6824 32.9871 53.9426 33.2406C53.393 33.3989 52.822 33.648 52.2526 34.0256C50.8068 34.9963 49.4691 36.7288 48.6682 38.4921C47.498 38.5677 46.3278 38.6432 45.2557 38.7099C46.5802 35.95 50.0747 32.1345 52.9156 32.7099Z" fill="url(#paint0_radial_1351_15747)"/>
<path d="M65.4191 41.7107C65.2675 41.6749 62.614 40.9837 62.614 40.9837C62.614 40.9837 60.8864 38.2708 60.7244 38.0084C60.6549 37.8959 60.5711 37.8441 60.457 37.7852L52.5972 71.0423L63.2195 70.9279C63.2195 70.9279 65.6682 42.2817 65.6881 42.0624C65.6936 41.9036 65.5707 41.7465 65.4191 41.7107Z" fill="#36F4A4"/>
<path d="M53.0438 44.2296L50.86 48.3229C50.86 48.3229 49.6997 47.4085 48.1249 47.1643C45.8153 46.7785 45.4786 48.2034 45.3926 48.5672C45.0553 50.5361 50.0785 52.1714 49.2998 56.8208C48.6594 60.4787 45.9569 62.4327 42.8519 61.891C39.096 61.2594 37.5807 58.5966 37.5807 58.5966L39.157 55.4481C39.157 55.4481 40.8228 57.4743 42.4886 57.7399C43.564 57.93 44.1659 57.144 44.2788 56.5305C44.7291 53.9481 40.5096 53.1109 41.2255 48.8628C41.8444 45.2959 44.9939 42.2631 50.1587 43.1636C52.1651 43.4777 53.0438 44.2296 53.0438 44.2296Z" fill="white"/>
<defs>
<filter id="filter0_d_1351_15747" x="0.000782013" y="0.000782013" width="101.104" height="101.104" filterUnits="userSpaceOnUse" color-interpolation-filters="sRGB">
<feFlood flood-opacity="0" result="BackgroundImageFix"/>
<feColorMatrix in="SourceAlpha" type="matrix" values="0 0 0 0 0 0 0 0 0 0 0 0 0 0 0 0 0 0 127 0" result="hardAlpha"/>
<feMorphology radius="3" operator="erode" in="SourceAlpha" result="effect1_dropShadow_1351_15747"/>
<feOffset/>
<feGaussianBlur stdDeviation="10.65"/>
<feComposite in2="hardAlpha" operator="out"/>
<feColorMatrix type="matrix" values="0 0 0 0 0.211765 0 0 0 0 0.956863 0 0 0 0 0.643137 0 0 0 1 0"/>
<feBlend mode="normal" in2="BackgroundImageFix" result="effect1_dropShadow_1351_15747"/>
<feBlend mode="normal" in="SourceGraphic" in2="effect1_dropShadow_1351_15747" result="shape"/>
</filter>
<radialGradient id="paint0_radial_1351_15747" cx="0" cy="0" r="1" gradientUnits="userSpaceOnUse" gradientTransform="translate(50.4999 50.7195) rotate(103.297) scale(19.3306 17.0555)">
<stop stop-color="#29FFA5"/>
<stop offset="1" stop-color="#199963"/>
</radialGradient>
</defs>
</svg>
