<svg width="500" height="143" viewBox="0 0 500 143" fill="none" xmlns="http://www.w3.org/2000/svg">
<g clip-path="url(#clip0_1220_888)">
<path d="M54.7002 0.400301C58.2001 0.30035 61.1004 1.50034 63.4004 3.9003C63.6002 4.00036 63.7005 4.20042 63.9004 4.4003C64.3002 4.30039 64.6001 4.30069 65 4.30069C70.2 4.30069 74.6 7.3003 77.5 12.9003C78.4 14.7003 79.1 16.4007 79.5 17.8007C82.1 17.0007 83.7002 16.4999 83.7002 16.4999C84.1118 16.3628 84.9933 16.2258 85.7646 16.411C86.1081 16.4568 86.4414 16.6415 86.7002 16.9003C87.501 17.801 95.7998 25.8007 95.7998 25.8007C95.7998 25.8007 105.7 25.9999 106.2 25.9999C106.263 25.9999 106.327 26.0061 106.392 26.0185C106.844 26.1047 107.325 26.4881 107.5 27.1005C107.604 27.8263 122.7 130.1 122.7 130.1L85.5996 139.301L0 124.5C0.0229282 124.323 10.1996 45.6055 10.4004 42.8007C10.9004 39.1007 11.0004 39.0007 14.9004 37.8007C15.1068 37.7985 20.5051 36.0986 28.2002 33.7001C29.1002 27.8002 31.9999 20.2004 35.7998 14.1005C41.2998 5.5005 48.0002 0.600301 54.7002 0.400301ZM65.001 45.0966C64.9911 45.0915 61.2911 43.1979 54.001 43.6972C35.201 44.8972 26.701 57.997 27.501 70.997C28.501 86.4969 43.9007 85.897 44.501 95.2968C44.701 97.4968 43.2008 100.797 39.3008 100.997C33.3235 101.395 25.7584 95.74 25.7012 95.6972L22.8008 107.997C22.8008 107.997 30.3006 115.997 43.9004 115.297C55.3003 114.597 63.1007 105.497 62.3008 92.1972C61.2008 75.2972 42.3008 73.697 41.8008 66.497C41.8008 65.1969 41.8013 59.8974 50.2012 59.3974C55.901 58.9975 60.7012 61.1972 60.7012 61.1972L65.001 45.0966ZM54.9004 4.9003C44.6004 5.2003 35.4996 21.4007 33.0996 32.3007C36.6996 31.2007 40.6999 30.0001 44.7998 28.7001C46.0998 21.8002 49.4002 14.7005 53.7002 10.1005C55.3002 8.3005 57.1004 6.89991 58.9004 5.99991C57.8005 5.19997 56.5002 4.90035 54.9004 4.9003ZM61.7998 9.49991C59.8999 10.2999 58.2 11.7 57 12.9999C53.8 16.4999 51.1998 21.7 49.7998 26.9999C54.6996 25.5 59.5997 24.0005 64.0996 22.6005C64.1996 18.9005 63.7998 13.3999 61.7998 9.49991ZM66.5996 9.1005C68.0996 13.1005 68.5996 17.9007 68.5996 21.3007C70.9996 20.5007 73.2002 19.8001 75.2002 19.2001C74.2002 15.7001 71.6996 9.90049 66.5996 9.1005Z" fill="#DBDBDB"/>
<path d="M172.899 79.4008C168.599 77.1008 166.399 75.1008 166.399 72.4008C166.399 69.0008 169.499 66.8008 174.299 66.8008C179.899 66.8008 184.899 69.1008 184.899 69.1008L188.799 57.1008C188.799 57.1008 185.199 54.3008 174.599 54.3008C159.799 54.3008 149.499 62.8008 149.499 74.7008C149.499 81.5008 154.299 86.6008 160.699 90.3008C165.899 93.2008 167.699 95.3008 167.699 98.4008C167.699 101.601 165.099 104.201 160.299 104.201C153.199 104.201 146.399 100.501 146.399 100.501L142.199 112.501C142.199 112.501 148.399 116.701 158.899 116.701C174.099 116.701 185.099 109.201 185.099 95.7008C184.999 88.4008 179.499 83.2008 172.899 79.4008Z" fill="#DBDBDB"/>
<path d="M233.5 54.1C226 54.1 220.1 57.7 215.6 63.1L215.4 63L221.9 29H205L188.5 115.6H205.4L211 86C213.2 74.8 219 67.9 224.4 67.9C228.2 67.9 229.7 70.5 229.7 74.2C229.7 76.5 229.5 79.4 229 81.7L222.6 115.6H239.5L246.1 80.6C246.8 76.9 247.3 72.5 247.3 69.5C247.4 59.9 242.4 54.1 233.5 54.1Z" fill="#DBDBDB"/>
<path d="M285.701 54.1016C265.301 54.1016 251.801 72.5016 251.801 93.0016C251.801 106.102 259.901 116.702 275.101 116.702C295.101 116.702 308.601 98.8016 308.601 77.8016C308.701 65.7016 301.601 54.1016 285.701 54.1016ZM277.401 103.802C271.601 103.802 269.201 98.9016 269.201 92.7016C269.201 83.0016 274.201 67.2016 283.401 67.2016C289.401 67.2016 291.401 72.4016 291.401 77.4016C291.401 87.8016 286.301 103.802 277.401 103.802Z" fill="#DBDBDB"/>
<path d="M352.003 54.1016C340.603 54.1016 334.103 64.2016 334.103 64.2016H333.903L334.903 55.1016H319.903C319.203 61.2016 317.803 70.6016 316.503 77.6016L304.703 139.602H321.603L326.303 114.502H326.703C326.703 114.502 330.203 116.702 336.603 116.702C356.503 116.702 369.503 96.3016 369.503 75.7016C369.503 64.3016 364.403 54.1016 352.003 54.1016ZM335.803 104.002C331.403 104.002 328.803 101.502 328.803 101.502L331.603 85.7016C333.603 75.1016 339.103 68.1016 345.003 68.1016C350.203 68.1016 351.803 72.9016 351.803 77.4016C351.803 88.4016 345.303 104.002 335.803 104.002Z" fill="#DBDBDB"/>
<path d="M393.7 29.8008C388.3 29.8008 384 34.1008 384 39.6008C384 44.6008 387.2 48.1008 392 48.1008H392.2C397.5 48.1008 402 44.5008 402.1 38.3008C402.1 33.4008 398.8 29.8008 393.7 29.8008Z" fill="#DBDBDB"/>
<path d="M370 115.5H386.9L398.4 55.5H381.4L370 115.5Z" fill="#DBDBDB"/>
<path d="M441.5 55.4008H429.7L430.3 52.6008C431.3 46.8008 434.7 41.7008 440.4 41.7008C443.4 41.7008 445.8 42.6008 445.8 42.6008L449.1 29.3008C449.1 29.3008 446.2 27.8008 439.9 27.8008C433.9 27.8008 427.9 29.5008 423.3 33.4008C417.5 38.3008 414.8 45.4008 413.5 52.6008L413 55.4008H405.1L402.6 68.2008H410.5L401.5 115.601H418.4L427.4 68.2008H439.1L441.5 55.4008Z" fill="#DBDBDB"/>
<path d="M482.297 55.5C482.297 55.5 471.697 82.2 466.997 96.8H466.797C466.497 92.1 462.597 55.5 462.597 55.5H444.797L454.997 110.6C455.197 111.8 455.097 112.6 454.597 113.4C452.597 117.2 449.297 120.9 445.397 123.6C442.197 125.9 438.597 127.4 435.797 128.4L440.497 142.8C443.897 142.1 451.097 139.2 457.097 133.6C464.797 126.4 471.997 115.2 479.297 100L499.997 55.5H482.297Z" fill="#DBDBDB"/>
</g>
<defs>
<clipPath id="clip0_1220_888">
<rect width="500" height="142.8" fill="white"/>
</clipPath>
</defs>
</svg>
